<?xml version="1.0" encoding="UTF-8" standalone="no"?>
<!-- Created with Inkscape (http://www.inkscape.org/) -->

<svg
   xmlns:dc="http://purl.org/dc/elements/1.1/"
   xmlns:cc="http://creativecommons.org/ns#"
   xmlns:rdf="http://www.w3.org/1999/02/22-rdf-syntax-ns#"
   xmlns:svg="http://www.w3.org/2000/svg"
   xmlns="http://www.w3.org/2000/svg"
   xmlns:sodipodi="http://sodipodi.sourceforge.net/DTD/sodipodi-0.dtd"
   xmlns:inkscape="http://www.inkscape.org/namespaces/inkscape"
   width="210mm"
   height="297mm"
   viewBox="0 0 210 297"
   version="1.1"
   id="svg8"
   inkscape:version="0.92.2 (unknown)"
   sodipodi:docname="pirates-in-the-pub.svg">
  <defs
     id="defs2" />
  <sodipodi:namedview
     id="base"
     pagecolor="#ffffff"
     bordercolor="#666666"
     borderopacity="1.0"
     inkscape:pageopacity="0.0"
     inkscape:pageshadow="2"
     inkscape:zoom="0.49497475"
     inkscape:cx="245.88081"
     inkscape:cy="579.60833"
     inkscape:document-units="mm"
     inkscape:current-layer="layer1"
     showgrid="true"
     inkscape:snap-nodes="true"
     inkscape:snap-bbox="true"
     inkscape:bbox-nodes="true"
     inkscape:snap-page="true"
     borderlayer="true"
     inkscape:window-width="1360"
     inkscape:window-height="744"
     inkscape:window-x="0"
     inkscape:window-y="24"
     inkscape:window-maximized="1">
    <inkscape:grid
       type="xygrid"
       id="grid1090"
       units="mm"
       spacingx="0.1"
       spacingy="0.1"
       empspacing="10" />
  </sodipodi:namedview>
  <metadata
     id="metadata5">
    <rdf:RDF>
      <cc:Work
         rdf:about="">
        <dc:format>image/svg+xml</dc:format>
        <dc:type
           rdf:resource="http://purl.org/dc/dcmitype/StillImage" />
        <dc:title></dc:title>
      </cc:Work>
    </rdf:RDF>
  </metadata>
  <g
     inkscape:label="Layer 1"
     inkscape:groupmode="layer"
     id="layer1">
    <rect
       style="opacity:1;fill:#000000;fill-opacity:1;stroke:none;stroke-width:0.26458332"
       id="rect1092"
       width="224"
       height="104"
       x="-8"
       y="-7" />
    <g
       id="g1088"
       transform="matrix(0.26458333,0,0,0.26458333,3.9404309,13.249909)">
      <g
         style="display:none"
         id="Background__x28_for_preview_purposes_x29_">
        <rect
           id="rect980"
           height="262"
           width="261"
           style="display:inline;fill:#000100"
           y="-4"
           x="-5" />
      </g>
      <g
         id="Signet">
        <polygon
           id="polygon983"
           points="139.136,98.864 143.134,97.637 141.052,101.265 144.503,103.625 140.37,104.259 140.676,108.43 137.603,105.593 134.533,108.434 134.835,104.262 130.7,103.633 134.15,101.269 132.064,97.643 136.063,98.866 137.597,94.976 "
           style="fill:#ffffff" />
        <polygon
           id="polygon985"
           points="160.136,73.864 164.134,72.637 162.052,76.265 165.503,78.625 161.37,79.259 161.676,83.43 158.603,80.593 155.533,83.434 155.835,79.262 151.7,78.633 155.15,76.269 153.064,72.643 157.063,73.866 158.597,69.976 "
           style="fill:#ffffff" />
        <polygon
           id="polygon987"
           points="182.136,91.864 186.134,90.637 184.052,94.265 187.503,96.625 183.37,97.259 183.676,101.43 180.603,98.593 177.533,101.434 177.835,97.262 173.7,96.633 177.15,94.269 175.064,90.643 179.063,91.866 180.597,87.976 "
           style="fill:#ffffff" />
        <polygon
           id="polygon989"
           points="163.136,133.863 167.134,132.637 165.052,136.265 168.503,138.625 164.37,139.26 164.676,143.43 161.603,140.594 158.533,143.434 158.835,139.262 154.7,138.633 158.15,136.269 156.064,132.643 160.063,133.865 161.597,129.976 "
           style="fill:#ffffff" />
        <polygon
           id="polygon991"
           points="169.394,113.063 166.881,114.387 167.358,111.587 165.324,109.607 168.134,109.196 169.389,106.649 170.647,109.194 173.457,109.601 171.426,111.584 171.908,114.382 "
           style="fill:#ffffff" />
        <polygon
           id="polygon993"
           points="168.551,132.538 172.72,132.304 169.834,135.319 172.612,138.438 168.455,138.062 167.754,142.177 165.453,138.692 161.799,140.712 163.091,136.738 159.235,135.141 163.145,133.673 161.989,129.664 165.571,131.806 167.99,128.403 "
           style="fill:#ffffff" />
        <polygon
           id="polygon995"
           points="187.517,90.609 191.688,90.38 188.801,93.395 191.579,96.512 187.423,96.133 186.722,100.247 184.421,96.763 180.769,98.781 182.059,94.813 178.201,93.213 182.11,91.749 180.957,87.733 184.541,89.876 186.959,86.473 "
           style="fill:#ffffff" />
        <polygon
           id="polygon997"
           points="166.553,72.643 170.721,72.407 167.835,75.424 170.617,78.537 166.46,78.167 165.757,82.28 163.459,78.797 159.802,80.814 161.093,76.842 157.236,75.243 161.147,73.777 159.991,69.766 163.576,71.91 165.993,68.504 "
           style="fill:#ffffff" />
        <polygon
           id="polygon999"
           points="144.59,97.599 148.762,97.362 145.873,100.38 148.655,103.501 144.498,103.123 143.795,107.236 141.498,103.753 137.841,105.771 139.132,101.799 135.273,100.203 139.185,98.733 138.03,94.722 141.613,96.866 144.031,93.462 "
           style="fill:#ffffff" />
        <polygon
           id="polygon1001"
           points="174.034,111.247 171.477,112.469 172.066,109.695 170.117,107.639 172.938,107.342 174.292,104.852 175.443,107.444 178.229,107.962 176.123,109.86 176.486,112.673 "
           style="fill:#ffffff" />
        <g
           id="g1017">
          <path
             id="path1003"
             d="M 236.486,146.885 C 225.832,206.359 168.975,245.948 109.49,235.291 50.006,224.638 10.42,167.781 21.076,108.307 31.727,48.825 88.584,9.247 148.071,19.905 c 59.483,10.652 99.065,67.504 88.415,126.98 z"
             style="fill:#ffffff;stroke:#ffffff;stroke-width:8;stroke-miterlimit:10"
             inkscape:connector-curvature="0" />
          <path
             id="path1005"
             d="m 145.36,35.036 c -51.125,-9.156 -99.998,24.87 -109.153,75.99 -9.158,51.125 24.864,100.003 75.99,109.164 51.124,9.148 99.992,-24.882 109.15,-76.004 9.158,-51.119 -24.862,-99.993 -75.987,-109.15 z m 91.121,111.86 c -10.653,59.483 -67.51,99.072 -126.995,88.422 C 50,224.66 10.416,167.801 21.074,108.315 31.725,48.832 88.585,9.247 148.071,19.904 c 59.483,10.653 99.065,67.513 88.41,126.992 z"
             style="fill:#000100;stroke:#ffffff;stroke-width:8;stroke-miterlimit:10"
             inkscape:connector-curvature="0" />
          <g
             id="g1015">
            <polygon
               id="polygon1007"
               points="88.291,161.191 100.328,155.942 98.192,150.632 94.897,52.033 87.734,50.753 "
               style="fill:#000100;stroke:#ffffff;stroke-width:8;stroke-miterlimit:10" />
            <path
               id="path1009"
               d="m 77.697,72.382 c 0,0 102.554,-38.904 117.626,31.543 0,0 9.657,33.044 -38.848,44.821 0,0 -33.144,8.24 -36.416,8.267 -3.29,0.033 -3.29,0.033 -3.29,0.033 0,0 -32.593,6.487 -25.002,46.677 0,0 -25.204,-35.945 21.928,-64.487 0,0 18.241,-15.232 12.537,-38.435 0,0.001 -5.646,-27.56 -48.535,-28.419 z"
               style="fill:#000100;stroke:#ffffff;stroke-width:8;stroke-miterlimit:10"
               inkscape:connector-curvature="0" />
            <polygon
               id="polygon1011"
               points="101.04,158.845 88.252,153.215 88.163,172.257 "
               style="fill:#000100;stroke:#ffffff;stroke-width:8;stroke-miterlimit:10" />
            <path
               id="path1013"
               d="m 146.725,151.137 c 0,0 -49.711,8.309 -54.696,29.868 -4.984,21.564 -6.068,-32.612 25.806,-35.055 31.871,-2.42 2.732,-1.481 2.732,-1.481 l 30.386,-2.719 -3.832,7.167"
               style="fill:#000100;stroke:#ffffff;stroke-width:8;stroke-miterlimit:10"
               inkscape:connector-curvature="0" />
          </g>
        </g>
        <g
           id="g1033">
          <path
             id="path1019"
             d="M 236.486,146.885 C 225.832,206.359 168.975,245.948 109.49,235.291 50.006,224.638 10.42,167.781 21.076,108.307 31.727,48.825 88.584,9.247 148.071,19.905 c 59.483,10.652 99.065,67.504 88.415,126.98 z"
             style="fill:#ffffff"
             inkscape:connector-curvature="0" />
          <path
             id="path1021"
             d="m 145.36,35.036 c -51.125,-9.156 -99.998,24.87 -109.153,75.99 -9.158,51.125 24.864,100.003 75.99,109.164 51.124,9.148 99.992,-24.882 109.15,-76.004 9.158,-51.119 -24.862,-99.993 -75.987,-109.15 z m 91.121,111.86 c -10.653,59.483 -67.51,99.072 -126.995,88.422 C 50,224.66 10.416,167.801 21.074,108.315 31.725,48.832 88.585,9.247 148.071,19.904 c 59.483,10.653 99.065,67.513 88.41,126.992 z"
             style="fill:#000100"
             inkscape:connector-curvature="0" />
          <g
             id="g1031">
            <polygon
               id="polygon1023"
               points="88.291,161.191 100.328,155.942 98.192,150.632 94.897,52.033 87.734,50.753 "
               style="fill:#000100" />
            <path
               id="path1025"
               d="m 77.697,72.382 c 0,0 102.554,-38.904 117.626,31.543 0,0 9.657,33.044 -38.848,44.821 0,0 -33.144,8.24 -36.416,8.267 -3.29,0.033 -3.29,0.033 -3.29,0.033 0,0 -32.593,6.487 -25.002,46.677 0,0 -25.204,-35.945 21.928,-64.487 0,0 18.241,-15.232 12.537,-38.435 0,0.001 -5.646,-27.56 -48.535,-28.419 z"
               style="fill:#000100"
               inkscape:connector-curvature="0" />
            <polygon
               id="polygon1027"
               points="101.04,158.845 88.252,153.215 88.163,172.257 "
               style="fill:#000100" />
            <path
               id="path1029"
               d="m 146.725,151.137 c 0,0 -49.711,8.309 -54.696,29.868 -4.984,21.564 -6.068,-32.612 25.806,-35.055 31.871,-2.42 2.732,-1.481 2.732,-1.481 l 30.386,-2.719 -3.832,7.167"
               style="fill:#000100"
               inkscape:connector-curvature="0" />
          </g>
        </g>
        <polygon
           id="polygon1035"
           points="139.129,97.413 142.922,95.705 141.316,99.548 145.02,101.449 141.016,102.583 141.841,106.666 138.453,104.25 135.773,107.433 135.555,103.28 131.391,103.169 134.509,100.409 131.994,97.088 136.098,97.794 137.124,93.766 "
           style="fill:#ffffff" />
        <polygon
           id="polygon1037"
           points="159.533,72.713 163.326,71.004 161.723,74.848 165.423,76.749 161.421,77.884 162.245,81.966 158.857,79.55 156.179,82.733 155.959,78.579 151.795,78.469 154.912,75.709 152.399,72.388 156.501,73.095 157.529,69.066 "
           style="fill:#ffffff" />
        <polygon
           id="polygon1039"
           points="182.085,90.97 185.88,89.26 184.273,93.104 187.976,95.005 183.973,96.141 184.798,100.222 181.409,97.806 178.73,100.99 178.512,96.836 174.348,96.725 177.465,93.966 174.952,90.645 179.054,91.352 180.081,87.322 "
           style="fill:#ffffff" />
        <polygon
           id="polygon1041"
           points="162.755,131.779 166.549,130.07 164.943,133.914 168.646,135.815 164.643,136.949 165.467,141.032 162.078,138.615 159.4,141.799 159.181,137.646 155.018,137.534 158.134,134.775 155.621,131.453 159.724,132.16 160.75,128.131 "
           style="fill:#ffffff" />
        <polygon
           id="polygon1043"
           points="170.051,111.706 167.812,113.434 167.807,110.608 165.479,109.012 168.159,108.131 168.958,105.418 170.626,107.701 173.45,107.624 171.794,109.91 172.745,112.575 "
           style="fill:#ffffff" />
      </g>
    </g>
    <text
       xml:space="preserve"
       style="font-style:normal;font-weight:normal;font-size:10.58333302px;line-height:1.25;font-family:sans-serif;letter-spacing:0px;word-spacing:0px;fill:#ffffff;fill-opacity:1;stroke:none;stroke-width:0.26458332"
       x="79.647675"
       y="48.0224"
       id="text1096"><tspan
         sodipodi:role="line"
         id="tspan1094"
         x="79.647675"
         y="48.0224"
         style="font-style:normal;font-variant:normal;font-weight:bold;font-stretch:normal;font-size:33.86666489px;font-family:'Gehen Sans';-inkscape-font-specification:'Gehen Sans Bold';fill:#ffffff;stroke-width:0.26458332">Pirates</tspan></text>
    <text
       xml:space="preserve"
       style="font-style:normal;font-weight:normal;font-size:10.58333302px;line-height:1.25;font-family:sans-serif;letter-spacing:0px;word-spacing:0px;fill:#000000;fill-opacity:1;stroke:none;stroke-width:0.26458332"
       x="139.79131"
       y="72.720947"
       id="text1100"><tspan
         sodipodi:role="line"
         id="tspan1098"
         x="139.79131"
         y="72.720947"
         style="font-style:italic;font-variant:normal;font-weight:bold;font-stretch:normal;font-size:22.57777786px;font-family:'Open Sans';-inkscape-font-specification:'Open Sans Bold Italic';text-align:center;text-anchor:middle;fill:#ffffff;stroke-width:0.26458332">in the Pub!</tspan></text>
    <text
       xml:space="preserve"
       style="font-style:normal;font-weight:normal;font-size:10.58333302px;line-height:1.25;font-family:sans-serif;letter-spacing:0px;word-spacing:0px;fill:#000000;fill-opacity:1;stroke:none;stroke-width:0.26458332"
       x="105.12117"
       y="129.08171"
       id="text1104"><tspan
         sodipodi:role="line"
         id="tspan1102"
         x="105.12117"
         y="129.08171"
         style="font-style:normal;font-variant:normal;font-weight:600;font-stretch:normal;font-size:21.16666603px;line-height:1.5;font-family:'Open Sans';-inkscape-font-specification:'Open Sans Semi-Bold';text-align:center;text-anchor:middle;stroke-width:0.26458332">Civil Liberties</tspan><tspan
         sodipodi:role="line"
         x="105.12117"
         y="160.83171"
         style="font-style:normal;font-variant:normal;font-weight:600;font-stretch:normal;font-size:21.16666603px;line-height:1.5;font-family:'Open Sans';-inkscape-font-specification:'Open Sans Semi-Bold';text-align:center;text-anchor:middle;stroke-width:0.26458332"
         id="tspan1106">Basic Income</tspan><tspan
         sodipodi:role="line"
         x="105.12117"
         y="192.58171"
         style="font-style:normal;font-variant:normal;font-weight:600;font-stretch:normal;font-size:21.16666603px;line-height:1.5;font-family:'Open Sans';-inkscape-font-specification:'Open Sans Semi-Bold';text-align:center;text-anchor:middle;stroke-width:0.26458332"
         id="tspan1108">Copyright Reform</tspan><tspan
         sodipodi:role="line"
         x="105.12117"
         y="224.33171"
         style="font-style:normal;font-variant:normal;font-weight:600;font-stretch:normal;font-size:21.16666603px;line-height:1.5;font-family:'Open Sans';-inkscape-font-specification:'Open Sans Semi-Bold';text-align:center;text-anchor:middle;stroke-width:0.26458332"
         id="tspan4811">Net Neutrality</tspan><tspan
         sodipodi:role="line"
         x="105.12117"
         y="256.0817"
         style="font-style:normal;font-variant:normal;font-weight:600;font-stretch:normal;font-size:21.16666603px;line-height:1.5;font-family:'Open Sans';-inkscape-font-specification:'Open Sans Semi-Bold';text-align:center;text-anchor:middle;stroke-width:0.26458332"
         id="tspan4815">Transparency</tspan><tspan
         sodipodi:role="line"
         x="105.12117"
         y="275.79495"
         style="font-style:normal;font-variant:normal;font-weight:600;font-stretch:normal;font-size:21.16666603px;line-height:1.5;font-family:'Open Sans';-inkscape-font-specification:'Open Sans Semi-Bold';text-align:center;text-anchor:middle;stroke-width:0.26458332"
         id="tspan1114" /></text>
  </g>
</svg>
