<?xml version="1.0" encoding="UTF-8" standalone="no"?>
<!-- Created with Inkscape (http://www.inkscape.org/) -->

<svg
   xmlns:osb="http://www.openswatchbook.org/uri/2009/osb"
   xmlns:dc="http://purl.org/dc/elements/1.1/"
   xmlns:cc="http://creativecommons.org/ns#"
   xmlns:rdf="http://www.w3.org/1999/02/22-rdf-syntax-ns#"
   xmlns:svg="http://www.w3.org/2000/svg"
   xmlns="http://www.w3.org/2000/svg"
   xmlns:sodipodi="http://sodipodi.sourceforge.net/DTD/sodipodi-0.dtd"
   xmlns:inkscape="http://www.inkscape.org/namespaces/inkscape"
   width="640"
   height="400"
   viewBox="0 0 169.33333 105.83334"
   version="1.1"
   id="svg8"
   inkscape:version="0.92.2 (unknown)"
   sodipodi:docname="gambling-or-gaming.svg"
   inkscape:export-filename="/home/alex/Desktop/gambling-or-gaming.png"
   inkscape:export-xdpi="96"
   inkscape:export-ydpi="96"
   enable-background="new">
  <defs
     id="defs2">
    <linearGradient
       id="linearGradient1602"
       osb:paint="solid">
      <stop
         style="stop-color:#4d4d4d;stop-opacity:1;"
         offset="0"
         id="stop1600" />
    </linearGradient>
    <style
       id="style1504">.cls-1{fill:#ffad00;}.cls-2{fill:none;}</style>
  </defs>
  <sodipodi:namedview
     id="base"
     pagecolor="#ffffff"
     bordercolor="#666666"
     borderopacity="1.0"
     inkscape:pageopacity="1"
     inkscape:pageshadow="2"
     inkscape:zoom="0.72265625"
     inkscape:cx="384.11471"
     inkscape:cy="199.82135"
     inkscape:document-units="mm"
     inkscape:current-layer="layer4"
     showgrid="false"
     units="px"
     inkscape:snap-bbox="false"
     inkscape:bbox-nodes="true"
     inkscape:snap-nodes="true"
     inkscape:snap-text-baseline="true"
     inkscape:window-width="1360"
     inkscape:window-height="744"
     inkscape:window-x="0"
     inkscape:window-y="24"
     inkscape:window-maximized="1"
     inkscape:snap-bbox-edge-midpoints="false"
     showguides="true"
     inkscape:snap-page="true"
     borderlayer="true">
    <inkscape:grid
       type="xygrid"
       id="grid1036" />
  </sodipodi:namedview>
  <metadata
     id="metadata5">
    <rdf:RDF>
      <cc:Work
         rdf:about="">
        <dc:format>image/svg+xml</dc:format>
        <dc:type
           rdf:resource="http://purl.org/dc/dcmitype/StillImage" />
        <dc:title />
      </cc:Work>
    </rdf:RDF>
  </metadata>
  <g
     inkscape:label="Background"
     inkscape:groupmode="layer"
     id="layer1"
     transform="translate(0,-191.16665)"
     sodipodi:insensitive="true">
    <rect
       style="opacity:1;fill:#ffffff;fill-opacity:1;stroke:none;stroke-width:2;stroke-miterlimit:4;stroke-dasharray:2.00000003, 2.00000003;stroke-dashoffset:0;stroke-opacity:1"
       id="rect1844"
       width="169.33333"
       height="105.83333"
       x="0"
       y="191.16666" />
  </g>
  <g
     inkscape:groupmode="layer"
     id="layer2"
     inkscape:label="Logos"
     sodipodi:insensitive="true">
    <g
       id="g1553"
       transform="matrix(0.58854401,0,0,0.58854401,-45.582141,-73.787341)">
      <path
         style="fill:#ffad00;stroke-width:0.26458332"
         inkscape:connector-curvature="0"
         class="cls-1"
         d="m 151.36283,287.44852 h 1.44992 l -0.7276,-1.93675 z m 9.26042,1.48696 a 2.2092708,2.2092708 0 0 1 -1.651,-0.64558 l 0.39952,-0.55563 a 1.7330208,1.7330208 0 0 0 1.28323,0.56621 c 0.58208,0 0.79375,-0.28575 0.79375,-0.56092 0,-0.85195 -2.35479,-0.32279 -2.35479,-1.81504 0,-0.67733 0.58208,-1.19327 1.47373,-1.19327 a 2.0875625,2.0875625 0 0 1 1.51077,0.5715 l -0.39952,0.52917 a 1.6457083,1.6457083 0 0 0 -1.1774,-0.46831 c -0.41539,0 -0.67733,0.20637 -0.67733,0.50535 0,0.762 2.35479,0.29369 2.35479,1.80446 0,0.67733 -0.48154,1.26206 -1.56633,1.26206 z m -2.43152,-1.68275 c 0,1.00542 -0.57679,1.68275 -1.75419,1.68275 -1.17739,0 -1.75419,-0.67733 -1.75419,-1.68275 v -2.45533 h 0.72232 v 2.43681 a 1.0326384,1.0326384 0 1 0 2.06375,0.0794 c 0,-0.0265 0,-0.0529 0,-0.0794 v -2.43681 h 0.72231 z m -4.87098,1.60867 -0.29633,-0.79375 h -1.85209 l -0.29633,0.79375 h -0.80698 l 1.5875,-4.064 h 0.88636 l 1.5875,4.064 z m -43.18,-6.90563 v 9.75254 h 56.54675 v -9.75254 z m 52.04619,-23.69608 -5.12498,5.1435 -5.12498,-5.1435 -4.49792,4.51908 5.10911,5.14615 -5.10646,5.14614 4.49792,4.51909 5.12497,-5.14615 5.12498,5.14615 4.49792,-4.51909 -5.12498,-5.14614 5.12498,-5.14615 z m -36.71094,4.41854 -4.29948,-4.318 h -11.03577 v 19.13202 h 6.36588 v -4.18042 h 8.96937 z m 16.42269,14.81667 4.36827,-4.38679 -9.59379,-14.95425 -9.59115,14.94895 4.36827,4.3868 z"
         id="path1510" />
      <rect
         style="fill:none;stroke-width:0.26458332"
         y="238.37096"
         x="90.635666"
         class="cls-2"
         width="95.231476"
         height="72.506416"
         id="rect1512" />
    </g>
    <g
       id="g1449"
       transform="matrix(0.15377106,0,0,0.15377106,70.435388,75.864)">
      <g
         id="Text">
        <g
           id="g1299">
          <path
             id="path1287"
             d="m 167.668,79.513 v 16.65 H 156.404 V 42.084 h 11.264 v 3.428 c 1.936,-1.936 3.754,-3.148 5.457,-3.638 1.702,-0.49 3.778,-0.735 6.226,-0.735 4.314,0 7.882,1.924 10.704,5.771 2.822,3.848 4.221,8.78 4.198,14.796 -0.023,6.04 -1.458,10.646 -4.302,13.817 -2.729,3.055 -6.25,5.025 -10.564,5.912 -0.7,0.14 -3.032,0.082 -6.996,-0.175 -1.633,-0.114 -3.207,-0.698 -4.723,-1.747 z m 7.486,-29.278 c -2.402,0 -4.256,0.991 -5.562,2.974 -1.282,1.958 -1.924,4.792 -1.924,8.5 v 9.725 c 0.443,1.166 2.938,1.749 7.486,1.749 2.425,0 4.272,-0.979 5.545,-2.938 1.269,-1.959 1.905,-4.804 1.905,-8.536 0,-3.731 -0.641,-6.576 -1.924,-8.535 -1.282,-1.96 -3.124,-2.939 -5.526,-2.939 z"
             style="fill:#0073ae"
             inkscape:connector-curvature="0" />
          <path
             id="path1289"
             d="m 202.686,26.833 h 11.264 v 10.214 h -11.264 z m 0,15.251 h 11.264 v 39.178 h -11.264 z"
             style="fill:#0073ae"
             inkscape:connector-curvature="0" />
          <path
             id="path1291"
             d="m 238.51,56.496 c -1.562,2.519 -2.344,4.757 -2.344,6.716 v 18.05 H 224.903 V 42.084 h 11.263 v 6.437 c 1.446,-2.565 3.113,-4.431 5.002,-5.597 1.866,-1.189 4.116,-1.784 6.751,-1.784 0.374,0 0.781,0.012 1.225,0.035 0.163,0 0.804,0.082 1.924,0.245 v 8.535 c -5.411,-0.42 -9.597,1.761 -12.558,6.541 z"
             style="fill:#0073ae"
             inkscape:connector-curvature="0" />
          <path
             id="path1293"
             d="m 289.865,78.988 c -4.454,2.286 -9.958,3.428 -16.51,3.428 -8.045,0 -13.292,-1.224 -15.741,-3.672 -2.285,-2.286 -3.428,-5.364 -3.428,-9.235 0,-4.594 1.422,-7.964 4.267,-10.109 2.845,-2.146 7.309,-3.218 13.395,-3.218 h 6.646 v -0.979 c 0,-1.982 -0.704,-3.435 -2.115,-4.354 -1.411,-0.923 -3.598,-1.383 -6.56,-1.383 -2.425,0 -4.673,0.268 -6.749,0.805 -2.076,0.536 -4.011,1.341 -5.807,2.414 v -9.55 c 2.425,-0.653 4.851,-1.143 7.276,-1.469 2.588,-0.35 5.023,-0.524 7.308,-0.524 6.39,0 10.984,1.388 13.782,4.163 2.822,2.798 4.235,7.334 4.235,13.607 v 20.076 z m -17.21,-15.356 c -2.332,0 -4.104,0.443 -5.317,1.329 -1.236,0.909 -1.833,2.215 -1.786,3.918 0.047,1.539 0.527,2.775 1.437,3.708 0.723,0.746 2.052,1.201 3.988,1.364 3.545,0.303 6.026,0.082 7.448,-0.665 0.047,-0.023 0.07,-2.764 0.07,-8.22 v -1.434 z"
             style="fill:#0073ae"
             inkscape:connector-curvature="0" />
          <path
             id="path1295"
             d="m 295.883,51.04 v -1.61 l 15.146,-18.469 h 1.749 v 11.124 h 11.613 v 8.955 h -11.613 v 16.615 c 0,1.819 0.315,3.043 0.945,3.673 0.652,0.653 1.947,0.979 3.882,0.979 h 5.807 v 8.955 h -9.654 c -4.454,0 -7.614,-1.026 -9.479,-3.079 -1.866,-2.052 -2.798,-5.562 -2.798,-10.529 V 51.04 Z"
             style="fill:#0073ae"
             inkscape:connector-curvature="0" />
          <path
             id="path1297"
             d="m 366.615,61.568 v 3.568 h -26.34 c 0.256,2.938 1.208,5.142 2.85,6.611 1.646,1.469 3.937,2.204 6.875,2.204 2.378,0 4.808,-0.389 7.294,-1.173 2.481,-0.779 5.03,-1.964 7.642,-3.549 v 9.654 c -2.659,1.12 -5.324,1.966 -7.992,2.537 -2.672,0.569 -5.335,0.856 -7.994,0.856 -6.389,0 -11.352,-1.803 -14.882,-5.403 -3.536,-3.605 -5.301,-8.658 -5.301,-15.165 0,-6.39 1.737,-11.415 5.212,-15.076 3.475,-3.661 8.255,-5.492 14.342,-5.492 5.55,0 9.986,1.854 13.311,5.562 3.321,3.708 4.983,8.663 4.983,14.866 z m -11.578,-4.162 c 0,-2.379 -0.625,-4.295 -1.87,-5.755 -1.25,-1.455 -2.887,-2.185 -4.916,-2.185 -2.168,0 -3.936,0.683 -5.298,2.045 -1.367,1.366 -2.223,3.33 -2.572,5.895 z"
             style="fill:#0073ae"
             inkscape:connector-curvature="0" />
        </g>
        <g
           id="g1311">
          <path
             id="path1301"
             d="m 382.347,79.233 v 16.93 h -6.471 V 42.084 h 6.471 v 5.492 c 1.749,-2.588 3.556,-4.309 5.422,-5.16 1.866,-0.851 4.232,-1.277 7.102,-1.277 4.757,0 8.621,1.889 11.597,5.667 2.971,3.778 4.459,8.745 4.459,14.901 0,6.157 -1.488,10.972 -4.459,14.447 -2.976,3.475 -6.84,5.212 -11.597,5.212 -2.869,0 -4.921,-0.1 -6.157,-0.296 -1.237,-0.197 -3.359,-0.811 -6.367,-1.837 z m 21.897,-17.525 c 0,-4.734 -0.975,-8.448 -2.922,-11.14 -1.947,-2.696 -4.622,-4.041 -8.026,-4.041 -2.915,0 -5.375,0.781 -7.381,2.343 -1.959,1.539 -3.148,4.291 -3.568,8.255 v 15.811 c 3.335,2.029 6.984,3.043 10.949,3.043 3.404,0 6.079,-1.206 8.026,-3.622 1.948,-2.41 2.922,-5.961 2.922,-10.649 z"
             style="fill:#231f20"
             inkscape:connector-curvature="0" />
          <path
             id="path1303"
             d="m 434.889,81.926 c -5.224,0.094 -9.293,-1.084 -12.208,-3.533 -2.262,-1.912 -3.393,-4.757 -3.393,-8.535 0,-4.408 1.474,-7.731 4.424,-9.97 2.95,-2.239 7.353,-3.358 13.206,-3.358 h 9.024 v -0.629 c 0,-2.962 -0.975,-5.254 -2.922,-6.873 -1.947,-1.623 -4.681,-2.432 -8.201,-2.432 -2.239,0 -4.42,0.268 -6.542,0.804 -2.122,0.536 -4.162,1.341 -6.121,2.414 v -5.946 c 2.355,-0.91 4.641,-1.592 6.856,-2.046 2.215,-0.455 4.372,-0.682 6.471,-0.682 5.667,0 9.899,1.469 12.698,4.408 2.798,2.938 4.197,7.345 4.197,13.222 v 0.14 l -0.035,19.659 c -4.477,2.145 -10.295,3.264 -17.454,3.357 z m 4.652,-20.358 c -5.2,0 -8.803,0.595 -10.809,1.784 -2.006,1.189 -3.009,3.218 -3.009,6.087 0,2.262 0.781,4.116 2.345,5.562 1.562,1.445 3.579,2.168 6.051,2.168 0.07,0 0.141,0 0.21,0 5.527,0 9.398,-0.618 11.613,-1.854 0,-6.623 0,-10.727 0,-12.313 v -1.434 z"
             style="fill:#231f20"
             inkscape:connector-curvature="0" />
          <path
             id="path1305"
             d="m 485.194,47.506 c -0.723,-0.419 -1.504,-0.66 -2.344,-0.716 -0.84,-0.061 -1.771,-0.03 -2.798,0.086 -3.521,0.443 -6.285,2.168 -8.29,5.177 -2.006,3.008 -3.009,6.728 -3.009,11.159 v 18.05 h -6.472 V 42.084 h 6.472 v 5.771 c 1.353,-2.378 3.113,-4.092 5.282,-5.142 2.169,-1.05 4.804,-1.574 7.905,-1.574 0.443,0 0.933,0.029 1.47,0.087 0.536,0.058 1.131,0.146 1.783,0.262 v 6.018 z"
             style="fill:#231f20"
             inkscape:connector-curvature="0" />
          <path
             id="path1307"
             d="m 490.549,47.087 v -5.072 h 4.723 v -4.932 l 6.471,-6.122 V 42.085 H 515 v 5.002 h -13.258 v 21.268 c 0,3.195 0.437,5.247 1.312,6.157 0.873,0.909 2.652,1.364 5.334,1.364 H 515 v 5.387 h -6.611 c -4.968,0 -8.396,-0.928 -10.284,-2.78 -1.889,-1.856 -2.833,-5.231 -2.833,-10.128 V 47.087 Z"
             style="fill:#231f20"
             inkscape:connector-curvature="0" />
          <path
             id="path1309"
             d="m 527.842,98.437 6.996,-17.805 -15.846,-38.548 h 6.821 l 12.243,30.643 12.242,-30.643 h 6.821 l -22.457,56.353 z"
             style="fill:#231f20"
             inkscape:connector-curvature="0" />
        </g>
        <g
           id="g1349">
          <path
             id="path1313"
             d="m 159.598,122.975 v 7.09 h -2.71 v -22.646 h 2.71 v 2.299 c 0.732,-1.084 1.489,-1.804 2.271,-2.16 0.782,-0.356 1.772,-0.535 2.974,-0.535 1.992,0 3.611,0.791 4.856,2.373 1.245,1.582 1.868,3.662 1.868,6.24 0,2.578 -0.623,4.596 -1.868,6.051 -1.245,1.455 -2.864,2.182 -4.856,2.182 -1.201,0 -2.061,-0.041 -2.578,-0.123 -0.518,-0.085 -1.407,-0.341 -2.667,-0.771 z m 9.17,-7.34 c 0,-1.982 -0.408,-3.537 -1.223,-4.664 -0.815,-1.129 -1.936,-1.693 -3.362,-1.693 -1.221,0 -2.251,0.328 -3.091,0.982 -0.82,0.645 -1.318,1.797 -1.494,3.457 v 6.621 c 1.396,0.85 2.925,1.273 4.585,1.273 1.426,0 2.546,-0.504 3.362,-1.516 0.815,-1.009 1.223,-2.497 1.223,-4.46 z"
             style="fill:#231f20"
             inkscape:connector-curvature="0" />
          <path
             id="path1315"
             d="m 176.034,101.032 h 2.695 v 3.412 h -2.695 z m 0,6.386 h 2.695 v 16.406 h -2.695 z"
             style="fill:#231f20"
             inkscape:connector-curvature="0" />
          <path
             id="path1317"
             d="m 193.699,109.688 c -0.303,-0.176 -0.63,-0.275 -0.981,-0.299 -0.352,-0.025 -0.742,-0.014 -1.172,0.035 -1.475,0.186 -2.632,0.908 -3.472,2.168 -0.84,1.26 -1.26,2.818 -1.26,4.674 v 7.559 h -2.71 v -16.406 h 2.71 v 2.416 c 0.566,-0.996 1.304,-1.713 2.212,-2.152 0.908,-0.439 2.012,-0.66 3.311,-0.66 0.186,0 0.391,0.013 0.615,0.037 0.224,0.024 0.474,0.061 0.747,0.109 z"
             style="fill:#231f20"
             inkscape:connector-curvature="0" />
          <path
             id="path1319"
             d="m 203.411,124.102 c -2.188,0.039 -3.892,-0.453 -5.112,-1.479 -0.947,-0.801 -1.421,-1.992 -1.421,-3.574 0,-1.846 0.618,-3.238 1.853,-4.176 1.235,-0.938 3.079,-1.406 5.53,-1.406 h 3.779 v -0.264 c 0,-1.24 -0.408,-2.199 -1.223,-2.877 -0.815,-0.68 -1.96,-1.02 -3.435,-1.02 -0.938,0 -1.851,0.113 -2.739,0.338 -0.888,0.225 -1.743,0.561 -2.563,1.01 v -2.49 c 0.986,-0.381 1.943,-0.666 2.871,-0.856 0.928,-0.19 1.831,-0.286 2.71,-0.286 2.373,0 4.146,0.615 5.317,1.846 1.171,1.231 1.758,3.076 1.758,5.537 v 0.059 l -0.015,8.232 c -1.876,0.898 -4.312,1.367 -7.31,1.406 z m 1.948,-8.525 c -2.178,0 -3.687,0.25 -4.526,0.748 -0.839,0.498 -1.26,1.348 -1.26,2.549 0,0.947 0.327,1.723 0.981,2.328 0.654,0.605 1.499,0.908 2.534,0.908 0.029,0 0.059,0 0.088,0 2.314,0 3.936,-0.258 4.863,-0.775 0,-2.773 0,-4.492 0,-5.156 v -0.602 z"
             style="fill:#231f20"
             inkscape:connector-curvature="0" />
          <path
             id="path1321"
             d="m 214.265,109.512 v -2.123 h 1.978 v -2.066 l 2.71,-2.562 v 4.658 h 5.552 v 2.094 h -5.552 v 8.906 c 0,1.338 0.183,2.197 0.549,2.578 0.366,0.381 1.111,0.572 2.234,0.572 h 2.769 v 2.256 h -2.769 c -2.08,0 -3.516,-0.389 -4.307,-1.164 -0.791,-0.777 -1.187,-2.191 -1.187,-4.242 v -8.906 h -1.977 z"
             style="fill:#231f20"
             inkscape:connector-curvature="0" />
          <path
             id="path1323"
             d="m 242.083,114.948 v 1.318 H 229.69 c 0.117,1.855 0.676,3.27 1.677,4.24 1.001,0.973 2.395,1.457 4.182,1.457 1.035,0 2.039,-0.127 3.01,-0.381 0.971,-0.254 1.936,-0.635 2.893,-1.143 v 2.549 c -0.967,0.41 -1.958,0.723 -2.974,0.938 -1.016,0.215 -2.046,0.322 -3.091,0.322 -2.617,0 -4.69,-0.762 -6.218,-2.285 -1.528,-1.523 -2.292,-3.584 -2.292,-6.182 0,-2.686 0.725,-4.816 2.175,-6.393 1.45,-1.578 3.406,-2.367 5.867,-2.367 2.207,0 3.953,0.711 5.237,2.133 1.284,1.421 1.927,3.352 1.927,5.794 z m -2.696,-0.791 c -0.02,-1.475 -0.432,-2.652 -1.238,-3.531 -0.806,-0.879 -1.873,-1.318 -3.201,-1.318 -1.504,0 -2.708,0.426 -3.611,1.275 -0.903,0.849 -1.423,2.045 -1.56,3.588 z"
             style="fill:#231f20"
             inkscape:connector-curvature="0" />
          <path
             id="path1325"
             d="m 249.114,122.975 v 7.09 h -2.71 v -22.646 h 2.71 v 2.299 c 0.732,-1.084 1.489,-1.804 2.271,-2.16 0.782,-0.356 1.772,-0.535 2.974,-0.535 1.992,0 3.611,0.791 4.856,2.373 1.245,1.582 1.868,3.662 1.868,6.24 0,2.578 -0.623,4.596 -1.868,6.051 -1.245,1.455 -2.864,2.182 -4.856,2.182 -1.201,0 -2.061,-0.041 -2.578,-0.123 -0.519,-0.085 -1.407,-0.341 -2.667,-0.771 z m 9.17,-7.34 c 0,-1.982 -0.408,-3.537 -1.223,-4.664 -0.815,-1.129 -1.936,-1.693 -3.362,-1.693 -1.221,0 -2.251,0.328 -3.091,0.982 -0.82,0.645 -1.318,1.797 -1.494,3.457 v 6.621 c 1.396,0.85 2.925,1.273 4.585,1.273 1.426,0 2.546,-0.504 3.362,-1.516 0.815,-1.009 1.223,-2.497 1.223,-4.46 z"
             style="fill:#231f20"
             inkscape:connector-curvature="0" />
          <path
             id="path1327"
             d="m 271.057,124.102 c -2.188,0.039 -3.892,-0.453 -5.112,-1.479 -0.947,-0.801 -1.421,-1.992 -1.421,-3.574 0,-1.846 0.618,-3.238 1.853,-4.176 1.235,-0.938 3.079,-1.406 5.53,-1.406 h 3.779 v -0.264 c 0,-1.24 -0.408,-2.199 -1.223,-2.877 -0.815,-0.68 -1.96,-1.02 -3.435,-1.02 -0.938,0 -1.851,0.113 -2.739,0.338 -0.888,0.225 -1.743,0.561 -2.563,1.01 v -2.49 c 0.986,-0.381 1.943,-0.666 2.871,-0.856 0.928,-0.19 1.831,-0.286 2.71,-0.286 2.373,0 4.146,0.615 5.317,1.846 1.171,1.231 1.758,3.076 1.758,5.537 v 0.059 l -0.015,8.232 c -1.875,0.898 -4.312,1.367 -7.31,1.406 z m 1.948,-8.525 c -2.178,0 -3.687,0.25 -4.526,0.748 -0.839,0.498 -1.26,1.348 -1.26,2.549 0,0.947 0.327,1.723 0.981,2.328 0.654,0.605 1.499,0.908 2.534,0.908 0.029,0 0.059,0 0.088,0 2.314,0 3.936,-0.258 4.863,-0.775 0,-2.773 0,-4.492 0,-5.156 v -0.602 z"
             style="fill:#231f20"
             inkscape:connector-curvature="0" />
          <path
             id="path1329"
             d="m 292.063,109.688 c -0.303,-0.176 -0.63,-0.275 -0.981,-0.299 -0.352,-0.025 -0.742,-0.014 -1.172,0.035 -1.475,0.186 -2.632,0.908 -3.472,2.168 -0.84,1.26 -1.26,2.818 -1.26,4.674 v 7.559 h -2.71 v -16.406 h 2.71 v 2.416 c 0.566,-0.996 1.304,-1.713 2.212,-2.152 0.908,-0.439 2.012,-0.66 3.311,-0.66 0.186,0 0.391,0.013 0.615,0.037 0.224,0.024 0.474,0.061 0.747,0.109 z"
             style="fill:#231f20"
             inkscape:connector-curvature="0" />
          <path
             id="path1331"
             d="m 294.246,109.512 v -2.123 h 1.978 v -2.066 l 2.71,-2.562 v 4.658 h 5.552 v 2.094 h -5.552 v 8.906 c 0,1.338 0.183,2.197 0.549,2.578 0.366,0.381 1.111,0.572 2.234,0.572 h 2.769 v 2.256 h -2.769 c -2.08,0 -3.516,-0.389 -4.307,-1.164 -0.791,-0.777 -1.187,-2.191 -1.187,-4.242 v -8.906 h -1.977 z"
             style="fill:#231f20"
             inkscape:connector-curvature="0" />
          <path
             id="path1333"
             d="m 309.802,131.016 2.93,-7.455 -6.636,-16.143 h 2.856 l 5.127,12.832 5.127,-12.832 h 2.856 l -9.404,23.598 z"
             style="fill:#231f20"
             inkscape:connector-curvature="0" />
          <path
             id="path1335"
             d="m 321.887,120.104 h 3.091 v 3.721 h -3.091 z"
             style="fill:#231f20"
             inkscape:connector-curvature="0" />
          <path
             id="path1337"
             d="m 337.4,107.022 c 2.344,0 4.185,0.762 5.522,2.285 1.337,1.523 2.007,3.633 2.007,6.328 0,2.686 -0.669,4.793 -2.007,6.322 -1.338,1.527 -3.179,2.291 -5.522,2.291 -2.354,0 -4.197,-0.764 -5.53,-2.291 -1.333,-1.529 -2,-3.637 -2,-6.322 0,-2.695 0.667,-4.805 2,-6.328 1.333,-1.523 3.176,-2.285 5.53,-2.285 z m 0,2.285 c -1.445,0 -2.588,0.564 -3.428,1.693 -0.84,1.127 -1.26,2.672 -1.26,4.635 0,1.963 0.417,3.51 1.252,4.637 0.835,1.129 1.98,1.691 3.435,1.691 1.436,0 2.573,-0.566 3.413,-1.699 0.84,-1.133 1.26,-2.676 1.26,-4.629 0,-1.943 -0.42,-3.482 -1.26,-4.621 -0.839,-1.137 -1.977,-1.707 -3.412,-1.707 z"
             style="fill:#231f20"
             inkscape:connector-curvature="0" />
          <path
             id="path1339"
             d="m 357.527,109.688 c -0.303,-0.176 -0.63,-0.275 -0.981,-0.299 -0.352,-0.025 -0.742,-0.014 -1.172,0.035 -1.475,0.186 -2.632,0.908 -3.472,2.168 -0.84,1.26 -1.26,2.818 -1.26,4.674 v 7.559 h -2.71 v -16.406 h 2.71 v 2.416 c 0.566,-0.996 1.304,-1.713 2.212,-2.152 0.908,-0.439 2.012,-0.66 3.311,-0.66 0.186,0 0.391,0.013 0.615,0.037 0.224,0.024 0.474,0.061 0.747,0.109 z"
             style="fill:#231f20"
             inkscape:connector-curvature="0" />
          <path
             id="path1341"
             d="m 374.695,121.788 c 0,2.793 -0.62,4.871 -1.86,6.234 -1.24,1.361 -3.14,2.043 -5.698,2.043 -0.947,0 -1.841,-0.072 -2.681,-0.213 -0.84,-0.143 -1.655,-0.359 -2.446,-0.652 v -2.621 c 0.791,0.43 1.572,0.746 2.344,0.951 0.772,0.205 1.558,0.309 2.358,0.309 1.768,0 3.091,-0.461 3.97,-1.385 0.879,-0.922 1.318,-2.316 1.318,-4.182 v -1.334 c -0.557,0.967 -1.27,1.689 -2.139,2.168 -0.869,0.479 -1.909,0.719 -3.12,0.719 -2.012,0 -3.633,-0.768 -4.863,-2.301 -1.23,-1.533 -1.846,-3.564 -1.846,-6.094 0,-2.539 0.615,-4.574 1.846,-6.107 1.231,-1.533 2.852,-2.301 4.863,-2.301 1.211,0 2.251,0.24 3.12,0.719 0.869,0.479 1.582,1.201 2.139,2.168 v -2.49 h 2.695 z M 372,115.43 c 0,-1.953 -0.402,-3.467 -1.209,-4.541 -0.805,-1.074 -1.936,-1.611 -3.391,-1.611 -1.445,0 -2.57,0.537 -3.377,1.611 -0.805,1.074 -1.208,2.588 -1.208,4.541 0,1.943 0.403,3.453 1.208,4.527 0.807,1.074 1.932,1.611 3.377,1.611 1.455,0 2.586,-0.537 3.391,-1.611 0.806,-1.074 1.209,-2.583 1.209,-4.527 z"
             style="fill:#231f20"
             inkscape:connector-curvature="0" />
          <path
             id="path1343"
             d="m 380.627,120.104 h 3.091 v 3.721 h -3.091 z"
             style="fill:#231f20"
             inkscape:connector-curvature="0" />
          <path
             id="path1345"
             d="m 395.29,124.102 c -2.188,0.039 -3.891,-0.453 -5.111,-1.479 -0.948,-0.801 -1.421,-1.992 -1.421,-3.574 0,-1.846 0.617,-3.238 1.853,-4.176 1.234,-0.938 3.078,-1.406 5.529,-1.406 h 3.779 v -0.264 c 0,-1.24 -0.408,-2.199 -1.223,-2.877 -0.816,-0.68 -1.961,-1.02 -3.436,-1.02 -0.938,0 -1.85,0.113 -2.738,0.338 -0.888,0.225 -1.744,0.561 -2.564,1.01 v -2.49 c 0.986,-0.381 1.943,-0.666 2.871,-0.856 0.928,-0.19 1.832,-0.286 2.711,-0.286 2.373,0 4.145,0.615 5.316,1.846 1.171,1.231 1.758,3.076 1.758,5.537 v 0.059 l -0.014,8.232 c -1.874,0.898 -4.312,1.367 -7.31,1.406 z m 1.949,-8.525 c -2.178,0 -3.688,0.25 -4.527,0.748 -0.839,0.498 -1.26,1.348 -1.26,2.549 0,0.947 0.328,1.723 0.982,2.328 0.654,0.605 1.498,0.908 2.533,0.908 0.029,0 0.059,0 0.088,0 2.314,0 3.936,-0.258 4.863,-0.775 0,-2.773 0,-4.492 0,-5.156 v -0.602 z"
             style="fill:#231f20"
             inkscape:connector-curvature="0" />
          <path
             id="path1347"
             d="m 421.628,123.721 c -1.025,0.303 -2.326,0.492 -3.904,0.564 -1.576,0.074 -2.936,0.109 -4.078,0.109 -1.885,0 -3.316,-0.586 -4.293,-1.758 -0.977,-1.172 -1.465,-2.934 -1.465,-5.287 v -9.932 h 2.695 v 9.17 c 0,2.207 0.172,3.555 0.514,4.043 0.586,0.82 1.625,1.25 3.119,1.289 0.43,0.01 1.113,0.029 2.051,0.059 1.562,-0.02 2.451,-0.186 2.666,-0.498 0,-3.164 0,-4.752 0,-4.762 v -9.301 h 2.695 z"
             style="fill:#231f20"
             inkscape:connector-curvature="0" />
        </g>
      </g>
      <g
         id="Signet">
        <polygon
           id="polygon1352"
           points="97.234,85.504 94.774,85.282 94.359,87.717 92.997,85.655 90.834,86.85 91.599,84.499 89.317,83.552 91.63,82.684 90.946,80.311 93.067,81.579 94.499,79.564 94.83,82.013 97.298,81.873 95.59,83.659 "
           style="fill:#ffffff" />
        <polygon
           id="polygon1354"
           points="108.46,60.689 106,60.465 105.585,62.9 104.224,60.838 102.062,62.033 102.825,59.684 100.542,58.737 102.855,57.87 102.173,55.494 104.294,56.762 105.725,54.748 106.056,57.196 108.524,57.061 106.815,58.845 "
           style="fill:#ffffff" />
        <polygon
           id="polygon1356"
           points="96.053,50.051 93.593,49.832 93.177,52.266 91.817,50.205 89.652,51.398 90.417,49.048 88.134,48.101 90.448,47.233 89.765,44.859 91.886,46.128 93.316,44.112 93.647,46.562 96.115,46.422 94.407,48.208 "
           style="fill:#ffffff" />
        <polygon
           id="polygon1358"
           points="83.055,64.826 80.594,64.603 80.178,67.037 78.818,64.976 76.654,66.169 77.418,63.819 75.135,62.874 77.45,62.004 76.766,59.63 78.887,60.899 80.318,58.884 80.649,61.333 83.118,61.193 81.408,62.979 "
           style="fill:#ffffff" />
        <polygon
           id="polygon1360"
           points="100.559,67.466 99.312,68.59 99.527,70.255 98.076,69.411 96.562,70.134 96.911,68.492 95.758,67.275 97.427,67.1 98.229,65.626 98.91,67.16 "
           style="fill:#ffffff" />
        <g
           id="g1376">
          <path
             id="path1362"
             d="M 135.039,89.912 C 128.733,125.113 95.081,148.545 59.874,142.237 24.667,135.931 1.237,102.28 7.544,67.079 13.848,31.873 47.5,8.449 82.709,14.756 c 35.206,6.305 58.634,39.954 52.33,75.156 z"
             style="fill:#ffffff"
             inkscape:connector-curvature="0" />
          <path
             id="path1364"
             d="m 81.105,23.712 c -30.26,-5.419 -59.186,14.72 -64.604,44.976 -5.42,30.26 14.716,59.188 44.976,64.61 30.259,5.415 59.183,-14.727 64.602,-44.984 5.42,-30.255 -14.715,-59.182 -44.974,-64.602 z m 53.932,66.206 C 128.731,125.124 95.08,148.556 59.872,142.252 24.664,135.944 1.235,102.291 7.543,67.083 13.847,31.877 47.501,8.448 82.709,14.755 c 35.206,6.306 58.634,39.959 52.328,75.163 z"
             inkscape:connector-curvature="0" />
          <g
             id="g1374">
            <polygon
               id="polygon1366"
               points="53.188,92.129 51.237,33.772 46.998,33.014 47.327,98.379 54.451,95.273 " />
            <path
               id="path1368"
               d="m 41.057,45.816 c 0,0 60.699,-23.026 69.619,18.67 0,0 5.716,19.558 -22.992,26.528 0,0 -19.617,4.877 -21.554,4.893 -1.947,0.02 -1.947,0.02 -1.947,0.02 0,0 -19.291,3.84 -14.798,27.627 0,0 -14.917,-21.275 12.979,-38.168 0,0 10.796,-9.016 7.42,-22.749 -0.001,0 -3.343,-16.313 -28.727,-16.821 z"
               inkscape:connector-curvature="0" />
            <polygon
               id="polygon1370"
               points="47.251,104.929 54.873,96.991 47.304,93.659 " />
            <path
               id="path1372"
               d="m 81.912,92.428 c 0,0 -29.423,4.918 -32.373,17.679 -2.95,12.763 -3.591,-19.303 15.273,-20.748 18.864,-1.433 1.617,-0.877 1.617,-0.877 l 17.984,-1.609 -2.268,4.242"
               inkscape:connector-curvature="0" />
          </g>
        </g>
        <polygon
           id="polygon1378"
           points="80.903,63.611 78.534,64.283 79.021,66.699 77.016,65.269 75.431,67.153 75.301,64.695 72.836,64.629 74.682,62.996 73.194,61.03 75.622,61.449 76.23,59.064 77.416,61.223 79.662,60.211 78.711,62.486 "
           style="fill:#ffffff" />
        <polygon
           id="polygon1380"
           points="92.979,48.992 90.61,49.664 91.098,52.08 89.093,50.65 87.507,52.534 87.378,50.076 84.913,50.01 86.758,48.377 85.271,46.411 87.699,46.83 88.307,44.445 89.493,46.604 91.738,45.592 90.789,47.867 "
           style="fill:#ffffff" />
        <polygon
           id="polygon1382"
           points="106.328,59.798 103.958,60.47 104.446,62.885 102.441,61.455 100.855,63.34 100.726,60.881 98.261,60.815 100.106,59.183 98.619,57.217 101.047,57.635 101.655,55.25 102.841,57.409 105.086,56.397 104.136,58.672 "
           style="fill:#ffffff" />
        <polygon
           id="polygon1384"
           points="94.886,83.952 92.518,84.624 93.005,87.04 91,85.609 89.415,87.494 89.285,85.036 86.82,84.969 88.665,83.336 87.178,81.37 89.605,81.789 90.213,79.404 91.4,81.563 93.646,80.551 92.695,82.827 "
           style="fill:#ffffff" />
        <polygon
           id="polygon1386"
           points="97.73,67.266 96.75,68.619 97.313,70.197 95.718,69.683 94.393,70.705 94.39,69.033 93.012,68.088 94.599,67.566 95.071,65.961 96.059,67.312 "
           style="fill:#ffffff" />
      </g>
    </g>
  </g>
  <g
     inkscape:groupmode="layer"
     id="layer3"
     inkscape:label="title-text"
     style="display:inline"
     sodipodi:insensitive="true">
    <text
       id="text1145"
       y="47.625"
       x="164.04167"
       style="font-style:normal;font-weight:normal;font-size:10.58333302px;line-height:1.25;font-family:sans-serif;letter-spacing:0px;word-spacing:0px;fill:#ff0000;fill-opacity:1;stroke:none;stroke-width:0.26458332"
       xml:space="preserve"><tspan
         style="font-style:normal;font-variant:normal;font-weight:normal;font-stretch:normal;font-size:16.93333244px;font-family:Showtime;-inkscape-font-specification:Showtime;text-align:end;text-anchor:end;fill:#ff0000;fill-opacity:1;stroke-width:0.26458332"
         y="47.625"
         x="164.04167"
         id="tspan1143"
         sodipodi:role="line">Gambling?</tspan></text>
    <text
       id="text1153"
       y="47.095833"
       x="67.73333"
       style="font-style:normal;font-weight:normal;font-size:17.63888931px;line-height:1.25;font-family:sans-serif;text-align:end;letter-spacing:0px;word-spacing:0px;text-anchor:end;fill:#0000ff;fill-opacity:1;stroke:none;stroke-width:0.26458332"
       xml:space="preserve"><tspan
         style="font-style:normal;font-variant:normal;font-weight:bold;font-stretch:normal;font-size:16.93333244px;line-height:13.22916603px;font-family:Minecraft;-inkscape-font-specification:'Minecraft Bold';text-align:end;text-anchor:end;fill:#0000ff;fill-opacity:1;stroke-width:0.26458332"
         y="47.095833"
         x="67.73333"
         id="tspan1151"
         sodipodi:role="line">Gaming</tspan></text>
    <path
       sodipodi:nodetypes="cccc"
       inkscape:connector-curvature="0"
       d="M 5.2916667,50.00625 H 57.15 M 5.2916667,31.75 66.675,32.014583"
       style="fill:none;stroke:#0000ff;stroke-width:4;stroke-linecap:butt;stroke-linejoin:miter;stroke-miterlimit:4;stroke-dasharray:none;stroke-dashoffset:0;stroke-opacity:1"
       id="path916" />
    <path
       id="path904"
       style="fill:none;stroke:#ffffff;stroke-width:2;stroke-linecap:butt;stroke-linejoin:miter;stroke-miterlimit:4;stroke-dasharray:2, 2;stroke-dashoffset:0;stroke-opacity:1"
       d="M 6.35,50.00625 H 56.35625 M 6.8791667,31.75 65.616667,32.014583"
       inkscape:connector-curvature="0"
       sodipodi:nodetypes="cccc" />
  </g>
  <g
     inkscape:groupmode="layer"
     id="layer5"
     inkscape:label="text"
     sodipodi:insensitive="true">
    <text
       id="text1149"
       y="47.772911"
       x="77.061966"
       style="font-style:normal;font-weight:normal;font-size:10.58333302px;line-height:1.25;font-family:sans-serif;letter-spacing:0px;word-spacing:0px;fill:#000000;fill-opacity:1;stroke:none;stroke-width:0.26458332"
       xml:space="preserve"><tspan
         style="font-style:normal;font-variant:normal;font-weight:300;font-stretch:normal;font-size:14.11111069px;font-family:'Open Sans';-inkscape-font-specification:'Open Sans Light Italic';text-align:center;text-anchor:middle;stroke-width:0.26458332"
         y="47.772911"
         x="77.061966"
         id="tspan1147"
         sodipodi:role="line">or</tspan></text>
    <text
       transform="translate(0,-191.16665)"
       xml:space="preserve"
       style="font-style:normal;font-weight:normal;font-size:10.58333302px;line-height:1.25;font-family:sans-serif;letter-spacing:0px;word-spacing:0px;fill:#000000;fill-opacity:1;stroke:none;stroke-width:0.26458332"
       x="84.584854"
       y="259.89578"
       id="text943"
       inkscape:export-filename="/home/alex/Desktop/gambling-or-gaming.png"
       inkscape:export-xdpi="96"
       inkscape:export-ydpi="96"><tspan
         sodipodi:role="line"
         id="tspan941"
         x="86.326012"
         y="259.89578"
         style="font-style:normal;font-variant:normal;font-weight:300;font-stretch:normal;font-size:13.40555573px;font-family:'Open Sans';-inkscape-font-specification:'Open Sans Light';text-align:center;text-anchor:middle;stroke-width:0.26458332">tap here to spin the wheel </tspan></text>
    <text
       transform="translate(0,-191.16665)"
       xml:space="preserve"
       style="font-style:normal;font-weight:normal;font-size:10.58333302px;line-height:1.25;font-family:sans-serif;letter-spacing:0px;word-spacing:0px;fill:#000000;fill-opacity:1;stroke:none;stroke-width:0.26458332"
       x="84.213287"
       y="210.78302"
       id="text1680"><tspan
         sodipodi:role="line"
         id="tspan1678"
         x="84.213287"
         y="210.78302"
         style="font-style:normal;font-variant:normal;font-weight:300;font-stretch:normal;font-size:19.75555611px;font-family:'Open Sans';-inkscape-font-specification:'Open Sans Light';text-align:center;letter-spacing:0px;text-anchor:middle;stroke-width:0.26458332">Pax Pirata 20XX</tspan></text>
  </g>
  <g
     inkscape:groupmode="layer"
     id="layer4"
     inkscape:label="draft"
     style="opacity:0.15;"
     sodipodi:insensitive="true">
    <text
       xml:space="preserve"
       style="font-style:normal;font-weight:normal;font-size:50.79999924px;line-height:1.25;font-family:sans-serif;letter-spacing:0px;word-spacing:0px;fill:#ff0000;fill-opacity:1;stroke:none;stroke-width:0.26458332"
       x="-29.905355"
       y="106.29274"
       id="text909"
       transform="rotate(-30)"><tspan
         sodipodi:role="line"
         id="tspan907"
         x="-29.905355"
         y="106.29274"
         style="font-style:normal;font-variant:normal;font-weight:300;font-stretch:normal;font-family:'Open Sans';-inkscape-font-specification:'Open Sans Light';fill:#ff0000;stroke-width:0.26458332">DRAFT</tspan></text>
  </g>
</svg>
