<?xml version="1.0" encoding="UTF-8" standalone="no"?>
<!-- Generator: Adobe Illustrator 16.0.0, SVG Export Plug-In . SVG Version: 6.00 Build 0)  -->

<svg
   xmlns:dc="http://purl.org/dc/elements/1.1/"
   xmlns:cc="http://creativecommons.org/ns#"
   xmlns:rdf="http://www.w3.org/1999/02/22-rdf-syntax-ns#"
   xmlns:svg="http://www.w3.org/2000/svg"
   xmlns="http://www.w3.org/2000/svg"
   xmlns:sodipodi="http://sodipodi.sourceforge.net/DTD/sodipodi-0.dtd"
   xmlns:inkscape="http://www.inkscape.org/namespaces/inkscape"
   version="1.1"
   x="0px"
   y="0px"
   width="1400"
   height="140"
   viewBox="0 0 1400 139.99999"
   xml:space="preserve"
   id="svg104"
   sodipodi:docname="ppau-website.svg"
   inkscape:version="0.92.0 r"
   inkscape:export-filename="/home/alex/Documents/PPAU/ppau-graphics/Logos/trials/ppau-website-preview.png"
   inkscape:export-xdpi="44.959999"
   inkscape:export-ydpi="44.959999"><metadata
     id="metadata110"><rdf:RDF><cc:Work
         rdf:about=""><dc:format>image/svg+xml</dc:format><dc:type
           rdf:resource="http://purl.org/dc/dcmitype/StillImage" /><dc:title></dc:title></cc:Work></rdf:RDF></metadata><defs
     id="defs108" /><sodipodi:namedview
     pagecolor="#ffffff"
     bordercolor="#666666"
     borderopacity="1"
     objecttolerance="10"
     gridtolerance="10"
     guidetolerance="10"
     inkscape:pageopacity="0"
     inkscape:pageshadow="2"
     inkscape:window-width="1360"
     inkscape:window-height="720"
     id="namedview106"
     showgrid="true"
     inkscape:zoom="0.26366667"
     inkscape:cx="879.72229"
     inkscape:cy="75"
     inkscape:window-x="0"
     inkscape:window-y="20"
     inkscape:window-maximized="1"
     inkscape:current-layer="layer3"
     units="px"><inkscape:grid
       type="xygrid"
       id="grid4623" /></sodipodi:namedview><g
     inkscape:groupmode="layer"
     id="layer1"
     inkscape:label="Logo"
     sodipodi:insensitive="true"><g
       id="Signet"
       transform="matrix(0.81051272,0,0,0.81051272,1.2348703,6.372313)"><polygon
         style="fill:#ffffff"
         points="92.997,85.655 90.834,86.85 91.599,84.499 89.317,83.552 91.63,82.684 90.946,80.311 93.067,81.579 94.499,79.564 94.83,82.013 97.298,81.873 95.59,83.659 97.234,85.504 94.774,85.282 94.359,87.717 "
         id="polygon67" /><polygon
         style="fill:#ffffff"
         points="104.224,60.838 102.062,62.033 102.825,59.684 100.542,58.737 102.855,57.87 102.173,55.494 104.294,56.762 105.725,54.748 106.056,57.196 108.524,57.061 106.815,58.845 108.46,60.689 106,60.465 105.585,62.9 "
         id="polygon69" /><polygon
         style="fill:#ffffff"
         points="91.817,50.205 89.652,51.398 90.417,49.048 88.134,48.101 90.448,47.233 89.765,44.859 91.886,46.128 93.316,44.112 93.647,46.562 96.115,46.422 94.407,48.208 96.053,50.051 93.593,49.832 93.177,52.266 "
         id="polygon71" /><polygon
         style="fill:#ffffff"
         points="78.818,64.976 76.654,66.169 77.418,63.819 75.135,62.874 77.45,62.004 76.766,59.63 78.887,60.899 80.318,58.884 80.649,61.333 83.118,61.193 81.408,62.979 83.055,64.826 80.594,64.603 80.178,67.037 "
         id="polygon73" /><polygon
         style="fill:#ffffff"
         points="98.076,69.411 96.562,70.134 96.911,68.492 95.758,67.275 97.427,67.1 98.229,65.626 98.91,67.16 100.559,67.466 99.312,68.59 99.527,70.255 "
         id="polygon75" /><g
         id="g91"><path
           style="fill:#ffffff"
           d="M 135.039,89.912 C 128.733,125.113 95.081,148.545 59.874,142.237 24.667,135.931 1.237,102.28 7.544,67.079 13.848,31.873 47.5,8.449 82.709,14.756 c 35.206,6.305 58.634,39.954 52.33,75.156 z"
           id="path77"
           inkscape:connector-curvature="0" /><path
           d="m 81.105,23.712 c -30.26,-5.419 -59.186,14.72 -64.604,44.976 -5.42,30.26 14.716,59.188 44.976,64.61 30.259,5.415 59.183,-14.727 64.602,-44.984 5.42,-30.255 -14.715,-59.182 -44.974,-64.602 z m 53.932,66.206 C 128.731,125.124 95.08,148.556 59.872,142.252 24.664,135.944 1.235,102.291 7.543,67.083 13.847,31.877 47.501,8.448 82.709,14.755 c 35.206,6.306 58.634,39.959 52.328,75.163 z"
           id="path79"
           inkscape:connector-curvature="0" /><g
           id="g89"><polygon
             points="47.327,98.379 54.451,95.273 53.188,92.129 51.237,33.772 46.998,33.014 "
             id="polygon81" /><path
             d="m 41.057,45.816 c 0,0 60.699,-23.026 69.619,18.67 0,0 5.716,19.558 -22.992,26.528 0,0 -19.617,4.877 -21.554,4.893 -1.947,0.02 -1.947,0.02 -1.947,0.02 0,0 -19.291,3.84 -14.798,27.627 0,0 -14.917,-21.275 12.979,-38.168 0,0 10.796,-9.016 7.42,-22.749 -0.001,0 -3.343,-16.313 -28.727,-16.821 z"
             id="path83"
             inkscape:connector-curvature="0" /><polygon
             points="47.251,104.929 54.873,96.991 47.304,93.659 "
             id="polygon85" /><path
             d="m 81.912,92.428 c 0,0 -29.423,4.918 -32.373,17.679 -2.95,12.763 -3.591,-19.303 15.273,-20.748 18.864,-1.433 1.617,-0.877 1.617,-0.877 l 17.984,-1.609 -2.268,4.242"
             id="path87"
             inkscape:connector-curvature="0" /></g></g><polygon
         style="fill:#ffffff"
         points="77.016,65.269 75.431,67.153 75.301,64.695 72.836,64.629 74.682,62.996 73.194,61.03 75.622,61.449 76.23,59.064 77.416,61.223 79.662,60.211 78.711,62.486 80.903,63.611 78.534,64.283 79.021,66.699 "
         id="polygon93" /><polygon
         style="fill:#ffffff"
         points="89.093,50.65 87.507,52.534 87.378,50.076 84.913,50.01 86.758,48.377 85.271,46.411 87.699,46.83 88.307,44.445 89.493,46.604 91.738,45.592 90.789,47.867 92.979,48.992 90.61,49.664 91.098,52.08 "
         id="polygon95" /><polygon
         style="fill:#ffffff"
         points="102.441,61.455 100.855,63.34 100.726,60.881 98.261,60.815 100.106,59.183 98.619,57.217 101.047,57.635 101.655,55.25 102.841,57.409 105.086,56.397 104.136,58.672 106.328,59.798 103.958,60.47 104.446,62.885 "
         id="polygon97" /><polygon
         style="fill:#ffffff"
         points="91,85.609 89.415,87.494 89.285,85.036 86.82,84.969 88.665,83.336 87.178,81.37 89.605,81.789 90.213,79.404 91.4,81.563 93.646,80.551 92.695,82.827 94.886,83.952 92.518,84.624 93.005,87.04 "
         id="polygon99" /><polygon
         style="fill:#ffffff"
         points="95.718,69.683 94.393,70.705 94.39,69.033 93.012,68.088 94.599,67.566 95.071,65.961 96.059,67.312 97.73,67.266 96.75,68.619 97.313,70.197 "
         id="polygon101" /></g></g><g
     inkscape:groupmode="layer"
     id="layer2"
     inkscape:label="pirateparty.org.au/"
     sodipodi:insensitive="true"><text
       xml:space="preserve"
       style="font-style:normal;font-weight:normal;font-size:40px;line-height:25px;font-family:sans-serif;letter-spacing:0px;word-spacing:0px;fill:#231f20;fill-opacity:1;stroke:none"
       x="449.65353"
       y="99.203583"
       id="text4565"><tspan
         sodipodi:role="line"
         id="tspan4563"
         x="449.65353"
         y="99.203583"
         style="font-style:normal;font-variant:normal;font-weight:normal;font-stretch:normal;font-size:106.66666412px;font-family:'Gehen Sans';-inkscape-font-specification:'Gehen Sans';letter-spacing:0px;fill:#231f20;fill-opacity:1">party.org.au/<tspan
   style="font-weight:bold;font-size:106.66666412px;letter-spacing:0px;fill:#231f20;fill-opacity:1"
   id="tspan4561" /></tspan></text>
<text
       xml:space="preserve"
       style="font-style:normal;font-weight:normal;font-size:40px;line-height:25px;font-family:sans-serif;letter-spacing:0px;word-spacing:0px;fill:#0073ae;fill-opacity:1;stroke:none"
       x="125.65353"
       y="99.203583"
       id="text4541"><tspan
         sodipodi:role="line"
         id="tspan4539"
         x="125.65353"
         y="99.203583"
         style="font-style:normal;font-variant:normal;font-weight:normal;font-stretch:normal;font-size:106.66666412px;font-family:'Gehen Sans';-inkscape-font-specification:'Gehen Sans';letter-spacing:0px;fill:#0073ae;fill-opacity:1"><tspan
           id="tspan4535"
           style="font-weight:bold;font-size:106.66666412px;letter-spacing:0px;fill:#0073ae;fill-opacity:1">pirate</tspan></tspan></text>
</g><g
     inkscape:groupmode="layer"
     id="layer3"
     inkscape:label="topic"><text
       xml:space="preserve"
       style="font-style:normal;font-weight:normal;font-size:40px;line-height:25px;font-family:sans-serif;letter-spacing:0px;word-spacing:0px;fill:#0073ae;fill-opacity:1;stroke:none"
       x="1125.6536"
       y="99.203583"
       id="text4557"><tspan
         sodipodi:role="line"
         id="tspan4555"
         x="1125.6536"
         y="99.203583"
         style="font-style:normal;font-variant:normal;font-weight:normal;font-stretch:normal;font-size:106.66666412px;font-family:'Gehen Sans';-inkscape-font-specification:'Gehen Sans';letter-spacing:0px;fill:#0073ae;fill-opacity:1"><tspan
           style="font-weight:bold;font-size:106.66666412px;letter-spacing:0px;fill:#0073ae;fill-opacity:1"
           id="tspan4553">topic</tspan></tspan></text>
</g></svg>