<?xml version="1.0" encoding="UTF-8" standalone="no"?>
<!-- Created with Inkscape (http://www.inkscape.org/) -->

<svg
   xmlns:dc="http://purl.org/dc/elements/1.1/"
   xmlns:cc="http://creativecommons.org/ns#"
   xmlns:rdf="http://www.w3.org/1999/02/22-rdf-syntax-ns#"
   xmlns:svg="http://www.w3.org/2000/svg"
   xmlns="http://www.w3.org/2000/svg"
   xmlns:sodipodi="http://sodipodi.sourceforge.net/DTD/sodipodi-0.dtd"
   xmlns:inkscape="http://www.inkscape.org/namespaces/inkscape"
   width="1200"
   height="1200"
   viewBox="0 0 1200 1200"
   id="svg2"
   version="1.1"
   inkscape:version="0.91 r13725"
   sodipodi:docname="drug-problem.svg"
   inkscape:export-filename="/Users/alexjago/Documents/_PPAU/Memes/Pete-the-pirate/drugs-noteq-crime/drug-problem.png"
   inkscape:export-xdpi="45"
   inkscape:export-ydpi="45">
  <sodipodi:namedview
     id="base"
     pagecolor="#deffde"
     bordercolor="#666666"
     borderopacity="1.0"
     inkscape:pageopacity="1"
     inkscape:pageshadow="2"
     inkscape:zoom="0.54416667"
     inkscape:cx="532.42145"
     inkscape:cy="833.16527"
     inkscape:document-units="px"
     inkscape:current-layer="layer1"
     showgrid="true"
     units="px"
     inkscape:snap-bbox="true"
     inkscape:bbox-nodes="true"
     inkscape:snap-intersection-paths="false"
     inkscape:object-nodes="true"
     inkscape:window-width="1436"
     inkscape:window-height="855"
     inkscape:window-x="0"
     inkscape:window-y="1"
     inkscape:window-maximized="1"
     showguides="false"
     inkscape:snap-smooth-nodes="true">
    <inkscape:grid
       id="grid8072"
       type="xygrid" />
  </sodipodi:namedview>
  <defs
     id="defs4" />
  <metadata
     id="metadata7">
    <rdf:RDF>
      <cc:Work
         rdf:about="">
        <dc:format>image/svg+xml</dc:format>
        <dc:type
           rdf:resource="http://purl.org/dc/dcmitype/StillImage" />
        <dc:title></dc:title>
      </cc:Work>
    </rdf:RDF>
  </metadata>
  <g
     transform="translate(0,147.63784)"
     id="layer1"
     inkscape:groupmode="layer"
     inkscape:label="Layer 1">
    <text
       sodipodi:linespacing="125%"
       id="text8090"
       y="-39.10659"
       x="168.86719"
       style="color:#000000;font-style:normal;font-variant:normal;font-weight:normal;font-stretch:normal;font-size:24px;line-height:125%;font-family:Helvetica;-inkscape-font-specification:Helvetica;text-indent:0;text-align:start;text-decoration:none;text-decoration-line:none;text-decoration-style:solid;text-decoration-color:#000000;letter-spacing:0px;word-spacing:0px;text-transform:none;direction:ltr;block-progression:tb;writing-mode:lr-tb;baseline-shift:baseline;text-anchor:start;white-space:normal;clip-rule:nonzero;display:inline;overflow:visible;visibility:visible;opacity:1;isolation:auto;mix-blend-mode:normal;color-interpolation:sRGB;color-interpolation-filters:linearRGB;solid-color:#000000;solid-opacity:1;fill:#000000;fill-opacity:1;fill-rule:nonzero;stroke:none;stroke-width:1px;stroke-linecap:butt;stroke-linejoin:miter;stroke-miterlimit:4;stroke-dasharray:none;stroke-dashoffset:0;stroke-opacity:1;marker:none;color-rendering:auto;image-rendering:auto;shape-rendering:auto;text-rendering:auto;enable-background:accumulate"
       xml:space="preserve"><tspan
         style="font-style:normal;font-variant:normal;font-weight:bold;font-stretch:normal;font-size:96px;font-family:'Open Sans';-inkscape-font-specification:'Open Sans Bold'"
         y="-39.10659"
         x="168.86719"
         id="tspan8092"
         sodipodi:role="line">Drug.</tspan></text>
    <text
       xml:space="preserve"
       style="color:#000000;font-style:normal;font-variant:normal;font-weight:normal;font-stretch:normal;font-size:24px;line-height:125%;font-family:Helvetica;-inkscape-font-specification:Helvetica;text-indent:0;text-align:start;text-decoration:none;text-decoration-line:none;text-decoration-style:solid;text-decoration-color:#000000;letter-spacing:0px;word-spacing:0px;text-transform:none;direction:ltr;block-progression:tb;writing-mode:lr-tb;baseline-shift:baseline;text-anchor:start;white-space:normal;clip-rule:nonzero;display:inline;overflow:visible;visibility:visible;opacity:1;isolation:auto;mix-blend-mode:normal;color-interpolation:sRGB;color-interpolation-filters:linearRGB;solid-color:#000000;solid-opacity:1;fill:#000000;fill-opacity:1;fill-rule:nonzero;stroke:none;stroke-width:1px;stroke-linecap:butt;stroke-linejoin:miter;stroke-miterlimit:4;stroke-dasharray:none;stroke-dashoffset:0;stroke-opacity:1;marker:none;color-rendering:auto;image-rendering:auto;shape-rendering:auto;text-rendering:auto;enable-background:accumulate"
       x="682.61719"
       y="-34.70034"
       id="text8094"
       sodipodi:linespacing="125%"><tspan
         sodipodi:role="line"
         id="tspan8096"
         x="682.61719"
         y="-34.70034"
         style="font-style:normal;font-variant:normal;font-weight:bold;font-stretch:normal;font-size:96px;font-family:'Open Sans';-inkscape-font-specification:'Open Sans Bold'">Problem.</tspan></text>
    <text
       xml:space="preserve"
       style="color:#000000;font-style:normal;font-variant:normal;font-weight:normal;font-stretch:normal;font-size:24px;line-height:125%;font-family:Helvetica;-inkscape-font-specification:Helvetica;text-indent:0;text-align:start;text-decoration:none;text-decoration-line:none;text-decoration-style:solid;text-decoration-color:#000000;letter-spacing:0px;word-spacing:0px;text-transform:none;direction:ltr;block-progression:tb;writing-mode:lr-tb;baseline-shift:baseline;text-anchor:start;white-space:normal;clip-rule:nonzero;display:inline;overflow:visible;visibility:visible;opacity:1;isolation:auto;mix-blend-mode:normal;color-interpolation:sRGB;color-interpolation-filters:linearRGB;solid-color:#000000;solid-opacity:1;fill:#000000;fill-opacity:1;fill-rule:nonzero;stroke:none;stroke-width:1px;stroke-linecap:butt;stroke-linejoin:miter;stroke-miterlimit:4;stroke-dasharray:none;stroke-dashoffset:0;stroke-opacity:1;marker:none;color-rendering:auto;image-rendering:auto;shape-rendering:auto;text-rendering:auto;enable-background:accumulate"
       x="50.288086"
       y="725.29968"
       id="text8098"
       sodipodi:linespacing="125%"><tspan
         sodipodi:role="line"
         id="tspan8100"
         x="50.288086"
         y="725.29968"
         style="font-style:italic;font-variant:normal;font-weight:normal;font-stretch:normal;font-size:84px;font-family:'Open Sans';-inkscape-font-specification:'Open Sans Italic'">Don't moralise. Decriminalise.</tspan></text>
    <g
       id="g8390"
       style="fill:#008000" />
    <g
       id="g8459">
      <path
         style="fill:none;fill-rule:evenodd;stroke:#008000;stroke-width:16;stroke-linecap:butt;stroke-linejoin:miter;stroke-opacity:1"
         d="m 280,612.36216 0,-80"
         id="path8102"
         inkscape:connector-curvature="0" />
      <g
         style="fill:#008000;fill-rule:nonzero"
         transform="matrix(-0.5625,0,0,1,437.5,0)"
         id="g8394">
        <path
           inkscape:connector-curvature="0"
           d="m 315.32005,508.14532 -15.70154,-12.38685 -5.14296,21.39324 20.8445,-9.00639 m 12.97001,-17.26445 -16.41528,-11.42394 -3.78616,21.70988 20.20144,-10.28594 m 11.71702,-18.18918 -17.11614,-10.34414 -2.23732,22.00059 19.35346,-11.65645 m 10.27035,-19.48418 -18.09339,-8.5198 -0.22212,21.9736 18.31551,-13.4538 m 8.40108,-20.41523 -18.91199,-6.50321 1.89021,21.75387 17.02178,-15.25066 m 6.26168,-21.17832 -19.51034,-4.39351 4.11783,21.37463 15.39251,-16.98112 m 3.99616,-21.67871 -19.86468,-2.31434 6.33302,20.82078 13.53166,-18.50644 m 1.7854,-21.88624 -19.99555,-0.38361 8.39353,20.11944 11.60202,-19.73583 m -0.20892,-21.57259 -19.98428,0.77667 10.21461,19.60434 9.76967,-20.38101 m -1.90236,-21.66956 -19.86823,2.28818 11.72424,18.7713 8.14399,-21.05948 m -3.26076,-21.36601 -19.68943,3.5093 12.90166,18.00739 6.78777,-21.51669 m -4.32374,-21.10231 -19.46939,4.57386 13.77295,17.29863 5.69644,-21.87249 m -5.03518,-20.62397 -19.35848,5.02349 14.43027,16.91394 4.92821,-21.93743 m -5.53809,-20.43944 -19.26642,5.36632 14.8741,16.61694 4.39232,-21.98326 m -5.95518,-20.3115 -19.17396,5.68767 15.22761,16.34367 3.94635,-22.03134 m -6.01764,-20.19485 -19.13236,5.82686 15.27864,16.25313 3.85372,-22.07999 m -6.11821,-20.08897 -19.13236,5.82686 15.39305,16.21892 3.73931,-22.04578 m -6.01919,-20.03048 -19.18066,5.66515 15.34233,16.32214 3.83833,-21.98729 m -5.94841,-20.13968 -19.18065,5.66515 15.25547,16.34808 3.92518,-22.01323 m -5.72084,-20.05087 -19.26262,5.38018 15.10988,16.54423 4.15274,-21.92441 m -5.4199,-20.14321 -19.33585,5.11047 14.85543,16.7597 4.48042,-21.87017 m -5.08214,-20.202607 -19.41848,4.786625 14.57717,17.004422 4.84131,-21.791047 m -4.69847,-20.269334 -19.50678,4.412683 14.25668,17.27904 5.2501,-21.691723 M 280,532.36216 c 160,-160 40,-280 0,-520 m -35.32005,495.78316 15.70154,-12.38685 5.14296,21.39324 -20.8445,-9.00639 m -12.97001,-17.26445 16.41528,-11.42394 3.78616,21.70988 -20.20144,-10.28594 m -11.71702,-18.18918 17.11614,-10.34414 2.23732,22.00059 -19.35346,-11.65645 m -10.27035,-19.48418 18.09339,-8.5198 0.22212,21.9736 -18.31551,-13.4538 m -8.40108,-20.41523 18.91199,-6.50321 -1.89021,21.75387 -17.02178,-15.25066 m -6.26168,-21.17832 19.51034,-4.39351 -4.11783,21.37463 -15.39251,-16.98112 m -3.99616,-21.67871 19.86468,-2.31434 -6.33302,20.82078 -13.53166,-18.50644 m -1.7854,-21.88624 19.99555,-0.38361 -8.39353,20.11944 -11.60202,-19.73583 m 0.20892,-21.57259 19.98428,0.77667 -10.21461,19.60434 -9.76967,-20.38101 m 1.90236,-21.66956 19.86823,2.28818 -11.72424,18.7713 -8.14399,-21.05948 m 3.26076,-21.36601 19.68943,3.5093 -12.90166,18.00739 -6.78777,-21.51669 m 4.32374,-21.10231 19.46939,4.57386 -13.77295,17.29863 -5.69644,-21.87249 m 5.03518,-20.62397 19.35848,5.02349 -14.43027,16.91394 -4.92821,-21.93743 m 5.53809,-20.43944 19.26642,5.36632 -14.8741,16.61694 -4.39232,-21.98326 m 5.95518,-20.3115 19.17396,5.68767 -15.22761,16.34367 -3.94635,-22.03134 m 6.01764,-20.19485 19.13236,5.82686 -15.27864,16.25313 -3.85372,-22.07999 m 6.11821,-20.08897 19.13236,5.82686 -15.39305,16.21892 -3.73931,-22.04578 m 6.01919,-20.03048 19.18066,5.66515 -15.34233,16.32214 -3.83833,-21.98729 m 5.94841,-20.13968 19.18065,5.66515 -15.25547,16.34808 -3.92518,-22.01323 m 5.72084,-20.05087 19.26262,5.38018 -15.10988,16.54423 -4.15274,-21.92441 m 5.4199,-20.14321 19.33585,5.11047 -14.85543,16.7597 -4.48042,-21.87017 m 5.08214,-20.202607 19.41848,4.786625 -14.57717,17.004422 -4.84131,-21.791047 m 4.69847,-20.269334 19.50678,4.412683 -14.25668,17.27904 -5.2501,-21.691723 M 280,532.36216 c -160,-160 -40,-280 0,-520"
           style="fill:#008000;fill-rule:nonzero;stroke:none;stroke-width:1px;stroke-linecap:butt;stroke-linejoin:miter;stroke-opacity:1"
           id="path8398" />
      </g>
      <g
         id="g8437">
        <g
           style="fill:#008000;fill-rule:nonzero"
           transform="matrix(-0.34557977,0.24197756,0.43018233,0.61436403,147.74954,137.54428)"
           id="g8405">
          <path
             inkscape:connector-curvature="0"
             d="m 315.32005,508.14532 -15.70154,-12.38685 -5.14296,21.39324 20.8445,-9.00639 m 12.97001,-17.26445 -16.41528,-11.42394 -3.78616,21.70988 20.20144,-10.28594 m 11.71702,-18.18918 -17.11614,-10.34414 -2.23732,22.00059 19.35346,-11.65645 m 10.27035,-19.48418 -18.09339,-8.5198 -0.22212,21.9736 18.31551,-13.4538 m 8.40108,-20.41523 -18.91199,-6.50321 1.89021,21.75387 17.02178,-15.25066 m 6.26168,-21.17832 -19.51034,-4.39351 4.11783,21.37463 15.39251,-16.98112 m 3.99616,-21.67871 -19.86468,-2.31434 6.33302,20.82078 13.53166,-18.50644 m 1.7854,-21.88624 -19.99555,-0.38361 8.39353,20.11944 11.60202,-19.73583 m -0.20892,-21.57259 -19.98428,0.77667 10.21461,19.60434 9.76967,-20.38101 m -1.90236,-21.66956 -19.86823,2.28818 11.72424,18.7713 8.14399,-21.05948 m -3.26076,-21.36601 -19.68943,3.5093 12.90166,18.00739 6.78777,-21.51669 m -4.32374,-21.10231 -19.46939,4.57386 13.77295,17.29863 5.69644,-21.87249 m -5.03518,-20.62397 -19.35848,5.02349 14.43027,16.91394 4.92821,-21.93743 m -5.53809,-20.43944 -19.26642,5.36632 14.8741,16.61694 4.39232,-21.98326 m -5.95518,-20.3115 -19.17396,5.68767 15.22761,16.34367 3.94635,-22.03134 m -6.01764,-20.19485 -19.13236,5.82686 15.27864,16.25313 3.85372,-22.07999 m -6.11821,-20.08897 -19.13236,5.82686 15.39305,16.21892 3.73931,-22.04578 m -6.01919,-20.03048 -19.18066,5.66515 15.34233,16.32214 3.83833,-21.98729 m -5.94841,-20.13968 -19.18065,5.66515 15.25547,16.34808 3.92518,-22.01323 m -5.72084,-20.05087 -19.26262,5.38018 15.10988,16.54423 4.15274,-21.92441 m -5.4199,-20.14321 -19.33585,5.11047 14.85543,16.7597 4.48042,-21.87017 m -5.08214,-20.202607 -19.41848,4.786625 14.57717,17.004422 4.84131,-21.791047 m -4.69847,-20.269334 -19.50678,4.412683 14.25668,17.27904 5.2501,-21.691723 M 280,532.36216 c 160,-160 40,-280 0,-520 m -35.32005,495.78316 15.70154,-12.38685 5.14296,21.39324 -20.8445,-9.00639 m -12.97001,-17.26445 16.41528,-11.42394 3.78616,21.70988 -20.20144,-10.28594 m -11.71702,-18.18918 17.11614,-10.34414 2.23732,22.00059 -19.35346,-11.65645 m -10.27035,-19.48418 18.09339,-8.5198 0.22212,21.9736 -18.31551,-13.4538 m -8.40108,-20.41523 18.91199,-6.50321 -1.89021,21.75387 -17.02178,-15.25066 m -6.26168,-21.17832 19.51034,-4.39351 -4.11783,21.37463 -15.39251,-16.98112 m -3.99616,-21.67871 19.86468,-2.31434 -6.33302,20.82078 -13.53166,-18.50644 m -1.7854,-21.88624 19.99555,-0.38361 -8.39353,20.11944 -11.60202,-19.73583 m 0.20892,-21.57259 19.98428,0.77667 -10.21461,19.60434 -9.76967,-20.38101 m 1.90236,-21.66956 19.86823,2.28818 -11.72424,18.7713 -8.14399,-21.05948 m 3.26076,-21.36601 19.68943,3.5093 -12.90166,18.00739 -6.78777,-21.51669 m 4.32374,-21.10231 19.46939,4.57386 -13.77295,17.29863 -5.69644,-21.87249 m 5.03518,-20.62397 19.35848,5.02349 -14.43027,16.91394 -4.92821,-21.93743 m 5.53809,-20.43944 19.26642,5.36632 -14.8741,16.61694 -4.39232,-21.98326 m 5.95518,-20.3115 19.17396,5.68767 -15.22761,16.34367 -3.94635,-22.03134 m 6.01764,-20.19485 19.13236,5.82686 -15.27864,16.25313 -3.85372,-22.07999 m 6.11821,-20.08897 19.13236,5.82686 -15.39305,16.21892 -3.73931,-22.04578 m 6.01919,-20.03048 19.18066,5.66515 -15.34233,16.32214 -3.83833,-21.98729 m 5.94841,-20.13968 19.18065,5.66515 -15.25547,16.34808 -3.92518,-22.01323 m 5.72084,-20.05087 19.26262,5.38018 -15.10988,16.54423 -4.15274,-21.92441 m 5.4199,-20.14321 19.33585,5.11047 -14.85543,16.7597 -4.48042,-21.87017 m 5.08214,-20.202607 19.41848,4.786625 -14.57717,17.004422 -4.84131,-21.791047 m 4.69847,-20.269334 19.50678,4.412683 -14.25668,17.27904 -5.2501,-21.691723 M 280,532.36216 c -160,-160 -40,-280 0,-520"
             style="fill:#008000;fill-rule:nonzero;stroke:none;stroke-width:1px;stroke-linecap:butt;stroke-linejoin:miter;stroke-opacity:1"
             id="path8407" />
        </g>
        <g
           id="g8409"
           transform="matrix(-0.10821731,0.29732462,0.52857708,0.19238635,28.906411,346.69205)"
           style="fill:#008000;fill-rule:nonzero">
          <path
             id="path8411"
             style="fill:#008000;fill-rule:nonzero;stroke:none;stroke-width:1px;stroke-linecap:butt;stroke-linejoin:miter;stroke-opacity:1"
             d="m 315.32005,508.14532 -15.70154,-12.38685 -5.14296,21.39324 20.8445,-9.00639 m 12.97001,-17.26445 -16.41528,-11.42394 -3.78616,21.70988 20.20144,-10.28594 m 11.71702,-18.18918 -17.11614,-10.34414 -2.23732,22.00059 19.35346,-11.65645 m 10.27035,-19.48418 -18.09339,-8.5198 -0.22212,21.9736 18.31551,-13.4538 m 8.40108,-20.41523 -18.91199,-6.50321 1.89021,21.75387 17.02178,-15.25066 m 6.26168,-21.17832 -19.51034,-4.39351 4.11783,21.37463 15.39251,-16.98112 m 3.99616,-21.67871 -19.86468,-2.31434 6.33302,20.82078 13.53166,-18.50644 m 1.7854,-21.88624 -19.99555,-0.38361 8.39353,20.11944 11.60202,-19.73583 m -0.20892,-21.57259 -19.98428,0.77667 10.21461,19.60434 9.76967,-20.38101 m -1.90236,-21.66956 -19.86823,2.28818 11.72424,18.7713 8.14399,-21.05948 m -3.26076,-21.36601 -19.68943,3.5093 12.90166,18.00739 6.78777,-21.51669 m -4.32374,-21.10231 -19.46939,4.57386 13.77295,17.29863 5.69644,-21.87249 m -5.03518,-20.62397 -19.35848,5.02349 14.43027,16.91394 4.92821,-21.93743 m -5.53809,-20.43944 -19.26642,5.36632 14.8741,16.61694 4.39232,-21.98326 m -5.95518,-20.3115 -19.17396,5.68767 15.22761,16.34367 3.94635,-22.03134 m -6.01764,-20.19485 -19.13236,5.82686 15.27864,16.25313 3.85372,-22.07999 m -6.11821,-20.08897 -19.13236,5.82686 15.39305,16.21892 3.73931,-22.04578 m -6.01919,-20.03048 -19.18066,5.66515 15.34233,16.32214 3.83833,-21.98729 m -5.94841,-20.13968 -19.18065,5.66515 15.25547,16.34808 3.92518,-22.01323 m -5.72084,-20.05087 -19.26262,5.38018 15.10988,16.54423 4.15274,-21.92441 m -5.4199,-20.14321 -19.33585,5.11047 14.85543,16.7597 4.48042,-21.87017 m -5.08214,-20.202607 -19.41848,4.786625 14.57717,17.004422 4.84131,-21.791047 m -4.69847,-20.269334 -19.50678,4.412683 14.25668,17.27904 5.2501,-21.691723 M 280,532.36216 c 160,-160 40,-280 0,-520 m -35.32005,495.78316 15.70154,-12.38685 5.14296,21.39324 -20.8445,-9.00639 m -12.97001,-17.26445 16.41528,-11.42394 3.78616,21.70988 -20.20144,-10.28594 m -11.71702,-18.18918 17.11614,-10.34414 2.23732,22.00059 -19.35346,-11.65645 m -10.27035,-19.48418 18.09339,-8.5198 0.22212,21.9736 -18.31551,-13.4538 m -8.40108,-20.41523 18.91199,-6.50321 -1.89021,21.75387 -17.02178,-15.25066 m -6.26168,-21.17832 19.51034,-4.39351 -4.11783,21.37463 -15.39251,-16.98112 m -3.99616,-21.67871 19.86468,-2.31434 -6.33302,20.82078 -13.53166,-18.50644 m -1.7854,-21.88624 19.99555,-0.38361 -8.39353,20.11944 -11.60202,-19.73583 m 0.20892,-21.57259 19.98428,0.77667 -10.21461,19.60434 -9.76967,-20.38101 m 1.90236,-21.66956 19.86823,2.28818 -11.72424,18.7713 -8.14399,-21.05948 m 3.26076,-21.36601 19.68943,3.5093 -12.90166,18.00739 -6.78777,-21.51669 m 4.32374,-21.10231 19.46939,4.57386 -13.77295,17.29863 -5.69644,-21.87249 m 5.03518,-20.62397 19.35848,5.02349 -14.43027,16.91394 -4.92821,-21.93743 m 5.53809,-20.43944 19.26642,5.36632 -14.8741,16.61694 -4.39232,-21.98326 m 5.95518,-20.3115 19.17396,5.68767 -15.22761,16.34367 -3.94635,-22.03134 m 6.01764,-20.19485 19.13236,5.82686 -15.27864,16.25313 -3.85372,-22.07999 m 6.11821,-20.08897 19.13236,5.82686 -15.39305,16.21892 -3.73931,-22.04578 m 6.01919,-20.03048 19.18066,5.66515 -15.34233,16.32214 -3.83833,-21.98729 m 5.94841,-20.13968 19.18065,5.66515 -15.25547,16.34808 -3.92518,-22.01323 m 5.72084,-20.05087 19.26262,5.38018 -15.10988,16.54423 -4.15274,-21.92441 m 5.4199,-20.14321 19.33585,5.11047 -14.85543,16.7597 -4.48042,-21.87017 m 5.08214,-20.202607 19.41848,4.786625 -14.57717,17.004422 -4.84131,-21.791047 m 4.69847,-20.269334 19.50678,4.412683 -14.25668,17.27904 -5.2501,-21.691723 M 280,532.36216 c -160,-160 -40,-280 0,-520"
             inkscape:connector-curvature="0" />
        </g>
        <g
           style="fill:#008000;fill-rule:nonzero"
           transform="matrix(0.06141897,0.22921873,0.40749994,-0.10918928,46.192816,526.30915)"
           id="g8413">
          <path
             inkscape:connector-curvature="0"
             d="m 315.32005,508.14532 -15.70154,-12.38685 -5.14296,21.39324 20.8445,-9.00639 m 12.97001,-17.26445 -16.41528,-11.42394 -3.78616,21.70988 20.20144,-10.28594 m 11.71702,-18.18918 -17.11614,-10.34414 -2.23732,22.00059 19.35346,-11.65645 m 10.27035,-19.48418 -18.09339,-8.5198 -0.22212,21.9736 18.31551,-13.4538 m 8.40108,-20.41523 -18.91199,-6.50321 1.89021,21.75387 17.02178,-15.25066 m 6.26168,-21.17832 -19.51034,-4.39351 4.11783,21.37463 15.39251,-16.98112 m 3.99616,-21.67871 -19.86468,-2.31434 6.33302,20.82078 13.53166,-18.50644 m 1.7854,-21.88624 -19.99555,-0.38361 8.39353,20.11944 11.60202,-19.73583 m -0.20892,-21.57259 -19.98428,0.77667 10.21461,19.60434 9.76967,-20.38101 m -1.90236,-21.66956 -19.86823,2.28818 11.72424,18.7713 8.14399,-21.05948 m -3.26076,-21.36601 -19.68943,3.5093 12.90166,18.00739 6.78777,-21.51669 m -4.32374,-21.10231 -19.46939,4.57386 13.77295,17.29863 5.69644,-21.87249 m -5.03518,-20.62397 -19.35848,5.02349 14.43027,16.91394 4.92821,-21.93743 m -5.53809,-20.43944 -19.26642,5.36632 14.8741,16.61694 4.39232,-21.98326 m -5.95518,-20.3115 -19.17396,5.68767 15.22761,16.34367 3.94635,-22.03134 m -6.01764,-20.19485 -19.13236,5.82686 15.27864,16.25313 3.85372,-22.07999 m -6.11821,-20.08897 -19.13236,5.82686 15.39305,16.21892 3.73931,-22.04578 m -6.01919,-20.03048 -19.18066,5.66515 15.34233,16.32214 3.83833,-21.98729 m -5.94841,-20.13968 -19.18065,5.66515 15.25547,16.34808 3.92518,-22.01323 m -5.72084,-20.05087 -19.26262,5.38018 15.10988,16.54423 4.15274,-21.92441 m -5.4199,-20.14321 -19.33585,5.11047 14.85543,16.7597 4.48042,-21.87017 m -5.08214,-20.202607 -19.41848,4.786625 14.57717,17.004422 4.84131,-21.791047 m -4.69847,-20.269334 -19.50678,4.412683 14.25668,17.27904 5.2501,-21.691723 M 280,532.36216 c 160,-160 40,-280 0,-520 m -35.32005,495.78316 15.70154,-12.38685 5.14296,21.39324 -20.8445,-9.00639 m -12.97001,-17.26445 16.41528,-11.42394 3.78616,21.70988 -20.20144,-10.28594 m -11.71702,-18.18918 17.11614,-10.34414 2.23732,22.00059 -19.35346,-11.65645 m -10.27035,-19.48418 18.09339,-8.5198 0.22212,21.9736 -18.31551,-13.4538 m -8.40108,-20.41523 18.91199,-6.50321 -1.89021,21.75387 -17.02178,-15.25066 m -6.26168,-21.17832 19.51034,-4.39351 -4.11783,21.37463 -15.39251,-16.98112 m -3.99616,-21.67871 19.86468,-2.31434 -6.33302,20.82078 -13.53166,-18.50644 m -1.7854,-21.88624 19.99555,-0.38361 -8.39353,20.11944 -11.60202,-19.73583 m 0.20892,-21.57259 19.98428,0.77667 -10.21461,19.60434 -9.76967,-20.38101 m 1.90236,-21.66956 19.86823,2.28818 -11.72424,18.7713 -8.14399,-21.05948 m 3.26076,-21.36601 19.68943,3.5093 -12.90166,18.00739 -6.78777,-21.51669 m 4.32374,-21.10231 19.46939,4.57386 -13.77295,17.29863 -5.69644,-21.87249 m 5.03518,-20.62397 19.35848,5.02349 -14.43027,16.91394 -4.92821,-21.93743 m 5.53809,-20.43944 19.26642,5.36632 -14.8741,16.61694 -4.39232,-21.98326 m 5.95518,-20.3115 19.17396,5.68767 -15.22761,16.34367 -3.94635,-22.03134 m 6.01764,-20.19485 19.13236,5.82686 -15.27864,16.25313 -3.85372,-22.07999 m 6.11821,-20.08897 19.13236,5.82686 -15.39305,16.21892 -3.73931,-22.04578 m 6.01919,-20.03048 19.18066,5.66515 -15.34233,16.32214 -3.83833,-21.98729 m 5.94841,-20.13968 19.18065,5.66515 -15.25547,16.34808 -3.92518,-22.01323 m 5.72084,-20.05087 19.26262,5.38018 -15.10988,16.54423 -4.15274,-21.92441 m 5.4199,-20.14321 19.33585,5.11047 -14.85543,16.7597 -4.48042,-21.87017 m 5.08214,-20.202607 19.41848,4.786625 -14.57717,17.004422 -4.84131,-21.791047 m 4.69847,-20.269334 19.50678,4.412683 -14.25668,17.27904 -5.2501,-21.691723 M 280,532.36216 c -160,-160 -40,-280 0,-520"
             style="fill:#008000;fill-rule:nonzero;stroke:none;stroke-width:1px;stroke-linecap:butt;stroke-linejoin:miter;stroke-opacity:1"
             id="path8415" />
        </g>
      </g>
      <g
         transform="matrix(-1,0,0,1,560,1.1628952e-6)"
         id="g8445">
        <g
           id="g8447"
           transform="matrix(-0.34557977,0.24197756,0.43018233,0.61436403,147.74954,137.54428)"
           style="fill:#008000;fill-rule:nonzero">
          <path
             id="path8449"
             style="fill:#008000;fill-rule:nonzero;stroke:none;stroke-width:1px;stroke-linecap:butt;stroke-linejoin:miter;stroke-opacity:1"
             d="m 315.32005,508.14532 -15.70154,-12.38685 -5.14296,21.39324 20.8445,-9.00639 m 12.97001,-17.26445 -16.41528,-11.42394 -3.78616,21.70988 20.20144,-10.28594 m 11.71702,-18.18918 -17.11614,-10.34414 -2.23732,22.00059 19.35346,-11.65645 m 10.27035,-19.48418 -18.09339,-8.5198 -0.22212,21.9736 18.31551,-13.4538 m 8.40108,-20.41523 -18.91199,-6.50321 1.89021,21.75387 17.02178,-15.25066 m 6.26168,-21.17832 -19.51034,-4.39351 4.11783,21.37463 15.39251,-16.98112 m 3.99616,-21.67871 -19.86468,-2.31434 6.33302,20.82078 13.53166,-18.50644 m 1.7854,-21.88624 -19.99555,-0.38361 8.39353,20.11944 11.60202,-19.73583 m -0.20892,-21.57259 -19.98428,0.77667 10.21461,19.60434 9.76967,-20.38101 m -1.90236,-21.66956 -19.86823,2.28818 11.72424,18.7713 8.14399,-21.05948 m -3.26076,-21.36601 -19.68943,3.5093 12.90166,18.00739 6.78777,-21.51669 m -4.32374,-21.10231 -19.46939,4.57386 13.77295,17.29863 5.69644,-21.87249 m -5.03518,-20.62397 -19.35848,5.02349 14.43027,16.91394 4.92821,-21.93743 m -5.53809,-20.43944 -19.26642,5.36632 14.8741,16.61694 4.39232,-21.98326 m -5.95518,-20.3115 -19.17396,5.68767 15.22761,16.34367 3.94635,-22.03134 m -6.01764,-20.19485 -19.13236,5.82686 15.27864,16.25313 3.85372,-22.07999 m -6.11821,-20.08897 -19.13236,5.82686 15.39305,16.21892 3.73931,-22.04578 m -6.01919,-20.03048 -19.18066,5.66515 15.34233,16.32214 3.83833,-21.98729 m -5.94841,-20.13968 -19.18065,5.66515 15.25547,16.34808 3.92518,-22.01323 m -5.72084,-20.05087 -19.26262,5.38018 15.10988,16.54423 4.15274,-21.92441 m -5.4199,-20.14321 -19.33585,5.11047 14.85543,16.7597 4.48042,-21.87017 m -5.08214,-20.202607 -19.41848,4.786625 14.57717,17.004422 4.84131,-21.791047 m -4.69847,-20.269334 -19.50678,4.412683 14.25668,17.27904 5.2501,-21.691723 M 280,532.36216 c 160,-160 40,-280 0,-520 m -35.32005,495.78316 15.70154,-12.38685 5.14296,21.39324 -20.8445,-9.00639 m -12.97001,-17.26445 16.41528,-11.42394 3.78616,21.70988 -20.20144,-10.28594 m -11.71702,-18.18918 17.11614,-10.34414 2.23732,22.00059 -19.35346,-11.65645 m -10.27035,-19.48418 18.09339,-8.5198 0.22212,21.9736 -18.31551,-13.4538 m -8.40108,-20.41523 18.91199,-6.50321 -1.89021,21.75387 -17.02178,-15.25066 m -6.26168,-21.17832 19.51034,-4.39351 -4.11783,21.37463 -15.39251,-16.98112 m -3.99616,-21.67871 19.86468,-2.31434 -6.33302,20.82078 -13.53166,-18.50644 m -1.7854,-21.88624 19.99555,-0.38361 -8.39353,20.11944 -11.60202,-19.73583 m 0.20892,-21.57259 19.98428,0.77667 -10.21461,19.60434 -9.76967,-20.38101 m 1.90236,-21.66956 19.86823,2.28818 -11.72424,18.7713 -8.14399,-21.05948 m 3.26076,-21.36601 19.68943,3.5093 -12.90166,18.00739 -6.78777,-21.51669 m 4.32374,-21.10231 19.46939,4.57386 -13.77295,17.29863 -5.69644,-21.87249 m 5.03518,-20.62397 19.35848,5.02349 -14.43027,16.91394 -4.92821,-21.93743 m 5.53809,-20.43944 19.26642,5.36632 -14.8741,16.61694 -4.39232,-21.98326 m 5.95518,-20.3115 19.17396,5.68767 -15.22761,16.34367 -3.94635,-22.03134 m 6.01764,-20.19485 19.13236,5.82686 -15.27864,16.25313 -3.85372,-22.07999 m 6.11821,-20.08897 19.13236,5.82686 -15.39305,16.21892 -3.73931,-22.04578 m 6.01919,-20.03048 19.18066,5.66515 -15.34233,16.32214 -3.83833,-21.98729 m 5.94841,-20.13968 19.18065,5.66515 -15.25547,16.34808 -3.92518,-22.01323 m 5.72084,-20.05087 19.26262,5.38018 -15.10988,16.54423 -4.15274,-21.92441 m 5.4199,-20.14321 19.33585,5.11047 -14.85543,16.7597 -4.48042,-21.87017 m 5.08214,-20.202607 19.41848,4.786625 -14.57717,17.004422 -4.84131,-21.791047 m 4.69847,-20.269334 19.50678,4.412683 -14.25668,17.27904 -5.2501,-21.691723 M 280,532.36216 c -160,-160 -40,-280 0,-520"
             inkscape:connector-curvature="0" />
        </g>
        <g
           style="fill:#008000;fill-rule:nonzero"
           transform="matrix(-0.10821731,0.29732462,0.52857708,0.19238635,28.906411,346.69205)"
           id="g8451">
          <path
             inkscape:connector-curvature="0"
             d="m 315.32005,508.14532 -15.70154,-12.38685 -5.14296,21.39324 20.8445,-9.00639 m 12.97001,-17.26445 -16.41528,-11.42394 -3.78616,21.70988 20.20144,-10.28594 m 11.71702,-18.18918 -17.11614,-10.34414 -2.23732,22.00059 19.35346,-11.65645 m 10.27035,-19.48418 -18.09339,-8.5198 -0.22212,21.9736 18.31551,-13.4538 m 8.40108,-20.41523 -18.91199,-6.50321 1.89021,21.75387 17.02178,-15.25066 m 6.26168,-21.17832 -19.51034,-4.39351 4.11783,21.37463 15.39251,-16.98112 m 3.99616,-21.67871 -19.86468,-2.31434 6.33302,20.82078 13.53166,-18.50644 m 1.7854,-21.88624 -19.99555,-0.38361 8.39353,20.11944 11.60202,-19.73583 m -0.20892,-21.57259 -19.98428,0.77667 10.21461,19.60434 9.76967,-20.38101 m -1.90236,-21.66956 -19.86823,2.28818 11.72424,18.7713 8.14399,-21.05948 m -3.26076,-21.36601 -19.68943,3.5093 12.90166,18.00739 6.78777,-21.51669 m -4.32374,-21.10231 -19.46939,4.57386 13.77295,17.29863 5.69644,-21.87249 m -5.03518,-20.62397 -19.35848,5.02349 14.43027,16.91394 4.92821,-21.93743 m -5.53809,-20.43944 -19.26642,5.36632 14.8741,16.61694 4.39232,-21.98326 m -5.95518,-20.3115 -19.17396,5.68767 15.22761,16.34367 3.94635,-22.03134 m -6.01764,-20.19485 -19.13236,5.82686 15.27864,16.25313 3.85372,-22.07999 m -6.11821,-20.08897 -19.13236,5.82686 15.39305,16.21892 3.73931,-22.04578 m -6.01919,-20.03048 -19.18066,5.66515 15.34233,16.32214 3.83833,-21.98729 m -5.94841,-20.13968 -19.18065,5.66515 15.25547,16.34808 3.92518,-22.01323 m -5.72084,-20.05087 -19.26262,5.38018 15.10988,16.54423 4.15274,-21.92441 m -5.4199,-20.14321 -19.33585,5.11047 14.85543,16.7597 4.48042,-21.87017 m -5.08214,-20.202607 -19.41848,4.786625 14.57717,17.004422 4.84131,-21.791047 m -4.69847,-20.269334 -19.50678,4.412683 14.25668,17.27904 5.2501,-21.691723 M 280,532.36216 c 160,-160 40,-280 0,-520 m -35.32005,495.78316 15.70154,-12.38685 5.14296,21.39324 -20.8445,-9.00639 m -12.97001,-17.26445 16.41528,-11.42394 3.78616,21.70988 -20.20144,-10.28594 m -11.71702,-18.18918 17.11614,-10.34414 2.23732,22.00059 -19.35346,-11.65645 m -10.27035,-19.48418 18.09339,-8.5198 0.22212,21.9736 -18.31551,-13.4538 m -8.40108,-20.41523 18.91199,-6.50321 -1.89021,21.75387 -17.02178,-15.25066 m -6.26168,-21.17832 19.51034,-4.39351 -4.11783,21.37463 -15.39251,-16.98112 m -3.99616,-21.67871 19.86468,-2.31434 -6.33302,20.82078 -13.53166,-18.50644 m -1.7854,-21.88624 19.99555,-0.38361 -8.39353,20.11944 -11.60202,-19.73583 m 0.20892,-21.57259 19.98428,0.77667 -10.21461,19.60434 -9.76967,-20.38101 m 1.90236,-21.66956 19.86823,2.28818 -11.72424,18.7713 -8.14399,-21.05948 m 3.26076,-21.36601 19.68943,3.5093 -12.90166,18.00739 -6.78777,-21.51669 m 4.32374,-21.10231 19.46939,4.57386 -13.77295,17.29863 -5.69644,-21.87249 m 5.03518,-20.62397 19.35848,5.02349 -14.43027,16.91394 -4.92821,-21.93743 m 5.53809,-20.43944 19.26642,5.36632 -14.8741,16.61694 -4.39232,-21.98326 m 5.95518,-20.3115 19.17396,5.68767 -15.22761,16.34367 -3.94635,-22.03134 m 6.01764,-20.19485 19.13236,5.82686 -15.27864,16.25313 -3.85372,-22.07999 m 6.11821,-20.08897 19.13236,5.82686 -15.39305,16.21892 -3.73931,-22.04578 m 6.01919,-20.03048 19.18066,5.66515 -15.34233,16.32214 -3.83833,-21.98729 m 5.94841,-20.13968 19.18065,5.66515 -15.25547,16.34808 -3.92518,-22.01323 m 5.72084,-20.05087 19.26262,5.38018 -15.10988,16.54423 -4.15274,-21.92441 m 5.4199,-20.14321 19.33585,5.11047 -14.85543,16.7597 -4.48042,-21.87017 m 5.08214,-20.202607 19.41848,4.786625 -14.57717,17.004422 -4.84131,-21.791047 m 4.69847,-20.269334 19.50678,4.412683 -14.25668,17.27904 -5.2501,-21.691723 M 280,532.36216 c -160,-160 -40,-280 0,-520"
             style="fill:#008000;fill-rule:nonzero;stroke:none;stroke-width:1px;stroke-linecap:butt;stroke-linejoin:miter;stroke-opacity:1"
             id="path8453" />
        </g>
        <g
           id="g8455"
           transform="matrix(0.06141897,0.22921873,0.40749994,-0.10918928,46.192816,526.30915)"
           style="fill:#008000;fill-rule:nonzero">
          <path
             id="path8457"
             style="fill:#008000;fill-rule:nonzero;stroke:none;stroke-width:1px;stroke-linecap:butt;stroke-linejoin:miter;stroke-opacity:1"
             d="m 315.32005,508.14532 -15.70154,-12.38685 -5.14296,21.39324 20.8445,-9.00639 m 12.97001,-17.26445 -16.41528,-11.42394 -3.78616,21.70988 20.20144,-10.28594 m 11.71702,-18.18918 -17.11614,-10.34414 -2.23732,22.00059 19.35346,-11.65645 m 10.27035,-19.48418 -18.09339,-8.5198 -0.22212,21.9736 18.31551,-13.4538 m 8.40108,-20.41523 -18.91199,-6.50321 1.89021,21.75387 17.02178,-15.25066 m 6.26168,-21.17832 -19.51034,-4.39351 4.11783,21.37463 15.39251,-16.98112 m 3.99616,-21.67871 -19.86468,-2.31434 6.33302,20.82078 13.53166,-18.50644 m 1.7854,-21.88624 -19.99555,-0.38361 8.39353,20.11944 11.60202,-19.73583 m -0.20892,-21.57259 -19.98428,0.77667 10.21461,19.60434 9.76967,-20.38101 m -1.90236,-21.66956 -19.86823,2.28818 11.72424,18.7713 8.14399,-21.05948 m -3.26076,-21.36601 -19.68943,3.5093 12.90166,18.00739 6.78777,-21.51669 m -4.32374,-21.10231 -19.46939,4.57386 13.77295,17.29863 5.69644,-21.87249 m -5.03518,-20.62397 -19.35848,5.02349 14.43027,16.91394 4.92821,-21.93743 m -5.53809,-20.43944 -19.26642,5.36632 14.8741,16.61694 4.39232,-21.98326 m -5.95518,-20.3115 -19.17396,5.68767 15.22761,16.34367 3.94635,-22.03134 m -6.01764,-20.19485 -19.13236,5.82686 15.27864,16.25313 3.85372,-22.07999 m -6.11821,-20.08897 -19.13236,5.82686 15.39305,16.21892 3.73931,-22.04578 m -6.01919,-20.03048 -19.18066,5.66515 15.34233,16.32214 3.83833,-21.98729 m -5.94841,-20.13968 -19.18065,5.66515 15.25547,16.34808 3.92518,-22.01323 m -5.72084,-20.05087 -19.26262,5.38018 15.10988,16.54423 4.15274,-21.92441 m -5.4199,-20.14321 -19.33585,5.11047 14.85543,16.7597 4.48042,-21.87017 m -5.08214,-20.202607 -19.41848,4.786625 14.57717,17.004422 4.84131,-21.791047 m -4.69847,-20.269334 -19.50678,4.412683 14.25668,17.27904 5.2501,-21.691723 M 280,532.36216 c 160,-160 40,-280 0,-520 m -35.32005,495.78316 15.70154,-12.38685 5.14296,21.39324 -20.8445,-9.00639 m -12.97001,-17.26445 16.41528,-11.42394 3.78616,21.70988 -20.20144,-10.28594 m -11.71702,-18.18918 17.11614,-10.34414 2.23732,22.00059 -19.35346,-11.65645 m -10.27035,-19.48418 18.09339,-8.5198 0.22212,21.9736 -18.31551,-13.4538 m -8.40108,-20.41523 18.91199,-6.50321 -1.89021,21.75387 -17.02178,-15.25066 m -6.26168,-21.17832 19.51034,-4.39351 -4.11783,21.37463 -15.39251,-16.98112 m -3.99616,-21.67871 19.86468,-2.31434 -6.33302,20.82078 -13.53166,-18.50644 m -1.7854,-21.88624 19.99555,-0.38361 -8.39353,20.11944 -11.60202,-19.73583 m 0.20892,-21.57259 19.98428,0.77667 -10.21461,19.60434 -9.76967,-20.38101 m 1.90236,-21.66956 19.86823,2.28818 -11.72424,18.7713 -8.14399,-21.05948 m 3.26076,-21.36601 19.68943,3.5093 -12.90166,18.00739 -6.78777,-21.51669 m 4.32374,-21.10231 19.46939,4.57386 -13.77295,17.29863 -5.69644,-21.87249 m 5.03518,-20.62397 19.35848,5.02349 -14.43027,16.91394 -4.92821,-21.93743 m 5.53809,-20.43944 19.26642,5.36632 -14.8741,16.61694 -4.39232,-21.98326 m 5.95518,-20.3115 19.17396,5.68767 -15.22761,16.34367 -3.94635,-22.03134 m 6.01764,-20.19485 19.13236,5.82686 -15.27864,16.25313 -3.85372,-22.07999 m 6.11821,-20.08897 19.13236,5.82686 -15.39305,16.21892 -3.73931,-22.04578 m 6.01919,-20.03048 19.18066,5.66515 -15.34233,16.32214 -3.83833,-21.98729 m 5.94841,-20.13968 19.18065,5.66515 -15.25547,16.34808 -3.92518,-22.01323 m 5.72084,-20.05087 19.26262,5.38018 -15.10988,16.54423 -4.15274,-21.92441 m 5.4199,-20.14321 19.33585,5.11047 -14.85543,16.7597 -4.48042,-21.87017 m 5.08214,-20.202607 19.41848,4.786625 -14.57717,17.004422 -4.84131,-21.791047 m 4.69847,-20.269334 19.50678,4.412683 -14.25668,17.27904 -5.2501,-21.691723 M 280,532.36216 c -160,-160 -40,-280 0,-520"
             inkscape:connector-curvature="0" />
        </g>
      </g>
    </g>
    <path
       inkscape:connector-curvature="0"
       id="path8555"
       d="m 1056,452.36216 0,-440"
       style="fill:none;fill-rule:evenodd;stroke:#333333;stroke-width:40;stroke-linecap:butt;stroke-linejoin:miter;stroke-miterlimit:4;stroke-dasharray:none;stroke-opacity:1"
       sodipodi:nodetypes="cc" />
    <path
       inkscape:connector-curvature="0"
       id="path8557"
       d="m 1140,452.36216 0,-440"
       style="fill:none;fill-rule:evenodd;stroke:#333333;stroke-width:40;stroke-linecap:butt;stroke-linejoin:miter;stroke-miterlimit:4;stroke-dasharray:none;stroke-opacity:1"
       sodipodi:nodetypes="cc" />
    <path
       style="fill:none;fill-rule:evenodd;stroke:#333333;stroke-width:40;stroke-linecap:butt;stroke-linejoin:miter;stroke-miterlimit:4;stroke-dasharray:none;stroke-opacity:1"
       d="m 968.79999,452.36216 0,-440"
       id="path8553"
       inkscape:connector-curvature="0"
       sodipodi:nodetypes="cc" />
    <g
       id="g8561"
       transform="matrix(-1,0,0,1,1891.425,-16)"
       style="fill:#2db6ff;fill-opacity:1">
      <path
         style="fill:#2db6ff;fill-opacity:1;fill-rule:evenodd;stroke:#000000;stroke-width:8;stroke-linecap:butt;stroke-linejoin:round;stroke-opacity:1"
         d="m 1095.7617,376.08804 c 0,80 4.2383,26.27412 -15.7617,126.27412 l -25,100 -55,0 35,-20 5,-90 27.7259,-84"
         id="path10033"
         inkscape:connector-curvature="0"
         sodipodi:nodetypes="ccccccc" />
      <path
         sodipodi:nodetypes="ccccccccc"
         inkscape:connector-curvature="0"
         id="path8223"
         d="m 1098.7259,242.36216 0,145 c 1.2741,45 1.2741,45 -18.7259,125 l -5,100 -55,0 35,-20 -2.9494,-77.07423 L 1060,412.36216 c 0,-20 3.7259,-10 3.7259,-160"
         style="fill:#2db6ff;fill-opacity:1;fill-rule:evenodd;stroke:#000000;stroke-width:8;stroke-linecap:butt;stroke-linejoin:round;stroke-opacity:1" />
      <g
         style="stroke:#000000;fill:#2db6ff;fill-opacity:1"
         transform="translate(183.72589,-240)"
         id="g8230">
        <g
           style="stroke:#000000;fill:#2db6ff;fill-opacity:1"
           id="g8217"
           transform="translate(60.609153,-88.893424)">
          <ellipse
             ry="67.14286"
             rx="58.57143"
             cy="512.94073"
             cx="830.3454"
             id="path8826"
             style="display:inline;opacity:1;fill:#2db6ff;fill-opacity:1;stroke:#000000;stroke-width:8;stroke-linecap:round;stroke-linejoin:round;stroke-miterlimit:4;stroke-dasharray:none;stroke-dashoffset:0;stroke-opacity:1" />
          <path
             sodipodi:nodetypes="sssss"
             inkscape:connector-curvature="0"
             d="m 888.91682,512.94071 c 0,37.08198 -26.22332,67.14286 -58.57143,67.14286 -32.34811,0 -58.57143,-30.06088 -58.57143,-67.14286 0,-37.08198 26.22332,-67.14286 58.57143,-67.14286 32.34811,0 58.57143,30.06088 58.57143,67.14286 z"
             style="display:inline;opacity:1;fill:#2db6ff;fill-opacity:1;stroke:#000000;stroke-width:8;stroke-linecap:round;stroke-linejoin:miter;stroke-miterlimit:4;stroke-dasharray:none;stroke-dashoffset:0;stroke-opacity:1"
             id="ellipse8156" />
        </g>
      </g>
      <path
         sodipodi:nodetypes="cccccc"
         inkscape:connector-curvature="0"
         d="m 1065,272.36216 -45,20 c -45.85568,23.32572 -43.63199,14.54573 -70,20 -40,-30 -40,40 0,20 l 70,-10 79,-25"
         style="fill:#2db6ff;fill-opacity:1;fill-rule:evenodd;stroke:#000000;stroke-width:8;stroke-linecap:round;stroke-linejoin:round;stroke-opacity:1"
         id="path8290" />
      <path
         inkscape:connector-curvature="0"
         id="path8320"
         d="m 1098.7259,257.36216 0,65"
         style="fill:#2db6ff;fill-rule:evenodd;stroke:#000000;stroke-width:8;stroke-linecap:butt;stroke-linejoin:miter;stroke-opacity:1;fill-opacity:1" />
    </g>
    <path
       style="opacity:1;fill:#333333;fill-opacity:1;fill-rule:nonzero;stroke:none;stroke-width:8;stroke-linecap:butt;stroke-linejoin:round;stroke-miterlimit:4;stroke-dasharray:none;stroke-dashoffset:0;stroke-opacity:1"
       d="m 840,372.36216 320,-120 0,230 -290,130 -270,0 0,-240 z"
       id="rect8536"
       inkscape:connector-curvature="0"
       sodipodi:nodetypes="ccccccc" />
    <g
       id="g8835"
       transform="matrix(-1,0,0,1,1351.425,-270)"
       style="stroke:#000000;fill:#2db6ff;fill-opacity:1">
      <path
         id="path8841"
         style="fill:#2db6ff;fill-opacity:1;fill-rule:nonzero;stroke:#000000;stroke-width:8;stroke-linecap:round;stroke-linejoin:round;stroke-opacity:1"
         d="M 320,842.36216 375.18528,853.32237 338.65237,833.11254 320,772.36216 l -20,-70 -25,-125 -25,0 -10,125 c 0,20 -0.60717,29.35264 11.91575,72.28487 C 260,802.36216 270,852.36216 270,852.36216 l 45,10 -30,-30 3.65237,-59.24962 L 280,732.36216 l 20,40 z"
         inkscape:connector-curvature="0"
         sodipodi:nodetypes="ccccccccsccccccc" />
      <path
         style="display:inline;opacity:1;fill:#2db6ff;fill-opacity:1;stroke:#000000;stroke-width:8;stroke-linecap:round;stroke-linejoin:round;stroke-miterlimit:4;stroke-dasharray:none;stroke-dashoffset:0;stroke-opacity:1"
         d="M 262.80196,562.43005 C 275,577.36216 275,567.36216 290,582.36216 l 40,10 40,-10 c 2,-2 3.41993,-3.82854 10,-3.82854 6.58007,0 11.91426,5.3342 11.91426,11.91427 0,6.58007 -5.33528,12.03397 -11.91426,11.91427 -11.53291,-0.20983 -45,15 -55,10 l -45,10"
         id="path8843"
         inkscape:connector-curvature="0"
         sodipodi:nodetypes="ccccssscc" />
      <path
         style="display:inline;opacity:1;fill:#2db6ff;fill-opacity:1;stroke:#000000;stroke-width:8;stroke-linecap:round;stroke-linejoin:round;stroke-miterlimit:4;stroke-dasharray:none;stroke-dashoffset:0;stroke-opacity:1"
         d="M 262.80196,562.43005 C 250,577.36216 250,582.36216 235,597.36216 c -7.14286,34.28571 -8.46709,49.02949 -8.46709,60.20983 0,30 9.75435,55.9859 20.82578,56.34304 6.57665,0.21215 11.91426,-5.3342 11.91426,-11.91427 0,-6.58007 -1.27147,-11.84323 -4.56151,-11.84323 -6.58007,0 -8.17853,-37.58553 -8.17853,-37.58553 l 5,-25.00001"
         id="path8847"
         inkscape:connector-curvature="0"
         sodipodi:nodetypes="ccsssccc" />
      <ellipse
         style="display:inline;opacity:1;fill:#2db6ff;fill-opacity:1;stroke:#000000;stroke-width:8;stroke-linecap:round;stroke-linejoin:round;stroke-miterlimit:4;stroke-dasharray:none;stroke-dashoffset:0;stroke-opacity:1"
         id="ellipse8849"
         cx="264.23029"
         cy="525.76453"
         rx="46.057144"
         ry="52.914288" />
    </g>
    <g
       id="g8300"
       transform="translate(273.72589,-245)"
       style="stroke:#000000" />
    <path
       inkscape:connector-curvature="0"
       id="path8541"
       d="m 620,452.36216 0,-440"
       style="fill:none;fill-rule:evenodd;stroke:#333333;stroke-width:40;stroke-linecap:butt;stroke-linejoin:miter;stroke-miterlimit:4;stroke-dasharray:none;stroke-opacity:1"
       sodipodi:nodetypes="cc" />
    <path
       style="fill:none;fill-rule:evenodd;stroke:#333333;stroke-width:40;stroke-linecap:butt;stroke-linejoin:miter;stroke-miterlimit:4;stroke-dasharray:none;stroke-opacity:1"
       d="m 707.20001,452.36216 0,-440"
       id="path8545"
       inkscape:connector-curvature="0"
       sodipodi:nodetypes="cc" />
    <path
       style="fill:none;fill-rule:evenodd;stroke:#333333;stroke-width:40;stroke-linecap:butt;stroke-linejoin:miter;stroke-miterlimit:4;stroke-dasharray:none;stroke-opacity:1"
       d="m 794.40002,452.36216 0,-440"
       id="path8547"
       inkscape:connector-curvature="0"
       sodipodi:nodetypes="cc" />
    <path
       inkscape:connector-curvature="0"
       id="path8549"
       d="m 881.59998,452.36216 0,-440"
       style="fill:none;fill-rule:evenodd;stroke:#333333;stroke-width:40;stroke-linecap:butt;stroke-linejoin:miter;stroke-miterlimit:4;stroke-dasharray:none;stroke-opacity:1"
       sodipodi:nodetypes="cc" />
    <g
       style="display:inline;opacity:1"
       id="g9710"
       transform="translate(315.50557,759.36813)">
      <g
         id="Text">
        <g
           id="g9623">
          <path
             id="path9625"
             d="m 170.345,78.778 0,16.65 -11.264,0 0,-54.079 11.264,0 0,3.428 c 1.936,-1.936 3.754,-3.148 5.457,-3.638 1.702,-0.49 3.778,-0.735 6.226,-0.735 4.314,0 7.882,1.924 10.704,5.771 2.822,3.848 4.221,8.78 4.198,14.796 -0.023,6.04 -1.458,10.646 -4.302,13.817 -2.729,3.055 -6.25,5.025 -10.564,5.912 -0.7,0.14 -3.032,0.082 -6.996,-0.175 -1.633,-0.115 -3.208,-0.698 -4.723,-1.747 z M 177.831,49.5 c -2.402,0 -4.256,0.991 -5.562,2.974 -1.282,1.958 -1.924,4.792 -1.924,8.5 l 0,9.725 c 0.443,1.166 2.938,1.749 7.486,1.749 2.425,0 4.272,-0.979 5.545,-2.938 1.269,-1.959 1.905,-4.804 1.905,-8.536 0,-3.731 -0.641,-6.576 -1.924,-8.535 -1.282,-1.96 -3.125,-2.939 -5.526,-2.939 z"
             style="fill:#0073ae"
             inkscape:connector-curvature="0" />
          <path
             id="path9627"
             d="m 205.362,26.098 11.264,0 0,10.214 -11.264,0 0,-10.214 z m 0,15.251 11.264,0 0,39.178 -11.264,0 0,-39.178 z"
             style="fill:#0073ae"
             inkscape:connector-curvature="0" />
          <path
             id="path9629"
             d="m 241.186,55.761 c -1.562,2.519 -2.344,4.757 -2.344,6.716 l 0,18.05 -11.263,0 0,-39.178 11.263,0 0,6.437 c 1.446,-2.565 3.113,-4.431 5.002,-5.597 1.866,-1.189 4.116,-1.784 6.751,-1.784 0.374,0 0.781,0.012 1.225,0.035 0.163,0 0.804,0.082 1.924,0.245 l 0,8.535 c -5.411,-0.42 -9.597,1.76 -12.558,6.541 z"
             style="fill:#0073ae"
             inkscape:connector-curvature="0" />
          <path
             id="path9631"
             d="m 292.541,78.253 c -4.454,2.286 -9.958,3.428 -16.51,3.428 -8.045,0 -13.292,-1.224 -15.741,-3.672 -2.285,-2.286 -3.428,-5.364 -3.428,-9.235 0,-4.594 1.422,-7.964 4.267,-10.109 2.845,-2.146 7.309,-3.218 13.395,-3.218 l 6.646,0 0,-0.979 c 0,-1.982 -0.704,-3.435 -2.115,-4.354 -1.411,-0.923 -3.598,-1.383 -6.56,-1.383 -2.425,0 -4.673,0.268 -6.749,0.805 -2.076,0.536 -4.011,1.341 -5.807,2.414 l 0,-9.55 c 2.425,-0.653 4.851,-1.143 7.276,-1.469 2.588,-0.35 5.023,-0.524 7.308,-0.524 6.39,0 10.984,1.388 13.782,4.163 2.822,2.798 4.235,7.334 4.235,13.607 l 0,20.076 z m -17.21,-15.356 c -2.332,0 -4.104,0.443 -5.317,1.329 -1.236,0.909 -1.833,2.215 -1.786,3.918 0.047,1.539 0.527,2.775 1.437,3.708 0.723,0.746 2.052,1.201 3.988,1.364 3.545,0.303 6.026,0.082 7.448,-0.665 0.047,-0.023 0.07,-2.764 0.07,-8.22 l 0,-1.434 -5.84,0 z"
             style="fill:#0073ae"
             inkscape:connector-curvature="0" />
          <path
             id="path9633"
             d="m 298.56,50.304 0,-1.609 15.146,-18.469 1.749,0 0,11.124 11.613,0 0,8.955 -11.613,0 0,16.615 c 0,1.819 0.315,3.043 0.945,3.673 0.652,0.653 1.947,0.979 3.882,0.979 l 5.807,0 0,8.955 -9.654,0 c -4.454,0 -7.614,-1.026 -9.479,-3.079 -1.866,-2.052 -2.798,-5.562 -2.798,-10.529 l 0,-16.615 -5.598,0 z"
             style="fill:#0073ae"
             inkscape:connector-curvature="0" />
          <path
             id="path9635"
             d="m 369.292,60.833 0,3.568 -26.34,0 c 0.256,2.938 1.208,5.142 2.85,6.611 1.646,1.469 3.937,2.204 6.875,2.204 2.378,0 4.808,-0.389 7.294,-1.173 2.481,-0.779 5.03,-1.964 7.642,-3.549 l 0,9.654 c -2.659,1.12 -5.324,1.966 -7.992,2.537 -2.672,0.569 -5.335,0.856 -7.994,0.856 -6.389,0 -11.352,-1.803 -14.882,-5.403 -3.536,-3.605 -5.301,-8.658 -5.301,-15.165 0,-6.39 1.737,-11.415 5.212,-15.076 3.475,-3.661 8.255,-5.492 14.342,-5.492 5.55,0 9.986,1.854 13.311,5.562 3.32,3.707 4.983,8.663 4.983,14.866 z M 357.713,56.67 c 0,-2.379 -0.625,-4.295 -1.87,-5.755 -1.25,-1.455 -2.887,-2.185 -4.916,-2.185 -2.168,0 -3.936,0.683 -5.298,2.045 -1.367,1.366 -2.223,3.33 -2.572,5.895 l 14.656,0 z"
             style="fill:#0073ae"
             inkscape:connector-curvature="0" />
        </g>
        <g
           id="g9637">
          <path
             id="path9639"
             d="m 385.023,78.498 0,16.93 -6.471,0 0,-54.079 6.471,0 0,5.492 c 1.749,-2.588 3.556,-4.309 5.422,-5.16 1.866,-0.851 4.232,-1.277 7.102,-1.277 4.757,0 8.621,1.889 11.597,5.667 2.971,3.778 4.459,8.745 4.459,14.901 0,6.157 -1.488,10.972 -4.459,14.447 -2.976,3.475 -6.84,5.212 -11.597,5.212 -2.869,0 -4.921,-0.1 -6.157,-0.296 -1.237,-0.198 -3.359,-0.811 -6.367,-1.837 z M 406.92,60.973 c 0,-4.734 -0.975,-8.448 -2.922,-11.14 -1.947,-2.696 -4.622,-4.041 -8.026,-4.041 -2.915,0 -5.375,0.781 -7.381,2.343 -1.959,1.539 -3.148,4.291 -3.568,8.255 l 0,15.811 c 3.335,2.029 6.984,3.043 10.949,3.043 3.404,0 6.079,-1.206 8.026,-3.622 1.948,-2.41 2.922,-5.962 2.922,-10.649 z"
             style="fill:#231f20"
             inkscape:connector-curvature="0" />
          <path
             id="path9641"
             d="m 437.565,81.191 c -5.224,0.094 -9.293,-1.084 -12.208,-3.533 -2.262,-1.912 -3.393,-4.757 -3.393,-8.535 0,-4.408 1.474,-7.731 4.424,-9.97 2.95,-2.239 7.353,-3.358 13.206,-3.358 l 9.024,0 0,-0.629 c 0,-2.962 -0.975,-5.254 -2.922,-6.873 -1.947,-1.623 -4.681,-2.432 -8.201,-2.432 -2.239,0 -4.42,0.268 -6.542,0.804 -2.122,0.536 -4.162,1.341 -6.121,2.414 l 0,-5.946 c 2.355,-0.91 4.641,-1.592 6.856,-2.046 2.215,-0.455 4.372,-0.682 6.471,-0.682 5.667,0 9.899,1.469 12.698,4.408 2.798,2.938 4.197,7.345 4.197,13.222 l 0,0.14 -0.035,19.659 c -4.477,2.145 -10.295,3.264 -17.454,3.357 z m 4.652,-20.358 c -5.2,0 -8.803,0.595 -10.809,1.784 -2.006,1.189 -3.009,3.218 -3.009,6.087 0,2.262 0.781,4.116 2.345,5.562 1.562,1.445 3.579,2.168 6.051,2.168 0.07,0 0.141,0 0.21,0 5.527,0 9.398,-0.618 11.613,-1.854 0,-6.623 0,-10.727 0,-12.313 l 0,-1.434 -6.401,0 z"
             style="fill:#231f20"
             inkscape:connector-curvature="0" />
          <path
             id="path9643"
             d="m 487.871,46.771 c -0.723,-0.419 -1.504,-0.66 -2.344,-0.716 -0.84,-0.061 -1.771,-0.03 -2.798,0.086 -3.521,0.443 -6.285,2.168 -8.29,5.177 -2.006,3.008 -3.009,6.728 -3.009,11.159 l 0,18.05 -6.472,0 0,-39.178 6.472,0 0,5.771 c 1.353,-2.378 3.113,-4.092 5.282,-5.142 2.169,-1.05 4.804,-1.574 7.905,-1.574 0.443,0 0.933,0.029 1.47,0.087 0.536,0.058 1.131,0.146 1.783,0.262 l 0,6.018 z"
             style="fill:#231f20"
             inkscape:connector-curvature="0" />
          <path
             id="path9645"
             d="m 493.225,46.352 0,-5.072 4.723,0 0,-4.932 6.471,-6.122 0,11.124 13.258,0 0,5.002 -13.258,0 0,21.268 c 0,3.195 0.437,5.247 1.312,6.157 0.873,0.909 2.652,1.364 5.334,1.364 l 6.611,0 0,5.387 -6.611,0 c -4.968,0 -8.396,-0.928 -10.284,-2.78 -1.889,-1.856 -2.833,-5.231 -2.833,-10.128 l 0,-21.268 -4.723,0 z"
             style="fill:#231f20"
             inkscape:connector-curvature="0" />
          <path
             id="path9647"
             d="m 530.518,97.702 6.996,-17.805 -15.846,-38.548 6.821,0 12.243,30.643 12.242,-30.643 6.821,0 -22.457,56.353 -6.82,0 z"
             style="fill:#231f20"
             inkscape:connector-curvature="0" />
        </g>
        <path
           id="path9649"
           d="m 166.69,133.23 c -2.959,0.051 -5.266,-0.616 -6.919,-2.003 -1.28,-1.085 -1.921,-2.696 -1.921,-4.837 0,-2.498 0.835,-4.382 2.509,-5.65 1.67,-1.27 4.165,-1.903 7.481,-1.903 l 5.114,0 0,-0.354 c 0,-1.679 -0.552,-2.978 -1.653,-3.896 -1.105,-0.919 -2.654,-1.378 -4.65,-1.378 -1.269,0 -2.504,0.153 -3.708,0.457 -1.201,0.303 -2.357,0.76 -3.467,1.366 l 0,-3.367 c 1.336,-0.518 2.628,-0.902 3.885,-1.161 1.257,-0.257 2.479,-0.388 3.668,-0.388 3.208,0 5.608,0.835 7.194,2.5 1.586,1.665 2.379,4.16 2.379,7.49 l 0,0.079 -0.021,11.143 c -2.538,1.214 -5.835,1.848 -9.891,1.902 z m 2.638,-11.539 c -2.947,0 -4.99,0.338 -6.126,1.012 -1.135,0.674 -1.705,1.824 -1.705,3.449 0,1.282 0.443,2.332 1.329,3.15 0.884,0.821 2.029,1.231 3.428,1.231 0.04,0 0.08,0 0.119,0 3.132,0 5.324,-0.352 6.581,-1.052 0,-3.752 0,-6.079 0,-6.978 l 0,-0.813 -3.626,0 z"
           style="fill:#231f20"
           inkscape:connector-curvature="0" />
        <path
           id="path9651"
           d="m 205.376,132.712 c -1.39,0.41 -3.148,0.664 -5.284,0.765 -2.134,0.098 -3.974,0.149 -5.52,0.149 -2.549,0 -4.487,-0.793 -5.809,-2.379 -1.32,-1.586 -1.982,-3.972 -1.982,-7.157 l 0,-13.438 3.647,0 0,12.408 c 0,2.987 0.233,4.811 0.695,5.471 0.793,1.109 2.202,1.69 4.221,1.744 0.583,0.015 1.506,0.04 2.775,0.079 2.115,-0.025 3.318,-0.252 3.61,-0.674 0,-4.281 0,-6.43 0,-6.44 l 0,-12.588 3.647,0 0,22.06 z"
           style="fill:#231f20"
           inkscape:connector-curvature="0" />
        <path
           id="path9653"
           d="m 230.085,111.304 0,3.451 c -1.03,-0.529 -2.104,-0.926 -3.213,-1.189 -1.11,-0.266 -2.257,-0.396 -3.446,-0.396 -1.812,0 -3.169,0.274 -4.074,0.83 -0.907,0.555 -1.359,1.39 -1.359,2.499 0,0.845 0.326,1.51 0.972,1.992 0.646,0.482 1.95,0.941 3.906,1.376 l 1.248,0.279 c 2.591,0.556 4.431,1.337 5.52,2.349 1.092,1.01 1.637,2.421 1.637,4.232 0,2.062 -0.816,3.691 -2.449,4.895 -1.632,1.204 -3.875,1.804 -6.73,1.804 -1.189,0 -2.428,-0.115 -3.717,-0.346 -1.287,-0.23 -2.645,-0.578 -4.071,-1.04 l 0,-3.769 c 1.348,0.702 2.674,1.227 3.983,1.576 1.308,0.35 2.603,0.527 3.885,0.527 1.716,0 3.041,-0.297 3.965,-0.884 0.923,-0.588 1.387,-1.416 1.387,-2.488 0,-0.989 -0.333,-1.749 -1,-2.278 -0.667,-0.529 -2.131,-1.038 -4.391,-1.527 l -1.269,-0.296 c -2.26,-0.477 -3.892,-1.206 -4.895,-2.19 -1.005,-0.983 -1.506,-2.336 -1.506,-4.053 0,-2.09 0.739,-3.701 2.22,-4.837 1.479,-1.138 3.58,-1.707 6.301,-1.707 1.348,0 2.616,0.101 3.806,0.299 1.187,0.199 2.286,0.495 3.29,0.891 z"
           style="fill:#231f20"
           inkscape:connector-curvature="0" />
        <path
           id="path9655"
           d="m 237.392,113.487 0,-2.875 2.675,0 0,-2.796 3.668,-3.468 0,6.304 7.511,0 0,2.835 -7.511,0 0,12.052 c 0,1.81 0.25,2.971 0.744,3.488 0.494,0.514 1.501,0.772 3.022,0.772 l 3.745,0 0,3.053 -3.745,0 c -2.814,0 -4.757,-0.525 -5.828,-1.576 -1.07,-1.05 -1.607,-2.962 -1.607,-5.737 l 0,-12.052 -2.674,0 z"
           style="fill:#231f20"
           inkscape:connector-curvature="0" />
        <path
           id="path9657"
           d="m 272.477,113.725 c -0.408,-0.238 -0.851,-0.376 -1.327,-0.408 -0.476,-0.032 -1.005,-0.017 -1.586,0.049 -1.994,0.252 -3.561,1.231 -4.699,2.934 -1.135,1.707 -1.702,3.813 -1.702,6.324 l 0,10.229 -3.668,0 0,-22.2 3.668,0 0,3.269 c 0.765,-1.348 1.763,-2.317 2.992,-2.912 1.229,-0.595 2.722,-0.894 4.48,-0.894 0.252,0 0.527,0.019 0.833,0.052 0.306,0.032 0.642,0.081 1.01,0.149 l 0,3.408 z"
           style="fill:#231f20"
           inkscape:connector-curvature="0" />
        <path
           id="path9659"
           d="m 286.275,133.23 c -2.959,0.051 -5.263,-0.616 -6.917,-2.003 -1.28,-1.085 -1.924,-2.696 -1.924,-4.837 0,-2.498 0.837,-4.382 2.509,-5.65 1.67,-1.27 4.166,-1.903 7.484,-1.903 l 5.111,0 0,-0.354 c 0,-1.679 -0.55,-2.978 -1.653,-3.896 -1.103,-0.918 -2.654,-1.378 -4.647,-1.378 -1.271,0 -2.507,0.153 -3.708,0.457 -1.201,0.303 -2.358,0.76 -3.468,1.366 l 0,-3.367 c 1.334,-0.518 2.628,-0.902 3.885,-1.161 1.254,-0.257 2.477,-0.388 3.666,-0.388 3.211,0 5.609,0.835 7.194,2.5 1.586,1.665 2.379,4.16 2.379,7.49 l 0,0.079 -0.019,11.143 c -2.537,1.214 -5.834,1.848 -9.892,1.902 z m 2.638,-11.539 c -2.945,0 -4.988,0.338 -6.124,1.012 -1.138,0.674 -1.707,1.824 -1.707,3.449 0,1.282 0.443,2.332 1.33,3.15 0.886,0.821 2.028,1.231 3.428,1.231 0.042,0 0.079,0 0.119,0 3.134,0 5.326,-0.352 6.581,-1.052 0,-3.752 0,-6.079 0,-6.978 l 0,-0.813 -3.627,0 z"
           style="fill:#231f20"
           inkscape:connector-curvature="0" />
        <path
           id="path9661"
           d="m 306.743,102.009 3.647,0 0,30.843 -3.647,0 0,-30.843 z"
           style="fill:#231f20"
           inkscape:connector-curvature="0" />
        <path
           id="path9663"
           d="m 321.066,102.009 3.647,0 0,4.617 -3.647,0 0,-4.617 z m 0,8.643 3.647,0 0,22.2 -3.647,0 0,-22.2 z"
           style="fill:#231f20"
           inkscape:connector-curvature="0" />
        <path
           id="path9665"
           d="m 342.842,133.23 c -2.959,0.051 -5.266,-0.616 -6.917,-2.003 -1.282,-1.085 -1.921,-2.696 -1.921,-4.837 0,-2.498 0.835,-4.382 2.507,-5.65 1.672,-1.27 4.165,-1.903 7.483,-1.903 l 5.112,0 0,-0.354 c 0,-1.679 -0.55,-2.978 -1.653,-3.896 -1.103,-0.918 -2.654,-1.378 -4.648,-1.378 -1.269,0 -2.504,0.153 -3.708,0.457 -1.203,0.303 -2.36,0.76 -3.47,1.366 l 0,-3.367 c 1.336,-0.518 2.63,-0.902 3.885,-1.161 1.256,-0.257 2.479,-0.388 3.668,-0.388 3.211,0 5.608,0.835 7.194,2.5 1.586,1.665 2.379,4.16 2.379,7.49 l 0,0.079 -0.019,11.143 c -2.537,1.214 -5.834,1.848 -9.892,1.902 z m 2.637,-11.539 c -2.948,0 -4.988,0.338 -6.126,1.012 -1.135,0.674 -1.702,1.824 -1.702,3.449 0,1.282 0.44,2.332 1.327,3.15 0.886,0.821 2.029,1.231 3.43,1.231 0.038,0 0.08,0 0.117,0 3.134,0 5.326,-0.352 6.581,-1.052 0,-3.752 0,-6.079 0,-6.978 l 0,-0.813 -3.627,0 z"
           style="fill:#231f20"
           inkscape:connector-curvature="0" />
      </g>
      <g
         id="Signet">
        <polygon
           id="polygon9668"
           points="99.911,84.769 97.45,84.546 97.035,86.982 95.673,84.919 93.51,86.115 94.275,83.763 91.993,82.817 94.307,81.949 93.623,79.575 95.743,80.844 97.175,78.829 97.506,81.277 99.975,81.138 98.266,82.923 "
           style="fill:#ffffff" />
        <polygon
           id="polygon9670"
           points="111.137,59.954 108.676,59.73 108.261,62.165 106.9,60.103 104.738,61.297 105.501,58.949 103.218,58.002 105.532,57.135 104.85,54.758 106.971,56.027 108.401,54.012 108.732,56.46 111.201,56.325 109.492,58.109 "
           style="fill:#ffffff" />
        <polygon
           id="polygon9672"
           points="98.729,49.315 96.269,49.096 95.853,51.531 94.493,49.469 92.328,50.663 93.093,48.312 90.81,47.366 93.125,46.498 92.441,44.124 94.562,45.393 95.993,43.377 96.324,45.827 98.791,45.687 97.083,47.473 "
           style="fill:#ffffff" />
        <polygon
           id="polygon9674"
           points="85.731,64.091 83.271,63.867 82.854,66.301 81.495,64.24 79.331,65.434 80.094,63.083 77.811,62.139 80.126,61.269 79.442,58.895 81.563,60.164 82.994,58.149 83.325,60.597 85.794,60.458 84.084,62.244 "
           style="fill:#ffffff" />
        <polygon
           id="polygon9676"
           points="98.434,66.54 100.103,66.364 100.905,64.891 101.586,66.425 103.235,66.731 101.988,67.854 102.204,69.52 100.752,68.675 99.238,69.398 99.587,67.757 "
           style="fill:#ffffff" />
        <g
           id="g9678">
          <path
             id="path9680"
             d="M 137.715,89.176 C 131.409,124.377 97.757,147.809 62.55,141.501 27.343,135.195 3.913,101.544 10.22,66.343 16.524,31.137 50.176,7.713 85.385,14.02 c 35.206,6.305 58.634,39.955 52.33,75.156 l 0,0 z"
             style="fill:#ffffff"
             inkscape:connector-curvature="0" />
          <path
             id="path9682"
             d="m 83.781,22.977 c -30.26,-5.419 -59.186,14.72 -64.604,44.976 -5.42,30.26 14.716,59.188 44.976,64.61 30.259,5.415 59.183,-14.727 64.602,-44.984 5.42,-30.256 -14.715,-59.183 -44.974,-64.602 l 0,0 z m 53.932,66.206 C 131.407,124.389 97.756,147.821 62.548,141.517 27.34,135.209 3.912,101.556 10.22,66.348 16.524,31.142 50.178,7.713 85.386,14.02 c 35.205,6.305 58.633,39.959 52.327,75.163 l 0,0 z"
             inkscape:connector-curvature="0" />
          <g
             id="g9684">
            <polygon
               id="polygon9686"
               points="57.127,94.538 55.864,91.394 53.913,33.037 49.674,32.279 49.674,32.279 50.003,97.644 " />
            <path
               id="path9688"
               d="m 43.733,45.081 c 0,0 60.699,-23.026 69.619,18.67 0,0 5.716,19.558 -22.992,26.528 0,0 -19.617,4.877 -21.554,4.893 -1.947,0.02 -1.947,0.02 -1.947,0.02 0,0 -19.291,3.84 -14.798,27.627 0,0 -14.917,-21.275 12.979,-38.168 0,0 10.796,-9.016 7.42,-22.749 C 72.459,61.901 69.118,45.589 43.733,45.081 l 0,0 z"
               inkscape:connector-curvature="0" />
            <polygon
               id="polygon9690"
               points="57.549,96.255 49.98,92.923 49.98,92.923 49.928,104.194 " />
            <path
               id="path9692"
               d="m 84.588,91.693 c 0,0 -29.423,4.918 -32.373,17.679 -2.95,12.763 -3.591,-19.303 15.273,-20.748 18.864,-1.433 1.617,-0.877 1.617,-0.877 l 17.984,-1.609 -2.268,4.242"
               inkscape:connector-curvature="0" />
          </g>
        </g>
        <polygon
           id="polygon9694"
           points="83.579,62.876 81.21,63.548 81.698,65.964 79.692,64.534 78.107,66.418 77.977,63.96 75.513,63.894 77.358,62.261 75.87,60.295 78.298,60.713 78.906,58.329 80.092,60.487 82.338,59.476 81.388,61.751 "
           style="fill:#ffffff" />
        <polygon
           id="polygon9696"
           points="95.656,48.257 93.287,48.929 93.774,51.345 91.769,49.915 90.184,51.799 90.054,49.34 87.589,49.275 89.435,47.642 87.947,45.676 90.375,46.094 90.983,43.709 92.169,45.868 94.415,44.856 93.465,47.132 "
           style="fill:#ffffff" />
        <polygon
           id="polygon9698"
           points="109.004,59.062 106.635,59.734 107.123,62.15 105.117,60.72 103.532,62.604 103.402,60.146 100.938,60.08 102.783,58.447 101.295,56.481 103.723,56.9 104.331,54.515 105.517,56.674 107.763,55.662 106.812,57.937 "
           style="fill:#ffffff" />
        <polygon
           id="polygon9700"
           points="97.562,83.216 95.194,83.888 95.681,86.304 93.676,84.874 92.091,86.758 91.961,84.3 89.497,84.234 91.341,82.601 89.854,80.635 92.282,81.053 92.89,78.668 94.076,80.828 96.322,79.816 95.372,82.091 "
           style="fill:#ffffff" />
        <polygon
           id="polygon9702"
           points="95.688,67.353 97.275,66.831 97.748,65.226 98.735,66.577 100.406,66.531 99.426,67.884 99.989,69.461 98.395,68.947 97.069,69.97 97.066,68.297 "
           style="fill:#ffffff" />
      </g>
    </g>
    <text
       xml:space="preserve"
       style="color:#000000;font-style:normal;font-variant:normal;font-weight:normal;font-stretch:normal;font-size:24px;line-height:125%;font-family:Helvetica;-inkscape-font-specification:Helvetica;text-indent:0;text-align:start;text-decoration:none;text-decoration-line:none;text-decoration-style:solid;text-decoration-color:#000000;letter-spacing:0px;word-spacing:0px;text-transform:none;direction:ltr;block-progression:tb;writing-mode:lr-tb;baseline-shift:baseline;text-anchor:start;white-space:normal;clip-rule:nonzero;display:inline;overflow:visible;visibility:visible;opacity:1;isolation:auto;mix-blend-mode:normal;color-interpolation:sRGB;color-interpolation-filters:linearRGB;solid-color:#000000;solid-opacity:1;fill:#000000;fill-opacity:1;fill-rule:nonzero;stroke:none;stroke-width:1px;stroke-linecap:butt;stroke-linejoin:miter;stroke-miterlimit:4;stroke-dasharray:none;stroke-dashoffset:0;stroke-opacity:1;marker:none;color-rendering:auto;image-rendering:auto;shape-rendering:auto;text-rendering:auto;enable-background:accumulate"
       x="34.53125"
       y="995.54578"
       id="text9754"
       sodipodi:linespacing="125%"><tspan
         sodipodi:role="line"
         id="tspan9756"
         x="34.53125"
         y="995.54578"
         style="font-style:normal;font-variant:normal;font-weight:bold;font-stretch:normal;font-size:70px;font-family:'Open Sans';-inkscape-font-specification:'Open Sans'">pirateparty.org.au/relevant-URL</tspan></text>
    <text
       xml:space="preserve"
       style="color:#000000;font-style:normal;font-variant:normal;font-weight:normal;font-stretch:normal;font-size:24px;line-height:125%;font-family:Helvetica;-inkscape-font-specification:Helvetica;text-indent:0;text-align:start;text-decoration:none;text-decoration-line:none;text-decoration-style:solid;text-decoration-color:#000000;letter-spacing:0px;word-spacing:0px;text-transform:none;direction:ltr;block-progression:tb;writing-mode:lr-tb;baseline-shift:baseline;text-anchor:start;white-space:normal;clip-rule:nonzero;display:inline;overflow:visible;visibility:visible;opacity:1;isolation:auto;mix-blend-mode:normal;color-interpolation:sRGB;color-interpolation-filters:linearRGB;solid-color:#000000;solid-opacity:1;fill:#000000;fill-opacity:1;fill-rule:nonzero;stroke:none;stroke-width:1px;stroke-linecap:butt;stroke-linejoin:miter;stroke-miterlimit:4;stroke-dasharray:none;stroke-dashoffset:0;stroke-opacity:1;marker:none;color-rendering:auto;image-rendering:auto;shape-rendering:auto;text-rendering:auto;enable-background:accumulate"
       x="124.51359"
       y="956.14789"
       id="text8828"
       sodipodi:linespacing="125%"
       transform="matrix(0.96592583,-0.25881905,0.25881905,0.96592583,0,0)"><tspan
         sodipodi:role="line"
         id="tspan8830"
         x="124.51359"
         y="956.14789"
         style="font-style:italic;font-variant:normal;font-weight:800;font-stretch:normal;font-size:80px;font-family:'Open Sans';-inkscape-font-specification:'Open Sans Ultra-Bold Italic';fill:#ff0000">DRAFT</tspan></text>
  </g>
</svg>
