<?xml version="1.0" encoding="UTF-8" standalone="no"?>
<!-- Created with Inkscape (http://www.inkscape.org/) -->

<svg
   xmlns:dc="http://purl.org/dc/elements/1.1/"
   xmlns:cc="http://creativecommons.org/ns#"
   xmlns:rdf="http://www.w3.org/1999/02/22-rdf-syntax-ns#"
   xmlns:svg="http://www.w3.org/2000/svg"
   xmlns="http://www.w3.org/2000/svg"
   xmlns:xlink="http://www.w3.org/1999/xlink"
   xmlns:sodipodi="http://sodipodi.sourceforge.net/DTD/sodipodi-0.dtd"
   xmlns:inkscape="http://www.inkscape.org/namespaces/inkscape"
   width="1200"
   height="1200"
   viewBox="0 0 1200 1200"
   id="svg2"
   version="1.1"
   inkscape:version="0.91 r13725"
   sodipodi:docname="sharing-turns-content-into-culture-signet-url-demo.svg"
   inkscape:export-filename="/Users/alexjago/Documents/_PPAU/Memes/Pete-the-pirate/sharing-turns-content-into-culture/sharing-turns-content-into-culture.png"
   inkscape:export-xdpi="45"
   inkscape:export-ydpi="45">
  <defs
     id="defs4">
    <linearGradient
       inkscape:collect="always"
       id="linearGradient8394">
      <stop
         style="stop-color:#ff6600;stop-opacity:1"
         offset="0"
         id="stop8396" />
      <stop
         style="stop-color:#ff6600;stop-opacity:0"
         offset="1"
         id="stop8398" />
    </linearGradient>
    <radialGradient
       inkscape:collect="always"
       xlink:href="#linearGradient8394"
       id="radialGradient8400"
       cx="596.15546"
       cy="785.8808"
       fx="596.15546"
       fy="785.8808"
       r="110.75618"
       gradientTransform="matrix(0.8125957,6.8197211e-8,-9.8507108e-8,1.1737496,126.53205,-239.79103)"
       gradientUnits="userSpaceOnUse" />
    <radialGradient
       inkscape:collect="always"
       xlink:href="#linearGradient8394"
       id="radialGradient10082"
       gradientUnits="userSpaceOnUse"
       gradientTransform="matrix(0.72230723,0.18057664,0.11165905,-0.44663648,69.844109,999.51673)"
       cx="580.97137"
       cy="900.20508"
       fx="580.97137"
       fy="900.20508"
       r="110.75618" />
  </defs>
  <sodipodi:namedview
     id="base"
     pagecolor="#001f30"
     bordercolor="#666666"
     borderopacity="1.0"
     inkscape:pageopacity="1"
     inkscape:pageshadow="2"
     inkscape:zoom="0.49497474"
     inkscape:cx="509.00677"
     inkscape:cy="593.26157"
     inkscape:document-units="px"
     inkscape:current-layer="layer1"
     showgrid="true"
     units="px"
     inkscape:snap-bbox="true"
     inkscape:bbox-nodes="true"
     inkscape:object-nodes="true"
     inkscape:snap-smooth-nodes="true"
     showguides="true"
     inkscape:snap-bbox-edge-midpoints="false"
     inkscape:window-width="1436"
     inkscape:window-height="855"
     inkscape:window-x="0"
     inkscape:window-y="1"
     inkscape:window-maximized="1"
     inkscape:snap-nodes="true">
    <inkscape:grid
       type="xygrid"
       id="grid8078" />
  </sodipodi:namedview>
  <metadata
     id="metadata7">
    <rdf:RDF>
      <cc:Work
         rdf:about="">
        <dc:format>image/svg+xml</dc:format>
        <dc:type
           rdf:resource="http://purl.org/dc/dcmitype/StillImage" />
        <dc:title />
      </cc:Work>
    </rdf:RDF>
  </metadata>
  <g
     inkscape:label="Layer 1"
     inkscape:groupmode="layer"
     id="layer1"
     transform="translate(0,147.63784)">
    <text
       xml:space="preserve"
       style="color:#000000;font-style:normal;font-variant:normal;font-weight:normal;font-stretch:normal;font-size:24px;line-height:125%;font-family:Helvetica;-inkscape-font-specification:Helvetica;text-indent:0;text-align:start;text-decoration:none;text-decoration-line:none;text-decoration-style:solid;text-decoration-color:#000000;letter-spacing:0px;word-spacing:0px;text-transform:none;direction:ltr;block-progression:tb;writing-mode:lr-tb;baseline-shift:baseline;text-anchor:start;white-space:normal;clip-rule:nonzero;display:inline;overflow:visible;visibility:visible;opacity:1;isolation:auto;mix-blend-mode:normal;color-interpolation:sRGB;color-interpolation-filters:linearRGB;solid-color:#000000;solid-opacity:1;fill:#000000;fill-opacity:1;fill-rule:nonzero;stroke:none;stroke-width:1px;stroke-linecap:butt;stroke-linejoin:miter;stroke-miterlimit:4;stroke-dasharray:none;stroke-dashoffset:0;stroke-opacity:1;marker:none;color-rendering:auto;image-rendering:auto;shape-rendering:auto;text-rendering:auto;enable-background:accumulate"
       x="47.664898"
       y="74.662941"
       id="text8068"
       sodipodi:linespacing="125%"><tspan
         sodipodi:role="line"
         x="47.664898"
         y="74.662941"
         style="font-style:normal;font-variant:normal;font-weight:bold;font-stretch:normal;font-size:82px;font-family:'Open Sans';-inkscape-font-specification:'Open Sans';fill:#ffffff"
         id="tspan8080" /></text>
    <text
       xml:space="preserve"
       style="color:#000000;font-style:normal;font-variant:normal;font-weight:normal;font-stretch:normal;font-size:24px;line-height:100%;font-family:Helvetica;-inkscape-font-specification:Helvetica;text-indent:0;text-align:start;text-decoration:none;text-decoration-line:none;text-decoration-style:solid;text-decoration-color:#000000;letter-spacing:0px;word-spacing:0px;text-transform:none;direction:ltr;block-progression:tb;writing-mode:lr-tb;baseline-shift:baseline;text-anchor:start;white-space:normal;clip-rule:nonzero;display:inline;overflow:visible;visibility:visible;opacity:1;isolation:auto;mix-blend-mode:normal;color-interpolation:sRGB;color-interpolation-filters:linearRGB;solid-color:#000000;solid-opacity:1;fill:#000000;fill-opacity:1;fill-rule:nonzero;stroke:none;stroke-width:1px;stroke-linecap:butt;stroke-linejoin:miter;stroke-miterlimit:4;stroke-dasharray:none;stroke-dashoffset:0;stroke-opacity:1;marker:none;color-rendering:auto;image-rendering:auto;shape-rendering:auto;text-rendering:auto;enable-background:accumulate"
       x="599.94141"
       y="-15.821434"
       id="text8117"
       sodipodi:linespacing="100%"><tspan
         sodipodi:role="line"
         x="599.94141"
         y="-15.821434"
         style="font-style:normal;font-variant:normal;font-weight:bold;font-stretch:normal;font-size:120px;font-family:'Open Sans';-inkscape-font-specification:'Open Sans';text-align:center;text-anchor:middle;fill:#ffffff"
         id="tspan8123">Copyright Reform.</tspan><tspan
         sodipodi:role="line"
         x="599.94141"
         y="104.17857"
         style="font-style:italic;font-variant:normal;font-weight:bold;font-stretch:normal;font-size:96px;line-height:100%;font-family:'Open Sans';-inkscape-font-specification:'Open Sans Bold';text-align:center;text-anchor:middle;fill:#ffffff"
         id="tspan8159" /></text>
    <text
       xml:space="preserve"
       style="color:#000000;font-style:normal;font-variant:normal;font-weight:normal;font-stretch:normal;font-size:24px;line-height:100%;font-family:Helvetica;-inkscape-font-specification:Helvetica;text-indent:0;text-align:start;text-decoration:none;text-decoration-line:none;text-decoration-style:solid;text-decoration-color:#000000;letter-spacing:0px;word-spacing:0px;text-transform:none;direction:ltr;block-progression:tb;writing-mode:lr-tb;baseline-shift:baseline;text-anchor:start;white-space:normal;clip-rule:nonzero;display:inline;overflow:visible;visibility:visible;opacity:1;isolation:auto;mix-blend-mode:normal;color-interpolation:sRGB;color-interpolation-filters:linearRGB;solid-color:#000000;solid-opacity:1;fill:#000000;fill-opacity:1;fill-rule:nonzero;stroke:none;stroke-width:1px;stroke-linecap:butt;stroke-linejoin:miter;stroke-miterlimit:4;stroke-dasharray:none;stroke-dashoffset:0;stroke-opacity:1;marker:none;color-rendering:auto;image-rendering:auto;shape-rendering:auto;text-rendering:auto;enable-background:accumulate"
       x="598.06836"
       y="112.2606"
       id="text8179"
       sodipodi:linespacing="100%"><tspan
         sodipodi:role="line"
         id="tspan8181"
         x="598.06836"
         y="112.2606"
         style="font-style:italic;font-variant:normal;font-weight:bold;font-stretch:normal;font-size:92px;line-height:100%;font-family:'Open Sans';-inkscape-font-specification:'Open Sans';text-align:center;text-anchor:middle;fill:#ffffff"><tspan
           style="font-weight:normal;font-size:92px;line-height:100%;text-align:center;text-anchor:middle;fill:#ffffff"
           id="tspan8185">Because </tspan><tspan
           style="font-size:92px;line-height:100%;text-align:center;text-anchor:middle;fill:#ff2a2a"
           id="tspan8191">sharing </tspan><tspan
           style="font-weight:normal;font-size:92px;line-height:100%;text-align:center;text-anchor:middle;fill:#ffffff"
           id="tspan8187">turns</tspan></tspan><tspan
         sodipodi:role="line"
         x="598.06836"
         y="204.26059"
         id="tspan8183"
         style="font-style:italic;font-variant:normal;font-weight:bold;font-stretch:normal;font-size:92px;line-height:100%;font-family:'Open Sans';-inkscape-font-specification:'Open Sans';text-align:center;text-anchor:middle;fill:#ffffff"><tspan
           style="font-size:92px;line-height:100%;text-align:center;text-anchor:middle;fill:#5555ff"
           id="tspan8193">content </tspan><tspan
           style="font-weight:normal;font-size:92px;line-height:100%;text-align:center;text-anchor:middle;fill:#ffffff"
           id="tspan8189">into </tspan><tspan
           style="font-size:92px;line-height:100%;text-align:center;text-anchor:middle;fill:#ff00ff"
           id="tspan8197">culture</tspan><tspan
           style="font-weight:normal;font-size:92px"
           id="tspan8199">.</tspan></tspan></text>
    <path
       sodipodi:nodetypes="ccccccc"
       inkscape:connector-curvature="0"
       id="path10033"
       d="m 905,542.36216 c 0,80 7.85714,57.14286 -67.15812,111.47274 l -35.87765,80.80138 -55,0 35,-20 20.07108,-70.01847 74.92892,-69.98153"
       style="fill:#005480;fill-opacity:1;fill-rule:evenodd;stroke:#ffffff;stroke-width:8;stroke-linecap:butt;stroke-linejoin:round;stroke-opacity:1" />
    <ellipse
       style="opacity:1;fill:#005480;fill-opacity:1;stroke:#ffffff;stroke-width:8;stroke-linecap:round;stroke-linejoin:round;stroke-miterlimit:4;stroke-dasharray:none;stroke-dashoffset:0;stroke-opacity:1"
       id="path8228"
       cx="900"
       cy="688.72253"
       rx="72.730988"
       ry="63.639614" />
    <path
       sodipodi:nodetypes="cccccccccc"
       inkscape:connector-curvature="0"
       id="path8288"
       d="m 907.96423,428.63628 -40,75 -50.41842,-43.64322 4.28571,-17.14286 -17.14285,12.85715 -11.42858,-18.57143 -14.28571,20 93.98985,76.50036 35,-50 z"
       style="fill:#005480;fill-opacity:1;fill-rule:evenodd;stroke:#ffffff;stroke-width:8;stroke-linecap:butt;stroke-linejoin:round;stroke-opacity:1" />
    <path
       style="fill:#005480;fill-opacity:1;fill-rule:evenodd;stroke:#ffffff;stroke-width:8;stroke-linecap:butt;stroke-linejoin:round;stroke-opacity:1"
       d="m 907.96423,408.63628 0,145 c 0,80 -0.85026,48.27412 -82.97949,108.05576 l -57.02051,96.94424 -55,0 35,-20 54.07108,-94.01847 40.92892,-45.98153 c 30,-30 30,-30 30,-180"
       id="path8223"
       inkscape:connector-curvature="0"
       sodipodi:nodetypes="ccccccccc" />
    <g
       id="g8230"
       transform="translate(-7.0357666,-73.725879)">
      <g
         transform="translate(60.609153,-88.893424)"
         id="g8217">
        <ellipse
           style="display:inline;opacity:1;fill:#005480;fill-opacity:1;stroke:#ffffff;stroke-width:8;stroke-linecap:round;stroke-linejoin:round;stroke-miterlimit:4;stroke-dasharray:none;stroke-dashoffset:0;stroke-opacity:1"
           id="path8826"
           cx="830.3454"
           cy="512.94073"
           rx="58.57143"
           ry="67.14286" />
        <path
           style="display:inline;opacity:1;fill:#ffffff;fill-opacity:1;stroke:#ffffff;stroke-width:8;stroke-linecap:round;stroke-linejoin:round;stroke-miterlimit:4;stroke-dasharray:none;stroke-dashoffset:0;stroke-opacity:1"
           d="m 806.05962,517.47592 c -3.53622,-0.0354 -37.11861,-29.42851 0,-27.39233 26.1436,1.43413 4.85022,27.44086 0,27.39233 z"
           id="path8842"
           inkscape:connector-curvature="0"
           sodipodi:nodetypes="sss" />
        <path
           id="ellipse8156"
           style="display:inline;opacity:1;fill:none;fill-opacity:1;stroke:#ffffff;stroke-width:8;stroke-linecap:round;stroke-linejoin:miter;stroke-miterlimit:4;stroke-dasharray:none;stroke-dashoffset:0;stroke-opacity:1"
           d="m 888.91682,512.94071 c 0,37.08198 -26.22332,67.14286 -58.57143,67.14286 -32.34811,0 -58.57143,-30.06088 -58.57143,-67.14286 0,-37.08198 26.22332,-67.14286 58.57143,-67.14286 32.34811,0 58.57143,30.06088 58.57143,67.14286 z M 783.2025,552.22642 c 14.04762,0.67111 28.80952,-0.93115 42.85714,-7.85714 -10,19.1878 -19.10188,18.00277 -29.10188,22.91316"
           inkscape:connector-curvature="0"
           sodipodi:nodetypes="sssssccc" />
        <path
           style="display:inline;opacity:1;fill:none;fill-rule:evenodd;stroke:#ffffff;stroke-width:8;stroke-linecap:butt;stroke-linejoin:miter;stroke-opacity:1"
           d="m 778.4126,484.583 c 0,0 13.97949,8.1188 21.78572,8.92858 26.79029,2.7791 85.77031,-3.82704 85.77031,-3.82704"
           id="path8169"
           inkscape:connector-curvature="0"
           sodipodi:nodetypes="csc" />
      </g>
    </g>
    <g
       id="g8300"
       transform="translate(82.964237,-78.725879)">
      <rect
         transform="matrix(0.93562277,-0.35300147,0,1,0,0)"
         style="opacity:1;fill:#005480;fill-opacity:1;fill-rule:nonzero;stroke:#ffffff;stroke-width:4.13532448;stroke-linecap:round;stroke-linejoin:round;stroke-miterlimit:4;stroke-dasharray:none;stroke-dashoffset:0;stroke-opacity:1"
         id="rect8298"
         width="58.784374"
         height="90.750969"
         x="726.78864"
         y="758.91962" />
      <rect
         y="502.36215"
         x="680"
         height="95.000008"
         width="40"
         id="rect8296"
         style="opacity:1;fill:#005480;fill-opacity:1;fill-rule:nonzero;stroke:#ffffff;stroke-width:4;stroke-linecap:round;stroke-linejoin:round;stroke-miterlimit:4;stroke-dasharray:none;stroke-dashoffset:0;stroke-opacity:1" />
    </g>
    <path
       style="fill:#005480;fill-opacity:1;fill-rule:evenodd;stroke:#ffffff;stroke-width:8;stroke-linecap:round;stroke-linejoin:round;stroke-opacity:1"
       d="m 872.96423,433.63628 -25,95 -50.41842,-43.64322 4.28571,-17.14286 -17.14285,12.85715 -11.42858,-18.57143 -14.28571,20 93.98985,76.50036 55,-110"
       id="path8290"
       inkscape:connector-curvature="0"
       sodipodi:nodetypes="ccccccccc" />
    <path
       style="fill:none;fill-rule:evenodd;stroke:#ffffff;stroke-width:8;stroke-linecap:butt;stroke-linejoin:miter;stroke-opacity:1"
       d="m 907.96423,423.63628 0,65"
       id="path8320"
       inkscape:connector-curvature="0" />
    <g
       id="g8802"
       transform="matrix(0.79635224,0,0,0.7933567,33.890374,96.09109)">
      <g
         id="g10084">
        <path
           id="path8795"
           style="fill:#005480;fill-opacity:1;fill-rule:evenodd;stroke:#ffffff;stroke-width:10.06475353;stroke-linecap:butt;stroke-linejoin:miter;stroke-opacity:1"
           d="M 271.37442,789.39406 554.69757,676.93362 c 7.66821,-4.28571 70.58813,-15.27813 72.73099,-63.63961 1.55582,-35.11274 -32.56277,-63.63962 -72.73099,-63.63962 -10.16822,0 -11.42858,0.5671 -26.07143,4.64286 L 229.30463,668.50419"
           inkscape:connector-curvature="0"
           sodipodi:nodetypes="ccsscc" />
        <ellipse
           ry="63.639614"
           rx="72.730988"
           cy="730.76837"
           cx="246.2599"
           id="ellipse8789"
           style="opacity:1;fill:#005480;fill-opacity:1;stroke:#ffffff;stroke-width:10.06475353;stroke-linecap:round;stroke-linejoin:round;stroke-miterlimit:4;stroke-dasharray:none;stroke-dashoffset:0;stroke-opacity:1" />
      </g>
    </g>
    <g
       id="g8835"
       transform="translate(131.43132,-118.93571)">
      <path
         id="path8841"
         style="fill:#005480;fill-opacity:1;fill-rule:nonzero;stroke:#ffffff;stroke-width:8;stroke-linecap:round;stroke-linejoin:round;stroke-opacity:1"
         d="m 376.53291,782.57199 40,0 L 380,762.36216 l -30,-60 L 296.53291,657.57199 275,577.36216 l -25,0 -3.46709,90.20983 c 0,20 15,20 55,40 17.88854,8.94427 40,75 40,75 l 45,10 -30,-30 L 330,702.36216 287.96148,677.57199"
         inkscape:connector-curvature="0"
         sodipodi:nodetypes="ccccccccsccccc" />
      <path
         style="display:inline;opacity:1;fill:#005480;fill-opacity:1;stroke:#ffffff;stroke-width:8;stroke-linecap:round;stroke-linejoin:round;stroke-miterlimit:4;stroke-dasharray:none;stroke-dashoffset:0;stroke-opacity:1"
         d="M 262.80196,562.43005 C 275,577.36216 275,582.36216 290,597.36216 l 21.53291,55.20983 26.53291,10.20983 c 2,-2 3.41993,-3.82854 10,-3.82854 6.58007,0 11.91426,5.3342 11.91426,11.91427 0,6.58007 -5.33528,12.03397 -11.91426,11.91427 -11.53291,-0.20983 -41.53291,-15.20983 -51.53291,-20.20983 l -20,-40"
         id="path8843"
         inkscape:connector-curvature="0"
         sodipodi:nodetypes="ccccssscc" />
      <path
         style="display:inline;opacity:1;fill:#005480;fill-opacity:1;stroke:#ffffff;stroke-width:8;stroke-linecap:round;stroke-linejoin:round;stroke-miterlimit:4;stroke-dasharray:none;stroke-dashoffset:0;stroke-opacity:1"
         d="M 262.80196,562.43005 C 250,577.36216 250,582.36216 235,597.36216 c -7.14286,34.28571 -8.46709,49.02949 -8.46709,60.20983 0,30 9.75435,55.9859 20.82578,56.34304 6.57665,0.21215 11.91426,-5.3342 11.91426,-11.91427 0,-6.58007 -1.27147,-11.84323 -4.56151,-11.84323 -6.58007,0 -8.17853,-37.58553 -8.17853,-37.58553 l 5,-25.00001"
         id="path8847"
         inkscape:connector-curvature="0"
         sodipodi:nodetypes="ccsssccc" />
      <ellipse
         style="display:inline;opacity:1;fill:#005480;fill-opacity:1;stroke:#ffffff;stroke-width:8;stroke-linecap:round;stroke-linejoin:round;stroke-miterlimit:4;stroke-dasharray:none;stroke-dashoffset:0;stroke-opacity:1"
         id="ellipse8849"
         cx="264.23029"
         cy="525.76453"
         rx="46.057144"
         ry="52.914288" />
    </g>
    <path
       sodipodi:nodetypes="cscccccc"
       inkscape:connector-curvature="0"
       id="path8806"
       d="m 258.46269,591.72626 c 0,20 24.50154,26.91002 64.50154,46.91002 C 340.85277,647.58055 360,702.36216 360,702.36216 l 40,-5 -30,-15 -27.03577,-53.72588 -70,-60 z"
       style="fill:#005480;fill-opacity:1;fill-rule:evenodd;stroke:#ffffff;stroke-width:8;stroke-linecap:butt;stroke-linejoin:round;stroke-opacity:1" />
    <path
       style="fill:#005480;fill-opacity:1;fill-rule:evenodd;stroke:#ffffff;stroke-width:8;stroke-linecap:butt;stroke-linejoin:round;stroke-opacity:1"
       d="m 238.46269,591.72626 c 0,20 24.50154,26.91002 64.50154,46.91002 17.88854,8.94427 40,70 40,70 l 40,0 -30,-20 -30,-60 -50,-40"
       id="path8304"
       inkscape:connector-curvature="0"
       sodipodi:nodetypes="csccccc" />
    <path
       id="path8812"
       style="fill:#005480;fill-opacity:1;fill-rule:evenodd;stroke:#ffffff;stroke-width:8;stroke-linecap:butt;stroke-linejoin:miter;stroke-opacity:1"
       d="m 282.96423,598.63628 -15,-95 -25,0 -5,95"
       inkscape:connector-curvature="0"
       sodipodi:nodetypes="cccc" />
    <path
       style="display:inline;opacity:1;fill:#005480;fill-opacity:1;stroke:#ffffff;stroke-width:8;stroke-linecap:round;stroke-linejoin:round;stroke-miterlimit:4;stroke-dasharray:none;stroke-dashoffset:0;stroke-opacity:1"
       d="m 255.76619,488.70417 c 12.19804,14.93211 14.69804,16.71782 29.69804,31.71782 l 15.93011,47.01007 20.49846,19.06137 c 2,-2 3.41993,-3.82854 10,-3.82854 6.58007,0 11.91426,5.3342 11.91426,11.91427 0,6.58007 -5.33419,11.91427 -11.91426,11.91427 -30,0 -41.42857,-24.28572 -51.42857,-29.28572 l -8.57143,-21.07143"
       id="circle8310"
       inkscape:connector-curvature="0"
       sodipodi:nodetypes="ccccssscc" />
    <path
       style="display:inline;opacity:1;fill:#005480;fill-opacity:1;stroke:#ffffff;stroke-width:8;stroke-linecap:round;stroke-linejoin:round;stroke-miterlimit:4;stroke-dasharray:none;stroke-dashoffset:0;stroke-opacity:1"
       d="m 255.76619,488.70417 c -12.80196,14.93211 -17.44482,27.07497 -32.44482,42.07497 0,55 14.64286,77.85714 24.85869,85.48145 10,5 20,0 50,0 6.58007,0 11.91426,-5.3342 11.91426,-11.91427 0,-6.58007 -5.33419,-11.91427 -11.91426,-11.91427 -6.58007,0 -8,1.82854 -10,3.82854 l -25,5 -14.14441,-46.19574"
       id="path8817"
       inkscape:connector-curvature="0"
       sodipodi:nodetypes="ccssscccc" />
    <ellipse
       style="display:inline;opacity:1;fill:#005480;fill-opacity:1;stroke:#ffffff;stroke-width:8;stroke-linecap:round;stroke-linejoin:round;stroke-miterlimit:4;stroke-dasharray:none;stroke-dashoffset:0;stroke-opacity:1"
       id="ellipse8278"
       cx="257.19452"
       cy="452.03864"
       rx="46.057144"
       ry="52.914288" />
    <path
       style="fill:url(#radialGradient8400);fill-opacity:1;fill-rule:evenodd;stroke:none;stroke-width:1px;stroke-linecap:butt;stroke-linejoin:miter;stroke-opacity:1"
       d="m 500.96532,722.63628 c 33.2223,-76.66667 39.49331,-153.33333 110,-230 91.32268,71.98187 77.81056,152.94957 110.00001,230 -67.61905,0 -136.72444,7.07107 -220.00001,0 z"
       id="path8392"
       inkscape:connector-curvature="0"
       sodipodi:nodetypes="cccc" />
    <path
       sodipodi:nodetypes="cccc"
       inkscape:connector-curvature="0"
       id="path10080"
       d="m 492.60496,693.88451 c 33.2223,76.66667 18.06474,21.19047 88.57143,97.85714 91.32268,-71.98187 99.23913,-20.80671 131.42858,-97.85714 -67.61905,0 -136.72444,-7.07107 -220.00001,0 z"
       style="fill:url(#radialGradient10082);fill-opacity:1;fill-rule:evenodd;stroke:none;stroke-width:1px;stroke-linecap:butt;stroke-linejoin:miter;stroke-opacity:1" />
    <path
       sodipodi:nodetypes="ccc"
       inkscape:connector-curvature="0"
       id="path8361"
       d="m 565.85819,704.06485 c 1.17712,-89.80198 35.18612,-62.71542 41.96428,-160 44.98111,73.57456 -0.65131,89.13915 69.46429,160"
       style="fill:#ffc02a;fill-opacity:1;fill-rule:evenodd;stroke:none;stroke-width:1px;stroke-linecap:butt;stroke-linejoin:miter;stroke-opacity:1" />
    <path
       style="fill:#ff6600;fill-rule:evenodd;stroke:none;stroke-width:1px;stroke-linecap:butt;stroke-linejoin:miter;stroke-opacity:1"
       d="m 525.25104,722.63628 c 1.17712,-89.80198 36.07898,-54.14399 42.85714,-151.42857 44.98111,73.57456 -2.55432,87.63879 67.56128,158.49964 -48.15064,0.59599 -47.31852,0.74728 -110.41842,-7.07107 z"
       id="path8363"
       inkscape:connector-curvature="0"
       sodipodi:nodetypes="cccc" />
    <path
       style="fill:#ff0000;fill-rule:evenodd;stroke:none;stroke-width:1px;stroke-linecap:butt;stroke-linejoin:miter;stroke-opacity:1"
       d="m 696.67961,722.63628 c -1.17712,-89.80198 -36.07898,-54.14399 -42.85714,-151.42857 -44.98111,73.57456 0.53402,87.63879 -69.58158,158.49964 33.37701,1.33529 65.99397,3.35461 112.43872,-7.07107 z"
       id="path8365"
       inkscape:connector-curvature="0"
       sodipodi:nodetypes="cccc" />
    <text
       xml:space="preserve"
       style="color:#000000;font-style:normal;font-variant:normal;font-weight:normal;font-stretch:normal;font-size:24px;line-height:125%;font-family:Helvetica;-inkscape-font-specification:Helvetica;text-indent:0;text-align:start;text-decoration:none;text-decoration-line:none;text-decoration-style:solid;text-decoration-color:#000000;letter-spacing:0px;word-spacing:0px;text-transform:none;direction:ltr;block-progression:tb;writing-mode:lr-tb;baseline-shift:baseline;text-anchor:start;white-space:normal;clip-rule:nonzero;display:inline;overflow:visible;visibility:visible;opacity:1;isolation:auto;mix-blend-mode:normal;color-interpolation:sRGB;color-interpolation-filters:linearRGB;solid-color:#000000;solid-opacity:1;fill:#000000;fill-opacity:1;fill-rule:nonzero;stroke:none;stroke-width:1px;stroke-linecap:butt;stroke-linejoin:miter;stroke-miterlimit:4;stroke-dasharray:none;stroke-dashoffset:0;stroke-opacity:1;marker:none;color-rendering:auto;image-rendering:auto;shape-rendering:auto;text-rendering:auto;enable-background:accumulate"
       x="688.92407"
       y="177.57005"
       id="text8182"
       sodipodi:linespacing="125%"><tspan
         sodipodi:role="line"
         id="tspan8184"
         x="688.92407"
         y="177.57005" /></text>
    <g
       id="g8310"
       transform="matrix(0.7767225,0,0,0.7594832,241.27415,192.17909)">
      <g
         transform="matrix(0.59309051,0,0,0.59309058,-239.64987,811.0129)"
         id="g8859"
         style="display:inline">
        <g
           id="Background__x28_for_preview_purposes_x29_"
           style="display:none">
          <rect
             x="-5"
             y="-4"
             style="display:inline;fill:#000100"
             width="261"
             height="262"
             id="rect8788" />
        </g>
        <g
           id="Signet-4">
          <polygon
             style="fill:#ffffff"
             points="137.597,94.976 139.136,98.864 143.134,97.637 141.052,101.265 144.503,103.625 140.37,104.259 140.676,108.43 137.603,105.593 134.533,108.434 134.835,104.262 130.7,103.633 134.15,101.269 132.064,97.643 136.063,98.866 "
             id="polygon8791" />
          <polygon
             style="fill:#ffffff"
             points="158.597,69.976 160.136,73.864 164.134,72.637 162.052,76.265 165.503,78.625 161.37,79.259 161.676,83.43 158.603,80.593 155.533,83.434 155.835,79.262 151.7,78.633 155.15,76.269 153.064,72.643 157.063,73.866 "
             id="polygon8793" />
          <polygon
             style="fill:#ffffff"
             points="180.597,87.976 182.136,91.864 186.134,90.637 184.052,94.265 187.503,96.625 183.37,97.259 183.676,101.43 180.603,98.593 177.533,101.434 177.835,97.262 173.7,96.633 177.15,94.269 175.064,90.643 179.063,91.866 "
             id="polygon8795" />
          <polygon
             style="fill:#ffffff"
             points="161.597,129.976 163.136,133.863 167.134,132.637 165.052,136.265 168.503,138.625 164.37,139.26 164.676,143.43 161.603,140.594 158.533,143.434 158.835,139.262 154.7,138.633 158.15,136.269 156.064,132.643 160.063,133.865 "
             id="polygon8797" />
          <polygon
             style="fill:#ffffff"
             points="165.324,109.607 168.134,109.196 169.389,106.649 170.647,109.194 173.457,109.601 171.426,111.584 171.908,114.382 169.394,113.063 166.881,114.387 167.358,111.587 "
             id="polygon8799" />
          <polygon
             style="fill:#ffffff"
             points="167.99,128.403 168.551,132.538 172.72,132.304 169.834,135.319 172.612,138.438 168.455,138.062 167.754,142.177 165.453,138.692 161.799,140.712 163.091,136.738 159.235,135.141 163.145,133.673 161.989,129.664 165.571,131.806 "
             id="polygon8801" />
          <polygon
             style="fill:#ffffff"
             points="186.959,86.473 187.517,90.609 191.688,90.38 188.801,93.395 191.579,96.512 187.423,96.133 186.722,100.247 184.421,96.763 180.769,98.781 182.059,94.813 178.201,93.213 182.11,91.749 180.957,87.733 184.541,89.876 "
             id="polygon8803" />
          <polygon
             style="fill:#ffffff"
             points="165.993,68.504 166.553,72.643 170.721,72.407 167.835,75.424 170.617,78.537 166.46,78.167 165.757,82.28 163.459,78.797 159.802,80.814 161.093,76.842 157.236,75.243 161.147,73.777 159.991,69.766 163.576,71.91 "
             id="polygon8805" />
          <polygon
             style="fill:#ffffff"
             points="144.031,93.462 144.59,97.599 148.762,97.362 145.873,100.38 148.655,103.501 144.498,103.123 143.795,107.236 141.498,103.753 137.841,105.771 139.132,101.799 135.273,100.203 139.185,98.733 138.03,94.722 141.613,96.866 "
             id="polygon8807" />
          <polygon
             style="fill:#ffffff"
             points="170.117,107.639 172.938,107.342 174.292,104.852 175.443,107.444 178.229,107.962 176.123,109.86 176.486,112.673 174.034,111.247 171.477,112.469 172.066,109.695 "
             id="polygon8809" />
          <g
             id="g8811">
            <path
               inkscape:connector-curvature="0"
               style="fill:#ffffff;stroke:#ffffff;stroke-width:17.56211853;stroke-miterlimit:10"
               d="M 236.486,146.885 C 225.832,206.359 168.975,245.948 109.49,235.291 50.006,224.638 10.42,167.781 21.076,108.307 31.727,48.825 88.584,9.247 148.071,19.905 c 59.483,10.652 99.065,67.504 88.415,126.98 l 0,0 z"
               id="path8813" />
            <path
               inkscape:connector-curvature="0"
               style="fill:#000100;stroke:#ffffff;stroke-width:17.56211853;stroke-miterlimit:10"
               d="m 145.36,35.036 c -51.125,-9.156 -99.998,24.87 -109.153,75.99 -9.158,51.125 24.864,100.003 75.99,109.164 51.124,9.148 99.992,-24.882 109.15,-76.004 9.158,-51.119 -24.862,-99.993 -75.987,-109.15 l 0,0 z m 91.121,111.86 c -10.653,59.483 -67.51,99.072 -126.995,88.422 C 50,224.66 10.416,167.801 21.074,108.315 31.725,48.832 88.585,9.247 148.071,19.904 c 59.483,10.653 99.065,67.513 88.41,126.992 l 0,0 z"
               id="path8815" />
            <g
               id="g8817">
              <polygon
                 style="fill:#000100;stroke:#ffffff;stroke-width:17.56211853;stroke-miterlimit:10"
                 points="100.328,155.942 98.192,150.632 94.897,52.033 87.734,50.753 87.734,50.753 88.291,161.191 "
                 id="polygon8819" />
              <path
                 inkscape:connector-curvature="0"
                 style="fill:#000100;stroke:#ffffff;stroke-width:17.56211853;stroke-miterlimit:10"
                 d="m 77.697,72.382 c 0,0 102.554,-38.904 117.626,31.543 0,0 9.657,33.044 -38.848,44.821 0,0 -33.144,8.24 -36.416,8.267 -3.29,0.033 -3.29,0.033 -3.29,0.033 0,0 -32.593,6.487 -25.002,46.677 0,0 -25.204,-35.945 21.928,-64.487 0,0 18.241,-15.232 12.537,-38.435 0,0.001 -5.646,-27.56 -48.535,-28.419 l 0,0 z"
                 id="path8821" />
              <polygon
                 style="fill:#000100;stroke:#ffffff;stroke-width:17.56211853;stroke-miterlimit:10"
                 points="88.252,153.215 88.163,172.257 101.04,158.845 88.252,153.215 "
                 id="polygon8823" />
              <path
                 inkscape:connector-curvature="0"
                 style="fill:#000100;stroke:#ffffff;stroke-width:17.56211853;stroke-miterlimit:10"
                 d="m 146.725,151.137 c 0,0 -49.711,8.309 -54.696,29.868 -4.984,21.564 -6.068,-32.612 25.806,-35.055 31.871,-2.42 2.732,-1.481 2.732,-1.481 l 30.386,-2.719 -3.832,7.167"
                 id="path8825" />
            </g>
          </g>
          <g
             id="g8827">
            <path
               inkscape:connector-curvature="0"
               style="fill:#ffffff"
               d="M 236.486,146.885 C 225.832,206.359 168.975,245.948 109.49,235.291 50.006,224.638 10.42,167.781 21.076,108.307 31.727,48.825 88.584,9.247 148.071,19.905 c 59.483,10.652 99.065,67.504 88.415,126.98 l 0,0 z"
               id="path8829" />
            <path
               inkscape:connector-curvature="0"
               style="fill:#000100"
               d="m 145.36,35.036 c -51.125,-9.156 -99.998,24.87 -109.153,75.99 -9.158,51.125 24.864,100.003 75.99,109.164 51.124,9.148 99.992,-24.882 109.15,-76.004 9.158,-51.119 -24.862,-99.993 -75.987,-109.15 l 0,0 z m 91.121,111.86 c -10.653,59.483 -67.51,99.072 -126.995,88.422 C 50,224.66 10.416,167.801 21.074,108.315 31.725,48.832 88.585,9.247 148.071,19.904 c 59.483,10.653 99.065,67.513 88.41,126.992 l 0,0 z"
               id="path8831" />
            <g
               id="g8833">
              <polygon
                 style="fill:#000100"
                 points="87.734,50.753 88.291,161.191 100.328,155.942 98.192,150.632 94.897,52.033 87.734,50.753 "
                 id="polygon8835" />
              <path
                 inkscape:connector-curvature="0"
                 style="fill:#000100"
                 d="m 77.697,72.382 c 0,0 102.554,-38.904 117.626,31.543 0,0 9.657,33.044 -38.848,44.821 0,0 -33.144,8.24 -36.416,8.267 -3.29,0.033 -3.29,0.033 -3.29,0.033 0,0 -32.593,6.487 -25.002,46.677 0,0 -25.204,-35.945 21.928,-64.487 0,0 18.241,-15.232 12.537,-38.435 0,0.001 -5.646,-27.56 -48.535,-28.419 l 0,0 z"
                 id="path8837" />
              <polygon
                 style="fill:#000100"
                 points="88.252,153.215 88.163,172.257 101.04,158.845 88.252,153.215 "
                 id="polygon8839" />
              <path
                 inkscape:connector-curvature="0"
                 style="fill:#000100"
                 d="m 146.725,151.137 c 0,0 -49.711,8.309 -54.696,29.868 -4.984,21.564 -6.068,-32.612 25.806,-35.055 31.871,-2.42 2.732,-1.481 2.732,-1.481 l 30.386,-2.719 -3.832,7.167"
                 id="path8841-8" />
            </g>
          </g>
          <polygon
             style="fill:#ffffff"
             points="137.124,93.766 139.129,97.413 142.922,95.705 141.316,99.548 145.02,101.449 141.016,102.583 141.841,106.666 138.453,104.25 135.773,107.433 135.555,103.28 131.391,103.169 134.509,100.409 131.994,97.088 136.098,97.794 "
             id="polygon8843" />
          <polygon
             style="fill:#ffffff"
             points="157.529,69.066 159.533,72.713 163.326,71.004 161.723,74.848 165.423,76.749 161.421,77.884 162.245,81.966 158.857,79.55 156.179,82.733 155.959,78.579 151.795,78.469 154.912,75.709 152.399,72.388 156.501,73.095 "
             id="polygon8845" />
          <polygon
             style="fill:#ffffff"
             points="180.081,87.322 182.085,90.97 185.88,89.26 184.273,93.104 187.976,95.005 183.973,96.141 184.798,100.222 181.409,97.806 178.73,100.99 178.512,96.836 174.348,96.725 177.465,93.966 174.952,90.645 179.054,91.352 "
             id="polygon8847" />
          <polygon
             style="fill:#ffffff"
             points="160.75,128.131 162.755,131.779 166.549,130.07 164.943,133.914 168.646,135.815 164.643,136.949 165.467,141.032 162.078,138.615 159.4,141.799 159.181,137.646 155.018,137.534 158.134,134.775 155.621,131.453 159.724,132.16 "
             id="polygon8849" />
          <polygon
             style="fill:#ffffff"
             points="165.479,109.012 168.159,108.131 168.958,105.418 170.626,107.701 173.45,107.624 171.794,109.91 172.745,112.575 170.051,111.706 167.812,113.434 167.807,110.608 "
             id="polygon8851" />
        </g>
      </g>
      <text
         sodipodi:linespacing="125%"
         id="text8283"
         y="905.18799"
         x="-85.312157"
         style="color:#000000;font-style:normal;font-variant:normal;font-weight:normal;font-stretch:normal;font-size:24px;line-height:125%;font-family:Helvetica;-inkscape-font-specification:Helvetica;text-indent:0;text-align:start;text-decoration:none;text-decoration-line:none;text-decoration-style:solid;text-decoration-color:#000000;letter-spacing:0px;word-spacing:0px;text-transform:none;direction:ltr;block-progression:tb;writing-mode:lr-tb;baseline-shift:baseline;text-anchor:start;white-space:normal;clip-rule:nonzero;display:inline;overflow:visible;visibility:visible;opacity:1;isolation:auto;mix-blend-mode:normal;color-interpolation:sRGB;color-interpolation-filters:linearRGB;solid-color:#000000;solid-opacity:1;fill:#0073ae;fill-opacity:1;fill-rule:nonzero;stroke:none;stroke-width:1px;stroke-linecap:butt;stroke-linejoin:miter;stroke-miterlimit:4;stroke-dasharray:none;stroke-dashoffset:0;stroke-opacity:1;marker:none;color-rendering:auto;image-rendering:auto;shape-rendering:auto;text-rendering:auto;enable-background:accumulate"
         xml:space="preserve"><tspan
           style="font-style:normal;font-variant:normal;font-weight:bold;font-stretch:normal;font-size:96px;font-family:'Gehen Sans';-inkscape-font-specification:'Gehen Sans Bold';fill:#0073ae;fill-opacity:1"
           y="905.18799"
           x="-85.312157"
           id="tspan8285"
           sodipodi:role="line">pirate<tspan
   id="tspan8289"
   style="font-style:normal;font-variant:normal;font-weight:normal;font-stretch:normal;font-size:96px;font-family:'Gehen Sans';-inkscape-font-specification:'Gehen Sans Bold';fill:#ffffff">party.org.au/<tspan
   style="font-weight:bold"
   id="tspan8351">culture</tspan></tspan></tspan></text>
    </g>
  </g>
</svg>
