<?xml version="1.0" encoding="UTF-8" standalone="no"?>
<!-- Created with Inkscape (http://www.inkscape.org/) -->

<svg
   xmlns:dc="http://purl.org/dc/elements/1.1/"
   xmlns:cc="http://creativecommons.org/ns#"
   xmlns:rdf="http://www.w3.org/1999/02/22-rdf-syntax-ns#"
   xmlns:svg="http://www.w3.org/2000/svg"
   xmlns="http://www.w3.org/2000/svg"
   xmlns:xlink="http://www.w3.org/1999/xlink"
   xmlns:sodipodi="http://sodipodi.sourceforge.net/DTD/sodipodi-0.dtd"
   xmlns:inkscape="http://www.inkscape.org/namespaces/inkscape"
   width="1200"
   height="1200"
   viewBox="0 0 1200 1200"
   id="svg2"
   version="1.1"
   inkscape:version="0.91 r13725"
   sodipodi:docname="sharing-turns-content-into-culture.svg"
   inkscape:export-filename="/Users/alexjago/Documents/_PPAU/Memes/Pete-the-pirate/sharing-turns-content-into-culture/sharing-turns-content-into-culture.png"
   inkscape:export-xdpi="45"
   inkscape:export-ydpi="45">
  <defs
     id="defs4">
    <linearGradient
       inkscape:collect="always"
       id="linearGradient8394">
      <stop
         style="stop-color:#ff6600;stop-opacity:1"
         offset="0"
         id="stop8396" />
      <stop
         style="stop-color:#ff6600;stop-opacity:0"
         offset="1"
         id="stop8398" />
    </linearGradient>
    <radialGradient
       inkscape:collect="always"
       xlink:href="#linearGradient8394"
       id="radialGradient8400"
       cx="596.15546"
       cy="785.8808"
       fx="596.15546"
       fy="785.8808"
       r="110.75618"
       gradientTransform="matrix(0.8125957,6.8197211e-8,-9.8507108e-8,1.1737496,126.53205,-239.79103)"
       gradientUnits="userSpaceOnUse" />
    <radialGradient
       inkscape:collect="always"
       xlink:href="#linearGradient8394"
       id="radialGradient10082"
       gradientUnits="userSpaceOnUse"
       gradientTransform="matrix(0.72230723,0.18057664,0.11165905,-0.44663648,69.844109,999.51673)"
       cx="580.97137"
       cy="900.20508"
       fx="580.97137"
       fy="900.20508"
       r="110.75618" />
  </defs>
  <sodipodi:namedview
     id="base"
     pagecolor="#001f30"
     bordercolor="#666666"
     borderopacity="1.0"
     inkscape:pageopacity="1"
     inkscape:pageshadow="2"
     inkscape:zoom="0.35"
     inkscape:cx="1045.1607"
     inkscape:cy="406.77837"
     inkscape:document-units="px"
     inkscape:current-layer="layer1"
     showgrid="false"
     units="px"
     inkscape:snap-bbox="true"
     inkscape:bbox-nodes="true"
     inkscape:object-nodes="true"
     inkscape:snap-smooth-nodes="true"
     showguides="true"
     inkscape:snap-bbox-edge-midpoints="false"
     inkscape:window-width="1356"
     inkscape:window-height="723"
     inkscape:window-x="0"
     inkscape:window-y="1"
     inkscape:window-maximized="1">
    <inkscape:grid
       type="xygrid"
       id="grid8078" />
  </sodipodi:namedview>
  <metadata
     id="metadata7">
    <rdf:RDF>
      <cc:Work
         rdf:about="">
        <dc:format>image/svg+xml</dc:format>
        <dc:type
           rdf:resource="http://purl.org/dc/dcmitype/StillImage" />
        <dc:title></dc:title>
      </cc:Work>
    </rdf:RDF>
  </metadata>
  <g
     inkscape:label="Layer 1"
     inkscape:groupmode="layer"
     id="layer1"
     transform="translate(0,147.63784)">
    <rect
       style="opacity:1;fill:#001f30;fill-opacity:1;fill-rule:nonzero;stroke:none;stroke-width:16;stroke-linecap:round;stroke-linejoin:round;stroke-miterlimit:4;stroke-dasharray:none;stroke-dashoffset:0;stroke-opacity:1"
       id="rect8188"
       width="1200"
       height="1200"
       x="0"
       y="-147.63783" />
    <text
       xml:space="preserve"
       style="color:#000000;font-style:normal;font-variant:normal;font-weight:normal;font-stretch:normal;font-size:24px;line-height:125%;font-family:Helvetica;-inkscape-font-specification:Helvetica;text-indent:0;text-align:start;text-decoration:none;text-decoration-line:none;text-decoration-style:solid;text-decoration-color:#000000;letter-spacing:0px;word-spacing:0px;text-transform:none;direction:ltr;block-progression:tb;writing-mode:lr-tb;baseline-shift:baseline;text-anchor:start;white-space:normal;clip-rule:nonzero;display:inline;overflow:visible;visibility:visible;opacity:1;isolation:auto;mix-blend-mode:normal;color-interpolation:sRGB;color-interpolation-filters:linearRGB;solid-color:#000000;solid-opacity:1;fill:#000000;fill-opacity:1;fill-rule:nonzero;stroke:none;stroke-width:1px;stroke-linecap:butt;stroke-linejoin:miter;stroke-miterlimit:4;stroke-dasharray:none;stroke-dashoffset:0;stroke-opacity:1;marker:none;color-rendering:auto;image-rendering:auto;shape-rendering:auto;text-rendering:auto;enable-background:accumulate"
       x="47.664898"
       y="74.662941"
       id="text8068"
       sodipodi:linespacing="125%"><tspan
         sodipodi:role="line"
         x="47.664898"
         y="74.662941"
         style="font-style:normal;font-variant:normal;font-weight:bold;font-stretch:normal;font-size:82px;font-family:'Open Sans';-inkscape-font-specification:'Open Sans';fill:#ffffff"
         id="tspan8080" /></text>
    <text
       xml:space="preserve"
       style="color:#000000;font-style:normal;font-variant:normal;font-weight:normal;font-stretch:normal;font-size:24px;line-height:100%;font-family:Helvetica;-inkscape-font-specification:Helvetica;text-indent:0;text-align:start;text-decoration:none;text-decoration-line:none;text-decoration-style:solid;text-decoration-color:#000000;letter-spacing:0px;word-spacing:0px;text-transform:none;direction:ltr;block-progression:tb;writing-mode:lr-tb;baseline-shift:baseline;text-anchor:start;white-space:normal;clip-rule:nonzero;display:inline;overflow:visible;visibility:visible;opacity:1;isolation:auto;mix-blend-mode:normal;color-interpolation:sRGB;color-interpolation-filters:linearRGB;solid-color:#000000;solid-opacity:1;fill:#000000;fill-opacity:1;fill-rule:nonzero;stroke:none;stroke-width:1px;stroke-linecap:butt;stroke-linejoin:miter;stroke-miterlimit:4;stroke-dasharray:none;stroke-dashoffset:0;stroke-opacity:1;marker:none;color-rendering:auto;image-rendering:auto;shape-rendering:auto;text-rendering:auto;enable-background:accumulate"
       x="599.94141"
       y="-15.821434"
       id="text8117"
       sodipodi:linespacing="100%"><tspan
         sodipodi:role="line"
         x="599.94141"
         y="-15.821434"
         style="font-style:normal;font-variant:normal;font-weight:bold;font-stretch:normal;font-size:120px;font-family:'Open Sans';-inkscape-font-specification:'Open Sans';text-align:center;text-anchor:middle;fill:#ffffff"
         id="tspan8123">Copyright Reform.</tspan><tspan
         sodipodi:role="line"
         x="599.94141"
         y="104.17857"
         style="font-style:italic;font-variant:normal;font-weight:bold;font-stretch:normal;font-size:96px;line-height:100%;font-family:'Open Sans';-inkscape-font-specification:'Open Sans Bold';text-align:center;text-anchor:middle;fill:#ffffff"
         id="tspan8159" /></text>
    <text
       xml:space="preserve"
       style="color:#000000;font-style:normal;font-variant:normal;font-weight:normal;font-stretch:normal;font-size:24px;line-height:100%;font-family:Helvetica;-inkscape-font-specification:Helvetica;text-indent:0;text-align:start;text-decoration:none;text-decoration-line:none;text-decoration-style:solid;text-decoration-color:#000000;letter-spacing:0px;word-spacing:0px;text-transform:none;direction:ltr;block-progression:tb;writing-mode:lr-tb;baseline-shift:baseline;text-anchor:start;white-space:normal;clip-rule:nonzero;display:inline;overflow:visible;visibility:visible;opacity:1;isolation:auto;mix-blend-mode:normal;color-interpolation:sRGB;color-interpolation-filters:linearRGB;solid-color:#000000;solid-opacity:1;fill:#000000;fill-opacity:1;fill-rule:nonzero;stroke:none;stroke-width:1px;stroke-linecap:butt;stroke-linejoin:miter;stroke-miterlimit:4;stroke-dasharray:none;stroke-dashoffset:0;stroke-opacity:1;marker:none;color-rendering:auto;image-rendering:auto;shape-rendering:auto;text-rendering:auto;enable-background:accumulate"
       x="598.06836"
       y="112.2606"
       id="text8179"
       sodipodi:linespacing="100%"><tspan
         sodipodi:role="line"
         id="tspan8181"
         x="598.06836"
         y="112.2606"
         style="font-style:italic;font-variant:normal;font-weight:bold;font-stretch:normal;font-size:92px;line-height:100%;font-family:'Open Sans';-inkscape-font-specification:'Open Sans';text-align:center;text-anchor:middle;fill:#ffffff"><tspan
           style="font-weight:normal;font-size:92px;line-height:100%;text-align:center;text-anchor:middle;fill:#ffffff"
           id="tspan8185">Because </tspan><tspan
           style="font-size:92px;line-height:100%;text-align:center;text-anchor:middle;fill:#ff2a2a"
           id="tspan8191">sharing </tspan><tspan
           style="font-weight:normal;font-size:92px;line-height:100%;text-align:center;text-anchor:middle;fill:#ffffff"
           id="tspan8187">turns</tspan></tspan><tspan
         sodipodi:role="line"
         x="598.06836"
         y="204.26059"
         id="tspan8183"
         style="font-style:italic;font-variant:normal;font-weight:bold;font-stretch:normal;font-size:92px;line-height:100%;font-family:'Open Sans';-inkscape-font-specification:'Open Sans';text-align:center;text-anchor:middle;fill:#ffffff"><tspan
           style="font-size:92px;line-height:100%;text-align:center;text-anchor:middle;fill:#5555ff"
           id="tspan8193">content </tspan><tspan
           style="font-weight:normal;font-size:92px;line-height:100%;text-align:center;text-anchor:middle;fill:#ffffff"
           id="tspan8189">into </tspan><tspan
           style="font-size:92px;line-height:100%;text-align:center;text-anchor:middle;fill:#ff00ff"
           id="tspan8197">culture</tspan><tspan
           style="font-weight:normal;font-size:92px"
           id="tspan8199">.</tspan></tspan></text>
    <path
       sodipodi:nodetypes="ccccccc"
       inkscape:connector-curvature="0"
       id="path10033"
       d="m 905,542.36216 c 0,80 7.85714,57.14286 -67.15812,111.47274 l -35.87765,80.80138 -55,0 35,-20 20.07108,-70.01847 74.92892,-69.98153"
       style="fill:#005480;fill-opacity:1;fill-rule:evenodd;stroke:#ffffff;stroke-width:8;stroke-linecap:butt;stroke-linejoin:round;stroke-opacity:1" />
    <ellipse
       style="opacity:1;fill:#005480;fill-opacity:1;stroke:#ffffff;stroke-width:8;stroke-linecap:round;stroke-linejoin:round;stroke-miterlimit:4;stroke-dasharray:none;stroke-dashoffset:0;stroke-opacity:1"
       id="path8228"
       cx="900"
       cy="688.72253"
       rx="72.730988"
       ry="63.639614" />
    <path
       sodipodi:nodetypes="cccccccccc"
       inkscape:connector-curvature="0"
       id="path8288"
       d="m 907.96423,428.63628 -40,75 -50.41842,-43.64322 4.28571,-17.14286 -17.14285,12.85715 -11.42858,-18.57143 -14.28571,20 93.98985,76.50036 35,-50 z"
       style="fill:#005480;fill-opacity:1;fill-rule:evenodd;stroke:#ffffff;stroke-width:8;stroke-linecap:butt;stroke-linejoin:round;stroke-opacity:1" />
    <path
       style="fill:#005480;fill-opacity:1;fill-rule:evenodd;stroke:#ffffff;stroke-width:8;stroke-linecap:butt;stroke-linejoin:round;stroke-opacity:1"
       d="m 907.96423,408.63628 0,145 c 0,80 -0.85026,48.27412 -82.97949,108.05576 l -57.02051,96.94424 -55,0 35,-20 54.07108,-94.01847 40.92892,-45.98153 c 30,-30 30,-30 30,-180"
       id="path8223"
       inkscape:connector-curvature="0"
       sodipodi:nodetypes="ccccccccc" />
    <g
       id="g8230"
       transform="translate(-7.0357666,-73.725879)">
      <g
         transform="translate(60.609153,-88.893424)"
         id="g8217">
        <ellipse
           style="display:inline;opacity:1;fill:#005480;fill-opacity:1;stroke:#ffffff;stroke-width:8;stroke-linecap:round;stroke-linejoin:round;stroke-miterlimit:4;stroke-dasharray:none;stroke-dashoffset:0;stroke-opacity:1"
           id="path8826"
           cx="830.3454"
           cy="512.94073"
           rx="58.57143"
           ry="67.14286" />
        <path
           style="display:inline;opacity:1;fill:#ffffff;fill-opacity:1;stroke:#ffffff;stroke-width:8;stroke-linecap:round;stroke-linejoin:round;stroke-miterlimit:4;stroke-dasharray:none;stroke-dashoffset:0;stroke-opacity:1"
           d="m 806.05962,517.47592 c -3.53622,-0.0354 -37.11861,-29.42851 0,-27.39233 26.1436,1.43413 4.85022,27.44086 0,27.39233 z"
           id="path8842"
           inkscape:connector-curvature="0"
           sodipodi:nodetypes="sss" />
        <path
           id="ellipse8156"
           style="display:inline;opacity:1;fill:none;fill-opacity:1;stroke:#ffffff;stroke-width:8;stroke-linecap:round;stroke-linejoin:miter;stroke-miterlimit:4;stroke-dasharray:none;stroke-dashoffset:0;stroke-opacity:1"
           d="m 888.91682,512.94071 c 0,37.08198 -26.22332,67.14286 -58.57143,67.14286 -32.34811,0 -58.57143,-30.06088 -58.57143,-67.14286 0,-37.08198 26.22332,-67.14286 58.57143,-67.14286 32.34811,0 58.57143,30.06088 58.57143,67.14286 z M 783.2025,552.22642 c 14.04762,0.67111 28.80952,-0.93115 42.85714,-7.85714 -10,19.1878 -19.10188,18.00277 -29.10188,22.91316"
           inkscape:connector-curvature="0"
           sodipodi:nodetypes="sssssccc" />
        <path
           style="display:inline;opacity:1;fill:none;fill-rule:evenodd;stroke:#ffffff;stroke-width:8;stroke-linecap:butt;stroke-linejoin:miter;stroke-opacity:1"
           d="m 778.4126,484.583 c 0,0 13.97949,8.1188 21.78572,8.92858 26.79029,2.7791 85.77031,-3.82704 85.77031,-3.82704"
           id="path8169"
           inkscape:connector-curvature="0"
           sodipodi:nodetypes="csc" />
      </g>
    </g>
    <g
       id="g8300"
       transform="translate(82.964237,-78.725879)">
      <rect
         transform="matrix(0.93562277,-0.35300147,0,1,0,0)"
         style="opacity:1;fill:#005480;fill-opacity:1;fill-rule:nonzero;stroke:#ffffff;stroke-width:4.13532448;stroke-linecap:round;stroke-linejoin:round;stroke-miterlimit:4;stroke-dasharray:none;stroke-dashoffset:0;stroke-opacity:1"
         id="rect8298"
         width="58.784374"
         height="90.750969"
         x="726.78864"
         y="758.91962" />
      <rect
         y="502.36215"
         x="680"
         height="95.000008"
         width="40"
         id="rect8296"
         style="opacity:1;fill:#005480;fill-opacity:1;fill-rule:nonzero;stroke:#ffffff;stroke-width:4;stroke-linecap:round;stroke-linejoin:round;stroke-miterlimit:4;stroke-dasharray:none;stroke-dashoffset:0;stroke-opacity:1" />
    </g>
    <path
       style="fill:#005480;fill-opacity:1;fill-rule:evenodd;stroke:#ffffff;stroke-width:8;stroke-linecap:round;stroke-linejoin:round;stroke-opacity:1"
       d="m 872.96423,433.63628 -25,95 -50.41842,-43.64322 4.28571,-17.14286 -17.14285,12.85715 -11.42858,-18.57143 -14.28571,20 93.98985,76.50036 55,-110"
       id="path8290"
       inkscape:connector-curvature="0"
       sodipodi:nodetypes="ccccccccc" />
    <path
       style="fill:none;fill-rule:evenodd;stroke:#ffffff;stroke-width:8;stroke-linecap:butt;stroke-linejoin:miter;stroke-opacity:1"
       d="m 907.96423,423.63628 0,65"
       id="path8320"
       inkscape:connector-curvature="0" />
    <g
       id="g8802"
       transform="matrix(0.79635224,0,0,0.7933567,33.890374,96.09109)">
      <g
         id="g10084">
        <path
           id="path8795"
           style="fill:#005480;fill-opacity:1;fill-rule:evenodd;stroke:#ffffff;stroke-width:10.06475353;stroke-linecap:butt;stroke-linejoin:miter;stroke-opacity:1"
           d="M 271.37442,789.39406 554.69757,676.93362 c 7.66821,-4.28571 70.58813,-15.27813 72.73099,-63.63961 1.55582,-35.11274 -32.56277,-63.63962 -72.73099,-63.63962 -10.16822,0 -11.42858,0.5671 -26.07143,4.64286 L 229.30463,668.50419"
           inkscape:connector-curvature="0"
           sodipodi:nodetypes="ccsscc" />
        <ellipse
           ry="63.639614"
           rx="72.730988"
           cy="730.76837"
           cx="246.2599"
           id="ellipse8789"
           style="opacity:1;fill:#005480;fill-opacity:1;stroke:#ffffff;stroke-width:10.06475353;stroke-linecap:round;stroke-linejoin:round;stroke-miterlimit:4;stroke-dasharray:none;stroke-dashoffset:0;stroke-opacity:1" />
      </g>
    </g>
    <g
       id="g8835"
       transform="translate(131.43132,-118.93571)">
      <path
         id="path8841"
         style="fill:#005480;fill-opacity:1;fill-rule:nonzero;stroke:#ffffff;stroke-width:8;stroke-linecap:round;stroke-linejoin:round;stroke-opacity:1"
         d="m 376.53291,782.57199 40,0 L 380,762.36216 l -30,-60 L 296.53291,657.57199 275,577.36216 l -25,0 -3.46709,90.20983 c 0,20 15,20 55,40 17.88854,8.94427 40,75 40,75 l 45,10 -30,-30 L 330,702.36216 287.96148,677.57199"
         inkscape:connector-curvature="0"
         sodipodi:nodetypes="ccccccccsccccc" />
      <path
         style="display:inline;opacity:1;fill:#005480;fill-opacity:1;stroke:#ffffff;stroke-width:8;stroke-linecap:round;stroke-linejoin:round;stroke-miterlimit:4;stroke-dasharray:none;stroke-dashoffset:0;stroke-opacity:1"
         d="M 262.80196,562.43005 C 275,577.36216 275,582.36216 290,597.36216 l 21.53291,55.20983 26.53291,10.20983 c 2,-2 3.41993,-3.82854 10,-3.82854 6.58007,0 11.91426,5.3342 11.91426,11.91427 0,6.58007 -5.33528,12.03397 -11.91426,11.91427 -11.53291,-0.20983 -41.53291,-15.20983 -51.53291,-20.20983 l -20,-40"
         id="path8843"
         inkscape:connector-curvature="0"
         sodipodi:nodetypes="ccccssscc" />
      <path
         style="display:inline;opacity:1;fill:#005480;fill-opacity:1;stroke:#ffffff;stroke-width:8;stroke-linecap:round;stroke-linejoin:round;stroke-miterlimit:4;stroke-dasharray:none;stroke-dashoffset:0;stroke-opacity:1"
         d="M 262.80196,562.43005 C 250,577.36216 250,582.36216 235,597.36216 c -7.14286,34.28571 -8.46709,49.02949 -8.46709,60.20983 0,30 9.75435,55.9859 20.82578,56.34304 6.57665,0.21215 11.91426,-5.3342 11.91426,-11.91427 0,-6.58007 -1.27147,-11.84323 -4.56151,-11.84323 -6.58007,0 -8.17853,-37.58553 -8.17853,-37.58553 l 5,-25.00001"
         id="path8847"
         inkscape:connector-curvature="0"
         sodipodi:nodetypes="ccsssccc" />
      <ellipse
         style="display:inline;opacity:1;fill:#005480;fill-opacity:1;stroke:#ffffff;stroke-width:8;stroke-linecap:round;stroke-linejoin:round;stroke-miterlimit:4;stroke-dasharray:none;stroke-dashoffset:0;stroke-opacity:1"
         id="ellipse8849"
         cx="264.23029"
         cy="525.76453"
         rx="46.057144"
         ry="52.914288" />
    </g>
    <path
       sodipodi:nodetypes="cscccccc"
       inkscape:connector-curvature="0"
       id="path8806"
       d="m 258.46269,591.72626 c 0,20 24.50154,26.91002 64.50154,46.91002 C 340.85277,647.58055 360,702.36216 360,702.36216 l 40,-5 -30,-15 -27.03577,-53.72588 -70,-60 z"
       style="fill:#005480;fill-opacity:1;fill-rule:evenodd;stroke:#ffffff;stroke-width:8;stroke-linecap:butt;stroke-linejoin:round;stroke-opacity:1" />
    <path
       style="fill:#005480;fill-opacity:1;fill-rule:evenodd;stroke:#ffffff;stroke-width:8;stroke-linecap:butt;stroke-linejoin:round;stroke-opacity:1"
       d="m 238.46269,591.72626 c 0,20 24.50154,26.91002 64.50154,46.91002 17.88854,8.94427 40,70 40,70 l 40,0 -30,-20 -30,-60 -50,-40"
       id="path8304"
       inkscape:connector-curvature="0"
       sodipodi:nodetypes="csccccc" />
    <path
       id="path8812"
       style="fill:#005480;fill-opacity:1;fill-rule:evenodd;stroke:#ffffff;stroke-width:8;stroke-linecap:butt;stroke-linejoin:miter;stroke-opacity:1"
       d="m 282.96423,598.63628 -15,-95 -25,0 -5,95"
       inkscape:connector-curvature="0"
       sodipodi:nodetypes="cccc" />
    <path
       style="display:inline;opacity:1;fill:#005480;fill-opacity:1;stroke:#ffffff;stroke-width:8;stroke-linecap:round;stroke-linejoin:round;stroke-miterlimit:4;stroke-dasharray:none;stroke-dashoffset:0;stroke-opacity:1"
       d="m 255.76619,488.70417 c 12.19804,14.93211 14.69804,16.71782 29.69804,31.71782 l 15.93011,47.01007 20.49846,19.06137 c 2,-2 3.41993,-3.82854 10,-3.82854 6.58007,0 11.91426,5.3342 11.91426,11.91427 0,6.58007 -5.33419,11.91427 -11.91426,11.91427 -30,0 -41.42857,-24.28572 -51.42857,-29.28572 l -8.57143,-21.07143"
       id="circle8310"
       inkscape:connector-curvature="0"
       sodipodi:nodetypes="ccccssscc" />
    <path
       style="display:inline;opacity:1;fill:#005480;fill-opacity:1;stroke:#ffffff;stroke-width:8;stroke-linecap:round;stroke-linejoin:round;stroke-miterlimit:4;stroke-dasharray:none;stroke-dashoffset:0;stroke-opacity:1"
       d="m 255.76619,488.70417 c -12.80196,14.93211 -17.44482,27.07497 -32.44482,42.07497 0,55 14.64286,77.85714 24.85869,85.48145 10,5 20,0 50,0 6.58007,0 11.91426,-5.3342 11.91426,-11.91427 0,-6.58007 -5.33419,-11.91427 -11.91426,-11.91427 -6.58007,0 -8,1.82854 -10,3.82854 l -25,5 -14.14441,-46.19574"
       id="path8817"
       inkscape:connector-curvature="0"
       sodipodi:nodetypes="ccssscccc" />
    <ellipse
       style="display:inline;opacity:1;fill:#005480;fill-opacity:1;stroke:#ffffff;stroke-width:8;stroke-linecap:round;stroke-linejoin:round;stroke-miterlimit:4;stroke-dasharray:none;stroke-dashoffset:0;stroke-opacity:1"
       id="ellipse8278"
       cx="257.19452"
       cy="452.03864"
       rx="46.057144"
       ry="52.914288" />
    <path
       style="fill:url(#radialGradient8400);fill-opacity:1;fill-rule:evenodd;stroke:none;stroke-width:1px;stroke-linecap:butt;stroke-linejoin:miter;stroke-opacity:1"
       d="m 500.96532,722.63628 c 33.2223,-76.66667 39.49331,-153.33333 110,-230 91.32268,71.98187 77.81056,152.94957 110.00001,230 -67.61905,0 -136.72444,7.07107 -220.00001,0 z"
       id="path8392"
       inkscape:connector-curvature="0"
       sodipodi:nodetypes="cccc" />
    <path
       sodipodi:nodetypes="cccc"
       inkscape:connector-curvature="0"
       id="path10080"
       d="m 492.60496,693.88451 c 33.2223,76.66667 18.06474,21.19047 88.57143,97.85714 91.32268,-71.98187 99.23913,-20.80671 131.42858,-97.85714 -67.61905,0 -136.72444,-7.07107 -220.00001,0 z"
       style="fill:url(#radialGradient10082);fill-opacity:1;fill-rule:evenodd;stroke:none;stroke-width:1px;stroke-linecap:butt;stroke-linejoin:miter;stroke-opacity:1" />
    <path
       sodipodi:nodetypes="ccc"
       inkscape:connector-curvature="0"
       id="path8361"
       d="m 565.85819,704.06485 c 1.17712,-89.80198 35.18612,-62.71542 41.96428,-160 44.98111,73.57456 -0.65131,89.13915 69.46429,160"
       style="fill:#ffc02a;fill-opacity:1;fill-rule:evenodd;stroke:none;stroke-width:1px;stroke-linecap:butt;stroke-linejoin:miter;stroke-opacity:1" />
    <path
       style="fill:#ff6600;fill-rule:evenodd;stroke:none;stroke-width:1px;stroke-linecap:butt;stroke-linejoin:miter;stroke-opacity:1"
       d="m 525.25104,722.63628 c 1.17712,-89.80198 36.07898,-54.14399 42.85714,-151.42857 44.98111,73.57456 -2.55432,87.63879 67.56128,158.49964 -48.15064,0.59599 -47.31852,0.74728 -110.41842,-7.07107 z"
       id="path8363"
       inkscape:connector-curvature="0"
       sodipodi:nodetypes="cccc" />
    <path
       style="fill:#ff0000;fill-rule:evenodd;stroke:none;stroke-width:1px;stroke-linecap:butt;stroke-linejoin:miter;stroke-opacity:1"
       d="m 696.67961,722.63628 c -1.17712,-89.80198 -36.07898,-54.14399 -42.85714,-151.42857 -44.98111,73.57456 0.53402,87.63879 -69.58158,158.49964 33.37701,1.33529 65.99397,3.35461 112.43872,-7.07107 z"
       id="path8365"
       inkscape:connector-curvature="0"
       sodipodi:nodetypes="cccc" />
    <g
       id="g9912"
       transform="translate(316.75898,766.90816)">
      <g
         style="display:none"
         id="Background__x28_for_preview_purposes_x29_">
        <rect
           id="rect9800"
           height="205.882"
           width="628.67603"
           style="display:inline;fill:#231f20"
           y="-23.559"
           x="-20.205999" />
      </g>
      <g
         id="Text">
        <g
           id="g9803">
          <path
             id="path9805"
             d="m 170.345,78.778 0,16.65 -11.264,0 0,-54.079 11.264,0 0,3.428 c 1.936,-1.936 3.754,-3.148 5.457,-3.638 1.702,-0.49 3.778,-0.735 6.226,-0.735 4.314,0 7.882,1.924 10.704,5.771 2.822,3.848 4.221,8.78 4.198,14.796 -0.023,6.04 -1.458,10.646 -4.302,13.817 -2.729,3.055 -6.25,5.025 -10.564,5.912 -0.7,0.14 -3.032,0.082 -6.996,-0.175 -1.633,-0.115 -3.208,-0.698 -4.723,-1.747 z M 177.831,49.5 c -2.402,0 -4.256,0.991 -5.562,2.974 -1.282,1.958 -1.924,4.792 -1.924,8.5 l 0,9.725 c 0.443,1.166 2.938,1.749 7.486,1.749 2.425,0 4.272,-0.979 5.545,-2.938 1.269,-1.959 1.905,-4.804 1.905,-8.536 0,-3.731 -0.641,-6.576 -1.924,-8.535 -1.282,-1.96 -3.125,-2.939 -5.526,-2.939 z"
             style="fill:#0073ae"
             inkscape:connector-curvature="0" />
          <path
             id="path9807"
             d="m 205.362,26.098 11.264,0 0,10.214 -11.264,0 0,-10.214 z m 0,15.251 11.264,0 0,39.178 -11.264,0 0,-39.178 z"
             style="fill:#0073ae"
             inkscape:connector-curvature="0" />
          <path
             id="path9809"
             d="m 241.186,55.761 c -1.562,2.519 -2.344,4.757 -2.344,6.716 l 0,18.05 -11.263,0 0,-39.178 11.263,0 0,6.437 c 1.446,-2.565 3.113,-4.431 5.002,-5.597 1.866,-1.189 4.116,-1.784 6.751,-1.784 0.374,0 0.781,0.012 1.225,0.035 0.163,0 0.804,0.082 1.924,0.245 l 0,8.535 c -5.411,-0.42 -9.597,1.76 -12.558,6.541 z"
             style="fill:#0073ae"
             inkscape:connector-curvature="0" />
          <path
             id="path9811"
             d="m 292.541,78.253 c -4.454,2.286 -9.958,3.428 -16.51,3.428 -8.045,0 -13.292,-1.224 -15.741,-3.672 -2.285,-2.286 -3.428,-5.364 -3.428,-9.235 0,-4.594 1.422,-7.964 4.267,-10.109 2.845,-2.146 7.309,-3.218 13.395,-3.218 l 6.646,0 0,-0.979 c 0,-1.982 -0.704,-3.435 -2.115,-4.354 -1.411,-0.923 -3.598,-1.383 -6.56,-1.383 -2.425,0 -4.673,0.268 -6.749,0.805 -2.076,0.536 -4.011,1.341 -5.807,2.414 l 0,-9.55 c 2.425,-0.653 4.851,-1.143 7.276,-1.469 2.588,-0.35 5.023,-0.524 7.308,-0.524 6.39,0 10.984,1.388 13.782,4.163 2.822,2.798 4.235,7.334 4.235,13.607 l 0,20.076 z m -17.21,-15.356 c -2.332,0 -4.104,0.443 -5.317,1.329 -1.236,0.909 -1.833,2.215 -1.786,3.918 0.047,1.539 0.527,2.775 1.437,3.708 0.723,0.746 2.052,1.201 3.988,1.364 3.545,0.303 6.026,0.082 7.448,-0.665 0.047,-0.023 0.07,-2.764 0.07,-8.22 l 0,-1.434 -5.84,0 z"
             style="fill:#0073ae"
             inkscape:connector-curvature="0" />
          <path
             id="path9813"
             d="m 298.56,50.304 0,-1.609 15.146,-18.469 1.749,0 0,11.124 11.613,0 0,8.955 -11.613,0 0,16.615 c 0,1.819 0.315,3.043 0.945,3.673 0.652,0.653 1.947,0.979 3.882,0.979 l 5.807,0 0,8.955 -9.654,0 c -4.454,0 -7.614,-1.026 -9.479,-3.079 -1.866,-2.052 -2.798,-5.562 -2.798,-10.529 l 0,-16.615 -5.598,0 z"
             style="fill:#0073ae"
             inkscape:connector-curvature="0" />
          <path
             id="path9815"
             d="m 369.292,60.833 0,3.568 -26.34,0 c 0.256,2.938 1.208,5.142 2.85,6.611 1.646,1.469 3.937,2.204 6.875,2.204 2.378,0 4.808,-0.389 7.294,-1.173 2.481,-0.779 5.03,-1.964 7.642,-3.549 l 0,9.654 c -2.659,1.12 -5.324,1.966 -7.992,2.537 -2.672,0.569 -5.335,0.856 -7.994,0.856 -6.389,0 -11.352,-1.803 -14.882,-5.403 -3.536,-3.605 -5.301,-8.658 -5.301,-15.165 0,-6.39 1.737,-11.415 5.212,-15.076 3.475,-3.661 8.255,-5.492 14.342,-5.492 5.55,0 9.986,1.854 13.311,5.562 3.32,3.707 4.983,8.663 4.983,14.866 z M 357.713,56.67 c 0,-2.379 -0.625,-4.295 -1.87,-5.755 -1.25,-1.455 -2.887,-2.185 -4.916,-2.185 -2.168,0 -3.936,0.683 -5.298,2.045 -1.367,1.366 -2.223,3.33 -2.572,5.895 l 14.656,0 z"
             style="fill:#0073ae"
             inkscape:connector-curvature="0" />
        </g>
        <g
           id="g9817">
          <path
             id="path9819"
             d="m 385.023,78.498 0,16.93 -6.471,0 0,-54.079 6.471,0 0,5.492 c 1.749,-2.588 3.556,-4.309 5.422,-5.16 1.866,-0.851 4.232,-1.277 7.102,-1.277 4.757,0 8.621,1.889 11.597,5.667 2.971,3.778 4.459,8.745 4.459,14.901 0,6.157 -1.488,10.972 -4.459,14.447 -2.976,3.475 -6.84,5.212 -11.597,5.212 -2.869,0 -4.921,-0.1 -6.157,-0.296 -1.237,-0.198 -3.359,-0.811 -6.367,-1.837 z M 406.92,60.973 c 0,-4.734 -0.975,-8.448 -2.922,-11.14 -1.947,-2.696 -4.622,-4.041 -8.026,-4.041 -2.915,0 -5.375,0.781 -7.381,2.343 -1.959,1.539 -3.148,4.291 -3.568,8.255 l 0,15.811 c 3.335,2.029 6.984,3.043 10.949,3.043 3.404,0 6.079,-1.206 8.026,-3.622 1.948,-2.41 2.922,-5.962 2.922,-10.649 z"
             style="fill:#ffffff"
             inkscape:connector-curvature="0" />
          <path
             id="path9821"
             d="m 437.565,81.191 c -5.224,0.094 -9.293,-1.084 -12.208,-3.533 -2.262,-1.912 -3.393,-4.757 -3.393,-8.535 0,-4.408 1.474,-7.731 4.424,-9.97 2.95,-2.239 7.353,-3.358 13.206,-3.358 l 9.024,0 0,-0.629 c 0,-2.962 -0.975,-5.254 -2.922,-6.873 -1.947,-1.623 -4.681,-2.432 -8.201,-2.432 -2.239,0 -4.42,0.268 -6.542,0.804 -2.122,0.536 -4.162,1.341 -6.121,2.414 l 0,-5.946 c 2.355,-0.91 4.641,-1.592 6.856,-2.046 2.215,-0.455 4.372,-0.682 6.471,-0.682 5.667,0 9.899,1.469 12.698,4.408 2.798,2.938 4.197,7.345 4.197,13.222 l 0,0.14 -0.035,19.659 c -4.477,2.145 -10.295,3.264 -17.454,3.357 z m 4.652,-20.358 c -5.2,0 -8.803,0.595 -10.809,1.784 -2.006,1.189 -3.009,3.218 -3.009,6.087 0,2.262 0.781,4.116 2.345,5.562 1.562,1.445 3.579,2.168 6.051,2.168 0.07,0 0.141,0 0.21,0 5.527,0 9.398,-0.618 11.613,-1.854 0,-6.623 0,-10.727 0,-12.313 l 0,-1.434 -6.401,0 z"
             style="fill:#ffffff"
             inkscape:connector-curvature="0" />
          <path
             id="path9823"
             d="m 487.871,46.771 c -0.723,-0.419 -1.504,-0.66 -2.344,-0.716 -0.84,-0.061 -1.771,-0.03 -2.798,0.086 -3.521,0.443 -6.285,2.168 -8.29,5.177 -2.006,3.008 -3.009,6.728 -3.009,11.159 l 0,18.05 -6.472,0 0,-39.178 6.472,0 0,5.771 c 1.353,-2.378 3.113,-4.092 5.282,-5.142 2.169,-1.05 4.804,-1.574 7.905,-1.574 0.443,0 0.933,0.029 1.47,0.087 0.536,0.058 1.131,0.146 1.783,0.262 l 0,6.018 z"
             style="fill:#ffffff"
             inkscape:connector-curvature="0" />
          <path
             id="path9825"
             d="m 493.225,46.352 0,-5.072 4.723,0 0,-4.932 6.471,-6.122 0,11.124 13.258,0 0,5.002 -13.258,0 0,21.268 c 0,3.195 0.437,5.247 1.312,6.157 0.873,0.909 2.652,1.364 5.334,1.364 l 6.611,0 0,5.387 -6.611,0 c -4.968,0 -8.396,-0.928 -10.284,-2.78 -1.889,-1.856 -2.833,-5.231 -2.833,-10.128 l 0,-21.268 -4.723,0 z"
             style="fill:#ffffff"
             inkscape:connector-curvature="0" />
          <path
             id="path9827"
             d="m 530.518,97.702 6.996,-17.805 -15.846,-38.548 6.821,0 12.243,30.643 12.242,-30.643 6.821,0 -22.457,56.353 -6.82,0 z"
             style="fill:#ffffff"
             inkscape:connector-curvature="0" />
        </g>
        <path
           id="path9829"
           d="m 166.69,133.23 c -2.959,0.051 -5.266,-0.616 -6.919,-2.003 -1.28,-1.085 -1.921,-2.696 -1.921,-4.837 0,-2.498 0.835,-4.382 2.509,-5.65 1.67,-1.27 4.165,-1.903 7.481,-1.903 l 5.114,0 0,-0.354 c 0,-1.679 -0.552,-2.978 -1.653,-3.896 -1.105,-0.919 -2.654,-1.378 -4.65,-1.378 -1.269,0 -2.504,0.153 -3.708,0.457 -1.201,0.303 -2.357,0.76 -3.467,1.366 l 0,-3.367 c 1.336,-0.518 2.628,-0.902 3.885,-1.161 1.257,-0.257 2.479,-0.388 3.668,-0.388 3.208,0 5.608,0.835 7.194,2.5 1.586,1.665 2.379,4.16 2.379,7.49 l 0,0.079 -0.021,11.143 c -2.538,1.214 -5.835,1.848 -9.891,1.902 z m 2.638,-11.539 c -2.947,0 -4.99,0.338 -6.126,1.012 -1.135,0.674 -1.705,1.824 -1.705,3.449 0,1.282 0.443,2.332 1.329,3.15 0.884,0.821 2.029,1.231 3.428,1.231 0.04,0 0.08,0 0.119,0 3.132,0 5.324,-0.352 6.581,-1.052 0,-3.752 0,-6.079 0,-6.978 l 0,-0.813 -3.626,0 z"
           style="fill:#ffffff"
           inkscape:connector-curvature="0" />
        <path
           id="path9831"
           d="m 205.376,132.712 c -1.39,0.41 -3.148,0.664 -5.284,0.765 -2.134,0.098 -3.974,0.149 -5.52,0.149 -2.549,0 -4.487,-0.793 -5.809,-2.379 -1.32,-1.586 -1.982,-3.972 -1.982,-7.157 l 0,-13.438 3.647,0 0,12.408 c 0,2.987 0.233,4.811 0.695,5.471 0.793,1.109 2.202,1.69 4.221,1.744 0.583,0.015 1.506,0.04 2.775,0.079 2.115,-0.025 3.318,-0.252 3.61,-0.674 0,-4.281 0,-6.43 0,-6.44 l 0,-12.588 3.647,0 0,22.06 z"
           style="fill:#ffffff"
           inkscape:connector-curvature="0" />
        <path
           id="path9833"
           d="m 230.085,111.304 0,3.451 c -1.03,-0.529 -2.104,-0.926 -3.213,-1.189 -1.11,-0.266 -2.257,-0.396 -3.446,-0.396 -1.812,0 -3.169,0.274 -4.074,0.83 -0.907,0.555 -1.359,1.39 -1.359,2.499 0,0.845 0.326,1.51 0.972,1.992 0.646,0.482 1.95,0.941 3.906,1.376 l 1.248,0.279 c 2.591,0.556 4.431,1.337 5.52,2.349 1.092,1.01 1.637,2.421 1.637,4.232 0,2.062 -0.816,3.691 -2.449,4.895 -1.632,1.204 -3.875,1.804 -6.73,1.804 -1.189,0 -2.428,-0.115 -3.717,-0.346 -1.287,-0.23 -2.645,-0.578 -4.071,-1.04 l 0,-3.769 c 1.348,0.702 2.674,1.227 3.983,1.576 1.308,0.35 2.603,0.527 3.885,0.527 1.716,0 3.041,-0.297 3.965,-0.884 0.923,-0.588 1.387,-1.416 1.387,-2.488 0,-0.989 -0.333,-1.749 -1,-2.278 -0.667,-0.529 -2.131,-1.038 -4.391,-1.527 l -1.269,-0.296 c -2.26,-0.477 -3.892,-1.206 -4.895,-2.19 -1.005,-0.983 -1.506,-2.336 -1.506,-4.053 0,-2.09 0.739,-3.701 2.22,-4.837 1.479,-1.138 3.58,-1.707 6.301,-1.707 1.348,0 2.616,0.101 3.806,0.299 1.187,0.199 2.286,0.495 3.29,0.891 z"
           style="fill:#ffffff"
           inkscape:connector-curvature="0" />
        <path
           id="path9835"
           d="m 237.392,113.487 0,-2.875 2.675,0 0,-2.796 3.668,-3.468 0,6.304 7.511,0 0,2.835 -7.511,0 0,12.052 c 0,1.81 0.25,2.971 0.744,3.488 0.494,0.514 1.501,0.772 3.022,0.772 l 3.745,0 0,3.053 -3.745,0 c -2.814,0 -4.757,-0.525 -5.828,-1.576 -1.07,-1.05 -1.607,-2.962 -1.607,-5.737 l 0,-12.052 -2.674,0 z"
           style="fill:#ffffff"
           inkscape:connector-curvature="0" />
        <path
           id="path9837"
           d="m 272.477,113.725 c -0.408,-0.238 -0.851,-0.376 -1.327,-0.408 -0.476,-0.032 -1.005,-0.017 -1.586,0.049 -1.994,0.252 -3.561,1.231 -4.699,2.934 -1.135,1.707 -1.702,3.813 -1.702,6.324 l 0,10.229 -3.668,0 0,-22.2 3.668,0 0,3.269 c 0.765,-1.348 1.763,-2.317 2.992,-2.912 1.229,-0.595 2.722,-0.894 4.48,-0.894 0.252,0 0.527,0.019 0.833,0.052 0.306,0.032 0.642,0.081 1.01,0.149 l 0,3.408 z"
           style="fill:#ffffff"
           inkscape:connector-curvature="0" />
        <path
           id="path9839"
           d="m 286.275,133.23 c -2.959,0.051 -5.263,-0.616 -6.917,-2.003 -1.28,-1.085 -1.924,-2.696 -1.924,-4.837 0,-2.498 0.837,-4.382 2.509,-5.65 1.67,-1.27 4.166,-1.903 7.484,-1.903 l 5.111,0 0,-0.354 c 0,-1.679 -0.55,-2.978 -1.653,-3.896 -1.103,-0.918 -2.654,-1.378 -4.647,-1.378 -1.271,0 -2.507,0.153 -3.708,0.457 -1.201,0.303 -2.358,0.76 -3.468,1.366 l 0,-3.367 c 1.334,-0.518 2.628,-0.902 3.885,-1.161 1.254,-0.257 2.477,-0.388 3.666,-0.388 3.211,0 5.609,0.835 7.194,2.5 1.586,1.665 2.379,4.16 2.379,7.49 l 0,0.079 -0.019,11.143 c -2.537,1.214 -5.834,1.848 -9.892,1.902 z m 2.638,-11.539 c -2.945,0 -4.988,0.338 -6.124,1.012 -1.138,0.674 -1.707,1.824 -1.707,3.449 0,1.282 0.443,2.332 1.33,3.15 0.886,0.821 2.028,1.231 3.428,1.231 0.042,0 0.079,0 0.119,0 3.134,0 5.326,-0.352 6.581,-1.052 0,-3.752 0,-6.079 0,-6.978 l 0,-0.813 -3.627,0 z"
           style="fill:#ffffff"
           inkscape:connector-curvature="0" />
        <path
           id="path9841"
           d="m 306.743,102.009 3.647,0 0,30.843 -3.647,0 0,-30.843 z"
           style="fill:#ffffff"
           inkscape:connector-curvature="0" />
        <path
           id="path9843"
           d="m 321.066,102.009 3.647,0 0,4.617 -3.647,0 0,-4.617 z m 0,8.643 3.647,0 0,22.2 -3.647,0 0,-22.2 z"
           style="fill:#ffffff"
           inkscape:connector-curvature="0" />
        <path
           id="path9845"
           d="m 342.842,133.23 c -2.959,0.051 -5.266,-0.616 -6.917,-2.003 -1.282,-1.085 -1.921,-2.696 -1.921,-4.837 0,-2.498 0.835,-4.382 2.507,-5.65 1.672,-1.27 4.165,-1.903 7.483,-1.903 l 5.112,0 0,-0.354 c 0,-1.679 -0.55,-2.978 -1.653,-3.896 -1.103,-0.918 -2.654,-1.378 -4.648,-1.378 -1.269,0 -2.504,0.153 -3.708,0.457 -1.203,0.303 -2.36,0.76 -3.47,1.366 l 0,-3.367 c 1.336,-0.518 2.63,-0.902 3.885,-1.161 1.256,-0.257 2.479,-0.388 3.668,-0.388 3.211,0 5.608,0.835 7.194,2.5 1.586,1.665 2.379,4.16 2.379,7.49 l 0,0.079 -0.019,11.143 c -2.537,1.214 -5.834,1.848 -9.892,1.902 z m 2.637,-11.539 c -2.948,0 -4.988,0.338 -6.126,1.012 -1.135,0.674 -1.702,1.824 -1.702,3.449 0,1.282 0.44,2.332 1.327,3.15 0.886,0.821 2.029,1.231 3.43,1.231 0.038,0 0.08,0 0.117,0 3.134,0 5.326,-0.352 6.581,-1.052 0,-3.752 0,-6.079 0,-6.978 l 0,-0.813 -3.627,0 z"
           style="fill:#ffffff"
           inkscape:connector-curvature="0" />
      </g>
      <g
         id="Signet">
        <polygon
           id="polygon9848"
           points="97.45,84.546 97.035,86.982 95.673,84.919 93.51,86.115 94.275,83.763 91.993,82.817 94.307,81.949 93.623,79.575 95.743,80.844 97.175,78.829 97.506,81.277 99.975,81.138 98.266,82.923 99.911,84.769 "
           style="fill:#ffffff" />
        <polygon
           id="polygon9850"
           points="108.676,59.73 108.261,62.165 106.9,60.103 104.738,61.297 105.501,58.949 103.218,58.002 105.532,57.135 104.85,54.758 106.971,56.027 108.401,54.012 108.732,56.46 111.201,56.325 109.492,58.109 111.137,59.954 "
           style="fill:#ffffff" />
        <polygon
           id="polygon9852"
           points="96.269,49.096 95.853,51.531 94.493,49.469 92.328,50.663 93.093,48.312 90.81,47.366 93.125,46.498 92.441,44.124 94.562,45.393 95.993,43.377 96.324,45.827 98.791,45.687 97.083,47.473 98.729,49.315 "
           style="fill:#ffffff" />
        <polygon
           id="polygon9854"
           points="83.271,63.867 82.854,66.301 81.495,64.24 79.331,65.434 80.094,63.083 77.811,62.139 80.126,61.269 79.442,58.895 81.563,60.164 82.994,58.149 83.325,60.597 85.794,60.458 84.084,62.244 85.731,64.091 "
           style="fill:#ffffff" />
        <polygon
           id="polygon9856"
           points="100.103,66.364 100.905,64.891 101.586,66.425 103.235,66.731 101.988,67.854 102.204,69.52 100.752,68.675 99.238,69.398 99.587,67.757 98.434,66.54 "
           style="fill:#ffffff" />
        <g
           id="g9858">
          <path
             id="path9860"
             d="M 137.716,89.588 C 131.41,124.789 97.758,148.221 62.551,141.913 27.344,135.607 3.914,101.956 10.221,66.755 16.525,31.549 50.177,8.125 85.386,14.432 c 35.205,6.305 58.634,39.955 52.33,75.156 l 0,0 z"
             style="fill:#ffffff;stroke:#ffffff;stroke-width:5;stroke-miterlimit:10"
             inkscape:connector-curvature="0" />
          <g
             id="g9862">
            <path
               id="path9864"
               d="m 83.782,23.389 c -30.26,-5.419 -59.186,14.72 -64.604,44.976 -5.42,30.26 14.716,59.188 44.976,64.61 30.259,5.415 59.183,-14.727 64.602,-44.984 5.42,-30.256 -14.715,-59.182 -44.974,-64.602 l 0,0 z m 53.931,66.206 C 131.407,124.801 97.756,148.233 62.548,141.929 27.34,135.622 3.912,101.968 10.22,66.76 16.524,31.554 50.178,8.125 85.386,14.432 c 35.205,6.305 58.634,39.959 52.327,75.163 l 0,0 z"
               inkscape:connector-curvature="0" />
            <path
               id="path9866"
               d="m 74.038,145.454 c -3.973,0 -7.986,-0.357 -11.929,-1.063 C 44.423,141.222 29.029,131.357 18.765,116.612 8.499,101.866 4.591,84.004 7.759,66.319 13.508,34.211 41.32,10.907 73.89,10.907 c 3.976,0 7.992,0.358 11.937,1.065 17.684,3.167 33.076,13.032 43.341,27.776 10.265,14.745 14.173,32.604 11.006,50.288 -5.751,32.111 -33.566,55.418 -66.136,55.418 z M 73.89,15.907 c -30.145,0 -55.887,21.572 -61.209,51.294 -2.933,16.371 0.685,32.904 10.187,46.554 9.502,13.648 23.751,22.781 40.122,25.714 3.652,0.654 7.37,0.985 11.048,0.985 30.146,0 55.891,-21.574 61.215,-51.299 2.932,-16.37 -0.686,-32.901 -10.188,-46.55 -9.502,-13.649 -23.75,-22.78 -40.12,-25.711 -3.654,-0.655 -7.374,-0.987 -11.055,-0.987 z m 0.133,120.448 c -0.002,0 0.001,0 0,0 -3.435,0 -6.904,-0.31 -10.311,-0.919 C 32.143,129.78 11.061,99.494 16.715,67.924 21.687,40.159 45.738,20.007 73.903,20.007 c 3.437,0 6.908,0.31 10.318,0.92 15.292,2.739 28.601,11.27 37.478,24.021 8.876,12.75 12.255,28.193 9.516,43.483 -4.972,27.768 -29.027,47.924 -57.192,47.924 z M 73.905,25.007 c -25.74,0 -47.722,18.42 -52.267,43.798 -5.169,28.856 14.101,56.539 42.956,61.708 3.117,0.558 6.289,0.841 9.428,0.841 25.742,0 47.726,-18.422 52.272,-43.805 2.504,-13.976 -0.585,-28.091 -8.698,-39.746 C 109.483,36.15 97.318,28.353 83.341,25.85 80.221,25.291 77.046,25.007 73.905,25.007 Z"
               style="fill:#ffffff"
               inkscape:connector-curvature="0" />
          </g>
          <g
             id="g9868">
            <polygon
               id="polygon9870"
               points="55.864,91.806 53.914,33.449 49.674,32.691 49.674,32.691 50.004,98.056 57.128,94.95 "
               style="stroke:#ffffff;stroke-width:5;stroke-miterlimit:10" />
            <path
               id="path9872"
               d="m 43.733,45.493 c 0,0 60.699,-23.026 69.619,18.67 0,0 5.716,19.558 -22.992,26.528 0,0 -19.617,4.877 -21.554,4.893 -1.947,0.02 -1.947,0.02 -1.947,0.02 0,0 -19.291,3.84 -14.798,27.627 0,0 -14.917,-21.275 12.979,-38.168 0,0 10.796,-9.016 7.42,-22.749 0,-10e-4 -3.342,-16.313 -28.727,-16.821 l 0,0 z"
               style="stroke:#ffffff;stroke-width:5;stroke-miterlimit:10"
               inkscape:connector-curvature="0" />
            <polygon
               id="polygon9874"
               points="49.981,93.335 49.981,93.335 49.928,104.606 57.549,96.667 "
               style="stroke:#ffffff;stroke-width:5;stroke-miterlimit:10" />
            <path
               id="path9876"
               d="m 84.589,92.105 c 0,0 -29.423,4.918 -32.373,17.679 -2.95,12.763 -3.591,-19.303 15.273,-20.748 18.864,-1.433 1.617,-0.877 1.617,-0.877 L 87.09,86.55 84.822,90.792"
               style="stroke:#ffffff;stroke-width:5;stroke-miterlimit:10"
               inkscape:connector-curvature="0" />
          </g>
        </g>
        <g
           id="g9878">
          <path
             id="path9880"
             d="M 137.715,89.176 C 131.409,124.377 97.757,147.809 62.55,141.501 27.343,135.195 3.913,101.544 10.22,66.343 16.524,31.137 50.176,7.713 85.385,14.02 c 35.206,6.305 58.634,39.955 52.33,75.156 l 0,0 z"
             style="fill:#ffffff"
             inkscape:connector-curvature="0" />
          <g
             id="g9882">
            <path
               id="path9884"
               d="m 83.781,22.977 c -30.26,-5.419 -59.186,14.72 -64.604,44.976 -5.42,30.26 14.716,59.188 44.976,64.61 30.259,5.415 59.183,-14.727 64.602,-44.984 5.42,-30.256 -14.715,-59.183 -44.974,-64.602 l 0,0 z m 53.932,66.206 C 131.407,124.389 97.756,147.821 62.548,141.517 27.34,135.209 3.912,101.556 10.22,66.348 16.524,31.142 50.178,7.713 85.386,14.02 c 35.205,6.305 58.633,39.959 52.327,75.163 l 0,0 z"
               inkscape:connector-curvature="0" />
          </g>
          <g
             id="g9886">
            <polygon
               id="polygon9888"
               points="55.864,91.394 53.913,33.037 49.674,32.279 49.674,32.279 50.003,97.644 57.127,94.538 " />
            <path
               id="path9890"
               d="m 43.733,45.081 c 0,0 60.699,-23.026 69.619,18.67 0,0 5.716,19.558 -22.992,26.528 0,0 -19.617,4.877 -21.554,4.893 -1.947,0.02 -1.947,0.02 -1.947,0.02 0,0 -19.291,3.84 -14.798,27.627 0,0 -14.917,-21.275 12.979,-38.168 0,0 10.796,-9.016 7.42,-22.749 C 72.459,61.901 69.118,45.589 43.733,45.081 l 0,0 z"
               inkscape:connector-curvature="0" />
            <polygon
               id="polygon9892"
               points="49.98,92.923 49.98,92.923 49.928,104.194 57.549,96.255 " />
            <path
               id="path9894"
               d="m 84.588,91.693 c 0,0 -29.423,4.918 -32.373,17.679 -2.95,12.763 -3.591,-19.303 15.273,-20.748 18.864,-1.433 1.617,-0.877 1.617,-0.877 l 17.984,-1.609 -2.268,4.242"
               inkscape:connector-curvature="0" />
          </g>
        </g>
        <polygon
           id="polygon9896"
           points="81.21,63.548 81.698,65.964 79.692,64.534 78.107,66.418 77.977,63.96 75.513,63.894 77.358,62.261 75.87,60.295 78.298,60.713 78.906,58.329 80.092,60.487 82.338,59.476 81.388,61.751 83.579,62.876 "
           style="fill:#ffffff" />
        <polygon
           id="polygon9898"
           points="93.287,48.929 93.774,51.345 91.769,49.915 90.184,51.799 90.054,49.34 87.589,49.275 89.435,47.642 87.947,45.676 90.375,46.094 90.983,43.709 92.169,45.868 94.415,44.856 93.465,47.132 95.656,48.257 "
           style="fill:#ffffff" />
        <polygon
           id="polygon9900"
           points="106.635,59.734 107.123,62.15 105.117,60.72 103.532,62.604 103.402,60.146 100.938,60.08 102.783,58.447 101.295,56.481 103.723,56.9 104.331,54.515 105.517,56.674 107.763,55.662 106.812,57.937 109.004,59.062 "
           style="fill:#ffffff" />
        <polygon
           id="polygon9902"
           points="95.194,83.888 95.681,86.304 93.676,84.874 92.091,86.758 91.961,84.3 89.497,84.234 91.341,82.601 89.854,80.635 92.282,81.053 92.89,78.668 94.076,80.828 96.322,79.816 95.372,82.091 97.562,83.216 "
           style="fill:#ffffff" />
        <polygon
           id="polygon9904"
           points="97.275,66.831 97.748,65.226 98.735,66.577 100.406,66.531 99.426,67.884 99.989,69.461 98.395,68.947 97.069,69.97 97.066,68.297 95.688,67.353 "
           style="fill:#ffffff" />
      </g>
    </g>
    <text
       xml:space="preserve"
       style="color:#000000;font-style:normal;font-variant:normal;font-weight:normal;font-stretch:normal;font-size:24px;line-height:125%;font-family:Helvetica;-inkscape-font-specification:Helvetica;text-indent:0;text-align:start;text-decoration:none;text-decoration-line:none;text-decoration-style:solid;text-decoration-color:#000000;letter-spacing:0px;word-spacing:0px;text-transform:none;direction:ltr;block-progression:tb;writing-mode:lr-tb;baseline-shift:baseline;text-anchor:start;white-space:normal;clip-rule:nonzero;display:inline;overflow:visible;visibility:visible;opacity:1;isolation:auto;mix-blend-mode:normal;color-interpolation:sRGB;color-interpolation-filters:linearRGB;solid-color:#000000;solid-opacity:1;fill:#ffffff;fill-opacity:1;fill-rule:nonzero;stroke:none;stroke-width:1px;stroke-linecap:butt;stroke-linejoin:miter;stroke-miterlimit:4;stroke-dasharray:none;stroke-dashoffset:0;stroke-opacity:1;marker:none;color-rendering:auto;image-rendering:auto;shape-rendering:auto;text-rendering:auto;enable-background:accumulate"
       x="136.48926"
       y="995.54578"
       id="text9754"
       sodipodi:linespacing="125%"><tspan
         sodipodi:role="line"
         id="tspan9756"
         x="136.48926"
         y="995.54578"
         style="font-style:normal;font-variant:normal;font-weight:bold;font-stretch:normal;font-size:70px;font-family:'Open Sans';-inkscape-font-specification:'Open Sans';fill:#ffffff">pirateparty.org.au/culture</tspan></text>
    <text
       xml:space="preserve"
       style="color:#000000;font-style:normal;font-variant:normal;font-weight:normal;font-stretch:normal;font-size:24px;line-height:125%;font-family:Helvetica;-inkscape-font-specification:Helvetica;text-indent:0;text-align:start;text-decoration:none;text-decoration-line:none;text-decoration-style:solid;text-decoration-color:#000000;letter-spacing:0px;word-spacing:0px;text-transform:none;direction:ltr;block-progression:tb;writing-mode:lr-tb;baseline-shift:baseline;text-anchor:start;white-space:normal;clip-rule:nonzero;display:inline;overflow:visible;visibility:visible;opacity:1;isolation:auto;mix-blend-mode:normal;color-interpolation:sRGB;color-interpolation-filters:linearRGB;solid-color:#000000;solid-opacity:1;fill:#000000;fill-opacity:1;fill-rule:nonzero;stroke:none;stroke-width:1px;stroke-linecap:butt;stroke-linejoin:miter;stroke-miterlimit:4;stroke-dasharray:none;stroke-dashoffset:0;stroke-opacity:1;marker:none;color-rendering:auto;image-rendering:auto;shape-rendering:auto;text-rendering:auto;enable-background:accumulate"
       x="688.92407"
       y="177.57005"
       id="text8182"
       sodipodi:linespacing="125%"><tspan
         sodipodi:role="line"
         id="tspan8184"
         x="688.92407"
         y="177.57005" /></text>
    <text
       xml:space="preserve"
       style="color:#000000;font-style:normal;font-variant:normal;font-weight:normal;font-stretch:normal;font-size:24px;line-height:1000%;font-family:Helvetica;-inkscape-font-specification:Helvetica;text-indent:0;text-align:start;text-decoration:none;text-decoration-line:none;text-decoration-style:solid;text-decoration-color:#000000;letter-spacing:0px;word-spacing:0px;text-transform:none;direction:ltr;block-progression:tb;writing-mode:lr-tb;baseline-shift:baseline;text-anchor:start;white-space:normal;clip-rule:nonzero;display:inline;overflow:visible;visibility:visible;opacity:1;isolation:auto;mix-blend-mode:normal;color-interpolation:sRGB;color-interpolation-filters:linearRGB;solid-color:#000000;solid-opacity:1;fill:#285b78;fill-opacity:1;fill-rule:nonzero;stroke:none;stroke-width:1px;stroke-linecap:butt;stroke-linejoin:miter;stroke-miterlimit:4;stroke-dasharray:none;stroke-dashoffset:0;stroke-opacity:1;marker:none;color-rendering:auto;image-rendering:auto;shape-rendering:auto;text-rendering:auto;enable-background:accumulate;"
       x="-814.41296"
       y="1137"
       id="text8181"
       sodipodi:linespacing="1000%"
       transform="matrix(0,-1,1,0,0,0)"><tspan
         sodipodi:role="line"
         id="tspan8186"
         x="-814.41296"
         y="1137"
         style="font-size:14px;-inkscape-font-specification:'Open Sans';font-family:'Open Sans';font-weight:normal;font-style:normal;font-stretch:normal;font-variant:normal;fill:#285b78;fill-opacity:1">PPAU_AUTH_TAG</tspan></text>
  </g>
</svg>
