<?xml version="1.0" encoding="UTF-8" standalone="no"?>
<!-- Created with Inkscape (http://www.inkscape.org/) -->

<svg
   xmlns:dc="http://purl.org/dc/elements/1.1/"
   xmlns:cc="http://creativecommons.org/ns#"
   xmlns:rdf="http://www.w3.org/1999/02/22-rdf-syntax-ns#"
   xmlns:svg="http://www.w3.org/2000/svg"
   xmlns="http://www.w3.org/2000/svg"
   xmlns:xlink="http://www.w3.org/1999/xlink"
   xmlns:sodipodi="http://sodipodi.sourceforge.net/DTD/sodipodi-0.dtd"
   xmlns:inkscape="http://www.inkscape.org/namespaces/inkscape"
   width="210mm"
   height="297mm"
   viewBox="0 0 744.09448819 1052.3622047"
   id="svg8215"
   version="1.1"
   inkscape:version="0.91 r13725"
   sodipodi:docname="arms-crossed.svg">
  <defs
     id="defs8217" />
  <sodipodi:namedview
     id="base"
     pagecolor="#ffffff"
     bordercolor="#666666"
     borderopacity="1.0"
     inkscape:pageopacity="0.0"
     inkscape:pageshadow="2"
     inkscape:zoom="0.35007209"
     inkscape:cx="372.04724"
     inkscape:cy="687.77223"
     inkscape:document-units="px"
     inkscape:current-layer="layer1"
     showgrid="false"
     inkscape:window-width="1356"
     inkscape:window-height="723"
     inkscape:window-x="0"
     inkscape:window-y="1"
     inkscape:window-maximized="1"
     inkscape:object-nodes="true"
     inkscape:snap-smooth-nodes="true"
     inkscape:snap-center="true"
     showguides="false">
    <inkscape:grid
       type="xygrid"
       id="grid8086" />
  </sodipodi:namedview>
  <metadata
     id="metadata8220">
    <rdf:RDF>
      <cc:Work
         rdf:about="">
        <dc:format>image/svg+xml</dc:format>
        <dc:type
           rdf:resource="http://purl.org/dc/dcmitype/StillImage" />
        <dc:title />
      </cc:Work>
    </rdf:RDF>
  </metadata>
  <g
     inkscape:label="Layer 1"
     inkscape:groupmode="layer"
     id="layer1">
    <path
       style="fill:#2db8ff;fill-rule:evenodd;stroke:none;stroke-width:1px;stroke-linecap:butt;stroke-linejoin:miter;stroke-opacity:1;fill-opacity:1"
       d="m 345.36222,149.14337 53.37003,0 71.16005,115.83472 9.20217,182.38411 -0.30716,102.74753 -106.74008,17.82073 -106.74007,-17.82073 8.89501,-285.13164 z"
       id="path8092"
       inkscape:connector-curvature="0" />
    <use
       x="0"
       y="0"
       xlink:href="#path8082"
       id="use8089"
       transform="matrix(-1,0,0,1,744.09448,0)"
       width="100%"
       height="100%" />
    <path
       style="fill:#2db8ff;fill-opacity:1;fill-rule:nonzero;stroke:#000000;stroke-width:8;stroke-linecap:round;stroke-linejoin:round;stroke-miterlimit:4;stroke-dasharray:none;stroke-opacity:1"
       d="m 372.04724,567.93046 c -4.4475,0 -8.89501,4.45518 -8.89501,8.91036 l 0,418.78708 c 0,8.9104 -44.47502,35.6415 -62.26504,44.5519 -8.89501,0 -26.68502,-17.8208 -26.68502,-26.7311 l 35.58003,-26.73116 c 8.89501,-8.91036 8.89501,-17.82073 8.89501,-26.73109 L 300.88719,755.04809 283.09718,648.12372 265.30716,557.17934 270,402.3622 m 4.20217,-137.38411 0,0 L 270,352.3622 c 0,10 20,9.23077 30,5 l 130,-55 c 38.08252,-16.11184 67.17581,-25.07517 40,0 50,-15 84.18895,30.60442 0,40 l -110,35 -90,25 c -30.46912,8.46364 -60,0 -60,-20 0,-68.98455 0.99235,-118.50966 15.49287,-157.24448 28.7949,-76.91897 93.18434,-31.42253 119.86935,-75.97435 l 26.68502,-0.96104"
       id="path8082"
       inkscape:connector-curvature="0"
       sodipodi:nodetypes="csscccccccccccsscccssscc" />
    <path
       style="fill:#2db8ff;fill-opacity:1;fill-rule:evenodd;stroke:#000000;stroke-width:7.99999905;stroke-linecap:butt;stroke-linejoin:miter;stroke-opacity:1"
       d="m 372.04724,148.18233 26.68501,0.96104"
       id="path12801" />
    <g
       transform="matrix(1.0400619,0,0,1.0586052,294.04259,-951.45833)"
       id="layer1-5"
       inkscape:label="Layer 1">
      <ellipse
         ry="67.14286"
         rx="58.57143"
         cy="977.36218"
         cx="75.000008"
         id="path8826-3"
         style="display:inline;opacity:1;fill:#2db8ff;fill-opacity:1;stroke:#000000;stroke-width:7.62418365;stroke-linecap:round;stroke-linejoin:round;stroke-miterlimit:4;stroke-dasharray:none;stroke-dashoffset:0;stroke-opacity:1" />
      <path
         sodipodi:nodetypes="zzz"
         inkscape:connector-curvature="0"
         id="path8842-1"
         d="m 100,982.36216 c -4.193219,-0.042 -30,-30 0,-30 30,0 4.19322,30.04197 0,30 z"
         style="display:inline;opacity:1;fill:#000000;fill-opacity:1;stroke:#000000;stroke-width:7.62418365;stroke-linecap:round;stroke-linejoin:round;stroke-miterlimit:4;stroke-dasharray:none;stroke-dashoffset:0;stroke-opacity:1" />
      <path
         id="path8073"
         d="m 133.57143,977.36216 c 0,37.08194 -26.22332,67.14284 -58.57143,67.14284 -32.34811,0 -58.57143,-30.0609 -58.57143,-67.14284 0,-37.08198 26.22332,-67.14286 58.57143,-67.14286 32.34811,0 58.57143,30.06088 58.57143,67.14286 z"
         style="display:inline;opacity:1;fill:none;fill-opacity:1;stroke:#000000;stroke-width:7.62418365;stroke-linecap:round;stroke-linejoin:miter;stroke-miterlimit:4;stroke-dasharray:none;stroke-dashoffset:0;stroke-opacity:1"
         inkscape:connector-curvature="0" />
      <path
         sodipodi:nodetypes="cc"
         inkscape:connector-curvature="0"
         id="path8169-7"
         d="m 25,947.36216 c 19.811869,9.90282 85,20 105,10"
         style="display:inline;opacity:1;fill:none;fill-rule:evenodd;stroke:#000000;stroke-width:7.62418365;stroke-linecap:butt;stroke-linejoin:miter;stroke-opacity:1" />
      <ellipse
         ry="7.5000224"
         rx="10"
         cy="969.86212"
         cx="50"
         id="path8079-3"
         style="opacity:1;fill:#000000;fill-opacity:1;stroke:none;stroke-width:1;stroke-linecap:round;stroke-linejoin:round;stroke-miterlimit:4;stroke-dasharray:none;stroke-dashoffset:0;stroke-opacity:1" />
      <path
         sodipodi:nodetypes="cc"
         inkscape:connector-curvature="0"
         id="path8075"
         d="m 50,1012.3622 c 10,-5 30,-10 50,-5"
         style="fill:none;fill-rule:evenodd;stroke:#000000;stroke-width:7.62418365;stroke-linecap:round;stroke-linejoin:miter;stroke-opacity:1" />
    </g>
    <g
       id="g8111"
       transform="matrix(-1,0,0,1,745,4.7244096e-6)"
       style="stroke:#2db8ff;stroke-opacity:1;stroke-width:10">
      <path
         style="fill:none;fill-rule:evenodd;stroke:#2db8ff;stroke-width:16;stroke-linecap:round;stroke-linejoin:miter;stroke-opacity:1"
         d="m 430,347.3622 -55,-15"
         id="path8113"
         inkscape:connector-curvature="0"
         sodipodi:nodetypes="cc" />
      <path
         style="fill:none;fill-rule:evenodd;stroke:#2db8ff;stroke-width:16;stroke-linecap:round;stroke-linejoin:miter;stroke-opacity:1"
         d="m 365,367.3622 -50,-10"
         id="path8115"
         inkscape:connector-curvature="0"
         sodipodi:nodetypes="cc" />
    </g>
    <g
       id="g8101">
      <path
         sodipodi:nodetypes="cc"
         inkscape:connector-curvature="0"
         id="path8091"
         d="m 445,357.3622 -130,-55"
         style="fill:none;fill-rule:evenodd;stroke:#000000;stroke-width:8;stroke-linecap:round;stroke-linejoin:miter;stroke-opacity:1" />
      <path
         sodipodi:nodetypes="cc"
         inkscape:connector-curvature="0"
         id="path8093"
         d="m 400,382.3622 -110,-35"
         style="fill:none;fill-rule:evenodd;stroke:#000000;stroke-width:8;stroke-linecap:round;stroke-linejoin:miter;stroke-opacity:1" />
    </g>
  </g>
</svg>
