<?xml version="1.0" encoding="UTF-8" standalone="no"?>
<!-- Created with Inkscape (http://www.inkscape.org/) -->

<svg
   xmlns:dc="http://purl.org/dc/elements/1.1/"
   xmlns:cc="http://creativecommons.org/ns#"
   xmlns:rdf="http://www.w3.org/1999/02/22-rdf-syntax-ns#"
   xmlns:svg="http://www.w3.org/2000/svg"
   xmlns="http://www.w3.org/2000/svg"
   xmlns:sodipodi="http://sodipodi.sourceforge.net/DTD/sodipodi-0.dtd"
   xmlns:inkscape="http://www.inkscape.org/namespaces/inkscape"
   width="210mm"
   height="297mm"
   viewBox="0 0 744.09448819 1052.3622047"
   id="svg8215"
   version="1.1"
   inkscape:version="0.91 r13725"
   sodipodi:docname="facepalm.svg">
  <defs
     id="defs8217" />
  <sodipodi:namedview
     id="base"
     pagecolor="#ffffff"
     bordercolor="#666666"
     borderopacity="1.0"
     inkscape:pageopacity="0.0"
     inkscape:pageshadow="2"
     inkscape:zoom="0.49507669"
     inkscape:cx="299.28535"
     inkscape:cy="845.18003"
     inkscape:document-units="px"
     inkscape:current-layer="layer1"
     showgrid="false"
     inkscape:window-width="1356"
     inkscape:window-height="723"
     inkscape:window-x="0"
     inkscape:window-y="1"
     inkscape:window-maximized="1"
     inkscape:snap-center="true"
     inkscape:object-nodes="true">
    <inkscape:grid
       type="xygrid"
       id="grid8080" />
  </sodipodi:namedview>
  <metadata
     id="metadata8220">
    <rdf:RDF>
      <cc:Work
         rdf:about="">
        <dc:format>image/svg+xml</dc:format>
        <dc:type
           rdf:resource="http://purl.org/dc/dcmitype/StillImage" />
        <dc:title />
      </cc:Work>
    </rdf:RDF>
  </metadata>
  <g
     inkscape:label="Layer 1"
     inkscape:groupmode="layer"
     id="layer1">
    <path
       id="path12801"
       style="fill:#2db8ff;fill-opacity:1;fill-rule:evenodd;stroke:#000000;stroke-width:8;stroke-linecap:butt;stroke-linejoin:round;stroke-miterlimit:4;stroke-dasharray:none;stroke-opacity:1"
       d="m 398.73225,149.14337 c 26.68503,44.55182 77.94519,12.18466 106.74009,89.10363 26.68502,71.28291 9.88384,238.77964 9.88384,336.79365 0,17.82073 -45.46387,64.17271 -45.46387,64.17271 l 17.79001,-89.10363 -17.79001,-285.13164 8.895,285.13164 -17.79,98.01399 -17.79001,106.92437 -17.79002,204.93836 c 0,8.91036 0,17.82077 8.89501,26.73113 l 35.58002,26.73112 c 0,8.9103 -17.79001,26.7311 -26.68501,26.7311 -17.79002,-8.9104 -62.26506,-35.6415 -62.26506,-44.55186 l 0,-418.78712 c 0,-4.45518 -4.44749,-8.91036 -8.895,-8.91036 -4.4475,0 -8.89501,4.45518 -8.89501,8.91036 l 0,418.78708 c 0,8.9104 -44.47502,35.6415 -62.26504,44.5519 -8.89501,0 -26.68502,-17.8208 -26.68502,-26.7311 l 35.58003,-26.73116 c 8.89501,-8.91036 8.89501,-17.82073 8.89501,-26.73109 L 300.88719,755.04809 283.09718,648.12372 265.30716,550.10973 280,252.3622 l -15.85484,60.91809 -27.67387,24.93092 c 0,0 -11.47129,-60.84901 16.43364,-119.96008 35.06203,-74.27198 65.77228,-24.55594 92.45729,-69.10776 l 26.68502,-0.96104 26.68501,0.96104"
       inkscape:connector-curvature="0"
       sodipodi:nodetypes="cssccccccccccsscssccccccccccsccc" />
    <g
       transform="matrix(1.0414481,0,0,1.0574466,278.37544,-888.81286)"
       id="layer1-4"
       inkscape:label="Layer 1">
      <ellipse
         ry="67.14286"
         rx="58.57143"
         cy="977.36218"
         cx="75.000008"
         id="path8826-8"
         style="display:inline;opacity:1;fill:#2db8ff;fill-opacity:1;stroke:#000000;stroke-width:7.62328148;stroke-linecap:round;stroke-linejoin:round;stroke-miterlimit:4;stroke-dasharray:none;stroke-dashoffset:0;stroke-opacity:1" />
      <path
         sodipodi:nodetypes="zzz"
         inkscape:connector-curvature="0"
         id="path8842-8"
         d="m 100,982.36216 c -4.193219,-0.042 -30,-30 0,-30 30,0 4.19322,30.04197 0,30 z"
         style="display:inline;opacity:1;fill:#000000;fill-opacity:1;stroke:#000000;stroke-width:7.62328148;stroke-linecap:round;stroke-linejoin:round;stroke-miterlimit:4;stroke-dasharray:none;stroke-dashoffset:0;stroke-opacity:1" />
      <path
         id="path8073"
         d="m 133.57143,977.36216 c 0,37.08194 -26.22332,67.14284 -58.57143,67.14284 -32.34811,0 -58.57143,-30.0609 -58.57143,-67.14284 0,-37.08198 26.22332,-67.14286 58.57143,-67.14286 32.34811,0 58.57143,30.06088 58.57143,67.14286 z"
         style="display:inline;opacity:1;fill:none;fill-opacity:1;stroke:#000000;stroke-width:7.62328148;stroke-linecap:round;stroke-linejoin:miter;stroke-miterlimit:4;stroke-dasharray:none;stroke-dashoffset:0;stroke-opacity:1"
         inkscape:connector-curvature="0" />
      <path
         sodipodi:nodetypes="cc"
         inkscape:connector-curvature="0"
         id="path8169-5"
         d="m 25,947.36216 c 19.811869,9.90282 85,20 105,10"
         style="display:inline;opacity:1;fill:none;fill-rule:evenodd;stroke:#000000;stroke-width:7.62328148;stroke-linecap:butt;stroke-linejoin:miter;stroke-opacity:1" />
      <ellipse
         ry="7.5000224"
         rx="10"
         cy="969.86212"
         cx="50"
         id="path8079-3"
         style="opacity:1;fill:#000000;fill-opacity:1;stroke:none;stroke-width:1;stroke-linecap:round;stroke-linejoin:round;stroke-miterlimit:4;stroke-dasharray:none;stroke-dashoffset:0;stroke-opacity:1" />
      <path
         sodipodi:nodetypes="cc"
         inkscape:connector-curvature="0"
         id="path8075"
         d="m 50,1012.3622 c 10,-5 30,-10 50,-5"
         style="fill:none;fill-rule:evenodd;stroke:#000000;stroke-width:7.62328148;stroke-linecap:round;stroke-linejoin:miter;stroke-opacity:1" />
    </g>
    <path
       style="fill:#2db8ff;fill-opacity:1;fill-rule:evenodd;stroke:#000000;stroke-width:8;stroke-linecap:butt;stroke-linejoin:round;stroke-opacity:1"
       d="M 236.47129,338.21121 C 255,342.3622 265,327.3622 275,317.3622 c 30,-50 25,-80 50,-125 70,-94.999995 5.77657,-102.986154 -9.96908,-42.56127 -2.19748,-45.49568 -13.91853,-44.79392 -17.76067,16.01737 C 281.39076,209.08373 255,257.3622 236.47129,338.21121 Z"
       id="path8151"
       inkscape:connector-curvature="0"
       sodipodi:nodetypes="cccccc" />
  </g>
</svg>
