<?xml version="1.0" encoding="UTF-8" standalone="no"?>
<!-- Generator: Adobe Illustrator 16.0.0, SVG Export Plug-In . SVG Version: 6.00 Build 0)  -->

<svg
   xmlns:dc="http://purl.org/dc/elements/1.1/"
   xmlns:cc="http://creativecommons.org/ns#"
   xmlns:rdf="http://www.w3.org/1999/02/22-rdf-syntax-ns#"
   xmlns:svg="http://www.w3.org/2000/svg"
   xmlns="http://www.w3.org/2000/svg"
   xmlns:sodipodi="http://sodipodi.sourceforge.net/DTD/sodipodi-0.dtd"
   xmlns:inkscape="http://www.inkscape.org/namespaces/inkscape"
   version="1.1"
   x="0px"
   y="0px"
   width="566.853px"
   height="155.824px"
   viewBox="0 0 566.853 155.824"
   style="enable-background:new 0 0 566.853 155.824;"
   xml:space="preserve"
   id="svg84"
   sodipodi:docname="ppauLogo-queensland.svg"
   inkscape:version="0.92.2 (unknown)"
   inkscape:export-filename="/home/alex/Desktop/ppau-graphics/Logos/states/ppauLogo-queensland.svg.png"
   inkscape:export-xdpi="96"
   inkscape:export-ydpi="96"><metadata
     id="metadata90"><rdf:RDF><cc:Work
         rdf:about=""><dc:format>image/svg+xml</dc:format><dc:type
           rdf:resource="http://purl.org/dc/dcmitype/StillImage" /><dc:title></dc:title></cc:Work></rdf:RDF></metadata><defs
     id="defs88" /><sodipodi:namedview
     pagecolor="#ffffff"
     bordercolor="#666666"
     borderopacity="1"
     objecttolerance="10"
     gridtolerance="10"
     guidetolerance="10"
     inkscape:pageopacity="1"
     inkscape:pageshadow="2"
     inkscape:window-width="1360"
     inkscape:window-height="744"
     id="namedview86"
     showgrid="true"
     inkscape:zoom="1.4889221"
     inkscape:cx="239.29172"
     inkscape:cy="65.208674"
     inkscape:window-x="0"
     inkscape:window-y="24"
     inkscape:window-maximized="1"
     inkscape:current-layer="svg84"><inkscape:grid
       type="xygrid"
       id="grid923" /></sodipodi:namedview><g
     id="g959"><g
       id="g14"><path
         style="fill:#0073ae"
         d="m 170.345,78.778 v 16.65 H 159.081 V 41.349 h 11.264 v 3.428 c 1.936,-1.936 3.754,-3.148 5.457,-3.638 1.702,-0.49 3.778,-0.735 6.226,-0.735 4.314,0 7.882,1.924 10.704,5.771 2.822,3.848 4.221,8.78 4.198,14.796 -0.023,6.04 -1.458,10.646 -4.302,13.817 -2.729,3.055 -6.25,5.025 -10.564,5.912 -0.7,0.14 -3.032,0.082 -6.996,-0.175 -1.633,-0.115 -3.208,-0.698 -4.723,-1.747 z M 177.831,49.5 c -2.402,0 -4.256,0.991 -5.562,2.974 -1.282,1.958 -1.924,4.792 -1.924,8.5 v 9.725 c 0.443,1.166 2.938,1.749 7.486,1.749 2.425,0 4.272,-0.979 5.545,-2.938 1.269,-1.959 1.905,-4.804 1.905,-8.536 0,-3.731 -0.641,-6.576 -1.924,-8.535 -1.282,-1.96 -3.125,-2.939 -5.526,-2.939 z"
         id="path2"
         inkscape:connector-curvature="0" /><path
         style="fill:#0073ae"
         d="m 205.362,26.098 h 11.264 v 10.214 h -11.264 z m 0,15.251 h 11.264 v 39.178 h -11.264 z"
         id="path4"
         inkscape:connector-curvature="0" /><path
         style="fill:#0073ae"
         d="m 241.186,55.761 c -1.562,2.519 -2.344,4.757 -2.344,6.716 v 18.05 H 227.579 V 41.349 h 11.263 v 6.437 c 1.446,-2.565 3.113,-4.431 5.002,-5.597 1.866,-1.189 4.116,-1.784 6.751,-1.784 0.374,0 0.781,0.012 1.225,0.035 0.163,0 0.804,0.082 1.924,0.245 v 8.535 c -5.411,-0.42 -9.597,1.76 -12.558,6.541 z"
         id="path6"
         inkscape:connector-curvature="0" /><path
         style="fill:#0073ae"
         d="m 292.541,78.253 c -4.454,2.286 -9.958,3.428 -16.51,3.428 -8.045,0 -13.292,-1.224 -15.741,-3.672 -2.285,-2.286 -3.428,-5.364 -3.428,-9.235 0,-4.594 1.422,-7.964 4.267,-10.109 2.845,-2.146 7.309,-3.218 13.395,-3.218 h 6.646 v -0.979 c 0,-1.982 -0.704,-3.435 -2.115,-4.354 -1.411,-0.923 -3.598,-1.383 -6.56,-1.383 -2.425,0 -4.673,0.268 -6.749,0.805 -2.076,0.536 -4.011,1.341 -5.807,2.414 V 42.4 c 2.425,-0.653 4.851,-1.143 7.276,-1.469 2.588,-0.35 5.023,-0.524 7.308,-0.524 6.39,0 10.984,1.388 13.782,4.163 2.822,2.798 4.235,7.334 4.235,13.607 v 20.076 z m -17.21,-15.356 c -2.332,0 -4.104,0.443 -5.317,1.329 -1.236,0.909 -1.833,2.215 -1.786,3.918 0.047,1.539 0.527,2.775 1.437,3.708 0.723,0.746 2.052,1.201 3.988,1.364 3.545,0.303 6.026,0.082 7.448,-0.665 0.047,-0.023 0.07,-2.764 0.07,-8.22 v -1.434 z"
         id="path8"
         inkscape:connector-curvature="0" /><path
         style="fill:#0073ae"
         d="m 298.56,50.304 v -1.609 l 15.146,-18.469 h 1.749 V 41.35 h 11.613 v 8.955 H 315.455 V 66.92 c 0,1.819 0.315,3.043 0.945,3.673 0.652,0.653 1.947,0.979 3.882,0.979 h 5.807 v 8.955 h -9.654 c -4.454,0 -7.614,-1.026 -9.479,-3.079 -1.866,-2.052 -2.798,-5.562 -2.798,-10.529 V 50.304 Z"
         id="path10"
         inkscape:connector-curvature="0" /><path
         style="fill:#0073ae"
         d="m 369.292,60.833 v 3.568 h -26.34 c 0.256,2.938 1.208,5.142 2.85,6.611 1.646,1.469 3.937,2.204 6.875,2.204 2.378,0 4.808,-0.389 7.294,-1.173 2.481,-0.779 5.03,-1.964 7.642,-3.549 v 9.654 c -2.659,1.12 -5.324,1.966 -7.992,2.537 -2.672,0.569 -5.335,0.856 -7.994,0.856 -6.389,0 -11.352,-1.803 -14.882,-5.403 -3.536,-3.605 -5.301,-8.658 -5.301,-15.165 0,-6.39 1.737,-11.415 5.212,-15.076 3.475,-3.661 8.255,-5.492 14.342,-5.492 5.55,0 9.986,1.854 13.311,5.562 3.32,3.707 4.983,8.663 4.983,14.866 z M 357.713,56.67 c 0,-2.379 -0.625,-4.295 -1.87,-5.755 -1.25,-1.455 -2.887,-2.185 -4.916,-2.185 -2.168,0 -3.936,0.683 -5.298,2.045 -1.367,1.366 -2.223,3.33 -2.572,5.895 z"
         id="path12"
         inkscape:connector-curvature="0" /></g><g
       id="g26"><path
         style="fill:#231f20"
         d="m 385.023,78.498 v 16.93 h -6.471 V 41.349 h 6.471 v 5.492 c 1.749,-2.588 3.556,-4.309 5.422,-5.16 1.866,-0.851 4.232,-1.277 7.102,-1.277 4.757,0 8.621,1.889 11.597,5.667 2.971,3.778 4.459,8.745 4.459,14.901 0,6.157 -1.488,10.972 -4.459,14.447 -2.976,3.475 -6.84,5.212 -11.597,5.212 -2.869,0 -4.921,-0.1 -6.157,-0.296 -1.237,-0.198 -3.359,-0.811 -6.367,-1.837 z M 406.92,60.973 c 0,-4.734 -0.975,-8.448 -2.922,-11.14 -1.947,-2.696 -4.622,-4.041 -8.026,-4.041 -2.915,0 -5.375,0.781 -7.381,2.343 -1.959,1.539 -3.148,4.291 -3.568,8.255 v 15.811 c 3.335,2.029 6.984,3.043 10.949,3.043 3.404,0 6.079,-1.206 8.026,-3.622 1.948,-2.41 2.922,-5.962 2.922,-10.649 z"
         id="path16"
         inkscape:connector-curvature="0" /><path
         style="fill:#231f20"
         d="m 437.565,81.191 c -5.224,0.094 -9.293,-1.084 -12.208,-3.533 -2.262,-1.912 -3.393,-4.757 -3.393,-8.535 0,-4.408 1.474,-7.731 4.424,-9.97 2.95,-2.239 7.353,-3.358 13.206,-3.358 h 9.024 v -0.629 c 0,-2.962 -0.975,-5.254 -2.922,-6.873 -1.947,-1.623 -4.681,-2.432 -8.201,-2.432 -2.239,0 -4.42,0.268 -6.542,0.804 -2.122,0.536 -4.162,1.341 -6.121,2.414 v -5.946 c 2.355,-0.91 4.641,-1.592 6.856,-2.046 2.215,-0.455 4.372,-0.682 6.471,-0.682 5.667,0 9.899,1.469 12.698,4.408 2.798,2.938 4.197,7.345 4.197,13.222 v 0.14 l -0.035,19.659 c -4.477,2.145 -10.295,3.264 -17.454,3.357 z m 4.652,-20.358 c -5.2,0 -8.803,0.595 -10.809,1.784 -2.006,1.189 -3.009,3.218 -3.009,6.087 0,2.262 0.781,4.116 2.345,5.562 1.562,1.445 3.579,2.168 6.051,2.168 0.07,0 0.141,0 0.21,0 5.527,0 9.398,-0.618 11.613,-1.854 0,-6.623 0,-10.727 0,-12.313 v -1.434 z"
         id="path18"
         inkscape:connector-curvature="0" /><path
         style="fill:#231f20"
         d="m 487.871,46.771 c -0.723,-0.419 -1.504,-0.66 -2.344,-0.716 -0.84,-0.061 -1.771,-0.03 -2.798,0.086 -3.521,0.443 -6.285,2.168 -8.29,5.177 -2.006,3.008 -3.009,6.728 -3.009,11.159 v 18.05 h -6.472 V 41.349 h 6.472 v 5.771 c 1.353,-2.378 3.113,-4.092 5.282,-5.142 2.169,-1.05 4.804,-1.574 7.905,-1.574 0.443,0 0.933,0.029 1.47,0.087 0.536,0.058 1.131,0.146 1.783,0.262 v 6.018 z"
         id="path20"
         inkscape:connector-curvature="0" /><path
         style="fill:#231f20"
         d="M 493.225,46.352 V 41.28 h 4.723 v -4.932 l 6.471,-6.122 V 41.35 h 13.258 v 5.002 H 504.419 V 67.62 c 0,3.195 0.437,5.247 1.312,6.157 0.873,0.909 2.652,1.364 5.334,1.364 h 6.611 v 5.387 h -6.611 c -4.968,0 -8.396,-0.928 -10.284,-2.78 -1.889,-1.856 -2.833,-5.231 -2.833,-10.128 V 46.352 Z"
         id="path22"
         inkscape:connector-curvature="0" /><path
         style="fill:#231f20"
         d="m 530.518,97.702 6.996,-17.805 -15.846,-38.548 h 6.821 l 12.243,30.643 12.242,-30.643 h 6.821 l -22.457,56.353 z"
         id="path24"
         inkscape:connector-curvature="0" /></g><g
       id="Signet"><polygon
         id="polygon47"
         points="99.911,84.769 97.45,84.546 97.035,86.982 95.673,84.919 93.51,86.115 94.275,83.763    91.993,82.817 94.307,81.949 93.623,79.575 95.743,80.844 97.175,78.829 97.506,81.277 99.975,81.138 98.266,82.923  "
         style="fill:#FFFFFF;" /><polygon
         id="polygon49"
         points="111.137,59.954 108.676,59.73 108.261,62.165 106.9,60.103 104.738,61.297 105.501,58.949    103.218,58.002 105.532,57.135 104.85,54.758 106.971,56.027 108.401,54.012 108.732,56.46 111.201,56.325 109.492,58.109  "
         style="fill:#FFFFFF;" /><polygon
         id="polygon51"
         points="98.729,49.315 96.269,49.096 95.853,51.531 94.493,49.469 92.328,50.663 93.093,48.312    90.81,47.366 93.125,46.498 92.441,44.124 94.562,45.393 95.993,43.377 96.324,45.827 98.791,45.687 97.083,47.473  "
         style="fill:#FFFFFF;" /><polygon
         id="polygon53"
         points="85.731,64.091 83.271,63.867 82.854,66.301 81.495,64.24 79.331,65.434 80.094,63.083    77.811,62.139 80.126,61.269 79.442,58.895 81.563,60.164 82.994,58.149 83.325,60.597 85.794,60.458 84.084,62.244  "
         style="fill:#FFFFFF;" /><polygon
         id="polygon55"
         points="102.204,69.52 100.752,68.675 99.238,69.398 99.587,67.757 98.434,66.54 100.103,66.364    100.905,64.891 101.586,66.425 103.235,66.731 101.988,67.854  "
         style="fill:#FFFFFF;" /><g
         id="g71"><path
           id="path57"
           d="M137.715,89.176c-6.306,35.201-39.958,58.633-75.165,52.325    c-35.207-6.306-58.637-39.957-52.33-75.158c6.304-35.206,39.956-58.63,75.165-52.323    C120.591,20.325,144.019,53.975,137.715,89.176L137.715,89.176z"
           style="fill:#FFFFFF;" /><path
           id="path59"
           d="M83.781,22.977c-30.26-5.419-59.186,14.72-64.604,44.976c-5.42,30.26,14.716,59.188,44.976,64.61    c30.259,5.415,59.183-14.727,64.602-44.984C134.175,57.323,114.04,28.396,83.781,22.977L83.781,22.977z M137.713,89.183    c-6.306,35.206-39.957,58.638-75.165,52.334C27.34,135.209,3.912,101.556,10.22,66.348c6.304-35.206,39.958-58.635,75.166-52.328    C120.591,20.325,144.019,53.979,137.713,89.183L137.713,89.183z" /><g
           id="g69"><polygon
             id="polygon61"
             points="49.674,32.279 50.003,97.644 57.127,94.538 55.864,91.394 53.913,33.037 49.674,32.279    " /><path
             id="path63"
             d="M43.733,45.081c0,0,60.699-23.026,69.619,18.67c0,0,5.716,19.558-22.992,26.528c0,0-19.617,4.877-21.554,4.893     c-1.947,0.02-1.947,0.02-1.947,0.02s-19.291,3.84-14.798,27.627c0,0-14.917-21.275,12.979-38.168c0,0,10.796-9.016,7.42-22.749     C72.459,61.901,69.118,45.589,43.733,45.081L43.733,45.081z" /><polygon
             id="polygon65"
             points="49.98,92.923 49.928,104.194 57.549,96.255 49.98,92.923    " /><path
             id="path67"
             d="M84.588,91.693c0,0-29.423,4.918-32.373,17.679c-2.95,12.763-3.591-19.303,15.273-20.748     c18.864-1.433,1.617-0.877,1.617-0.877l17.984-1.609l-2.268,4.242" /></g></g><polygon
         id="polygon73"
         points="83.579,62.876 81.21,63.548 81.698,65.964 79.692,64.534 78.107,66.418 77.977,63.96    75.513,63.894 77.358,62.261 75.87,60.295 78.298,60.713 78.906,58.329 80.092,60.487 82.338,59.476 81.388,61.751  "
         style="fill:#FFFFFF;" /><polygon
         id="polygon75"
         points="95.656,48.257 93.287,48.929 93.774,51.345 91.769,49.915 90.184,51.799 90.054,49.34    87.589,49.275 89.435,47.642 87.947,45.676 90.375,46.094 90.983,43.709 92.169,45.868 94.415,44.856 93.465,47.132  "
         style="fill:#FFFFFF;" /><polygon
         id="polygon77"
         points="109.004,59.062 106.635,59.734 107.123,62.15 105.117,60.72 103.532,62.604 103.402,60.146    100.938,60.08 102.783,58.447 101.295,56.481 103.723,56.9 104.331,54.515 105.517,56.674 107.763,55.662 106.812,57.937  "
         style="fill:#FFFFFF;" /><polygon
         id="polygon79"
         points="97.562,83.216 95.194,83.888 95.681,86.304 93.676,84.874 92.091,86.758 91.961,84.3    89.497,84.234 91.341,82.601 89.854,80.635 92.282,81.053 92.89,78.668 94.076,80.828 96.322,79.816 95.372,82.091  "
         style="fill:#FFFFFF;" /><polygon
         id="polygon81"
         points="99.989,69.461 98.395,68.947 97.069,69.97 97.066,68.297 95.688,67.353 97.275,66.831    97.748,65.226 98.735,66.577 100.406,66.531 99.426,67.884  "
         style="fill:#FFFFFF;" /></g><text
       id="text899"
       y="132.55331"
       x="155.53363"
       style="font-style:normal;font-weight:normal;font-size:40px;line-height:1.25;font-family:sans-serif;letter-spacing:0px;word-spacing:0px;fill:#231f20;fill-opacity:1;stroke:none;"
       xml:space="preserve"><tspan
         style="font-style:normal;font-variant:normal;font-weight:normal;font-stretch:normal;font-family:'Gehen Sans';-inkscape-font-specification:'Gehen Sans';letter-spacing:0.06px;fill:#231f20;fill-opacity:1"
         y="132.55331"
         x="155.53363"
         id="tspan897"
         sodipodi:role="line">queensland</tspan></text>
</g></svg>