<?xml version="1.0" encoding="UTF-8" standalone="no"?>
<!-- Created with Inkscape (http://www.inkscape.org/) -->

<svg
   xmlns:dc="http://purl.org/dc/elements/1.1/"
   xmlns:cc="http://creativecommons.org/ns#"
   xmlns:rdf="http://www.w3.org/1999/02/22-rdf-syntax-ns#"
   xmlns:svg="http://www.w3.org/2000/svg"
   xmlns="http://www.w3.org/2000/svg"
   xmlns:sodipodi="http://sodipodi.sourceforge.net/DTD/sodipodi-0.dtd"
   xmlns:inkscape="http://www.inkscape.org/namespaces/inkscape"
   width="110mm"
   height="220mm"
   viewBox="0 0 389.76378 779.52756"
   id="svg2"
   version="1.1"
   inkscape:version="0.91 r13725"
   sodipodi:docname="dl-flyer.svg">
  <defs
     id="defs4" />
  <sodipodi:namedview
     id="base"
     pagecolor="#ffffff"
     bordercolor="#666666"
     borderopacity="1.0"
     inkscape:pageopacity="0.0"
     inkscape:pageshadow="2"
     inkscape:zoom="0.98994949"
     inkscape:cx="184.8354"
     inkscape:cy="310.08586"
     inkscape:document-units="px"
     inkscape:current-layer="layer1"
     showgrid="false"
     inkscape:object-nodes="true"
     inkscape:snap-bbox="true"
     inkscape:snap-nodes="true"
     inkscape:snap-bbox-edge-midpoints="true"
     inkscape:window-width="1436"
     inkscape:window-height="855"
     inkscape:window-x="0"
     inkscape:window-y="1"
     inkscape:window-maximized="1"
     inkscape:snap-center="true"
     inkscape:snap-text-baseline="true">
    <inkscape:grid
       type="xygrid"
       id="grid8068" />
  </sodipodi:namedview>
  <metadata
     id="metadata7">
    <rdf:RDF>
      <cc:Work
         rdf:about="">
        <dc:format>image/svg+xml</dc:format>
        <dc:type
           rdf:resource="http://purl.org/dc/dcmitype/StillImage" />
        <dc:title />
      </cc:Work>
    </rdf:RDF>
  </metadata>
  <g
     inkscape:label="Layer 1"
     inkscape:groupmode="layer"
     id="layer1"
     transform="translate(0,-272.83465)">
    <rect
       style="opacity:1;fill:#000000;fill-opacity:1;stroke:none;stroke-width:1.77165353;stroke-linecap:round;stroke-linejoin:round;stroke-miterlimit:4;stroke-dasharray:none;stroke-dashoffset:0;stroke-opacity:1"
       id="rect8070"
       width="390.1181"
       height="309.99997"
       x="-0.11811024"
       y="272.36224"
       ry="0" />
    <g
       transform="matrix(0.28421043,0,0,0.28421043,40.453834,178.87072)"
       id="layer1-5"
       inkscape:label="Layer 1">
      <path
         d="m 241.35571,960.58368 c -5.38872,-1.51309 -9.60898,-5.13375 -12.59976,-10.81025 l -1.53344,-2.91034 0.27538,-18.16865 c 0.15093,-9.99275 0.26365,-20.8942 0.2492,-24.22507 l -0.0273,-6.05622 -3.4651,-7.70793 c -6.41942,-14.28002 -8.87599,-23.39236 -8.86234,-32.87331 0.0161,-6.90665 1.03119,-11.49741 3.67785,-16.53444 5.45008,-10.37145 20.28689,-19.6963 31.45645,-19.77024 3.4521,-0.0234 4.54848,0.22594 7.58662,1.7216 6.06633,2.98647 11.15335,9.14934 13.93843,16.88606 0.63763,1.77172 2.24188,7.80478 3.56498,13.40687 l 2.40549,10.1855 6.80801,-0.069 c 6.99491,-0.0705 14.07235,-1.02469 66.81972,-9.00646 12.1126,-1.83286 34.90614,-5.26311 50.65243,-7.62295 l 28.62962,-4.2906 0.1445,-1.89328 c 0.0803,-1.0413 -0.0723,-2.22313 -0.33526,-2.62618 -0.58704,-0.89814 -7.83084,-2.15436 -27.33687,-4.74085 -8.1759,-1.08409 -18.70559,-2.58269 -23.39905,-3.3303 -4.69362,-0.74747 -19.55902,-2.97824 -33.03422,-4.95721 -13.47518,-1.97883 -29.0837,-4.33104 -34.68582,-5.22711 -10.53533,-1.68514 -18.87179,-2.89328 -36.33763,-5.26649 -5.60195,-0.76113 -13.77785,-1.9859 -18.16865,-2.72145 -17.65321,-2.95796 -29.67973,-4.17814 -31.13386,-3.15904 -0.9435,0.66147 -2.73546,3.43127 -6.34315,9.80434 -5.08557,8.98368 -8.96606,14.24502 -14.80262,20.06907 -8.11488,8.09789 -14.00715,10.67749 -24.24959,10.61664 -9.80713,-0.0588 -17.6794,-3.4088 -24.11038,-10.26122 -6.82856,-7.27619 -6.68389,-12.19137 0.79048,-26.87488 3.66116,-7.1921 7.37354,-12.78963 13.75266,-20.73641 2.6881,-3.34867 5.72175,-7.46596 6.7417,-9.14963 l 1.85394,-3.06115 -1.78009,-9.7767 c -3.70724,-20.36202 -1.91061,-31.41935 6.57935,-40.49121 5.63616,-6.02262 12.50263,-9.22151 22.13745,-10.31294 6.07983,-0.68867 10.22495,-0.0926 14.90684,2.14478 10.97382,5.24328 14.84935,13.76393 16.40976,36.07757 0.72,10.29429 1.25116,12.27826 3.6618,13.68263 1.25968,0.73365 13.96573,3.04645 44.87143,8.16728 23.71263,3.929 57.60783,9.60354 75.32238,12.61015 71.9061,12.20416 113.81694,19.05393 141.77152,23.17078 8.1759,1.20418 20.06819,3.07439 26.42724,4.15612 15.79543,2.68675 22.72868,2.73583 35.78702,0.25326 27.40736,-5.21035 183.67256,-39.2447 216.37375,-47.12578 4.54204,-1.0945 13.45897,-3.11112 19.81529,-4.48125 12.09092,-2.6059 16.76559,-4.3003 18.29197,-6.62986 0.4976,-0.75937 1.10488,-2.84537 1.34991,-4.63545 1.10456,-8.07731 5.38246,-20.10126 9.2371,-25.96351 8.19614,-12.4645 20.68318,-17.85432 34.99204,-15.10363 5.74857,1.10511 8.07025,2.13568 11.09795,4.9265 4.81871,4.44186 6.54371,9.76628 6.46535,19.95736 -0.0482,6.22504 -0.35791,8.55578 -2.38029,17.8934 -1.3308,6.14567 -2.34046,12.29163 -2.36102,14.37409 -0.0434,4.48713 0.72337,6.23798 8.21476,18.73377 7.34029,12.24356 11.61354,20.88548 12.35072,24.97718 0.7542,4.18625 0.31953,11.67397 -0.80398,13.84653 -2.67397,5.1711 -13.74783,9.59122 -24.0842,9.61325 -9.55664,0.0206 -16.58205,-2.56534 -23.99653,-8.83213 -4.44891,-3.76024 -6.30317,-5.9797 -11.49841,-13.76111 -3.41725,-5.11862 -4.17595,-5.92561 -6.45989,-6.87211 l -2.58807,-1.07262 -5.92792,1.23902 c -3.26037,0.68146 -9.52035,1.82199 -13.91113,2.53461 -4.39079,0.71248 -12.44289,2.17433 -17.89343,3.24841 -5.45071,1.07394 -22.54579,4.17596 -37.98924,6.89329 -53.37746,9.39157 -60.04047,10.58281 -66.89407,11.95956 -9.1162,1.83124 -11.28919,3.31295 -8.01003,5.46155 2.35411,1.54256 6.24681,2.4107 19.54842,4.36 7.12899,1.04467 19.31367,2.89723 27.07691,4.1167 24.60461,3.8649 40.0304,6.08025 42.33859,6.08025 3.53993,0 5.1482,-1.24505 9.42578,-7.29707 4.60562,-6.51608 14.02851,-16.15565 19.10123,-19.54033 4.49709,-3.00073 7.94372,-3.99603 13.8087,-3.98795 7.45028,0.0145 12.24538,1.71396 19.15679,6.80582 3.96094,2.91842 6.78247,6.50331 8.50427,10.80581 1.61822,4.04337 1.76739,14.44758 0.24069,16.77787 -0.5294,0.80773 -1.32005,2.48228 -1.75728,3.72145 -1.53103,4.3394 -7.74701,13.28931 -15.54622,22.38382 -4.99806,5.82788 -4.35754,3.66163 -5.63391,19.05603 -2.00937,24.23577 -6.82278,35.62355 -17.21984,40.74091 -5.00127,2.46154 -10.76589,3.66506 -17.4676,3.64689 -10.5382,-0.0275 -15.90718,-2.47825 -20.6525,-9.42339 -4.3158,-6.31634 -5.16425,-9.78818 -6.75486,-27.63938 -0.29529,-3.31545 -0.81826,-5.86113 -1.38058,-6.71937 -1.26368,-1.92829 -6.88765,-3.59805 -22.48364,-6.67506 -7.06187,-1.39342 -16.55588,-3.38144 -21.09825,-4.4184 -4.54204,-1.0368 -14.45241,-3.10889 -22.02264,-4.60455 -13.49864,-2.6669 -30.10975,-6.12788 -55.88283,-11.64365 -7.11598,-1.52302 -16.15912,-3.40459 -20.09565,-4.18145 -3.93669,-0.77687 -10.97415,-2.26899 -15.63919,-3.31573 -4.66487,-1.0469 -13.21233,-2.86242 -18.99446,-4.03469 -5.78212,-1.17213 -13.4861,-2.78773 -17.11996,-3.59033 -8.5375,-1.88564 -11.56922,-1.81875 -24.2968,0.53595 -12.90709,2.38805 -78.94982,15.5423 -89.94613,17.91535 -13.47295,2.90755 -60.84492,12.60631 -99.37785,20.34626 -9.0844,1.82489 -19.11841,3.92481 -22.29802,4.66681 -3.17961,0.74199 -7.63928,1.63139 -9.91023,1.97629 -2.2711,0.34524 -6.3592,1.21344 -9.0844,1.92957 -2.72535,0.7163 -7.78731,1.83098 -11.24888,2.47712 -6.97804,1.30238 -9.87907,2.51628 -11.46918,4.79911 -1.72854,2.48161 -2.28845,4.81999 -3.45515,14.43154 -0.60856,5.01476 -1.59879,10.92615 -2.20029,13.1364 -2.14778,7.89394 -6.00788,13.64794 -10.78355,16.07494 -2.49911,1.27016 -3.31882,1.37375 -11.77058,1.48675 -6.70299,0.0899 -9.85353,-0.0947 -12.01883,-0.7025 z m 66.80046,-197.86425 -31.38243,-0.29694 -4.12921,-2.1289 c -15.65477,-8.07115 -21.67245,-17.81904 -23.39954,-37.905 l -0.36513,-4.24681 -4.56934,-2.4908 -4.5695,-2.49081 -0.40849,-26.14902 c -0.52619,-33.67967 0.0241,-59.33317 1.30495,-60.8628 0.49504,-0.59076 2.63415,-1.76304 4.75384,-2.60487 l 3.85399,-1.53051 0.35454,-4.9478 c 0.19526,-2.72131 0.38104,-46.26822 0.41315,-96.77098 l 0.0594,-91.82308 1.716,-3.42536 c 6.98384,-13.94059 19.67224,-24.09104 31.53418,-25.22674 2.45495,-0.23505 113.05487,-0.443 245.77747,-0.46203 l 241.31363,-0.0347 5.4096,2.67865 c 6.99956,3.46599 9.94971,5.52617 14.47345,10.10705 4.07253,4.1241 7.54181,9.52369 9.32783,14.51824 1.03471,2.89295 1.21246,5.04872 1.60762,19.49444 0.24423,8.93298 0.49392,46.83966 0.55445,84.23705 0.0594,37.39736 0.26125,73.19814 0.44606,79.55724 l 0.33576,11.56195 3.3034,1.75364 c 1.81685,0.96457 3.67497,2.31295 4.12938,2.99616 0.71229,1.0716 0.84813,7.0166 0.98895,43.24369 0.114,29.443 -0.0161,42.33523 -0.43434,43.11798 -0.32869,0.61413 -2.30354,1.97575 -4.38886,3.02572 l -3.79106,1.90931 -0.29641,2.9043 c -0.16298,1.59739 -0.44365,4.51476 -0.62349,6.48315 -1.06346,11.63134 -5.4931,20.23739 -14.57397,28.31615 -5.73604,5.10275 -7.97342,5.83507 -21.47703,7.02824 -7.32151,0.64691 -396.18043,1.04157 -457.24757,0.46405 z m 85.14413,-10.13037 c 7.76869,-1.82846 13.1237,-7.65559 14.78222,-16.08466 1.60795,-8.17301 -3.07908,-17.41024 -10.74855,-21.18431 -2.3517,-1.15728 -3.51583,-1.34763 -8.24414,-1.34763 -6.35551,0 -8.51357,0.61692 -12.41719,3.55004 -10.29012,7.73187 -10.89387,22.03952 -1.29981,30.80784 4.8635,4.44509 10.97158,5.89608 17.92747,4.25872 z m 277.22509,-0.79672 c 3.68814,-1.90357 8.76936,-6.97912 10.48025,-10.4689 1.29114,-2.63354 1.53135,-3.81964 1.5254,-7.53049 0,-3.76833 -0.2529,-4.92635 -1.70943,-8.01719 -2.01451,-4.27532 -6.15752,-8.64338 -9.93365,-10.4733 -2.02431,-0.98105 -3.86396,-1.34192 -7.7019,-1.51051 -4.5292,-0.19918 -5.36047,-0.0764 -8.1698,1.21005 -2.00133,0.91636 -4.46095,2.77288 -6.83096,5.15625 -3.23324,3.25164 -3.86685,4.23783 -4.9918,7.76773 -1.18677,3.7238 -1.23575,4.33016 -0.61964,7.67353 1.63492,8.8724 6.57309,14.75067 14.24448,16.95602 3.84276,1.10466 10.8428,0.71499 13.70705,-0.76319 z m -210.81641,-8.01616 c 4.85128,-1.76833 8.4731,-5.73452 10.29573,-11.27516 1.39375,-4.23622 0.99923,-12.62103 -0.75227,-15.98969 -1.7067,-3.28281 -6.1198,-7.58062 -9.28528,-9.04277 -2.18118,-1.00734 -3.5958,-1.20402 -8.66291,-1.20402 -5.57947,0 -6.28856,0.12203 -9.00508,1.55284 -8.15165,4.2928 -12.48591,13.53092 -10.37041,22.1036 1.55737,6.31031 5.83463,11.51476 11.39228,13.86138 4.28369,1.80876 11.41572,1.80611 16.38794,0 z m 145.08808,1.03529 c 5.86883,-1.52874 10.37458,-5.58077 13.74847,-12.36469 2.54552,-5.11788 2.45672,-8.35866 -0.3868,-14.11684 -2.5582,-5.18021 -7.16528,-10.0826 -10.49293,-11.16536 -1.21117,-0.39408 -4.73537,-0.85198 -7.83147,-1.0175 -5.30074,-0.28339 -5.80477,-0.21505 -8.6385,1.17141 -3.50349,1.71408 -8.213,6.57752 -9.90894,10.23267 -0.94141,2.02882 -1.14583,3.52477 -1.12881,8.25856 0.0177,4.98162 0.2065,6.16153 1.3634,8.53387 2.50715,5.14112 7.49027,9.0263 13.4813,10.5108 3.75765,0.93119 6.09362,0.92092 9.79428,-0.0427 z M 400.92705,619.53408 c 10.03771,-1.56519 25.52965,-12.93649 30.35654,-22.28221 9.45773,-18.31088 6.99475,-39.83608 -6.16781,-53.90697 -9.23951,-9.8772 -18.31797,-13.9643 -33.18001,-14.93798 -6.96215,-0.4561 -11.03227,0.24534 -17.36692,2.9928 -12.46632,5.40695 -20.25862,12.58159 -25.47763,23.45835 -3.49898,7.2923 -4.50414,12.3709 -4.18959,21.16951 0.22785,6.37689 0.50965,8.20196 1.94113,12.56944 2.11824,6.46288 5.29287,11.81787 9.9038,16.70599 6.1882,6.5596 17.55832,13.22298 24.23176,14.20078 4.54108,0.66529 15.76717,0.68235 19.94873,0.0308 z m 268.95301,0 c 9.75944,-1.38749 22.51479,-10.32558 29.29919,-20.53092 8.02769,-12.07541 9.54765,-28.50123 3.89704,-42.11486 -4.26425,-10.27308 -12.17763,-18.3279 -23.89185,-24.31859 -5.87654,-3.00529 -10.36013,-3.90013 -19.69743,-3.93116 -8.04102,-0.027 -11.70266,0.50608 -15.48376,2.25298 -1.21117,0.55959 -3.57557,1.65336 -5.25417,2.43054 -4.012,1.85763 -10.618,7.56965 -14.89238,12.87671 -6.51512,8.08922 -9.85947,17.39076 -9.85947,27.42163 0,13.73274 4.53257,24.73641 13.83197,33.58058 6.44335,6.12774 15.46803,11.30427 21.40446,12.27766 4.18204,0.68558 15.99068,0.71733 20.6464,0.0559 z M 582.8404,585.15884 c 2.31895,-3.04012 2.60558,-6.31927 2.4214,-27.70263 -0.14932,-17.2746 -0.28325,-19.87037 -1.10697,-21.37425 -1.84848,-3.37533 0.52057,-3.2434 -58.24867,-3.2434 -29.52415,0 -54.62058,0.19914 -55.76978,0.44254 -1.53907,0.32593 -2.24718,0.83373 -2.68714,1.92699 -0.80381,1.9977 -1.24715,25.29231 -0.73926,38.84228 0.38585,10.28559 0.46725,10.87784 1.58482,11.51829 1.1386,0.65251 24.11375,0.99396 93.47064,1.38923 l 19.61764,0.11176 1.45732,-1.91091 z"
         id="path3145"
         style="fill:#ffffff"
         inkscape:connector-curvature="0" />
    </g>
    <text
       xml:space="preserve"
       style="color:#000000;font-style:normal;font-variant:normal;font-weight:normal;font-stretch:normal;font-size:24px;line-height:1000%;font-family:Helvetica;-inkscape-font-specification:Helvetica;text-indent:0;text-align:start;text-decoration:none;text-decoration-line:none;text-decoration-style:solid;text-decoration-color:#000000;letter-spacing:0px;word-spacing:0px;text-transform:none;direction:ltr;block-progression:tb;writing-mode:lr-tb;baseline-shift:baseline;text-anchor:start;white-space:normal;clip-rule:nonzero;display:inline;overflow:visible;visibility:visible;opacity:1;isolation:auto;mix-blend-mode:normal;color-interpolation:sRGB;color-interpolation-filters:linearRGB;solid-color:#000000;solid-opacity:1;fill:#000000;fill-opacity:1;fill-rule:nonzero;stroke:none;stroke-width:1px;stroke-linecap:butt;stroke-linejoin:miter;stroke-miterlimit:4;stroke-dasharray:none;stroke-dashoffset:0;stroke-opacity:1;marker:none;color-rendering:auto;image-rendering:auto;shape-rendering:auto;text-rendering:auto;enable-background:accumulate"
       x="194.53912"
       y="475.97476"
       id="text8142"
       sodipodi:linespacing="1000%"><tspan
         sodipodi:role="line"
         id="tspan8144"
         x="194.53912"
         y="475.97476"
         style="font-style:normal;font-variant:normal;font-weight:bold;font-stretch:normal;font-size:18px;font-family:'Gehen Sans';-inkscape-font-specification:'Gehen Sans Bold';text-align:center;text-anchor:middle;fill:#ffffff">University of Placename Placename</tspan></text>
    <text
       xml:space="preserve"
       style="color:#000000;font-style:normal;font-variant:normal;font-weight:normal;font-stretch:normal;font-size:24px;line-height:1000%;font-family:Helvetica;-inkscape-font-specification:Helvetica;text-indent:0;text-align:start;text-decoration:none;text-decoration-line:none;text-decoration-style:solid;text-decoration-color:#000000;letter-spacing:0px;word-spacing:0px;text-transform:none;direction:ltr;block-progression:tb;writing-mode:lr-tb;baseline-shift:baseline;text-anchor:start;white-space:normal;clip-rule:nonzero;display:inline;overflow:visible;visibility:visible;opacity:1;isolation:auto;mix-blend-mode:normal;color-interpolation:sRGB;color-interpolation-filters:linearRGB;solid-color:#000000;solid-opacity:1;fill:#ffffff;fill-opacity:1;fill-rule:nonzero;stroke:none;stroke-width:1px;stroke-linecap:butt;stroke-linejoin:miter;stroke-miterlimit:4;stroke-dasharray:none;stroke-dashoffset:0;stroke-opacity:1;marker:none;color-rendering:auto;image-rendering:auto;shape-rendering:auto;text-rendering:auto;enable-background:accumulate"
       x="193.33893"
       y="537.21667"
       id="text8146"
       sodipodi:linespacing="1000%"><tspan
         sodipodi:role="line"
         id="tspan8148"
         x="193.33893"
         y="537.21667"
         style="font-style:normal;font-variant:normal;font-weight:bold;font-stretch:normal;font-size:64px;font-family:'Gehen Sans';-inkscape-font-specification:'Gehen Sans Bold';text-align:center;text-anchor:middle;fill:#ffffff">Pirates</tspan></text>
    <text
       xml:space="preserve"
       style="color:#000000;font-style:normal;font-variant:normal;font-weight:normal;font-stretch:normal;font-size:24px;line-height:100%;font-family:Helvetica;-inkscape-font-specification:Helvetica;text-indent:0;text-align:start;text-decoration:none;text-decoration-line:none;text-decoration-style:solid;text-decoration-color:#000000;letter-spacing:0px;word-spacing:0px;text-transform:none;direction:ltr;block-progression:tb;writing-mode:lr-tb;baseline-shift:baseline;text-anchor:start;white-space:normal;clip-rule:nonzero;display:inline;overflow:visible;visibility:visible;opacity:1;isolation:auto;mix-blend-mode:normal;color-interpolation:sRGB;color-interpolation-filters:linearRGB;solid-color:#000000;solid-opacity:1;fill:#000000;fill-opacity:1;fill-rule:nonzero;stroke:none;stroke-width:1px;stroke-linecap:butt;stroke-linejoin:miter;stroke-miterlimit:4;stroke-dasharray:none;stroke-dashoffset:0;stroke-opacity:1;marker:none;color-rendering:auto;image-rendering:auto;shape-rendering:auto;text-rendering:auto;enable-background:accumulate"
       x="194.87164"
       y="616.36218"
       id="text8150"
       sodipodi:linespacing="100%"><tspan
         sodipodi:role="line"
         x="194.87164"
         y="616.36218"
         style="font-style:normal;font-variant:normal;font-weight:bold;font-stretch:normal;font-size:20px;line-height:100%;font-family:'Open Sans';-inkscape-font-specification:'Open Sans';text-align:center;text-anchor:middle"
         id="tspan8205">Headline headline headline headline</tspan></text>
    <text
       xml:space="preserve"
       style="color:#000000;font-style:normal;font-variant:normal;font-weight:normal;font-stretch:normal;font-size:24px;line-height:1000%;font-family:Helvetica;-inkscape-font-specification:Helvetica;text-indent:0;text-align:start;text-decoration:none;text-decoration-line:none;text-decoration-style:solid;text-decoration-color:#000000;letter-spacing:0px;word-spacing:0px;text-transform:none;direction:ltr;block-progression:tb;writing-mode:lr-tb;baseline-shift:baseline;text-anchor:start;white-space:normal;clip-rule:nonzero;display:inline;overflow:visible;visibility:visible;opacity:1;isolation:auto;mix-blend-mode:normal;color-interpolation:sRGB;color-interpolation-filters:linearRGB;solid-color:#000000;solid-opacity:1;fill:#000000;fill-opacity:1;fill-rule:nonzero;stroke:none;stroke-width:1px;stroke-linecap:butt;stroke-linejoin:miter;stroke-miterlimit:4;stroke-dasharray:none;stroke-dashoffset:0;stroke-opacity:1;marker:none;color-rendering:auto;image-rendering:auto;shape-rendering:auto;text-rendering:auto;enable-background:accumulate"
       x="40"
       y="672.36218"
       id="text8089"
       sodipodi:linespacing="1000%"><tspan
         sodipodi:role="line"
         id="tspan8091"
         x="40"
         y="672.36218" /></text>
    <text
       xml:space="preserve"
       style="color:#000000;font-style:normal;font-variant:normal;font-weight:normal;font-stretch:normal;font-size:24px;line-height:1000%;font-family:Helvetica;-inkscape-font-specification:Helvetica;text-indent:0;text-align:start;text-decoration:none;text-decoration-line:none;text-decoration-style:solid;text-decoration-color:#000000;letter-spacing:0px;word-spacing:0px;text-transform:none;direction:ltr;block-progression:tb;writing-mode:lr-tb;baseline-shift:baseline;text-anchor:start;white-space:normal;clip-rule:nonzero;display:inline;overflow:visible;visibility:visible;opacity:1;isolation:auto;mix-blend-mode:normal;color-interpolation:sRGB;color-interpolation-filters:linearRGB;solid-color:#000000;solid-opacity:1;fill:#000000;fill-opacity:1;fill-rule:nonzero;stroke:none;stroke-width:1px;stroke-linecap:butt;stroke-linejoin:miter;stroke-miterlimit:4;stroke-dasharray:none;stroke-dashoffset:0;stroke-opacity:1;marker:none;color-rendering:auto;image-rendering:auto;shape-rendering:auto;text-rendering:auto;enable-background:accumulate"
       x="8.0371094"
       y="633.5575"
       id="text8093"
       sodipodi:linespacing="1000%"><tspan
         sodipodi:role="line"
         id="tspan8095"
         x="8.0371094"
         y="633.5575"
         style="font-style:normal;font-variant:normal;font-weight:normal;font-stretch:normal;font-size:20px;font-family:'Open Sans';-inkscape-font-specification:'Open Sans'" /></text>
    <text
       xml:space="preserve"
       style="color:#000000;font-style:normal;font-variant:normal;font-weight:normal;font-stretch:normal;font-size:24px;line-height:125%;font-family:Helvetica;-inkscape-font-specification:Helvetica;text-indent:0;text-align:start;text-decoration:none;text-decoration-line:none;text-decoration-style:solid;text-decoration-color:#000000;letter-spacing:0px;word-spacing:0px;text-transform:none;direction:ltr;block-progression:tb;writing-mode:lr-tb;baseline-shift:baseline;text-anchor:start;white-space:normal;clip-rule:nonzero;display:inline;overflow:visible;visibility:visible;opacity:1;isolation:auto;mix-blend-mode:normal;color-interpolation:sRGB;color-interpolation-filters:linearRGB;solid-color:#000000;solid-opacity:1;fill:#000000;fill-opacity:1;fill-rule:nonzero;stroke:none;stroke-width:1px;stroke-linecap:butt;stroke-linejoin:miter;stroke-miterlimit:4;stroke-dasharray:none;stroke-dashoffset:0;stroke-opacity:1;marker:none;color-rendering:auto;image-rendering:auto;shape-rendering:auto;text-rendering:auto;enable-background:accumulate"
       x="194.39362"
       y="978.37781"
       id="text8097"
       sodipodi:linespacing="125%"><tspan
         sodipodi:role="line"
         x="196.99127"
         y="978.37781"
         id="tspan8101"
         style="font-style:italic;font-variant:normal;font-weight:600;font-stretch:normal;font-size:20px;line-height:125%;font-family:'Open Sans';-inkscape-font-specification:'Open Sans Semi-Bold Italic';text-align:center;text-anchor:middle">Statistically... </tspan><tspan
         sodipodi:role="line"
         x="194.39362"
         y="1003.3778"
         style="font-style:normal;font-variant:normal;font-weight:bold;font-stretch:normal;font-size:20px;line-height:125%;font-family:'Open Sans';-inkscape-font-specification:'Open Sans Bold';text-align:center;text-anchor:middle"
         id="tspan8107">You <tspan
   style="font-style:italic"
   id="tspan8109">are</tspan> a pirate.</tspan><tspan
         sodipodi:role="line"
         x="194.39362"
         y="1028.3778"
         id="tspan8103"
         style="font-style:normal;font-variant:normal;font-weight:bold;font-stretch:normal;font-size:20px;line-height:125%;font-family:'Open Sans';-inkscape-font-specification:'Open Sans Bold';text-align:center;text-anchor:middle">Join the club.</tspan></text>
    <text
       xml:space="preserve"
       style="color:#000000;font-style:normal;font-variant:normal;font-weight:normal;font-stretch:normal;font-size:24px;line-height:110.00000238%;font-family:Helvetica;-inkscape-font-specification:Helvetica;text-indent:0;text-align:start;text-decoration:none;text-decoration-line:none;text-decoration-style:solid;text-decoration-color:#000000;letter-spacing:0px;word-spacing:0px;text-transform:none;direction:ltr;block-progression:tb;writing-mode:lr-tb;baseline-shift:baseline;text-anchor:start;white-space:normal;clip-rule:nonzero;display:inline;overflow:visible;visibility:visible;opacity:1;isolation:auto;mix-blend-mode:normal;color-interpolation:sRGB;color-interpolation-filters:linearRGB;solid-color:#000000;solid-opacity:1;fill:#000000;fill-opacity:1;fill-rule:nonzero;stroke:none;stroke-width:1px;stroke-linecap:butt;stroke-linejoin:miter;stroke-miterlimit:4;stroke-dasharray:none;stroke-dashoffset:0;stroke-opacity:1;marker:none;color-rendering:auto;image-rendering:auto;shape-rendering:auto;text-rendering:auto;enable-background:accumulate"
       x="15.753645"
       y="646.36218"
       id="text8111"
       sodipodi:linespacing="110%"><tspan
         sodipodi:role="line"
         x="15.753645"
         y="646.36218"
         style="font-style:normal;font-variant:normal;font-weight:normal;font-stretch:normal;font-size:18px;line-height:110.00000238%;font-family:'Open Sans';-inkscape-font-specification:'Open Sans'"
         id="tspan8102">Body body body body</tspan></text>
    <text
       xml:space="preserve"
       style="color:#000000;font-style:normal;font-variant:normal;font-weight:normal;font-stretch:normal;font-size:24px;line-height:1000%;font-family:Helvetica;-inkscape-font-specification:Helvetica;text-indent:0;text-align:start;text-decoration:none;text-decoration-line:none;text-decoration-style:solid;text-decoration-color:#000000;letter-spacing:0px;word-spacing:0px;text-transform:none;direction:ltr;block-progression:tb;writing-mode:lr-tb;baseline-shift:baseline;text-anchor:start;white-space:normal;clip-rule:nonzero;display:inline;overflow:visible;visibility:visible;opacity:1;isolation:auto;mix-blend-mode:normal;color-interpolation:sRGB;color-interpolation-filters:linearRGB;solid-color:#000000;solid-opacity:1;fill:#000000;fill-opacity:1;fill-rule:nonzero;stroke:none;stroke-width:1px;stroke-linecap:butt;stroke-linejoin:miter;stroke-miterlimit:4;stroke-dasharray:none;stroke-dashoffset:0;stroke-opacity:1;marker:none;color-rendering:auto;image-rendering:auto;shape-rendering:auto;text-rendering:auto;enable-background:accumulate"
       x="125.65923"
       y="566.36218"
       id="text8086"
       sodipodi:linespacing="1000%"><tspan
         sodipodi:role="line"
         id="tspan8088"
         x="125.65923"
         y="566.36218"
         style="font-style:normal;font-variant:normal;font-weight:normal;font-stretch:normal;font-family:'Gehen Sans';-inkscape-font-specification:'Gehen Sans';letter-spacing:0px;fill:#ffffff">@uqpirates</tspan></text>
  </g>
</svg>
