<?xml version="1.0" encoding="UTF-8" standalone="no"?>
<!-- Created with Inkscape (http://www.inkscape.org/) -->

<svg
   xmlns:dc="http://purl.org/dc/elements/1.1/"
   xmlns:cc="http://creativecommons.org/ns#"
   xmlns:rdf="http://www.w3.org/1999/02/22-rdf-syntax-ns#"
   xmlns:svg="http://www.w3.org/2000/svg"
   xmlns="http://www.w3.org/2000/svg"
   xmlns:sodipodi="http://sodipodi.sourceforge.net/DTD/sodipodi-0.dtd"
   xmlns:inkscape="http://www.inkscape.org/namespaces/inkscape"
   width="210mm"
   height="297mm"
   viewBox="0 0 744.09448819 1052.3622047"
   id="svg2"
   version="1.1"
   inkscape:version="0.91 r13725"
   sodipodi:docname="meetup-poster-genericised.svg">
  <defs
     id="defs4" />
  <sodipodi:namedview
     id="base"
     pagecolor="#ffffff"
     bordercolor="#666666"
     borderopacity="1.0"
     inkscape:pageopacity="0.0"
     inkscape:pageshadow="2"
     inkscape:zoom="0.99015339"
     inkscape:cx="357.72737"
     inkscape:cy="122.20329"
     inkscape:document-units="px"
     inkscape:current-layer="layer1"
     showgrid="false"
     borderlayer="true"
     inkscape:showpageshadow="false"
     inkscape:snap-text-baseline="false"
     inkscape:snap-page="true"
     inkscape:snap-bbox="true"
     inkscape:bbox-nodes="true"
     inkscape:snap-bbox-edge-midpoints="true"
     inkscape:window-width="1356"
     inkscape:window-height="723"
     inkscape:window-x="0"
     inkscape:window-y="1"
     inkscape:window-maximized="1">
    <inkscape:grid
       type="xygrid"
       id="grid8218"
       units="mm"
       spacingx="0.35433071"
       spacingy="0.35433072"
       empspacing="10" />
  </sodipodi:namedview>
  <metadata
     id="metadata7">
    <rdf:RDF>
      <cc:Work
         rdf:about="">
        <dc:format>image/svg+xml</dc:format>
        <dc:type
           rdf:resource="http://purl.org/dc/dcmitype/StillImage" />
        <dc:title />
      </cc:Work>
    </rdf:RDF>
  </metadata>
  <g
     inkscape:label="Layer 1"
     inkscape:groupmode="layer"
     id="layer1">
    <rect
       y="804.33069"
       x="0"
       height="248.03149"
       width="744.09448"
       id="rect8270"
       style="opacity:1;fill:#000000;fill-opacity:1;fill-rule:nonzero;stroke:none;stroke-width:16;stroke-linecap:round;stroke-linejoin:round;stroke-miterlimit:4;stroke-dasharray:none;stroke-dashoffset:0;stroke-opacity:1" />
    <text
       xml:space="preserve"
       style="color:#000000;font-style:normal;font-variant:normal;font-weight:normal;font-stretch:normal;font-size:24px;line-height:175%;font-family:Helvetica;-inkscape-font-specification:Helvetica;text-indent:0;text-align:start;text-decoration:none;text-decoration-line:none;text-decoration-style:solid;text-decoration-color:#000000;letter-spacing:0px;word-spacing:0px;text-transform:none;direction:ltr;block-progression:tb;writing-mode:lr-tb;baseline-shift:baseline;text-anchor:start;white-space:normal;clip-rule:nonzero;display:inline;overflow:visible;visibility:visible;opacity:1;isolation:auto;mix-blend-mode:normal;color-interpolation:sRGB;color-interpolation-filters:linearRGB;solid-color:#000000;solid-opacity:1;fill:#000000;fill-opacity:1;fill-rule:nonzero;stroke:none;stroke-width:1px;stroke-linecap:butt;stroke-linejoin:miter;stroke-miterlimit:4;stroke-dasharray:none;stroke-dashoffset:0;stroke-opacity:1;marker:none;color-rendering:auto;image-rendering:auto;shape-rendering:auto;text-rendering:auto;enable-background:accumulate"
       x="367.21878"
       y="392.96436"
       id="text8068"
       sodipodi:linespacing="175%"><tspan
         sodipodi:role="line"
         x="367.21878"
         y="392.96436"
         style="font-style:normal;font-variant:normal;font-weight:bold;font-stretch:normal;font-size:56px;line-height:175%;font-family:'Open Sans';-inkscape-font-specification:'Open Sans Bold';text-align:center;text-anchor:middle"
         id="tspan8234">Freedom of Culture</tspan><tspan
         sodipodi:role="line"
         x="367.21878"
         y="490.96436"
         style="font-style:normal;font-variant:normal;font-weight:bold;font-stretch:normal;font-size:56px;line-height:175%;font-family:'Open Sans';-inkscape-font-specification:'Open Sans Bold';text-align:center;text-anchor:middle"
         id="tspan8232">Basic Income</tspan><tspan
         sodipodi:role="line"
         x="367.21878"
         y="588.96436"
         id="tspan8072"
         style="font-style:normal;font-variant:normal;font-weight:bold;font-stretch:normal;font-size:56px;line-height:175%;font-family:'Open Sans';-inkscape-font-specification:'Open Sans Bold';text-align:center;text-anchor:middle">Civil Liberties</tspan><tspan
         sodipodi:role="line"
         x="367.21878"
         y="686.96436"
         style="font-style:normal;font-variant:normal;font-weight:bold;font-stretch:normal;font-size:56px;line-height:175%;font-family:'Open Sans';-inkscape-font-specification:'Open Sans Bold';text-align:center;text-anchor:middle"
         id="tspan8236">Net Neutrality</tspan></text>
    <rect
       style="opacity:1;fill:#000000;fill-opacity:1;fill-rule:nonzero;stroke:none;stroke-width:16;stroke-linecap:round;stroke-linejoin:round;stroke-miterlimit:4;stroke-dasharray:none;stroke-dashoffset:0;stroke-opacity:1"
       id="rect8220"
       width="744.09448"
       height="248.03149"
       x="0"
       y="0" />
    <g
       transform="matrix(0.26270756,0,0,0.26270756,50.542543,-54.708139)"
       id="layer1-6"
       inkscape:label="Layer 1"
       style="fill:#ffffff">
      <path
         d="m 184.39063,1016.6374 c -6.46646,-1.8157 -11.53077,-6.1605 -15.11971,-12.9723 l -1.84013,-3.4924 0.33046,-21.80238 c 0.18112,-11.9913 0.31638,-25.07305 0.29904,-29.07009 l -0.0328,-7.26746 -4.15812,-9.24952 c -7.7033,-17.13602 -10.65118,-28.07083 -10.6348,-39.44797 0.0193,-8.28798 1.23742,-13.79689 4.41342,-19.84133 6.54009,-12.44574 24.34427,-23.63556 37.74774,-23.72428 4.14252,-0.0281 5.45817,0.27112 9.10394,2.06592 7.27959,3.58376 13.38402,10.9792 16.72611,20.26327 0.76516,2.12606 2.69026,9.36573 4.27798,16.08824 l 2.88659,12.2226 8.16961,-0.0828 c 8.39389,-0.0846 16.88682,-1.22963 80.18367,-10.80775 14.53511,-2.19943 41.88736,-6.31574 60.78291,-9.14754 l 34.35554,-5.14872 0.17341,-2.27194 c 0.0964,-1.24956 -0.0868,-2.66776 -0.40232,-3.15142 -0.70445,-1.07776 -9.39701,-2.58522 -32.80424,-5.68901 -9.81108,-1.30091 -22.44671,-3.09923 -28.07886,-3.99636 -5.63235,-0.89697 -23.47083,-3.57389 -39.64106,-5.94865 -16.17022,-2.3746 -34.90045,-5.19725 -41.62299,-6.27254 -12.64239,-2.02216 -22.64615,-3.47193 -43.60515,-6.31978 -6.72235,-0.91336 -16.53343,-2.38308 -21.80238,-3.26574 -21.18385,-3.54956 -35.61568,-5.01377 -37.36063,-3.79085 -1.13221,0.79376 -3.28256,4.11752 -7.61179,11.76521 -6.10268,10.78041 -10.75927,17.09402 -17.76314,24.08288 -9.73786,9.71746 -16.80858,12.81298 -29.09951,12.73996 -11.76855,-0.0706 -21.215272,-4.09055 -28.932448,-12.31346 -8.194272,-8.73142 -8.020668,-14.62964 0.948576,-32.24985 4.393392,-8.63052 8.848248,-15.34756 16.503192,-24.88369 3.22572,-4.01841 6.8661,-8.95916 8.09003,-10.97956 l 2.22473,-3.67338 -2.1361,-11.73204 c -4.44869,-24.43442 -2.29274,-37.70322 7.89522,-48.58945 6.76339,-7.22715 15.00315,-11.06581 26.56494,-12.37553 7.29579,-0.8264 12.26993,-0.11112 17.8882,2.57374 13.16859,6.29193 17.81922,16.51671 19.69172,43.29308 0.86399,12.35315 1.50139,14.73391 4.39415,16.41916 1.51162,0.88038 16.75888,3.65574 53.84572,9.80073 28.45516,4.7148 69.12939,11.52425 90.38686,15.13218 86.28732,14.64499 136.58032,22.86472 170.12582,27.80494 9.81108,1.44501 24.08182,3.68927 31.71268,4.98734 18.95452,3.2241 27.27442,3.283 42.94443,0.30391 32.88883,-6.25242 220.40707,-47.09364 259.6485,-56.55093 5.45045,-1.3134 16.15076,-3.73335 23.77835,-5.3775 14.5091,-3.12708 20.1187,-5.16036 21.95036,-7.95583 0.59712,-0.91125 1.32586,-3.41445 1.61989,-5.56254 1.32547,-9.69278 6.45895,-24.12152 11.08452,-31.15622 9.83537,-14.9574 24.81982,-21.42518 41.99045,-18.12435 6.89828,1.32613 9.6843,2.56281 13.31754,5.9118 5.78245,5.33023 7.85245,11.71953 7.75842,23.94883 -0.0578,7.47005 -0.42949,10.26694 -2.85635,21.47208 -1.59696,7.3748 -2.80855,14.74996 -2.83322,17.24891 -0.0521,5.38455 0.86804,7.48557 9.85771,22.48052 8.80835,14.69227 13.93625,25.06258 14.82086,29.97262 0.90504,5.0235 0.38344,14.00876 -0.96477,16.61583 -3.20877,6.20532 -16.4974,11.50946 -28.90104,11.5359 -11.46797,0.0247 -19.89846,-3.0784 -28.79584,-10.59855 -5.33869,-4.51229 -7.5638,-7.17564 -13.79809,-16.51333 -4.1007,-6.14235 -5.01114,-7.11074 -7.75187,-8.24654 l -3.10568,-1.28714 -7.11351,1.48682 c -3.91244,0.81776 -11.42442,2.18639 -16.69335,3.04154 -5.26895,0.85497 -14.93147,2.60919 -21.47212,3.89809 -6.54085,1.28873 -27.05495,5.01115 -45.58709,8.27195 -64.05295,11.26988 -72.04856,12.69937 -80.27288,14.35147 -10.93944,2.19749 -13.54703,3.97554 -9.61204,6.55386 2.82494,1.85107 7.49618,2.89284 23.45811,5.23199 8.55479,1.25361 23.1764,3.47668 32.49229,4.94004 29.52553,4.63789 48.03648,7.29631 50.80631,7.29631 4.24791,0 6.17784,-1.49406 11.31093,-8.75649 5.52675,-7.8193 16.83422,-19.38678 22.92148,-23.44839 5.39651,-3.60088 9.53246,-4.79524 16.57044,-4.78554 8.94034,0.0174 14.69446,2.05675 22.98815,8.16698 4.75313,3.50211 8.13896,7.80397 10.20512,12.96697 1.94187,4.85204 2.12087,17.3371 0.28883,20.13345 -0.63528,0.96927 -1.58406,2.97873 -2.10874,4.46574 -1.83723,5.20728 -9.29641,15.94717 -18.65546,26.86058 -5.99767,6.99345 -5.22905,4.39395 -6.76069,22.86723 -2.41125,29.08293 -8.18734,42.74827 -20.66381,48.8891 -6.00152,2.95385 -12.91907,4.39807 -20.96112,4.37627 -12.64584,-0.033 -19.08862,-2.97391 -24.783,-11.30807 -5.17896,-7.57961 -6.1971,-11.74582 -8.10583,-33.16726 -0.35435,-3.97854 -0.98191,-7.03335 -1.6567,-8.06324 -1.51641,-2.31395 -8.26518,-4.31766 -26.98037,-8.01007 -8.47424,-1.67211 -19.86705,-4.05773 -25.3179,-5.30208 -5.45044,-1.24416 -17.34289,-3.73067 -26.42716,-5.52546 -16.19837,-3.20028 -36.1317,-7.35346 -67.0594,-13.97239 -8.53918,-1.82762 -19.39094,-4.0855 -24.11478,-5.01773 -4.72403,-0.93225 -13.16898,-2.72279 -18.76703,-3.97888 -5.59784,-1.25628 -15.85479,-3.4349 -22.79335,-4.84163 -6.93854,-1.40655 -16.18332,-3.34528 -20.54395,-4.30839 -10.245,-2.26277 -13.88307,-2.18251 -29.15616,0.64313 -15.48851,2.86567 -94.73979,18.65076 -107.93536,21.49843 -16.16753,3.48905 -73.0139,15.12757 -119.25342,24.41551 -10.90128,2.18986 -22.94209,4.70977 -26.75762,5.60017 -3.81553,0.89039 -9.16714,1.95767 -11.89227,2.37155 -2.72532,0.41428 -7.63105,1.45612 -10.90128,2.31548 -3.27042,0.85956 -9.34478,2.19718 -13.49866,2.97254 -8.37365,1.56286 -11.85488,3.01954 -13.76302,5.75894 -2.07425,2.97793 -2.74614,5.78399 -4.14618,17.31785 -0.73027,6.01771 -1.91855,13.11137 -2.64035,15.76367 -2.57733,9.47273 -7.20945,16.37753 -12.94026,19.28993 -2.99893,1.5242 -3.98258,1.6485 -14.12469,1.7841 -8.04359,0.1079 -11.82424,-0.1136 -14.42259,-0.843 z m 80.16056,-237.43709 -37.65892,-0.35633 -4.95505,-2.55468 c -18.78573,-9.68538 -26.00694,-21.38285 -28.07945,-45.486 l -0.43816,-5.09617 -5.4832,-2.98896 -5.4834,-2.98898 -0.49019,-31.37882 c -0.63143,-40.4156 0.0289,-71.1998 1.56594,-73.03536 0.59405,-0.70891 3.16098,-2.11565 5.70461,-3.12584 l 4.62478,-1.83662 0.42545,-5.93736 c 0.23431,-3.26557 0.45725,-55.52186 0.49578,-116.12517 l 0.0713,-110.1877 2.05921,-4.11043 c 8.3806,-16.7287 23.60668,-28.90925 37.84101,-30.27208 2.94594,-0.28206 135.66584,-0.5316 294.93296,-0.55444 l 289.57636,-0.0416 6.49152,3.21438 c 8.39947,4.15918 11.93965,6.6314 17.36814,12.12846 4.88703,4.94892 9.05017,11.42842 11.19339,17.42188 1.24166,3.47154 1.45496,6.05847 1.92915,23.39333 0.29307,10.71957 0.5927,56.20759 0.66534,101.08446 0.0713,44.87683 0.3135,87.83777 0.53527,95.46869 l 0.40291,13.87434 3.96408,2.10436 c 2.18022,1.15749 4.40997,2.77554 4.95526,3.5954 0.85475,1.28592 1.01775,8.41992 1.18674,51.89242 0.1368,35.3316 -0.0193,50.80228 -0.52121,51.74158 -0.39443,0.73696 -2.76425,2.3709 -5.26663,3.63086 l -4.54927,2.29117 -0.3557,3.48517 c -0.19557,1.91686 -0.53238,5.41771 -0.74818,7.77978 -1.27616,13.9576 -6.59172,24.28486 -17.48877,33.97938 -6.88325,6.1233 -9.5681,7.00208 -25.77243,8.43388 -8.78582,0.7763 -475.41652,1.24989 -548.69709,0.55686 z m 102.17295,-12.15645 c 9.32243,-2.19415 15.74844,-9.18671 17.73867,-19.30159 1.92954,-9.80761 -3.6949,-20.89229 -12.89826,-25.42117 -2.82204,-1.38874 -4.219,-1.61716 -9.89297,-1.61716 -7.62661,0 -10.21629,0.74031 -14.90063,4.26005 -12.34814,9.27824 -13.07264,26.44742 -1.55977,36.96941 5.8362,5.33411 13.16589,7.07529 21.51296,5.11046 z m 332.67011,-0.95606 c 4.42576,-2.28429 10.52323,-8.37495 12.57629,-12.56268 1.54937,-3.16025 1.83762,-4.58357 1.83049,-9.03659 0,-4.522 -0.30348,-5.91162 -2.05132,-9.62063 -2.41741,-5.13038 -7.38903,-10.37205 -11.92038,-12.56796 -2.42917,-1.17726 -4.63675,-1.6103 -9.24228,-1.81261 -5.43504,-0.23902 -6.43256,-0.0917 -9.80376,1.45206 -2.4016,1.09963 -5.35314,3.32746 -8.19715,6.1875 -3.87989,3.90197 -4.64022,5.0854 -5.99016,9.32128 -1.42412,4.46856 -1.4829,5.19619 -0.74357,9.20823 1.96191,10.64688 7.88771,17.70081 17.09338,20.34723 4.61131,1.32559 13.01136,0.85798 16.44846,-0.91583 z m -252.9797,-9.61939 c 5.82154,-2.122 10.16773,-6.88143 12.35488,-13.5302 1.6725,-5.08346 1.19908,-15.14523 -0.90272,-19.18762 -2.04804,-3.93938 -7.34376,-9.09675 -11.14234,-10.85133 -2.61741,-1.20881 -4.31496,-1.44482 -10.39549,-1.44482 -6.69537,0 -7.54627,0.14643 -10.80609,1.86341 -9.78198,5.15136 -14.9831,16.2371 -12.4445,26.52432 1.86885,7.57237 7.00156,13.81771 13.67074,16.63365 5.14042,2.17051 13.69886,2.16733 19.66552,0 z m 174.1057,1.24234 c 7.0426,-1.83448 12.4495,-6.69692 16.49817,-14.83762 3.05462,-6.14146 2.94806,-10.0304 -0.46417,-16.94021 -3.06984,-6.21625 -8.59833,-12.09912 -12.59151,-13.39843 -1.45341,-0.4729 -5.68244,-1.02238 -9.39777,-1.221 -6.36088,-0.34007 -6.96572,-0.25806 -10.3662,1.40569 -4.20418,2.05689 -9.85559,7.89302 -11.89072,12.2792 -1.1297,2.43459 -1.375,4.22973 -1.35457,9.91027 0.0212,5.97795 0.2478,7.39384 1.63608,10.24065 3.00857,6.16934 8.98832,10.83156 16.17755,12.61296 4.50919,1.11743 7.31235,1.1051 11.75314,-0.0512 z M 375.87624,607.37789 c 12.04525,-1.87823 30.63558,-15.52379 36.42785,-26.73866 11.34928,-21.97305 8.3937,-47.80329 -7.40137,-64.68836 -11.08741,-11.85264 -21.98157,-16.75716 -39.81601,-17.92558 -8.35458,-0.54732 -13.23873,0.29441 -20.84031,3.59136 -14.95958,6.48834 -24.31034,15.09791 -30.57315,28.15002 -4.19878,8.75076 -5.40497,14.84508 -5.02751,25.40342 0.27342,7.65226 0.61158,9.84235 2.32935,15.08332 2.54189,7.75546 6.35145,14.18145 11.88456,20.04719 7.42584,7.87152 21.06999,15.86758 29.07812,17.04094 5.44929,0.79835 18.9206,0.81882 23.93847,0.037 z m 322.74361,0 c 11.71133,-1.66499 27.01775,-12.3907 35.15903,-24.63711 9.63323,-14.49049 11.45718,-34.20147 4.67644,-50.53783 -5.1171,-12.3277 -14.61315,-21.99348 -28.67021,-29.18231 -7.05185,-3.60635 -12.43216,-4.68015 -23.63692,-4.71739 -9.64922,-0.0324 -14.04319,0.6073 -18.58051,2.70358 -1.45341,0.6715 -4.29068,1.98403 -6.305,2.91664 -4.8144,2.22916 -12.7416,9.08358 -17.87086,15.45206 -7.81814,9.70706 -11.83136,20.86891 -11.83136,32.90595 0,16.47929 5.43908,29.68369 16.59836,40.2967 7.73202,7.35329 18.56164,13.56512 25.68535,14.73319 5.01845,0.8227 19.18881,0.8608 24.77568,0.0671 z M 594.17226,566.1276 c 2.78274,-3.64815 3.12669,-7.58313 2.90568,-33.24316 -0.17919,-20.72952 -0.3399,-23.84444 -1.32836,-25.6491 -2.21818,-4.05039 0.62468,-3.89208 -69.89841,-3.89208 -35.42898,0 -65.54469,0.23897 -66.92373,0.53105 -1.84689,0.39112 -2.69662,1.00048 -3.22457,2.31239 -0.96457,2.39724 -1.49658,30.35077 -0.88712,46.61073 0.46302,12.34271 0.56071,13.05341 1.90179,13.82195 1.36632,0.78301 28.9365,1.19275 112.16477,1.66708 l 23.54116,0.13411 1.74879,-2.29309 z"
         id="path3145"
         style="fill:#ffffff"
         inkscape:connector-curvature="0" />
    </g>
    <text
       xml:space="preserve"
       style="color:#000000;font-style:normal;font-variant:normal;font-weight:normal;font-stretch:normal;font-size:24.48119736px;line-height:150%;font-family:Helvetica;-inkscape-font-specification:Helvetica;text-indent:0;text-align:start;text-decoration:none;text-decoration-line:none;text-decoration-style:solid;text-decoration-color:#000000;letter-spacing:0px;word-spacing:0px;text-transform:none;direction:ltr;block-progression:tb;writing-mode:lr-tb;baseline-shift:baseline;text-anchor:start;white-space:normal;clip-rule:nonzero;display:inline;overflow:visible;visibility:visible;opacity:1;isolation:auto;mix-blend-mode:normal;color-interpolation:sRGB;color-interpolation-filters:linearRGB;solid-color:#000000;solid-opacity:1;fill:#000000;fill-opacity:1;fill-rule:nonzero;stroke:none;stroke-width:1px;stroke-linecap:butt;stroke-linejoin:miter;stroke-miterlimit:4;stroke-dasharray:none;stroke-dashoffset:0;stroke-opacity:1;marker:none;color-rendering:auto;image-rendering:auto;shape-rendering:auto;text-rendering:auto;enable-background:accumulate"
       x="428.34283"
       y="92.763702"
       id="text8222"
       sodipodi:linespacing="150%"
       transform="scale(0.9803442,1.0200499)"><tspan
         sodipodi:role="line"
         x="428.34283"
         y="92.763702"
         id="tspan8226"
         style="font-style:normal;font-variant:normal;font-weight:800;font-stretch:normal;font-size:73.44358826px;line-height:150%;font-family:'Open Sans';-inkscape-font-specification:'Open Sans Ultra-Bold';text-align:start;text-anchor:start;fill:#ffffff">XYZ</tspan><tspan
         sodipodi:role="line"
         x="428.34283"
         y="202.92908"
         style="font-style:normal;font-variant:normal;font-weight:800;font-stretch:normal;font-size:73.44358826px;line-height:150%;font-family:'Open Sans';-inkscape-font-specification:'Open Sans Ultra-Bold';text-align:start;text-anchor:start;fill:#ffffff"
         id="tspan8089">Pirates</tspan></text>
    <text
       xml:space="preserve"
       style="color:#000000;font-style:normal;font-variant:normal;font-weight:normal;font-stretch:normal;font-size:24px;line-height:1000%;font-family:Helvetica;-inkscape-font-specification:Helvetica;text-indent:0;text-align:start;text-decoration:none;text-decoration-line:none;text-decoration-style:solid;text-decoration-color:#000000;letter-spacing:0px;word-spacing:0px;text-transform:none;direction:ltr;block-progression:tb;writing-mode:lr-tb;baseline-shift:baseline;text-anchor:start;white-space:normal;clip-rule:nonzero;display:inline;overflow:visible;visibility:visible;opacity:1;isolation:auto;mix-blend-mode:normal;color-interpolation:sRGB;color-interpolation-filters:linearRGB;solid-color:#000000;solid-opacity:1;fill:#000000;fill-opacity:1;fill-rule:nonzero;stroke:none;stroke-width:1px;stroke-linecap:butt;stroke-linejoin:miter;stroke-miterlimit:4;stroke-dasharray:none;stroke-dashoffset:0;stroke-opacity:1;marker:none;color-rendering:auto;image-rendering:auto;shape-rendering:auto;text-rendering:auto;enable-background:accumulate"
       x="371.84802"
       y="309.30338"
       id="text8228"
       sodipodi:linespacing="1000%"><tspan
         sodipodi:role="line"
         id="tspan8230"
         x="371.84802"
         y="309.30338"
         style="font-style:normal;font-variant:normal;font-weight:normal;font-stretch:normal;font-size:48px;font-family:'Open Sans';-inkscape-font-specification:'Open Sans Italic';text-align:center;text-anchor:middle">Come have a chat about:</tspan></text>
    <text
       sodipodi:linespacing="125%"
       id="text8238"
       y="874.02856"
       x="369.10583"
       style="color:#000000;font-style:normal;font-variant:normal;font-weight:normal;font-stretch:normal;font-size:24px;line-height:125%;font-family:Helvetica;-inkscape-font-specification:Helvetica;text-indent:0;text-align:start;text-decoration:none;text-decoration-line:none;text-decoration-style:solid;text-decoration-color:#000000;letter-spacing:0px;word-spacing:0px;text-transform:none;direction:ltr;block-progression:tb;writing-mode:lr-tb;baseline-shift:baseline;text-anchor:start;white-space:normal;clip-rule:nonzero;display:inline;overflow:visible;visibility:visible;opacity:1;isolation:auto;mix-blend-mode:normal;color-interpolation:sRGB;color-interpolation-filters:linearRGB;solid-color:#000000;solid-opacity:1;fill:#ffffff;fill-opacity:1;fill-rule:nonzero;stroke:none;stroke-width:1px;stroke-linecap:butt;stroke-linejoin:miter;stroke-miterlimit:4;stroke-dasharray:none;stroke-dashoffset:0;stroke-opacity:1;marker:none;color-rendering:auto;image-rendering:auto;shape-rendering:auto;text-rendering:auto;enable-background:accumulate"
       xml:space="preserve"><tspan
         style="font-style:italic;font-variant:normal;font-weight:600;font-stretch:normal;font-size:48px;line-height:125%;font-family:'Open Sans';-inkscape-font-specification:'Open Sans Semi-Bold Italic';text-align:center;text-anchor:middle;fill:#ffffff"
         y="874.02856"
         x="369.10583"
         sodipodi:role="line"
         id="tspan8252">Next meetup:</tspan><tspan
         style="font-style:italic;font-variant:normal;font-weight:600;font-stretch:normal;font-size:48px;line-height:125%;font-family:'Open Sans';-inkscape-font-specification:'Open Sans Semi-Bold Italic';text-align:center;text-anchor:middle;fill:#ffffff"
         y="934.02856"
         x="375.34021"
         sodipodi:role="line"
         id="tspan8250">DD/MM, Venue Name, Xpm </tspan></text>
    <text
       xml:space="preserve"
       style="color:#000000;font-style:normal;font-variant:normal;font-weight:normal;font-stretch:normal;font-size:24px;line-height:1000%;font-family:Helvetica;-inkscape-font-specification:Helvetica;text-indent:0;text-align:start;text-decoration:none;text-decoration-line:none;text-decoration-style:solid;text-decoration-color:#000000;letter-spacing:0px;word-spacing:0px;text-transform:none;direction:ltr;block-progression:tb;writing-mode:lr-tb;baseline-shift:baseline;text-anchor:start;white-space:normal;clip-rule:nonzero;display:inline;overflow:visible;visibility:visible;opacity:1;isolation:auto;mix-blend-mode:normal;color-interpolation:sRGB;color-interpolation-filters:linearRGB;solid-color:#000000;solid-opacity:1;fill:#000000;fill-opacity:1;fill-rule:nonzero;stroke:none;stroke-width:1px;stroke-linecap:butt;stroke-linejoin:miter;stroke-miterlimit:4;stroke-dasharray:none;stroke-dashoffset:0;stroke-opacity:1;marker:none;color-rendering:auto;image-rendering:auto;shape-rendering:auto;text-rendering:auto;enable-background:accumulate"
       x="373.86365"
       y="777.27771"
       id="text8260"
       sodipodi:linespacing="1000%"><tspan
         sodipodi:role="line"
         id="tspan8262"
         x="373.86365"
         y="777.27771"
         style="font-style:normal;font-variant:normal;font-weight:normal;font-stretch:normal;font-size:48px;font-family:'Open Sans';-inkscape-font-specification:'Open Sans';text-align:center;text-anchor:middle">And all sorts of politics!</tspan></text>
    <text
       xml:space="preserve"
       style="color:#000000;font-style:normal;font-variant:normal;font-weight:normal;font-stretch:normal;font-size:24px;line-height:1000%;font-family:Helvetica;-inkscape-font-specification:Helvetica;text-indent:0;text-align:start;text-decoration:none;text-decoration-line:none;text-decoration-style:solid;text-decoration-color:#000000;letter-spacing:0px;word-spacing:0px;text-transform:none;direction:ltr;block-progression:tb;writing-mode:lr-tb;baseline-shift:baseline;text-anchor:start;white-space:normal;clip-rule:nonzero;display:inline;overflow:visible;visibility:visible;opacity:1;isolation:auto;mix-blend-mode:normal;color-interpolation:sRGB;color-interpolation-filters:linearRGB;solid-color:#000000;solid-opacity:1;fill:#ffffff;fill-opacity:1;fill-rule:nonzero;stroke:none;stroke-width:1px;stroke-linecap:butt;stroke-linejoin:miter;stroke-miterlimit:4;stroke-dasharray:none;stroke-dashoffset:0;stroke-opacity:1;marker:none;color-rendering:auto;image-rendering:auto;shape-rendering:auto;text-rendering:auto;enable-background:accumulate;"
       x="354.45963"
       y="1011.1635"
       id="text8272"
       sodipodi:linespacing="1000%"><tspan
         sodipodi:role="line"
         id="tspan8274"
         x="354.45963"
         y="1011.1635"
         style="font-style:normal;font-variant:normal;font-weight:600;font-stretch:normal;font-family:'Open Sans';-inkscape-font-specification:'Open Sans Semi-Bold';text-align:end;text-anchor:end;fill:#ffffff;">XYZ Pirates on Facebook</tspan></text>
    <text
       sodipodi:linespacing="1000%"
       id="text8091"
       y="1011.1635"
       x="388.46298"
       style="color:#000000;font-style:normal;font-variant:normal;font-weight:normal;font-stretch:normal;font-size:24px;line-height:1000%;font-family:Helvetica;-inkscape-font-specification:Helvetica;text-indent:0;text-align:start;text-decoration:none;text-decoration-line:none;text-decoration-style:solid;text-decoration-color:#000000;letter-spacing:0px;word-spacing:0px;text-transform:none;direction:ltr;block-progression:tb;writing-mode:lr-tb;baseline-shift:baseline;text-anchor:start;white-space:normal;clip-rule:nonzero;display:inline;overflow:visible;visibility:visible;opacity:1;isolation:auto;mix-blend-mode:normal;color-interpolation:sRGB;color-interpolation-filters:linearRGB;solid-color:#000000;solid-opacity:1;fill:#ffffff;fill-opacity:1;fill-rule:nonzero;stroke:none;stroke-width:1px;stroke-linecap:butt;stroke-linejoin:miter;stroke-miterlimit:4;stroke-dasharray:none;stroke-dashoffset:0;stroke-opacity:1;marker:none;color-rendering:auto;image-rendering:auto;shape-rendering:auto;text-rendering:auto;enable-background:accumulate;"
       xml:space="preserve"><tspan
         style="font-style:normal;font-variant:normal;font-weight:600;font-stretch:normal;font-family:'Open Sans';-inkscape-font-specification:'Open Sans Semi-Bold';text-align:start;text-anchor:start;fill:#ffffff;"
         y="1011.1635"
         x="388.46298"
         id="tspan8093"
         sodipodi:role="line">@xyzpirates on Twitter</tspan></text>
    <path
       style="fill:#ffffff;fill-rule:evenodd;stroke:#ffffff;stroke-width:1.77165353;stroke-linecap:butt;stroke-linejoin:miter;stroke-opacity:1"
       d="m 372.04724,988.58269 0,28.34641"
       id="path8095"
       inkscape:connector-curvature="0" />
  </g>
</svg>
