<?xml version="1.0" encoding="iso-8859-1"?>
<!-- Generator: Adobe Illustrator 16.0.0, SVG Export Plug-In . SVG Version: 6.00 Build 0)  -->
<!DOCTYPE svg PUBLIC "-//W3C//DTD SVG 1.1//EN" "http://www.w3.org/Graphics/SVG/1.1/DTD/svg11.dtd">
<svg version="1.1" xmlns="http://www.w3.org/2000/svg" xmlns:xlink="http://www.w3.org/1999/xlink" x="0px" y="0px"
	 width="566.853px" height="155.824px" viewBox="0 0 566.853 155.824" style="enable-background:new 0 0 566.853 155.824;"
	 xml:space="preserve">
<g id="Background__x28_for_preview_purposes_x29_" style="display:none;">
	<rect x="-20.206" y="-23.559" style="display:inline;fill:#231F20;" width="628.676" height="205.882"/>
</g>
<g id="Text">
	<g>
		<path style="fill:#FFFFFF;" d="M170.345,78.778v16.65h-11.264V41.349h11.264v3.428c1.936-1.936,3.754-3.148,5.457-3.638
			c1.702-0.49,3.778-0.735,6.226-0.735c4.314,0,7.882,1.924,10.704,5.771c2.822,3.848,4.221,8.78,4.198,14.796
			c-0.023,6.04-1.458,10.646-4.302,13.817c-2.729,3.055-6.25,5.025-10.564,5.912c-0.7,0.14-3.032,0.082-6.996-0.175
			C173.435,80.41,171.86,79.827,170.345,78.778z M177.831,49.5c-2.402,0-4.256,0.991-5.562,2.974
			c-1.282,1.958-1.924,4.792-1.924,8.5v9.725c0.443,1.166,2.938,1.749,7.486,1.749c2.425,0,4.272-0.979,5.545-2.938
			c1.269-1.959,1.905-4.804,1.905-8.536c0-3.731-0.641-6.576-1.924-8.535C182.075,50.479,180.232,49.5,177.831,49.5z"/>
		<path style="fill:#FFFFFF;" d="M205.362,26.098h11.264v10.214h-11.264V26.098z M205.362,41.349h11.264v39.178h-11.264V41.349z"/>
		<path style="fill:#FFFFFF;" d="M241.186,55.761c-1.562,2.519-2.344,4.757-2.344,6.716v18.05h-11.263V41.349h11.263v6.437
			c1.446-2.565,3.113-4.431,5.002-5.597c1.866-1.189,4.116-1.784,6.751-1.784c0.374,0,0.781,0.012,1.225,0.035
			c0.163,0,0.804,0.082,1.924,0.245v8.535C248.333,48.8,244.147,50.98,241.186,55.761z"/>
		<path style="fill:#FFFFFF;" d="M292.541,78.253c-4.454,2.286-9.958,3.428-16.51,3.428c-8.045,0-13.292-1.224-15.741-3.672
			c-2.285-2.286-3.428-5.364-3.428-9.235c0-4.594,1.422-7.964,4.267-10.109c2.845-2.146,7.309-3.218,13.395-3.218h6.646v-0.979
			c0-1.982-0.704-3.435-2.115-4.354c-1.411-0.923-3.598-1.383-6.56-1.383c-2.425,0-4.673,0.268-6.749,0.805
			c-2.076,0.536-4.011,1.341-5.807,2.414v-9.55c2.425-0.653,4.851-1.143,7.276-1.469c2.588-0.35,5.023-0.524,7.308-0.524
			c6.39,0,10.984,1.388,13.782,4.163c2.822,2.798,4.235,7.334,4.235,13.607V78.253z M275.331,62.897
			c-2.332,0-4.104,0.443-5.317,1.329c-1.236,0.909-1.833,2.215-1.786,3.918c0.047,1.539,0.527,2.775,1.437,3.708
			c0.723,0.746,2.052,1.201,3.988,1.364c3.545,0.303,6.026,0.082,7.448-0.665c0.047-0.023,0.07-2.764,0.07-8.22v-1.434H275.331z"/>
		<path style="fill:#FFFFFF;" d="M298.56,50.304v-1.609l15.146-18.469h1.749v11.124h11.613v8.955h-11.613v16.615
			c0,1.819,0.315,3.043,0.945,3.673c0.652,0.653,1.947,0.979,3.882,0.979h5.807v8.955h-9.654c-4.454,0-7.614-1.026-9.479-3.079
			c-1.866-2.052-2.798-5.562-2.798-10.529V50.304H298.56z"/>
		<path style="fill:#FFFFFF;" d="M369.292,60.833v3.568h-26.34c0.256,2.938,1.208,5.142,2.85,6.611
			c1.646,1.469,3.937,2.204,6.875,2.204c2.378,0,4.808-0.389,7.294-1.173c2.481-0.779,5.03-1.964,7.642-3.549v9.654
			c-2.659,1.12-5.324,1.966-7.992,2.537c-2.672,0.569-5.335,0.856-7.994,0.856c-6.389,0-11.352-1.803-14.882-5.403
			c-3.536-3.605-5.301-8.658-5.301-15.165c0-6.39,1.737-11.415,5.212-15.076s8.255-5.492,14.342-5.492
			c5.55,0,9.986,1.854,13.311,5.562C367.629,49.674,369.292,54.63,369.292,60.833z M357.713,56.67c0-2.379-0.625-4.295-1.87-5.755
			c-1.25-1.455-2.887-2.185-4.916-2.185c-2.168,0-3.936,0.683-5.298,2.045c-1.367,1.366-2.223,3.33-2.572,5.895H357.713z"/>
	</g>
	<g>
		<path style="fill:#FFFFFF;" d="M385.023,78.498v16.93h-6.471V41.349h6.471v5.492c1.749-2.588,3.556-4.309,5.422-5.16
			s4.232-1.277,7.102-1.277c4.757,0,8.621,1.889,11.597,5.667c2.971,3.778,4.459,8.745,4.459,14.901
			c0,6.157-1.488,10.972-4.459,14.447c-2.976,3.475-6.84,5.212-11.597,5.212c-2.869,0-4.921-0.1-6.157-0.296
			C390.153,80.137,388.031,79.524,385.023,78.498z M406.92,60.973c0-4.734-0.975-8.448-2.922-11.14
			c-1.947-2.696-4.622-4.041-8.026-4.041c-2.915,0-5.375,0.781-7.381,2.343c-1.959,1.539-3.148,4.291-3.568,8.255v15.811
			c3.335,2.029,6.984,3.043,10.949,3.043c3.404,0,6.079-1.206,8.026-3.622C405.946,69.212,406.92,65.66,406.92,60.973z"/>
		<path style="fill:#FFFFFF;" d="M437.565,81.191c-5.224,0.094-9.293-1.084-12.208-3.533c-2.262-1.912-3.393-4.757-3.393-8.535
			c0-4.408,1.474-7.731,4.424-9.97s7.353-3.358,13.206-3.358h9.024v-0.629c0-2.962-0.975-5.254-2.922-6.873
			c-1.947-1.623-4.681-2.432-8.201-2.432c-2.239,0-4.42,0.268-6.542,0.804s-4.162,1.341-6.121,2.414v-5.946
			c2.355-0.91,4.641-1.592,6.856-2.046c2.215-0.455,4.372-0.682,6.471-0.682c5.667,0,9.899,1.469,12.698,4.408
			c2.798,2.938,4.197,7.345,4.197,13.222v0.14l-0.035,19.659C450.542,79.979,444.724,81.098,437.565,81.191z M442.217,60.833
			c-5.2,0-8.803,0.595-10.809,1.784c-2.006,1.189-3.009,3.218-3.009,6.087c0,2.262,0.781,4.116,2.345,5.562
			c1.562,1.445,3.579,2.168,6.051,2.168c0.07,0,0.141,0,0.21,0c5.527,0,9.398-0.618,11.613-1.854c0-6.623,0-10.727,0-12.313v-1.434
			H442.217z"/>
		<path style="fill:#FFFFFF;" d="M487.871,46.771c-0.723-0.419-1.504-0.66-2.344-0.716c-0.84-0.061-1.771-0.03-2.798,0.086
			c-3.521,0.443-6.285,2.168-8.29,5.177c-2.006,3.008-3.009,6.728-3.009,11.159v18.05h-6.472V41.349h6.472v5.771
			c1.353-2.378,3.113-4.092,5.282-5.142c2.169-1.05,4.804-1.574,7.905-1.574c0.443,0,0.933,0.029,1.47,0.087
			c0.536,0.058,1.131,0.146,1.783,0.262V46.771z"/>
		<path style="fill:#FFFFFF;" d="M493.225,46.352v-5.072h4.723v-4.932l6.471-6.122v11.124h13.258v5.002h-13.258v21.268
			c0,3.195,0.437,5.247,1.312,6.157c0.873,0.909,2.652,1.364,5.334,1.364h6.611v5.387h-6.611c-4.968,0-8.396-0.928-10.284-2.78
			c-1.889-1.856-2.833-5.231-2.833-10.128V46.352H493.225z"/>
		<path style="fill:#FFFFFF;" d="M530.518,97.702l6.996-17.805l-15.846-38.548h6.821l12.243,30.643l12.242-30.643h6.821
			l-22.457,56.353H530.518z"/>
	</g>
	<path style="fill:#FFFFFF;" d="M166.69,133.23c-2.959,0.051-5.266-0.616-6.919-2.003c-1.28-1.085-1.921-2.696-1.921-4.837
		c0-2.498,0.835-4.382,2.509-5.65c1.67-1.27,4.165-1.903,7.481-1.903h5.114v-0.354c0-1.679-0.552-2.978-1.653-3.896
		c-1.105-0.919-2.654-1.378-4.65-1.378c-1.269,0-2.504,0.153-3.708,0.457c-1.201,0.303-2.357,0.76-3.467,1.366v-3.367
		c1.336-0.518,2.628-0.902,3.885-1.161c1.257-0.257,2.479-0.388,3.668-0.388c3.208,0,5.608,0.835,7.194,2.5s2.379,4.16,2.379,7.49
		v0.079l-0.021,11.143C174.043,132.542,170.746,133.176,166.69,133.23z M169.328,121.691c-2.947,0-4.99,0.338-6.126,1.012
		c-1.135,0.674-1.705,1.824-1.705,3.449c0,1.282,0.443,2.332,1.329,3.15c0.884,0.821,2.029,1.231,3.428,1.231c0.04,0,0.08,0,0.119,0
		c3.132,0,5.324-0.352,6.581-1.052c0-3.752,0-6.079,0-6.978v-0.813H169.328z"/>
	<path style="fill:#FFFFFF;" d="M205.376,132.712c-1.39,0.41-3.148,0.664-5.284,0.765c-2.134,0.098-3.974,0.149-5.52,0.149
		c-2.549,0-4.487-0.793-5.809-2.379c-1.32-1.586-1.982-3.972-1.982-7.157v-13.438h3.647v12.408c0,2.987,0.233,4.811,0.695,5.471
		c0.793,1.109,2.202,1.69,4.221,1.744c0.583,0.015,1.506,0.04,2.775,0.079c2.115-0.025,3.318-0.252,3.61-0.674
		c0-4.281,0-6.43,0-6.44v-12.588h3.647V132.712z"/>
	<path style="fill:#FFFFFF;" d="M230.085,111.304v3.451c-1.03-0.529-2.104-0.926-3.213-1.189c-1.11-0.266-2.257-0.396-3.446-0.396
		c-1.812,0-3.169,0.274-4.074,0.83c-0.907,0.555-1.359,1.39-1.359,2.499c0,0.845,0.326,1.51,0.972,1.992s1.95,0.941,3.906,1.376
		l1.248,0.279c2.591,0.556,4.431,1.337,5.52,2.349c1.092,1.01,1.637,2.421,1.637,4.232c0,2.062-0.816,3.691-2.449,4.895
		c-1.632,1.204-3.875,1.804-6.73,1.804c-1.189,0-2.428-0.115-3.717-0.346c-1.287-0.23-2.645-0.578-4.071-1.04v-3.769
		c1.348,0.702,2.674,1.227,3.983,1.576c1.308,0.35,2.603,0.527,3.885,0.527c1.716,0,3.041-0.297,3.965-0.884
		c0.923-0.588,1.387-1.416,1.387-2.488c0-0.989-0.333-1.749-1-2.278s-2.131-1.038-4.391-1.527l-1.269-0.296
		c-2.26-0.477-3.892-1.206-4.895-2.19c-1.005-0.983-1.506-2.336-1.506-4.053c0-2.09,0.739-3.701,2.22-4.837
		c1.479-1.138,3.58-1.707,6.301-1.707c1.348,0,2.616,0.101,3.806,0.299C227.982,110.612,229.081,110.908,230.085,111.304z"/>
	<path style="fill:#FFFFFF;" d="M237.392,113.487v-2.875h2.675v-2.796l3.668-3.468v6.304h7.511v2.835h-7.511v12.052
		c0,1.81,0.25,2.971,0.744,3.488c0.494,0.514,1.501,0.772,3.022,0.772h3.745v3.053h-3.745c-2.814,0-4.757-0.525-5.828-1.576
		c-1.07-1.05-1.607-2.962-1.607-5.737v-12.052H237.392z"/>
	<path style="fill:#FFFFFF;" d="M272.477,113.725c-0.408-0.238-0.851-0.376-1.327-0.408c-0.476-0.032-1.005-0.017-1.586,0.049
		c-1.994,0.252-3.561,1.231-4.699,2.934c-1.135,1.707-1.702,3.813-1.702,6.324v10.229h-3.668v-22.2h3.668v3.269
		c0.765-1.348,1.763-2.317,2.992-2.912s2.722-0.894,4.48-0.894c0.252,0,0.527,0.019,0.833,0.052c0.306,0.032,0.642,0.081,1.01,0.149
		V113.725z"/>
	<path style="fill:#FFFFFF;" d="M286.275,133.23c-2.959,0.051-5.263-0.616-6.917-2.003c-1.28-1.085-1.924-2.696-1.924-4.837
		c0-2.498,0.837-4.382,2.509-5.65c1.67-1.27,4.166-1.903,7.484-1.903h5.111v-0.354c0-1.679-0.55-2.978-1.653-3.896
		s-2.654-1.378-4.647-1.378c-1.271,0-2.507,0.153-3.708,0.457c-1.201,0.303-2.358,0.76-3.468,1.366v-3.367
		c1.334-0.518,2.628-0.902,3.885-1.161c1.254-0.257,2.477-0.388,3.666-0.388c3.211,0,5.609,0.835,7.194,2.5
		c1.586,1.665,2.379,4.16,2.379,7.49v0.079l-0.019,11.143C293.63,132.542,290.333,133.176,286.275,133.23z M288.913,121.691
		c-2.945,0-4.988,0.338-6.124,1.012c-1.138,0.674-1.707,1.824-1.707,3.449c0,1.282,0.443,2.332,1.33,3.15
		c0.886,0.821,2.028,1.231,3.428,1.231c0.042,0,0.079,0,0.119,0c3.134,0,5.326-0.352,6.581-1.052c0-3.752,0-6.079,0-6.978v-0.813
		H288.913z"/>
	<path style="fill:#FFFFFF;" d="M306.743,102.009h3.647v30.843h-3.647V102.009z"/>
	<path style="fill:#FFFFFF;" d="M321.066,102.009h3.647v4.617h-3.647V102.009z M321.066,110.652h3.647v22.2h-3.647V110.652z"/>
	<path style="fill:#FFFFFF;" d="M342.842,133.23c-2.959,0.051-5.266-0.616-6.917-2.003c-1.282-1.085-1.921-2.696-1.921-4.837
		c0-2.498,0.835-4.382,2.507-5.65c1.672-1.27,4.165-1.903,7.483-1.903h5.112v-0.354c0-1.679-0.55-2.978-1.653-3.896
		s-2.654-1.378-4.648-1.378c-1.269,0-2.504,0.153-3.708,0.457c-1.203,0.303-2.36,0.76-3.47,1.366v-3.367
		c1.336-0.518,2.63-0.902,3.885-1.161c1.256-0.257,2.479-0.388,3.668-0.388c3.211,0,5.608,0.835,7.194,2.5
		c1.586,1.665,2.379,4.16,2.379,7.49v0.079l-0.019,11.143C350.197,132.542,346.9,133.176,342.842,133.23z M345.479,121.691
		c-2.948,0-4.988,0.338-6.126,1.012c-1.135,0.674-1.702,1.824-1.702,3.449c0,1.282,0.44,2.332,1.327,3.15
		c0.886,0.821,2.029,1.231,3.43,1.231c0.038,0,0.08,0,0.117,0c3.134,0,5.326-0.352,6.581-1.052c0-3.752,0-6.079,0-6.978v-0.813
		H345.479z"/>
</g>
<g id="Signet">
	<polygon style="fill:#FFFFFF;" points="99.911,84.769 97.45,84.546 97.035,86.982 95.673,84.919 93.51,86.115 94.275,83.763 
		91.993,82.817 94.307,81.949 93.623,79.575 95.743,80.844 97.175,78.829 97.506,81.277 99.975,81.138 98.266,82.923 	"/>
	<polygon style="fill:#FFFFFF;" points="111.137,59.954 108.676,59.73 108.261,62.165 106.9,60.103 104.738,61.297 105.501,58.949 
		103.218,58.002 105.532,57.135 104.85,54.758 106.971,56.027 108.401,54.012 108.732,56.46 111.201,56.325 109.492,58.109 	"/>
	<polygon style="fill:#FFFFFF;" points="98.729,49.315 96.269,49.096 95.853,51.531 94.493,49.469 92.328,50.663 93.093,48.312 
		90.81,47.366 93.125,46.498 92.441,44.124 94.562,45.393 95.993,43.377 96.324,45.827 98.791,45.687 97.083,47.473 	"/>
	<polygon style="fill:#FFFFFF;" points="85.731,64.091 83.271,63.867 82.854,66.301 81.495,64.24 79.331,65.434 80.094,63.083 
		77.811,62.139 80.126,61.269 79.442,58.895 81.563,60.164 82.994,58.149 83.325,60.597 85.794,60.458 84.084,62.244 	"/>
	<polygon style="fill:#FFFFFF;" points="102.204,69.52 100.752,68.675 99.238,69.398 99.587,67.757 98.434,66.54 100.103,66.364 
		100.905,64.891 101.586,66.425 103.235,66.731 101.988,67.854 	"/>
	<g>
		<path style="fill:#FFFFFF;stroke:#FFFFFF;stroke-width:5;stroke-miterlimit:10;" d="M137.716,89.588
			c-6.306,35.201-39.958,58.633-75.165,52.325c-35.207-6.306-58.637-39.957-52.33-75.158c6.304-35.206,39.956-58.63,75.165-52.323
			C120.591,20.737,144.02,54.387,137.716,89.588L137.716,89.588z"/>
		<g>
			<path d="M83.782,23.389c-30.26-5.419-59.186,14.72-64.604,44.976c-5.42,30.26,14.716,59.188,44.976,64.61
				c30.259,5.415,59.183-14.727,64.602-44.984C134.176,57.735,114.041,28.809,83.782,23.389L83.782,23.389z M137.713,89.595
				c-6.306,35.206-39.957,58.638-75.165,52.334C27.34,135.622,3.912,101.968,10.22,66.76c6.304-35.206,39.958-58.635,75.166-52.328
				C120.591,20.737,144.02,54.391,137.713,89.595L137.713,89.595z"/>
			<path style="fill:#FFFFFF;" d="M74.038,145.454c-3.973,0-7.986-0.357-11.929-1.063c-17.686-3.169-33.08-13.034-43.344-27.779
				C8.499,101.866,4.591,84.004,7.759,66.319C13.508,34.211,41.32,10.907,73.89,10.907c3.976,0,7.992,0.358,11.937,1.065
				c17.684,3.167,33.076,13.032,43.341,27.776c10.265,14.745,14.173,32.604,11.006,50.288
				C134.423,122.147,106.608,145.454,74.038,145.454z M73.89,15.907c-30.145,0-55.887,21.572-61.209,51.294
				c-2.933,16.371,0.685,32.904,10.187,46.554c9.502,13.648,23.751,22.781,40.122,25.714c3.652,0.654,7.37,0.985,11.048,0.985
				c30.146,0,55.891-21.574,61.215-51.299c2.932-16.37-0.686-32.901-10.188-46.55s-23.75-22.78-40.12-25.711
				C81.291,16.239,77.571,15.907,73.89,15.907z M74.023,136.355C74.021,136.355,74.024,136.355,74.023,136.355
				c-3.435,0-6.904-0.31-10.311-0.919c-31.569-5.656-52.651-35.942-46.997-67.512c4.972-27.765,29.023-47.917,57.188-47.917
				c3.437,0,6.908,0.31,10.318,0.92c15.292,2.739,28.601,11.27,37.478,24.021c8.876,12.75,12.255,28.193,9.516,43.483
				C126.243,116.199,102.188,136.355,74.023,136.355z M73.905,25.007c-25.74,0-47.722,18.42-52.267,43.798
				c-5.169,28.856,14.101,56.539,42.956,61.708c3.117,0.558,6.289,0.841,9.428,0.841c25.742,0,47.726-18.422,52.272-43.805
				c2.504-13.976-0.585-28.091-8.698-39.746C109.483,36.15,97.318,28.353,83.341,25.85C80.221,25.291,77.046,25.007,73.905,25.007z"
				/>
		</g>
		<g>
			<polygon style="stroke:#FFFFFF;stroke-width:5;stroke-miterlimit:10;" points="49.674,32.691 50.004,98.056 57.128,94.95 
				55.864,91.806 53.914,33.449 49.674,32.691 			"/>
			<path style="stroke:#FFFFFF;stroke-width:5;stroke-miterlimit:10;" d="M43.733,45.493c0,0,60.699-23.026,69.619,18.67
				c0,0,5.716,19.558-22.992,26.528c0,0-19.617,4.877-21.554,4.893c-1.947,0.02-1.947,0.02-1.947,0.02s-19.291,3.84-14.798,27.627
				c0,0-14.917-21.275,12.979-38.168c0,0,10.796-9.016,7.42-22.749C72.46,62.313,69.118,46.001,43.733,45.493L43.733,45.493z"/>
			<polygon style="stroke:#FFFFFF;stroke-width:5;stroke-miterlimit:10;" points="49.981,93.335 49.928,104.606 57.549,96.667 
				49.981,93.335 			"/>
			<path style="stroke:#FFFFFF;stroke-width:5;stroke-miterlimit:10;" d="M84.589,92.105c0,0-29.423,4.918-32.373,17.679
				c-2.95,12.763-3.591-19.303,15.273-20.748c18.864-1.433,1.617-0.877,1.617-0.877l17.984-1.609l-2.268,4.242"/>
		</g>
	</g>
	<g>
		<path style="fill:#FFFFFF;" d="M137.715,89.176c-6.306,35.201-39.958,58.633-75.165,52.325
			c-35.207-6.306-58.637-39.957-52.33-75.158c6.304-35.206,39.956-58.63,75.165-52.323
			C120.591,20.325,144.019,53.975,137.715,89.176L137.715,89.176z"/>
		<g>
			<path d="M83.781,22.977c-30.26-5.419-59.186,14.72-64.604,44.976c-5.42,30.26,14.716,59.188,44.976,64.61
				c30.259,5.415,59.183-14.727,64.602-44.984C134.175,57.323,114.04,28.396,83.781,22.977L83.781,22.977z M137.713,89.183
				c-6.306,35.206-39.957,58.638-75.165,52.334C27.34,135.209,3.912,101.556,10.22,66.348c6.304-35.206,39.958-58.635,75.166-52.328
				C120.591,20.325,144.019,53.979,137.713,89.183L137.713,89.183z"/>
		</g>
		<g>
			<polygon points="49.674,32.279 50.003,97.644 57.127,94.538 55.864,91.394 53.913,33.037 49.674,32.279 			"/>
			<path d="M43.733,45.081c0,0,60.699-23.026,69.619,18.67c0,0,5.716,19.558-22.992,26.528c0,0-19.617,4.877-21.554,4.893
				c-1.947,0.02-1.947,0.02-1.947,0.02s-19.291,3.84-14.798,27.627c0,0-14.917-21.275,12.979-38.168c0,0,10.796-9.016,7.42-22.749
				C72.459,61.901,69.118,45.589,43.733,45.081L43.733,45.081z"/>
			<polygon points="49.98,92.923 49.928,104.194 57.549,96.255 49.98,92.923 			"/>
			<path d="M84.588,91.693c0,0-29.423,4.918-32.373,17.679c-2.95,12.763-3.591-19.303,15.273-20.748
				c18.864-1.433,1.617-0.877,1.617-0.877l17.984-1.609l-2.268,4.242"/>
		</g>
	</g>
	<polygon style="fill:#FFFFFF;" points="83.579,62.876 81.21,63.548 81.698,65.964 79.692,64.534 78.107,66.418 77.977,63.96 
		75.513,63.894 77.358,62.261 75.87,60.295 78.298,60.713 78.906,58.329 80.092,60.487 82.338,59.476 81.388,61.751 	"/>
	<polygon style="fill:#FFFFFF;" points="95.656,48.257 93.287,48.929 93.774,51.345 91.769,49.915 90.184,51.799 90.054,49.34 
		87.589,49.275 89.435,47.642 87.947,45.676 90.375,46.094 90.983,43.709 92.169,45.868 94.415,44.856 93.465,47.132 	"/>
	<polygon style="fill:#FFFFFF;" points="109.004,59.062 106.635,59.734 107.123,62.15 105.117,60.72 103.532,62.604 103.402,60.146 
		100.938,60.08 102.783,58.447 101.295,56.481 103.723,56.9 104.331,54.515 105.517,56.674 107.763,55.662 106.812,57.937 	"/>
	<polygon style="fill:#FFFFFF;" points="97.562,83.216 95.194,83.888 95.681,86.304 93.676,84.874 92.091,86.758 91.961,84.3 
		89.497,84.234 91.341,82.601 89.854,80.635 92.282,81.053 92.89,78.668 94.076,80.828 96.322,79.816 95.372,82.091 	"/>
	<polygon style="fill:#FFFFFF;" points="99.989,69.461 98.395,68.947 97.069,69.97 97.066,68.297 95.688,67.353 97.275,66.831 
		97.748,65.226 98.735,66.577 100.406,66.531 99.426,67.884 	"/>
</g>
</svg>
