<?xml version="1.0" encoding="iso-8859-1"?>
<!-- Generator: Adobe Illustrator 16.0.0, SVG Export Plug-In . SVG Version: 6.00 Build 0)  -->
<!DOCTYPE svg PUBLIC "-//W3C//DTD SVG 1.1//EN" "http://www.w3.org/Graphics/SVG/1.1/DTD/svg11.dtd">
<svg version="1.1" xmlns="http://www.w3.org/2000/svg" xmlns:xlink="http://www.w3.org/1999/xlink" x="0px" y="0px"
	 width="567.177px" height="156.559px" viewBox="0 0 567.177 156.559" style="enable-background:new 0 0 567.177 156.559;"
	 xml:space="preserve">
<g id="Text">
	<g>
		<path style="fill:#0073AE;" d="M167.668,79.513v16.65h-11.264V42.084h11.264v3.428c1.936-1.936,3.754-3.148,5.457-3.638
			c1.702-0.49,3.778-0.735,6.226-0.735c4.314,0,7.882,1.924,10.704,5.771c2.822,3.848,4.221,8.78,4.198,14.796
			c-0.023,6.04-1.458,10.646-4.302,13.817c-2.729,3.055-6.25,5.025-10.564,5.912c-0.7,0.14-3.032,0.082-6.996-0.175
			C170.758,81.146,169.184,80.562,167.668,79.513z M175.154,50.235c-2.402,0-4.256,0.991-5.562,2.974
			c-1.282,1.958-1.924,4.792-1.924,8.5v9.725c0.443,1.166,2.938,1.749,7.486,1.749c2.425,0,4.272-0.979,5.545-2.938
			c1.269-1.959,1.905-4.804,1.905-8.536c0-3.731-0.641-6.576-1.924-8.535C179.398,51.214,177.556,50.235,175.154,50.235z"/>
		<path style="fill:#0073AE;" d="M202.686,26.833h11.264v10.214h-11.264V26.833z M202.686,42.084h11.264v39.178h-11.264V42.084z"/>
		<path style="fill:#0073AE;" d="M238.51,56.496c-1.562,2.519-2.344,4.757-2.344,6.716v18.05h-11.263V42.084h11.263v6.437
			c1.446-2.565,3.113-4.431,5.002-5.597c1.866-1.189,4.116-1.784,6.751-1.784c0.374,0,0.781,0.012,1.225,0.035
			c0.163,0,0.804,0.082,1.924,0.245v8.535C245.657,49.535,241.471,51.716,238.51,56.496z"/>
		<path style="fill:#0073AE;" d="M289.865,78.988c-4.454,2.286-9.958,3.428-16.51,3.428c-8.045,0-13.292-1.224-15.741-3.672
			c-2.285-2.286-3.428-5.364-3.428-9.235c0-4.594,1.422-7.964,4.267-10.109c2.845-2.146,7.309-3.218,13.395-3.218h6.646v-0.979
			c0-1.982-0.704-3.435-2.115-4.354c-1.411-0.923-3.598-1.383-6.56-1.383c-2.425,0-4.673,0.268-6.749,0.805
			c-2.076,0.536-4.011,1.341-5.807,2.414v-9.55c2.425-0.653,4.851-1.143,7.276-1.469c2.588-0.35,5.023-0.524,7.308-0.524
			c6.39,0,10.984,1.388,13.782,4.163c2.822,2.798,4.235,7.334,4.235,13.607V78.988z M272.655,63.632
			c-2.332,0-4.104,0.443-5.317,1.329c-1.236,0.909-1.833,2.215-1.786,3.918c0.047,1.539,0.527,2.775,1.437,3.708
			c0.723,0.746,2.052,1.201,3.988,1.364c3.545,0.303,6.026,0.082,7.448-0.665c0.047-0.023,0.07-2.764,0.07-8.22v-1.434H272.655z"/>
		<path style="fill:#0073AE;" d="M295.883,51.04V49.43l15.146-18.469h1.749v11.124h11.613v8.955h-11.613v16.615
			c0,1.819,0.315,3.043,0.945,3.673c0.652,0.653,1.947,0.979,3.882,0.979h5.807v8.955h-9.654c-4.454,0-7.614-1.026-9.479-3.079
			c-1.866-2.052-2.798-5.562-2.798-10.529V51.04H295.883z"/>
		<path style="fill:#0073AE;" d="M366.615,61.568v3.568h-26.34c0.256,2.938,1.208,5.142,2.85,6.611
			c1.646,1.469,3.937,2.204,6.875,2.204c2.378,0,4.808-0.389,7.294-1.173c2.481-0.779,5.03-1.964,7.642-3.549v9.654
			c-2.659,1.12-5.324,1.966-7.992,2.537c-2.672,0.569-5.335,0.856-7.994,0.856c-6.389,0-11.352-1.803-14.882-5.403
			c-3.536-3.605-5.301-8.658-5.301-15.165c0-6.39,1.737-11.415,5.212-15.076s8.255-5.492,14.342-5.492
			c5.55,0,9.986,1.854,13.311,5.562C364.953,50.41,366.615,55.365,366.615,61.568z M355.037,57.406c0-2.379-0.625-4.295-1.87-5.755
			c-1.25-1.455-2.887-2.185-4.916-2.185c-2.168,0-3.936,0.683-5.298,2.045c-1.367,1.366-2.223,3.33-2.572,5.895H355.037z"/>
	</g>
	<g>
		<path style="fill:#231F20;" d="M382.347,79.233v16.93h-6.471V42.084h6.471v5.492c1.749-2.588,3.556-4.309,5.422-5.16
			s4.232-1.277,7.102-1.277c4.757,0,8.621,1.889,11.597,5.667c2.971,3.778,4.459,8.745,4.459,14.901
			c0,6.157-1.488,10.972-4.459,14.447c-2.976,3.475-6.84,5.212-11.597,5.212c-2.869,0-4.921-0.1-6.157-0.296
			C387.477,80.873,385.355,80.259,382.347,79.233z M404.244,61.708c0-4.734-0.975-8.448-2.922-11.14
			c-1.947-2.696-4.622-4.041-8.026-4.041c-2.915,0-5.375,0.781-7.381,2.343c-1.959,1.539-3.148,4.291-3.568,8.255v15.811
			c3.335,2.029,6.984,3.043,10.949,3.043c3.404,0,6.079-1.206,8.026-3.622C403.27,69.947,404.244,66.396,404.244,61.708z"/>
		<path style="fill:#231F20;" d="M434.889,81.926c-5.224,0.094-9.293-1.084-12.208-3.533c-2.262-1.912-3.393-4.757-3.393-8.535
			c0-4.408,1.474-7.731,4.424-9.97s7.353-3.358,13.206-3.358h9.024v-0.629c0-2.962-0.975-5.254-2.922-6.873
			c-1.947-1.623-4.681-2.432-8.201-2.432c-2.239,0-4.42,0.268-6.542,0.804s-4.162,1.341-6.121,2.414v-5.946
			c2.355-0.91,4.641-1.592,6.856-2.046c2.215-0.455,4.372-0.682,6.471-0.682c5.667,0,9.899,1.469,12.698,4.408
			c2.798,2.938,4.197,7.345,4.197,13.222v0.14l-0.035,19.659C447.866,80.714,442.048,81.833,434.889,81.926z M439.541,61.568
			c-5.2,0-8.803,0.595-10.809,1.784c-2.006,1.189-3.009,3.218-3.009,6.087c0,2.262,0.781,4.116,2.345,5.562
			c1.562,1.445,3.579,2.168,6.051,2.168c0.07,0,0.141,0,0.21,0c5.527,0,9.398-0.618,11.613-1.854c0-6.623,0-10.727,0-12.313v-1.434
			H439.541z"/>
		<path style="fill:#231F20;" d="M485.194,47.506c-0.723-0.419-1.504-0.66-2.344-0.716c-0.84-0.061-1.771-0.03-2.798,0.086
			c-3.521,0.443-6.285,2.168-8.29,5.177c-2.006,3.008-3.009,6.728-3.009,11.159v18.05h-6.472V42.084h6.472v5.771
			c1.353-2.378,3.113-4.092,5.282-5.142c2.169-1.05,4.804-1.574,7.905-1.574c0.443,0,0.933,0.029,1.47,0.087
			c0.536,0.058,1.131,0.146,1.783,0.262V47.506z"/>
		<path style="fill:#231F20;" d="M490.549,47.087v-5.072h4.723v-4.932l6.471-6.122v11.124H515v5.002h-13.258v21.268
			c0,3.195,0.437,5.247,1.312,6.157c0.873,0.909,2.652,1.364,5.334,1.364H515v5.387h-6.611c-4.968,0-8.396-0.928-10.284-2.78
			c-1.889-1.856-2.833-5.231-2.833-10.128V47.087H490.549z"/>
		<path style="fill:#231F20;" d="M527.842,98.437l6.996-17.805l-15.846-38.548h6.821l12.243,30.643l12.242-30.643h6.821
			l-22.457,56.353H527.842z"/>
	</g>
	<g>
		<path style="fill:#231F20;" d="M159.598,122.975v7.09h-2.71v-22.646h2.71v2.299c0.732-1.084,1.489-1.804,2.271-2.16
			s1.772-0.535,2.974-0.535c1.992,0,3.611,0.791,4.856,2.373s1.868,3.662,1.868,6.24s-0.623,4.596-1.868,6.051
			s-2.864,2.182-4.856,2.182c-1.201,0-2.061-0.041-2.578-0.123C161.747,123.661,160.858,123.405,159.598,122.975z M168.768,115.635
			c0-1.982-0.408-3.537-1.223-4.664c-0.815-1.129-1.936-1.693-3.362-1.693c-1.221,0-2.251,0.328-3.091,0.982
			c-0.82,0.645-1.318,1.797-1.494,3.457v6.621c1.396,0.85,2.925,1.273,4.585,1.273c1.426,0,2.546-0.504,3.362-1.516
			C168.36,119.086,168.768,117.598,168.768,115.635z"/>
		<path style="fill:#231F20;" d="M176.034,101.032h2.695v3.412h-2.695V101.032z M176.034,107.418h2.695v16.406h-2.695V107.418z"/>
		<path style="fill:#231F20;" d="M193.699,109.688c-0.303-0.176-0.63-0.275-0.981-0.299c-0.352-0.025-0.742-0.014-1.172,0.035
			c-1.475,0.186-2.632,0.908-3.472,2.168s-1.26,2.818-1.26,4.674v7.559h-2.71v-16.406h2.71v2.416
			c0.566-0.996,1.304-1.713,2.212-2.152s2.012-0.66,3.311-0.66c0.186,0,0.391,0.013,0.615,0.037s0.474,0.061,0.747,0.109V109.688z"
			/>
		<path style="fill:#231F20;" d="M203.411,124.102c-2.188,0.039-3.892-0.453-5.112-1.479c-0.947-0.801-1.421-1.992-1.421-3.574
			c0-1.846,0.618-3.238,1.853-4.176s3.079-1.406,5.53-1.406h3.779v-0.264c0-1.24-0.408-2.199-1.223-2.877
			c-0.815-0.68-1.96-1.02-3.435-1.02c-0.938,0-1.851,0.113-2.739,0.338s-1.743,0.561-2.563,1.01v-2.49
			c0.986-0.381,1.943-0.666,2.871-0.856s1.831-0.286,2.71-0.286c2.373,0,4.146,0.615,5.317,1.846s1.758,3.076,1.758,5.537v0.059
			l-0.015,8.232C208.845,123.594,206.409,124.063,203.411,124.102z M205.359,115.577c-2.178,0-3.687,0.25-4.526,0.748
			s-1.26,1.348-1.26,2.549c0,0.947,0.327,1.723,0.981,2.328s1.499,0.908,2.534,0.908c0.029,0,0.059,0,0.088,0
			c2.314,0,3.936-0.258,4.863-0.775c0-2.773,0-4.492,0-5.156v-0.602H205.359z"/>
		<path style="fill:#231F20;" d="M214.265,109.512v-2.123h1.978v-2.066l2.71-2.562v4.658h5.552v2.094h-5.552v8.906
			c0,1.338,0.183,2.197,0.549,2.578s1.111,0.572,2.234,0.572h2.769v2.256h-2.769c-2.08,0-3.516-0.389-4.307-1.164
			c-0.791-0.777-1.187-2.191-1.187-4.242v-8.906H214.265z"/>
		<path style="fill:#231F20;" d="M242.083,114.948v1.318H229.69c0.117,1.855,0.676,3.27,1.677,4.24
			c1.001,0.973,2.395,1.457,4.182,1.457c1.035,0,2.039-0.127,3.01-0.381s1.936-0.635,2.893-1.143v2.549
			c-0.967,0.41-1.958,0.723-2.974,0.938s-2.046,0.322-3.091,0.322c-2.617,0-4.69-0.762-6.218-2.285s-2.292-3.584-2.292-6.182
			c0-2.686,0.725-4.816,2.175-6.393c1.45-1.578,3.406-2.367,5.867-2.367c2.207,0,3.953,0.711,5.237,2.133
			C241.44,110.575,242.083,112.506,242.083,114.948z M239.387,114.157c-0.02-1.475-0.432-2.652-1.238-3.531
			s-1.873-1.318-3.201-1.318c-1.504,0-2.708,0.426-3.611,1.275s-1.423,2.045-1.56,3.588L239.387,114.157z"/>
		<path style="fill:#231F20;" d="M249.114,122.975v7.09h-2.71v-22.646h2.71v2.299c0.732-1.084,1.489-1.804,2.271-2.16
			s1.772-0.535,2.974-0.535c1.992,0,3.611,0.791,4.856,2.373s1.868,3.662,1.868,6.24s-0.623,4.596-1.868,6.051
			s-2.864,2.182-4.856,2.182c-1.201,0-2.061-0.041-2.578-0.123C251.262,123.661,250.374,123.405,249.114,122.975z M258.284,115.635
			c0-1.982-0.408-3.537-1.223-4.664c-0.815-1.129-1.936-1.693-3.362-1.693c-1.221,0-2.251,0.328-3.091,0.982
			c-0.82,0.645-1.318,1.797-1.494,3.457v6.621c1.396,0.85,2.925,1.273,4.585,1.273c1.426,0,2.546-0.504,3.362-1.516
			C257.876,119.086,258.284,117.598,258.284,115.635z"/>
		<path style="fill:#231F20;" d="M271.057,124.102c-2.188,0.039-3.892-0.453-5.112-1.479c-0.947-0.801-1.421-1.992-1.421-3.574
			c0-1.846,0.618-3.238,1.853-4.176s3.079-1.406,5.53-1.406h3.779v-0.264c0-1.24-0.408-2.199-1.223-2.877
			c-0.815-0.68-1.96-1.02-3.435-1.02c-0.938,0-1.851,0.113-2.739,0.338s-1.743,0.561-2.563,1.01v-2.49
			c0.986-0.381,1.943-0.666,2.871-0.856s1.831-0.286,2.71-0.286c2.373,0,4.146,0.615,5.317,1.846s1.758,3.076,1.758,5.537v0.059
			l-0.015,8.232C276.492,123.594,274.055,124.063,271.057,124.102z M273.005,115.577c-2.178,0-3.687,0.25-4.526,0.748
			s-1.26,1.348-1.26,2.549c0,0.947,0.327,1.723,0.981,2.328s1.499,0.908,2.534,0.908c0.029,0,0.059,0,0.088,0
			c2.314,0,3.936-0.258,4.863-0.775c0-2.773,0-4.492,0-5.156v-0.602H273.005z"/>
		<path style="fill:#231F20;" d="M292.063,109.688c-0.303-0.176-0.63-0.275-0.981-0.299c-0.352-0.025-0.742-0.014-1.172,0.035
			c-1.475,0.186-2.632,0.908-3.472,2.168s-1.26,2.818-1.26,4.674v7.559h-2.71v-16.406h2.71v2.416
			c0.566-0.996,1.304-1.713,2.212-2.152s2.012-0.66,3.311-0.66c0.186,0,0.391,0.013,0.615,0.037s0.474,0.061,0.747,0.109V109.688z"
			/>
		<path style="fill:#231F20;" d="M294.246,109.512v-2.123h1.978v-2.066l2.71-2.562v4.658h5.552v2.094h-5.552v8.906
			c0,1.338,0.183,2.197,0.549,2.578s1.111,0.572,2.234,0.572h2.769v2.256h-2.769c-2.08,0-3.516-0.389-4.307-1.164
			c-0.791-0.777-1.187-2.191-1.187-4.242v-8.906H294.246z"/>
		<path style="fill:#231F20;" d="M309.802,131.016l2.93-7.455l-6.636-16.143h2.856l5.127,12.832l5.127-12.832h2.856l-9.404,23.598
			H309.802z"/>
		<path style="fill:#231F20;" d="M321.887,120.104h3.091v3.721h-3.091V120.104z"/>
		<path style="fill:#231F20;" d="M337.4,107.022c2.344,0,4.185,0.762,5.522,2.285s2.007,3.633,2.007,6.328
			c0,2.686-0.669,4.793-2.007,6.322c-1.338,1.527-3.179,2.291-5.522,2.291c-2.354,0-4.197-0.764-5.53-2.291
			c-1.333-1.529-2-3.637-2-6.322c0-2.695,0.667-4.805,2-6.328S335.046,107.022,337.4,107.022z M337.4,109.307
			c-1.445,0-2.588,0.564-3.428,1.693c-0.84,1.127-1.26,2.672-1.26,4.635s0.417,3.51,1.252,4.637c0.835,1.129,1.98,1.691,3.435,1.691
			c1.436,0,2.573-0.566,3.413-1.699s1.26-2.676,1.26-4.629c0-1.943-0.42-3.482-1.26-4.621
			C339.973,109.877,338.835,109.307,337.4,109.307z"/>
		<path style="fill:#231F20;" d="M357.527,109.688c-0.303-0.176-0.63-0.275-0.981-0.299c-0.352-0.025-0.742-0.014-1.172,0.035
			c-1.475,0.186-2.632,0.908-3.472,2.168s-1.26,2.818-1.26,4.674v7.559h-2.71v-16.406h2.71v2.416
			c0.566-0.996,1.304-1.713,2.212-2.152s2.012-0.66,3.311-0.66c0.186,0,0.391,0.013,0.615,0.037s0.474,0.061,0.747,0.109V109.688z"
			/>
		<path style="fill:#231F20;" d="M374.695,121.788c0,2.793-0.62,4.871-1.86,6.234c-1.24,1.361-3.14,2.043-5.698,2.043
			c-0.947,0-1.841-0.072-2.681-0.213c-0.84-0.143-1.655-0.359-2.446-0.652v-2.621c0.791,0.43,1.572,0.746,2.344,0.951
			s1.558,0.309,2.358,0.309c1.768,0,3.091-0.461,3.97-1.385c0.879-0.922,1.318-2.316,1.318-4.182v-1.334
			c-0.557,0.967-1.27,1.689-2.139,2.168s-1.909,0.719-3.12,0.719c-2.012,0-3.633-0.768-4.863-2.301s-1.846-3.564-1.846-6.094
			c0-2.539,0.615-4.574,1.846-6.107s2.852-2.301,4.863-2.301c1.211,0,2.251,0.24,3.12,0.719s1.582,1.201,2.139,2.168v-2.49h2.695
			V121.788z M372,115.43c0-1.953-0.402-3.467-1.209-4.541c-0.805-1.074-1.936-1.611-3.391-1.611c-1.445,0-2.57,0.537-3.377,1.611
			c-0.805,1.074-1.208,2.588-1.208,4.541c0,1.943,0.403,3.453,1.208,4.527c0.807,1.074,1.932,1.611,3.377,1.611
			c1.455,0,2.586-0.537,3.391-1.611C371.597,118.883,372,117.374,372,115.43z"/>
		<path style="fill:#231F20;" d="M380.627,120.104h3.091v3.721h-3.091V120.104z"/>
		<path style="fill:#231F20;" d="M395.29,124.102c-2.188,0.039-3.891-0.453-5.111-1.479c-0.948-0.801-1.421-1.992-1.421-3.574
			c0-1.846,0.617-3.238,1.853-4.176c1.234-0.938,3.078-1.406,5.529-1.406h3.779v-0.264c0-1.24-0.408-2.199-1.223-2.877
			c-0.816-0.68-1.961-1.02-3.436-1.02c-0.938,0-1.85,0.113-2.738,0.338s-1.744,0.561-2.564,1.01v-2.49
			c0.986-0.381,1.943-0.666,2.871-0.856s1.832-0.286,2.711-0.286c2.373,0,4.145,0.615,5.316,1.846s1.758,3.076,1.758,5.537v0.059
			l-0.014,8.232C400.726,123.594,398.288,124.063,395.29,124.102z M397.239,115.577c-2.178,0-3.688,0.25-4.527,0.748
			s-1.26,1.348-1.26,2.549c0,0.947,0.328,1.723,0.982,2.328s1.498,0.908,2.533,0.908c0.029,0,0.059,0,0.088,0
			c2.314,0,3.936-0.258,4.863-0.775c0-2.773,0-4.492,0-5.156v-0.602H397.239z"/>
		<path style="fill:#231F20;" d="M421.628,123.721c-1.025,0.303-2.326,0.492-3.904,0.564c-1.576,0.074-2.936,0.109-4.078,0.109
			c-1.885,0-3.316-0.586-4.293-1.758s-1.465-2.934-1.465-5.287v-9.932h2.695v9.17c0,2.207,0.172,3.555,0.514,4.043
			c0.586,0.82,1.625,1.25,3.119,1.289c0.43,0.01,1.113,0.029,2.051,0.059c1.562-0.02,2.451-0.186,2.666-0.498
			c0-3.164,0-4.752,0-4.762v-9.301h2.695V123.721z"/>
	</g>
</g>
<g id="Signet">
	<polygon style="fill:#FFFFFF;" points="97.234,85.504 94.774,85.282 94.359,87.717 92.997,85.655 90.834,86.85 91.599,84.499 
		89.317,83.552 91.63,82.684 90.946,80.311 93.067,81.579 94.499,79.564 94.83,82.013 97.298,81.873 95.59,83.659 	"/>
	<polygon style="fill:#FFFFFF;" points="108.46,60.689 106,60.465 105.585,62.9 104.224,60.838 102.062,62.033 102.825,59.684 
		100.542,58.737 102.855,57.87 102.173,55.494 104.294,56.762 105.725,54.748 106.056,57.196 108.524,57.061 106.815,58.845 	"/>
	<polygon style="fill:#FFFFFF;" points="96.053,50.051 93.593,49.832 93.177,52.266 91.817,50.205 89.652,51.398 90.417,49.048 
		88.134,48.101 90.448,47.233 89.765,44.859 91.886,46.128 93.316,44.112 93.647,46.562 96.115,46.422 94.407,48.208 	"/>
	<polygon style="fill:#FFFFFF;" points="83.055,64.826 80.594,64.603 80.178,67.037 78.818,64.976 76.654,66.169 77.418,63.819 
		75.135,62.874 77.45,62.004 76.766,59.63 78.887,60.899 80.318,58.884 80.649,61.333 83.118,61.193 81.408,62.979 	"/>
	<polygon style="fill:#FFFFFF;" points="99.527,70.255 98.076,69.411 96.562,70.134 96.911,68.492 95.758,67.275 97.427,67.1 
		98.229,65.626 98.91,67.16 100.559,67.466 99.312,68.59 	"/>
	<g>
		<path style="fill:#FFFFFF;" d="M135.039,89.912c-6.306,35.201-39.958,58.633-75.165,52.325
			c-35.207-6.306-58.637-39.957-52.33-75.158c6.304-35.206,39.956-58.63,75.165-52.323C117.915,21.061,141.343,54.71,135.039,89.912
			L135.039,89.912z"/>
		<path d="M81.105,23.712c-30.26-5.419-59.186,14.72-64.604,44.976c-5.42,30.26,14.716,59.188,44.976,64.61
			c30.259,5.415,59.183-14.727,64.602-44.984C131.499,58.059,111.364,29.132,81.105,23.712L81.105,23.712z M135.037,89.918
			c-6.306,35.206-39.957,58.638-75.165,52.334c-35.208-6.308-58.637-39.961-52.329-75.169c6.304-35.206,39.958-58.635,75.166-52.328
			C117.915,21.061,141.343,54.714,135.037,89.918L135.037,89.918z"/>
		<g>
			<polygon points="46.998,33.014 47.327,98.379 54.451,95.273 53.188,92.129 51.237,33.772 46.998,33.014 			"/>
			<path d="M41.057,45.816c0,0,60.699-23.026,69.619,18.67c0,0,5.716,19.558-22.992,26.528c0,0-19.617,4.877-21.554,4.893
				c-1.947,0.02-1.947,0.02-1.947,0.02s-19.291,3.84-14.798,27.627c0,0-14.917-21.275,12.979-38.168c0,0,10.796-9.016,7.42-22.749
				C69.783,62.637,66.441,46.324,41.057,45.816L41.057,45.816z"/>
			<polygon points="47.304,93.659 47.251,104.929 54.873,96.991 47.304,93.659 			"/>
			<path d="M81.912,92.428c0,0-29.423,4.918-32.373,17.679c-2.95,12.763-3.591-19.303,15.273-20.748
				c18.864-1.433,1.617-0.877,1.617-0.877l17.984-1.609l-2.268,4.242"/>
		</g>
	</g>
	<polygon style="fill:#FFFFFF;" points="80.903,63.611 78.534,64.283 79.021,66.699 77.016,65.269 75.431,67.153 75.301,64.695 
		72.836,64.629 74.682,62.996 73.194,61.03 75.622,61.449 76.23,59.064 77.416,61.223 79.662,60.211 78.711,62.486 	"/>
	<polygon style="fill:#FFFFFF;" points="92.979,48.992 90.61,49.664 91.098,52.08 89.093,50.65 87.507,52.534 87.378,50.076 
		84.913,50.01 86.758,48.377 85.271,46.411 87.699,46.83 88.307,44.445 89.493,46.604 91.738,45.592 90.789,47.867 	"/>
	<polygon style="fill:#FFFFFF;" points="106.328,59.798 103.958,60.47 104.446,62.885 102.441,61.455 100.855,63.34 100.726,60.881 
		98.261,60.815 100.106,59.183 98.619,57.217 101.047,57.635 101.655,55.25 102.841,57.409 105.086,56.397 104.136,58.672 	"/>
	<polygon style="fill:#FFFFFF;" points="94.886,83.952 92.518,84.624 93.005,87.04 91,85.609 89.415,87.494 89.285,85.036 
		86.82,84.969 88.665,83.336 87.178,81.37 89.605,81.789 90.213,79.404 91.4,81.563 93.646,80.551 92.695,82.827 	"/>
	<polygon style="fill:#FFFFFF;" points="97.313,70.197 95.718,69.683 94.393,70.705 94.39,69.033 93.012,68.088 94.599,67.566 
		95.071,65.961 96.059,67.312 97.73,67.266 96.75,68.619 	"/>
</g>
</svg>
