<?xml version="1.0" encoding="UTF-8" standalone="no"?>
<!-- Created with Inkscape (http://www.inkscape.org/) -->

<svg
   xmlns:dc="http://purl.org/dc/elements/1.1/"
   xmlns:cc="http://creativecommons.org/ns#"
   xmlns:rdf="http://www.w3.org/1999/02/22-rdf-syntax-ns#"
   xmlns:svg="http://www.w3.org/2000/svg"
   xmlns="http://www.w3.org/2000/svg"
   xmlns:sodipodi="http://sodipodi.sourceforge.net/DTD/sodipodi-0.dtd"
   xmlns:inkscape="http://www.inkscape.org/namespaces/inkscape"
   width="210mm"
   height="210mm"
   viewBox="0 0 744.09449 744.09448"
   id="svg2"
   version="1.1"
   inkscape:version="0.91 r13725"
   sodipodi:docname="uq-pirates.svg"
   inkscape:export-filename="/Users/alexjago/Dropbox/_PPAU/Artwork/UQ-Pirates/uq-pirates.png"
   inkscape:export-xdpi="45"
   inkscape:export-ydpi="45">
  <defs
     id="defs4" />
  <sodipodi:namedview
     id="base"
     pagecolor="#000000"
     bordercolor="#666666"
     borderopacity="1.0"
     inkscape:pageopacity="1"
     inkscape:pageshadow="2"
     inkscape:zoom="0.35"
     inkscape:cx="469.28571"
     inkscape:cy="624.00336"
     inkscape:document-units="px"
     inkscape:current-layer="layer1"
     showgrid="true"
     units="px"
     height="1000px"
     inkscape:window-width="1436"
     inkscape:window-height="855"
     inkscape:window-x="0"
     inkscape:window-y="1"
     inkscape:window-maximized="1">
    <inkscape:grid
       type="xygrid"
       id="grid8173" />
  </sodipodi:namedview>
  <metadata
     id="metadata7">
    <rdf:RDF>
      <cc:Work
         rdf:about="">
        <dc:format>image/svg+xml</dc:format>
        <dc:type
           rdf:resource="http://purl.org/dc/dcmitype/StillImage" />
        <dc:title></dc:title>
      </cc:Work>
    </rdf:RDF>
  </metadata>
  <g
     inkscape:label="Layer 1"
     inkscape:groupmode="layer"
     id="layer1"
     transform="translate(0,-308.26767)">
    <g
       transform="matrix(0.78947343,0,0,0.78947343,-43.358757,-87.348917)"
       id="layer1-3"
       inkscape:label="Layer 1">
      <path
         d="m 184.39063,1218.3564 c -6.46646,-1.8157 -11.53077,-6.1605 -15.11971,-12.9723 l -1.84013,-3.4924 0.33046,-21.8024 c 0.18112,-11.9913 0.31638,-25.073 0.29904,-29.0701 l -0.0328,-7.2674 -4.15812,-9.2495 c -7.7033,-17.1361 -10.65118,-28.0709 -10.6348,-39.448 0.0193,-8.288 1.23742,-13.7969 4.41342,-19.8413 6.54009,-12.4458 24.34427,-23.6356 37.74774,-23.7243 4.14252,-0.028 5.45817,0.2711 9.10394,2.0659 7.27959,3.5838 13.38402,10.9792 16.72611,20.2633 0.76516,2.126 2.69026,9.3657 4.27798,16.0882 l 2.88659,12.2226 8.16961,-0.083 c 8.39389,-0.085 16.88682,-1.2296 80.18367,-10.8077 14.53511,-2.1995 41.88736,-6.3158 60.78291,-9.1476 l 34.35554,-5.1487 0.17341,-2.2719 c 0.0964,-1.2496 -0.0868,-2.6678 -0.40232,-3.1515 -0.70445,-1.0777 -9.39701,-2.5852 -32.80424,-5.689 -9.81108,-1.3009 -22.44671,-3.0992 -28.07886,-3.9963 -5.63235,-0.897 -23.47083,-3.5739 -39.64106,-5.9487 -16.17022,-2.3746 -34.90045,-5.1972 -41.62299,-6.2725 -12.64239,-2.0222 -22.64615,-3.472 -43.60515,-6.3198 -6.72235,-0.9134 -16.53343,-2.3831 -21.80238,-3.2657 -21.18385,-3.5496 -35.61568,-5.0138 -37.36063,-3.7909 -1.13221,0.7938 -3.28256,4.1175 -7.61179,11.7652 -6.10268,10.7804 -10.75927,17.094 -17.76314,24.0829 -9.73786,9.7175 -16.80858,12.813 -29.09951,12.74 -11.76855,-0.071 -21.215271,-4.0906 -28.932447,-12.3135 -8.194272,-8.7314 -8.020668,-14.6296 0.948576,-32.2499 4.393392,-8.6305 8.848248,-15.3475 16.503191,-24.8836 3.22572,-4.0185 6.8661,-8.9592 8.09003,-10.9796 l 2.22473,-3.6734 -2.1361,-11.73196 c -4.44869,-24.4344 -2.29274,-37.7032 7.89522,-48.5895 6.76339,-7.2271 15.00315,-11.0658 26.56494,-12.3755 7.29579,-0.8264 12.26993,-0.1111 17.8882,2.5737 13.16859,6.292 17.81922,16.5167 19.69172,43.2931 0.86399,12.3532 1.50139,14.7339 4.39415,16.4192 1.51162,0.8804 16.75888,3.6557 53.84572,9.80066 28.45516,4.7148 69.12939,11.5243 90.38686,15.1322 86.28732,14.645 136.58032,22.8647 170.12582,27.8049 9.81108,1.445 24.08182,3.6893 31.71268,4.9874 18.95452,3.2241 27.27442,3.283 42.94443,0.3039 32.88883,-6.2524 220.40707,-47.0937 259.6485,-56.55096 5.45045,-1.3134 16.15076,-3.7333 23.77835,-5.3775 14.5091,-3.127 20.1187,-5.1603 21.95036,-7.9558 0.59712,-0.9112 1.32586,-3.4144 1.61989,-5.5625 1.32547,-9.6928 6.45895,-24.1215 11.08452,-31.1562 9.83537,-14.9574 24.81982,-21.42522 41.99045,-18.12439 6.89828,1.32613 9.6843,2.56281 13.31754,5.91179 5.78245,5.3302 7.85245,11.7195 7.75842,23.9488 -0.0578,7.4701 -0.42949,10.267 -2.85635,21.4721 -1.59696,7.3748 -2.80855,14.75 -2.83322,17.2489 -0.0521,5.3846 0.86804,7.4856 9.85771,22.48046 8.80835,14.6923 13.93625,25.0626 14.82086,29.9727 0.90504,5.0235 0.38344,14.0087 -0.96477,16.6158 -3.20877,6.2053 -16.4974,11.5095 -28.90104,11.5359 -11.46797,0.025 -19.89846,-3.0784 -28.79584,-10.5986 -5.33869,-4.5122 -7.5638,-7.1756 -13.79809,-16.5133 -4.1007,-6.1423 -5.01114,-7.1107 -7.75187,-8.2465 l -3.10568,-1.2872 -7.11351,1.4869 c -3.91244,0.8177 -11.42442,2.1863 -16.69335,3.0415 -5.26895,0.855 -14.93147,2.6092 -21.47212,3.8981 -6.54085,1.2887 -27.05495,5.0111 -45.58709,8.2719 -64.05295,11.2699 -72.04856,12.6994 -80.27288,14.3515 -10.93944,2.1975 -13.54703,3.9755 -9.61204,6.5539 2.82494,1.851 7.49618,2.8928 23.45811,5.232 8.55479,1.2536 23.1764,3.4766 32.49229,4.94 29.52553,4.6379 48.03648,7.2963 50.80631,7.2963 4.24791,0 6.17784,-1.4941 11.31093,-8.7565 5.52675,-7.8193 16.83422,-19.3868 22.92148,-23.4484 5.39651,-3.6009 9.53246,-4.7952 16.57044,-4.7855 8.94034,0.017 14.69446,2.0567 22.98815,8.167 4.75313,3.5021 8.13896,7.8039 10.20512,12.9669 1.94187,4.8521 2.12087,17.3371 0.28883,20.1335 -0.63528,0.9693 -1.58406,2.9787 -2.10874,4.4657 -1.83723,5.2073 -9.29641,15.9472 -18.65546,26.8606 -5.99767,6.9935 -5.22905,4.394 -6.76069,22.8672 -2.41125,29.083 -8.18734,42.7483 -20.66381,48.8891 -6.00152,2.9539 -12.91907,4.3981 -20.96112,4.3763 -12.64584,-0.033 -19.08862,-2.9739 -24.783,-11.3081 -5.17896,-7.5796 -6.1971,-11.7458 -8.10583,-33.1672 -0.35435,-3.9786 -0.98191,-7.0334 -1.6567,-8.0633 -1.51641,-2.3139 -8.26518,-4.3176 -26.98037,-8.01 -8.47424,-1.6721 -19.86705,-4.0578 -25.3179,-5.3021 -5.45044,-1.2442 -17.34289,-3.7307 -26.42716,-5.5255 -16.19837,-3.2003 -36.1317,-7.3534 -67.0594,-13.9724 -8.53918,-1.8276 -19.39094,-4.0855 -24.11478,-5.0177 -4.72403,-0.9322 -13.16898,-2.7228 -18.76703,-3.9789 -5.59784,-1.2563 -15.85479,-3.4349 -22.79335,-4.8416 -6.93854,-1.4066 -16.18332,-3.3453 -20.54395,-4.3084 -10.245,-2.2628 -13.88307,-2.1825 -29.15616,0.6431 -15.48851,2.8657 -94.73979,18.6508 -107.93536,21.4985 -16.16753,3.489 -73.0139,15.1275 -119.25342,24.4155 -10.90128,2.1898 -22.94209,4.7097 -26.75762,5.6001 -3.81553,0.8904 -9.16714,1.9577 -11.89227,2.3716 -2.72532,0.4143 -7.63105,1.4561 -10.90128,2.3155 -3.27042,0.8595 -9.34478,2.1972 -13.49866,2.9725 -8.37365,1.5629 -11.85488,3.0196 -13.76302,5.759 -2.07425,2.9779 -2.74614,5.7839 -4.14618,17.3178 -0.73027,6.0177 -1.91855,13.1114 -2.64035,15.7637 -2.57733,9.4727 -7.20945,16.3775 -12.94026,19.2899 -2.99893,1.5242 -3.98258,1.6485 -14.12469,1.7841 -8.04359,0.1079 -11.82424,-0.1136 -14.42259,-0.843 z m 80.16056,-237.43706 -37.65892,-0.3563 -4.95505,-2.5547 c -18.78573,-9.6854 -26.00694,-21.3828 -28.07945,-45.486 l -0.43816,-5.0962 -5.4832,-2.98892 -5.4834,-2.98898 -0.49019,-31.37882 c -0.63143,-40.4156 0.0289,-71.1998 1.56594,-73.03536 0.59405,-0.70891 3.16098,-2.11565 5.70461,-3.12584 l 4.62478,-1.83662 0.42545,-5.93736 c 0.23431,-3.26557 0.45725,-55.52186 0.49578,-116.12517 l 0.0713,-110.1877 2.05921,-4.11043 c 8.3806,-16.7287 23.60668,-28.90925 37.84101,-30.27208 2.94594,-0.28206 135.66584,-0.5316 294.93296,-0.55444 l 289.57636,-0.0416 6.49152,3.21438 c 8.39947,4.15918 11.93965,6.6314 17.36814,12.12846 4.88703,4.94892 9.05017,11.42842 11.19339,17.42188 1.24166,3.47154 1.45496,6.05847 1.92915,23.39333 0.29307,10.71957 0.5927,56.20759 0.66534,101.08446 0.0713,44.87683 0.3135,87.83777 0.53527,95.46869 l 0.40291,13.87434 3.96408,2.10436 c 2.18022,1.15749 4.40997,2.77554 4.95526,3.5954 0.85475,1.28592 1.01775,8.41992 1.18674,51.89242 0.1368,35.3316 -0.0193,50.80228 -0.52121,51.74158 -0.39443,0.73696 -2.76425,2.3709 -5.26663,3.63086 l -4.54927,2.29116 -0.3557,3.4852 c -0.19557,1.9168 -0.53238,5.4177 -0.74818,7.7798 -1.27616,13.9576 -6.59172,24.2848 -17.48877,33.9793 -6.88325,6.1233 -9.5681,7.0021 -25.77243,8.4339 -8.78582,0.7763 -475.41652,1.2499 -548.69709,0.5569 z m 102.17295,-12.1564 c 9.32243,-2.1942 15.74844,-9.1867 17.73867,-19.3016 1.92954,-9.8076 -3.6949,-20.8923 -12.89826,-25.42119 -2.82204,-1.38874 -4.219,-1.61716 -9.89297,-1.61716 -7.62661,0 -10.21629,0.74031 -14.90063,4.26005 -12.34814,9.2782 -13.07264,26.4474 -1.55977,36.9694 5.8362,5.3341 13.16589,7.0753 21.51296,5.1105 z m 332.67011,-0.9561 c 4.42576,-2.2843 10.52323,-8.3749 12.57629,-12.5627 1.54937,-3.1602 1.83762,-4.5835 1.83049,-9.0366 0,-4.522 -0.30348,-5.9116 -2.05132,-9.6206 -2.41741,-5.1304 -7.38903,-10.37204 -11.92038,-12.56795 -2.42917,-1.17726 -4.63675,-1.6103 -9.24228,-1.81261 -5.43504,-0.23902 -6.43256,-0.0917 -9.80376,1.45206 -2.4016,1.09963 -5.35314,3.3275 -8.19715,6.1875 -3.87989,3.902 -4.64022,5.0854 -5.99016,9.3213 -1.42412,4.4685 -1.4829,5.1962 -0.74357,9.2082 1.96191,10.6469 7.88771,17.7008 17.09338,20.3472 4.61131,1.3256 13.01136,0.858 16.44846,-0.9158 z m -252.9797,-9.6194 c 5.82154,-2.122 10.16773,-6.8814 12.35488,-13.5302 1.6725,-5.0834 1.19908,-15.1452 -0.90272,-19.1876 -2.04804,-3.93938 -7.34376,-9.09675 -11.14234,-10.85133 -2.61741,-1.20881 -4.31496,-1.44482 -10.39549,-1.44482 -6.69537,0 -7.54627,0.14643 -10.80609,1.86341 -9.78198,5.15136 -14.9831,16.23714 -12.4445,26.52434 1.86885,7.5723 7.00156,13.8177 13.67074,16.6336 5.14042,2.1705 13.69886,2.1674 19.66552,0 z m 174.1057,1.2424 c 7.0426,-1.8345 12.4495,-6.697 16.49817,-14.8377 3.05462,-6.1414 2.94806,-10.0304 -0.46417,-16.9402 -3.06984,-6.21622 -8.59833,-12.09909 -12.59151,-13.3984 -1.45341,-0.4729 -5.68244,-1.02238 -9.39777,-1.221 -6.36088,-0.34007 -6.96572,-0.25806 -10.3662,1.40569 -4.20418,2.05689 -9.85559,7.89302 -11.89072,12.27921 -1.1297,2.4346 -1.375,4.2297 -1.35457,9.9103 0.0212,5.9779 0.2478,7.3938 1.63608,10.2406 3.00857,6.1693 8.98832,10.8316 16.17755,12.613 4.50919,1.1174 7.31235,1.1051 11.75314,-0.051 z M 375.87624,809.09694 c 12.04525,-1.87823 30.63558,-15.52379 36.42785,-26.73866 11.34928,-21.97305 8.3937,-47.80329 -7.40137,-64.68836 -11.08741,-11.85264 -21.98157,-16.75716 -39.81601,-17.92558 -8.35458,-0.54732 -13.23873,0.29441 -20.84031,3.59136 -14.95958,6.48834 -24.31034,15.09791 -30.57315,28.15002 -4.19878,8.75076 -5.40497,14.84508 -5.02751,25.40342 0.27342,7.65226 0.61158,9.84235 2.32935,15.08332 2.54189,7.75546 6.35145,14.18145 11.88456,20.04719 7.42584,7.87152 21.06999,15.86758 29.07812,17.04094 5.44929,0.79835 18.9206,0.81882 23.93847,0.037 z m 322.74361,0 c 11.71133,-1.66499 27.01775,-12.3907 35.15903,-24.63711 9.63323,-14.49049 11.45718,-34.20147 4.67644,-50.53783 -5.1171,-12.3277 -14.61315,-21.99348 -28.67021,-29.18231 -7.05185,-3.60635 -12.43216,-4.68015 -23.63692,-4.71739 -9.64922,-0.0324 -14.04319,0.6073 -18.58051,2.70358 -1.45341,0.6715 -4.29068,1.98403 -6.305,2.91664 -4.8144,2.22916 -12.7416,9.08358 -17.87086,15.45206 -7.81814,9.70706 -11.83136,20.86891 -11.83136,32.90595 0,16.47929 5.43908,29.68369 16.59836,40.2967 7.73202,7.35329 18.56164,13.56512 25.68535,14.73319 5.01845,0.8227 19.18881,0.8608 24.77568,0.0671 z M 594.17226,767.84665 c 2.78274,-3.64815 3.12669,-7.58313 2.90568,-33.24316 -0.17919,-20.72952 -0.3399,-23.84444 -1.32836,-25.6491 -2.21818,-4.05039 0.62468,-3.89208 -69.89841,-3.89208 -35.42898,0 -65.54469,0.23897 -66.92373,0.53105 -1.84689,0.39112 -2.69662,1.00048 -3.22457,2.31239 -0.96457,2.39724 -1.49658,30.35077 -0.88712,46.61073 0.46302,12.34271 0.56071,13.05341 1.90179,13.82195 1.36632,0.78301 28.9365,1.19275 112.16477,1.66708 l 23.54116,0.13411 1.74879,-2.29309 z"
         id="path3145"
         style="fill:#ffffff"
         inkscape:connector-curvature="0" />
    </g>
    <text
       xml:space="preserve"
       style="color:#000000;font-style:normal;font-variant:normal;font-weight:normal;font-stretch:normal;font-size:24px;line-height:1000%;font-family:Helvetica;-inkscape-font-specification:Helvetica;text-indent:0;text-align:start;text-decoration:none;text-decoration-line:none;text-decoration-style:solid;text-decoration-color:#000000;letter-spacing:0px;word-spacing:0px;text-transform:none;direction:ltr;block-progression:tb;writing-mode:lr-tb;baseline-shift:baseline;text-anchor:start;white-space:normal;clip-rule:nonzero;display:inline;overflow:visible;visibility:visible;opacity:1;isolation:auto;mix-blend-mode:normal;color-interpolation:sRGB;color-interpolation-filters:linearRGB;solid-color:#000000;solid-opacity:1;fill:#000000;fill-opacity:1;fill-rule:nonzero;stroke:none;stroke-width:1px;stroke-linecap:butt;stroke-linejoin:miter;stroke-miterlimit:4;stroke-dasharray:none;stroke-dashoffset:0;stroke-opacity:1;marker:none;color-rendering:auto;image-rendering:auto;shape-rendering:auto;text-rendering:auto;enable-background:accumulate"
       x="6.8456535"
       y="1015.3741"
       id="text8157"
       sodipodi:linespacing="1000%"><tspan
         sodipodi:role="line"
         id="tspan8159"
         x="6.8456535"
         y="1015.3741"
         style="font-style:normal;font-variant:normal;font-weight:bold;font-stretch:normal;font-size:132px;font-family:'Gehen Sans';-inkscape-font-specification:'Gehen Sans Bold';fill:#ffffff">UQ Pirates</tspan></text>
  </g>
</svg>
